<svg xmlns="http://www.w3.org/2000/svg" viewBox="0 0 311.6 46.96"><defs><style>.cls-1{fill:#152d53;fill-rule:evenodd;}</style></defs><title>Asset 3</title><g id="Layer_2" data-name="Layer 2"><g id="Layer_1-2" data-name="Layer 1"><path class="cls-1" d="M19.68,14.33c-.05.1-.29.22-.36.06-.59,1-1.23,2-1.83,3-.2.34-.41.68-.58,1,0,0,0,0-.08,0,.13.16.36.34.35.58,0,.07-.07.12-.08.18s0,.18,0,.26-.15.25-.21.39-.12.4-.28.5c0,.21-.13.27-.21.42s-.06.2-.12.25a1.31,1.31,0,0,1-.47.15c-.14,0-.29-.08-.46,0a1.7,1.7,0,0,0-.28.39,1.1,1.1,0,0,0-.21.46c0,.1.11.23.17.36a4.31,4.31,0,0,1,.26.79c0,.15,0,.29.05.44s.22.64.06.9c-.11,0-.18-.08-.32-.06a5.44,5.44,0,0,0,.22.83c.09.18.28.27.38.43a3.19,3.19,0,0,1,.11.3,5.35,5.35,0,0,0,.36.5c.17.14.51.19.51.46,0,.11-.09.21-.08.35a1.42,1.42,0,0,0,.18.42c.15.29.3.47.46.73a1.87,1.87,0,0,0,.24.36c.07.06.16.08.21.12a2,2,0,0,1,.32,1,6.78,6.78,0,0,1,.14,1.16c0,.26-.07.55-.08.85,0,.12,0,.25,0,.37-.06.62-.51.9-.72,1.37a5.63,5.63,0,0,1,.25,2.12,2.79,2.79,0,0,1,0,.85c0,.08-.1.16-.11.25a2.16,2.16,0,0,0,0,.44c0,.39.42.56.37.93,0,.12-.12.22-.17.35.11.14.32.13.48.15.54.09,1.15,0,1.44.36.06.07.08.18.15.25s.12,0,.15.1a.89.89,0,0,1,.06.55.79.79,0,0,1-.12.28,1.38,1.38,0,0,1-.87.43c-.08,0-.16,0-.21,0s-.1.06-.18.07a1.08,1.08,0,0,1-.61-.06c-.25.09-.45-.07-.64-.11s-.12,0-.18,0-.24-.16-.39-.22a3.43,3.43,0,0,0-.54-.11,2.48,2.48,0,0,0-.57-.07c-.07.06-.08.19-.14.26a.68.68,0,0,1-.37-.06.62.62,0,0,1-.48,0c-.28.1-.45-.11-.72-.11a.91.91,0,0,1-.42-.87,1.08,1.08,0,0,0,0-.31c0-.17-.19-.27-.25-.43a2.73,2.73,0,0,1,0-.94,2.63,2.63,0,0,0-.1-.55c-.05-.3-.05-.58-.1-.86s-.16-.48-.21-.72-.11-.53-.14-.78a4.32,4.32,0,0,0-.07-1c-.06-.15-.22-.28-.31-.46-.21-.44-.13-1-.35-1.34-.09-.17-.24-.3-.35-.46s-.2-.33-.29-.5a3.21,3.21,0,0,0-.65-.94,9.16,9.16,0,0,0-.61,1.62c-.07.18-.16.34-.21.51s-.07.39-.12.58a8.24,8.24,0,0,1-.33.83c-.06.13-.12.27-.18.4s-.15.25-.19.37a.92.92,0,0,1-.19.4,2.37,2.37,0,0,1-.35.94c-.12.21-.18.44-.29.61s-.18.22-.26.33a3.94,3.94,0,0,1-.87.9l-.33.21-.3.22c-.22.33-.29.71-.49,1s-.38.41-.51.65-.16.37-.25.54-.24.29-.32.46,0,.32-.1.46-.31.4-.42.61a2.23,2.23,0,0,0-.11.6c0,.14-.06.32-.08.5a2.58,2.58,0,0,1,0,.55c-.06.15-.3.11-.4.25-.06.58.73.41.87.83a1.4,1.4,0,0,1,.64.61,1.28,1.28,0,0,1,.24.43c0,.09,0,.15,0,.21s.09.13.08.28a1.1,1.1,0,0,1-.24.54,1.68,1.68,0,0,1-1,.28,2.08,2.08,0,0,0-.29,0c-.06,0-.11.08-.19.1a.75.75,0,0,1-.42-.1.47.47,0,0,1-.6-.12c-.14,0-.42,0-.44-.21,0,0-.1,0-.14,0l-.13-.11s-.06-.1-.1-.14-.09,0-.13-.07a3.5,3.5,0,0,1-.19-.32,2.77,2.77,0,0,0-.61-.71c-.1.16-.35,0-.46-.1a1.62,1.62,0,0,1-.44-.55,1.51,1.51,0,0,1-.15-.35c0-.11.07-.19.1-.28s0-.26.07-.4a2.48,2.48,0,0,0,.1-.36c0-.08-.15-.18-.19-.25A1.34,1.34,0,0,1,0,42.49c0-.33.11-.6.1-.92,0-.11-.07-.2-.07-.32a3.31,3.31,0,0,1,.07-.49,2,2,0,0,0,.07-.22,1.4,1.4,0,0,0,0-.18,2.42,2.42,0,0,1,.29-1.15c.06-.15.13-.34.21-.51a1.41,1.41,0,0,0,.19-.53c0-.05,0-.12,0-.18a1.75,1.75,0,0,1,.06-.25c0-.25.14-.39.19-.61a2.46,2.46,0,0,1,.06-.3,2.53,2.53,0,0,1,.26-.4,4.65,4.65,0,0,0,.53-.8c.07-.15.18-.29.24-.43s.05-.46.14-.67.13-.18.15-.26a6,6,0,0,0,0-.61c0-.22.19-.37.28-.57a1.81,1.81,0,0,0,.08-.43c.05-.28.27-.49.35-.78-.12,0-.21-.12-.32-.18s-.42-.2-.5-.36a1.59,1.59,0,0,1-.11-.43,2.86,2.86,0,0,1,0-.64,4.91,4.91,0,0,1,.31-.73c0-.09.08-.18.1-.25s0-.26.06-.35A3.89,3.89,0,0,1,3,28.56c.21-.35.29-.71.58-.91l-.26-.25c.09-.28.4-.34.57-.54-.11-.5.38-.67.49-1,0-.06,0-.14,0-.21s.13-.19.15-.29,0-.34,0-.51.05-.25.06-.35S4.5,24,4.5,23.75a2,2,0,0,1,.1-.58,1.46,1.46,0,0,0,.12-.55c0-.14-.22-.3-.32-.43a1.83,1.83,0,0,1-.31-.43c0-.23.11-.47,0-.72,0-.06-.13,0-.15-.11a1.26,1.26,0,0,1,0-.21c-.18,0-.33,0-.43-.11A2.25,2.25,0,0,1,3.32,20a.7.7,0,0,1,.1-.51.44.44,0,0,0,.39-.06.35.35,0,0,0,.29,0c.17-.17-.05-.49.07-.72a1.43,1.43,0,0,1-.54-1.4c.08-1.07.46-2.13.54-3.15-.08,0-.11.14-.19.17s-.1-.12-.18-.1a1.89,1.89,0,0,0,.07-.73c0-.2-.13-.31-.08-.5a1.78,1.78,0,0,1,.3-.5l.19-.21c.06-.07.16-.14.19-.21a1.35,1.35,0,0,0,0-.33c0-.31.12-.66.18-.93a1.6,1.6,0,0,1,.5-1,1.72,1.72,0,0,1,1.19-.33c.08,0,.15.06.25.06s.28-.26.39-.39A2.52,2.52,0,0,0,7.2,9c.06-.09.07-.19.12-.26a1.7,1.7,0,0,1,1.08-.43.4.4,0,0,0,.12-.14c0-.17-.31-.29-.32-.46s.16-.26.25-.35a2.46,2.46,0,0,1,.69-.5,1.47,1.47,0,0,0,.4-.19c.12-.13.09-.34.19-.46s-.14-.26-.17-.4a.75.75,0,0,1,.31-.68c0-.11-.16-.1-.14-.25s.15,0,.19,0a1.12,1.12,0,0,0,0-.4c-.6-.15-1.73-.18-2-.72s.43-.65.94-.6a1.15,1.15,0,0,1,.19-.47c0-.07.13-.12.17-.19s0-.21.14-.29a1.46,1.46,0,0,1,0-.26,1.2,1.2,0,0,1,.46-.65.56.56,0,0,1,.61,0,2.94,2.94,0,0,1,2-1.08c.23,0,.49-.09.64,0a2.09,2.09,0,0,1,1-.28c.29,0,.57.07.54.39.22.26.41.56.65.8a5.7,5.7,0,0,1,.55.31,2.36,2.36,0,0,1,.85,1.41,10,10,0,0,0,.49,1.22c.06.13.15.27.11.42a6.52,6.52,0,0,0-.86-.11c-.11.06-.05.17-.14.25s-.89.12-1.21.1c0,.16.11.25.15.37a1.74,1.74,0,0,1,.07.54,7.63,7.63,0,0,1-.31,2c.07,0,.17,0,.22.06,0,.38-.22.75-.11,1.14.14.11.38.13.53.24a.31.31,0,0,1-.42.43c-.05.05-.09.11-.18.12a.69.69,0,0,1-.19.42,3.58,3.58,0,0,0,.17.47,3.77,3.77,0,0,1,.44.08c.12.24.27.44.37.69-.06.13.06.23.08.35a5.39,5.39,0,0,1,1.22,1.25c.15,0,.21-.12.33-.14s.29.08.46,0,.13-.14.19-.21.24-.14.33-.24.29-.49.48-.69.23-.16.31-.29c-.5-.3-1.2-.4-1.7-.69.13-.18.41-.19.69-.22a5.5,5.5,0,0,1,2.15.11,9.26,9.26,0,0,1,1.05.4,4.53,4.53,0,0,0,1.11.35,8.25,8.25,0,0,1,1.16.28A1.29,1.29,0,0,1,22.8,13a12.61,12.61,0,0,0-1.61-.67.79.79,0,0,1-.32.71.89.89,0,0,1-.12.42s0,0,0,0-.08.09-.14.11a.49.49,0,0,1-.24.29c0,.23,0,.52-.24.55S19.82,14.36,19.68,14.33Zm-2.31,1.44c-.07,0-.13.13-.21.18l-.35.22a2.76,2.76,0,0,1-.33.25,1.94,1.94,0,0,0-.33.1c-.11.07-.19.23-.28.25s-.24,0-.33.06a3.27,3.27,0,0,0,.14,1.22,2.45,2.45,0,0,1,.37,0c.5-.79,1.07-1.58,1.51-2.38C17.51,15.75,17.44,15.74,17.37,15.78Zm-3.29,5.37s-.06.14,0,.17c.17-.22.27-.53.44-.75-.12-.07-.27-.11-.37-.19C14.13,20.62,14.1,20.91,14.08,21.14Z"/><path class="cls-1" d="M45.86,14.33c-.05.1-.29.22-.36.06-.59,1-1.23,2-1.83,3-.2.34-.41.68-.58,1,0,0,0,0-.08,0,.13.16.36.34.35.58,0,.07-.07.12-.08.18s0,.18,0,.26-.15.25-.21.39-.12.4-.28.5c0,.21-.13.27-.21.42s-.06.2-.12.25a1.31,1.31,0,0,1-.47.15c-.14,0-.29-.08-.46,0a1.7,1.7,0,0,0-.28.39A1.1,1.1,0,0,0,41,22c0,.1.11.23.17.36a4.31,4.31,0,0,1,.26.79c0,.15,0,.29.05.44s.22.64.06.9c-.11,0-.18-.08-.32-.06a5.44,5.44,0,0,0,.22.83c.09.18.28.27.38.43a3.19,3.19,0,0,1,.11.3,5.35,5.35,0,0,0,.36.5c.17.14.51.19.51.46,0,.11-.09.21-.08.35a1.42,1.42,0,0,0,.18.42c.15.29.3.47.46.73a1.87,1.87,0,0,0,.24.36c.07.06.16.08.21.12a2,2,0,0,1,.32,1,6.78,6.78,0,0,1,.14,1.16c0,.26-.07.55-.08.85,0,.12,0,.25,0,.37-.06.62-.51.9-.72,1.37a5.63,5.63,0,0,1,.25,2.12,2.79,2.79,0,0,1,0,.85c0,.08-.1.16-.11.25a2.16,2.16,0,0,0,0,.44c0,.39.42.56.37.93,0,.12-.12.22-.17.35.11.14.32.13.48.15.54.09,1.15,0,1.44.36.06.07.08.18.15.25s.12,0,.15.1a.89.89,0,0,1,.06.55.79.79,0,0,1-.12.28,1.38,1.38,0,0,1-.87.43c-.08,0-.16,0-.21,0s-.1.06-.18.07a1.08,1.08,0,0,1-.61-.06c-.25.09-.45-.07-.64-.11s-.12,0-.18,0-.24-.16-.39-.22a3.43,3.43,0,0,0-.54-.11,2.48,2.48,0,0,0-.57-.07c-.07.06-.08.19-.14.26a.68.68,0,0,1-.37-.06.62.62,0,0,1-.48,0c-.28.1-.45-.11-.72-.11a.91.91,0,0,1-.42-.87,1.08,1.08,0,0,0,0-.31c0-.17-.19-.27-.25-.43a2.73,2.73,0,0,1,0-.94,2.63,2.63,0,0,0-.1-.55c-.05-.3-.05-.58-.1-.86s-.16-.48-.21-.72-.11-.53-.14-.78a4.32,4.32,0,0,0-.07-1c-.06-.15-.22-.28-.31-.46-.21-.44-.13-1-.35-1.34-.09-.17-.24-.3-.35-.46s-.2-.33-.29-.5a3.21,3.21,0,0,0-.65-.94,9.16,9.16,0,0,0-.61,1.62c-.07.18-.16.34-.21.51s-.07.39-.12.58a8.24,8.24,0,0,1-.33.83c-.06.13-.12.27-.18.4s-.15.25-.19.37a.92.92,0,0,1-.19.4,2.37,2.37,0,0,1-.35.94c-.12.21-.18.44-.29.61s-.18.22-.26.33a3.94,3.94,0,0,1-.87.9l-.33.21-.3.22c-.22.33-.29.71-.49,1s-.38.41-.51.65-.16.37-.25.54-.24.29-.32.46,0,.32-.1.46-.31.4-.42.61a2.23,2.23,0,0,0-.11.6c0,.14-.06.32-.08.5a2.58,2.58,0,0,1,0,.55c-.06.15-.3.11-.4.25-.06.58.73.41.87.83a1.4,1.4,0,0,1,.64.61,1.28,1.28,0,0,1,.24.43c0,.09,0,.15,0,.21s.09.13.08.28a1.1,1.1,0,0,1-.24.54,1.68,1.68,0,0,1-1,.28,2.08,2.08,0,0,0-.29,0c-.06,0-.11.08-.19.1a.75.75,0,0,1-.42-.1.47.47,0,0,1-.6-.12c-.14,0-.42,0-.44-.21,0,0-.1,0-.14,0l-.13-.11s-.06-.1-.1-.14-.09,0-.13-.07a3.5,3.5,0,0,1-.19-.32,2.77,2.77,0,0,0-.61-.71c-.1.16-.35,0-.46-.1a1.62,1.62,0,0,1-.44-.55,1.51,1.51,0,0,1-.15-.35c0-.11.07-.19.1-.28s0-.26.07-.4a2.48,2.48,0,0,0,.1-.36c0-.08-.15-.18-.19-.25a1.34,1.34,0,0,1-.15-.39c0-.33.11-.6.1-.92,0-.11-.07-.2-.07-.32a3.31,3.31,0,0,1,.07-.49,2,2,0,0,0,.07-.22,1.4,1.4,0,0,0,0-.18,2.42,2.42,0,0,1,.29-1.15c.06-.15.13-.34.21-.51a1.41,1.41,0,0,0,.19-.53c0-.05,0-.12,0-.18a1.75,1.75,0,0,1,.06-.25c0-.25.14-.39.19-.61a2.46,2.46,0,0,1,.06-.3,2.53,2.53,0,0,1,.26-.4,4.65,4.65,0,0,0,.53-.8c.07-.15.18-.29.24-.43s.05-.46.14-.67.13-.18.15-.26a6,6,0,0,0,0-.61c0-.22.19-.37.28-.57a1.81,1.81,0,0,0,.08-.43c.05-.28.27-.49.35-.78-.12,0-.21-.12-.32-.18s-.42-.2-.5-.36a1.59,1.59,0,0,1-.11-.43,2.86,2.86,0,0,1,0-.64,4.91,4.91,0,0,1,.31-.73c0-.09.08-.18.1-.25s0-.26.06-.35a3.89,3.89,0,0,1,.29-.39c.21-.35.29-.71.58-.91l-.26-.25c.09-.28.4-.34.57-.54-.11-.5.38-.67.49-1,0-.06,0-.14,0-.21s.13-.19.15-.29,0-.34,0-.51.05-.25.06-.35-.11-.46-.11-.71a2,2,0,0,1,.1-.58,1.46,1.46,0,0,0,.12-.55c0-.14-.22-.3-.32-.43a1.83,1.83,0,0,1-.31-.43c0-.23.11-.47,0-.72,0-.06-.13,0-.15-.11a1.26,1.26,0,0,1,0-.21c-.18,0-.33,0-.43-.11A2.25,2.25,0,0,1,29.5,20a.7.7,0,0,1,.1-.51.44.44,0,0,0,.39-.06.35.35,0,0,0,.29,0c.17-.17-.05-.49.07-.72a1.43,1.43,0,0,1-.54-1.4c.08-1.07.46-2.13.54-3.15-.08,0-.11.14-.19.17s-.1-.12-.18-.1a1.89,1.89,0,0,0,.07-.73c0-.2-.13-.31-.08-.5a1.78,1.78,0,0,1,.3-.5l.19-.21c.06-.07.16-.14.19-.21a1.35,1.35,0,0,0,0-.33c0-.31.12-.66.18-.93a1.6,1.6,0,0,1,.5-1,1.72,1.72,0,0,1,1.19-.33c.08,0,.15.06.25.06s.28-.26.39-.39A2.52,2.52,0,0,0,33.38,9c.06-.09.07-.19.12-.26a1.7,1.7,0,0,1,1.08-.43.4.4,0,0,0,.12-.14c0-.17-.31-.29-.32-.46s.16-.26.25-.35a2.46,2.46,0,0,1,.69-.5,1.47,1.47,0,0,0,.4-.19c.12-.13.09-.34.19-.46s-.14-.26-.17-.4a.75.75,0,0,1,.31-.68c0-.11-.16-.1-.14-.25s.15,0,.19,0a1.12,1.12,0,0,0,0-.4c-.6-.15-1.73-.18-2-.72s.43-.65.94-.6a1.15,1.15,0,0,1,.19-.47c0-.07.13-.12.17-.19s0-.21.14-.29a1.46,1.46,0,0,1,0-.26A1.2,1.2,0,0,1,36,1.32a.56.56,0,0,1,.61,0,2.94,2.94,0,0,1,2-1.08c.23,0,.49-.09.64,0a2.09,2.09,0,0,1,1-.28c.29,0,.57.07.54.39.22.26.41.56.65.8A5.7,5.7,0,0,1,42,1.5a2.36,2.36,0,0,1,.85,1.41,10,10,0,0,0,.49,1.22c.06.13.15.27.11.42a6.52,6.52,0,0,0-.86-.11c-.11.06-.05.17-.14.25s-.89.12-1.21.1c0,.16.11.25.15.37a1.74,1.74,0,0,1,.07.54,7.63,7.63,0,0,1-.31,2c.07,0,.17,0,.22.06,0,.38-.22.75-.11,1.14.14.11.38.13.53.24a.31.31,0,0,1-.42.43c-.05.05-.09.11-.18.12a.69.69,0,0,1-.19.42,3.58,3.58,0,0,0,.17.47,3.77,3.77,0,0,1,.44.08c.12.24.27.44.37.69-.06.13.06.23.08.35a5.39,5.39,0,0,1,1.22,1.25c.15,0,.21-.12.33-.14s.29.08.46,0,.13-.14.19-.21.24-.14.33-.24.29-.49.48-.69.23-.16.31-.29c-.5-.3-1.2-.4-1.7-.69.13-.18.41-.19.69-.22a5.5,5.5,0,0,1,2.15.11,9.26,9.26,0,0,1,1.05.4,4.53,4.53,0,0,0,1.11.35,8.25,8.25,0,0,1,1.16.28A1.29,1.29,0,0,1,49,13a12.61,12.61,0,0,0-1.61-.67.79.79,0,0,1-.32.71.89.89,0,0,1-.12.42s0,0,0,0-.08.09-.14.11a.49.49,0,0,1-.24.29c0,.23,0,.52-.24.55S46,14.36,45.86,14.33Zm-2.31,1.44c-.07,0-.13.13-.21.18l-.35.22a2.76,2.76,0,0,1-.33.25,1.94,1.94,0,0,0-.33.1c-.11.07-.19.23-.28.25s-.24,0-.33.06a3.27,3.27,0,0,0,.14,1.22,2.45,2.45,0,0,1,.37,0c.5-.79,1.07-1.58,1.51-2.38C43.68,15.75,43.61,15.74,43.54,15.78Zm-3.29,5.37s-.06.14,0,.17c.17-.22.27-.53.44-.75-.12-.07-.27-.11-.37-.19C40.3,20.62,40.28,20.91,40.26,21.14Z"/><path class="cls-1" d="M72,14.33c-.05.1-.29.22-.36.06-.59,1-1.23,2-1.83,3-.2.34-.41.68-.58,1,0,0,0,0-.08,0,.13.16.36.34.35.58,0,.07-.07.12-.08.18s0,.18,0,.26-.15.25-.21.39-.12.4-.28.5c0,.21-.13.27-.21.42s-.06.2-.12.25a1.31,1.31,0,0,1-.47.15c-.14,0-.29-.08-.46,0a1.7,1.7,0,0,0-.28.39,1.1,1.1,0,0,0-.21.46c0,.1.11.23.17.36a4.31,4.31,0,0,1,.26.79c0,.15,0,.29.05.44s.22.64.06.9c-.11,0-.18-.08-.32-.06a5.44,5.44,0,0,0,.22.83c.09.18.28.27.38.43a3.19,3.19,0,0,1,.11.3,5.35,5.35,0,0,0,.36.5c.17.14.51.19.51.46,0,.11-.09.21-.08.35a1.42,1.42,0,0,0,.18.42c.15.29.3.47.46.73a1.87,1.87,0,0,0,.24.36c.07.06.16.08.21.12a2,2,0,0,1,.32,1,6.78,6.78,0,0,1,.14,1.16c0,.26-.07.55-.08.85,0,.12,0,.25,0,.37-.06.62-.51.9-.72,1.37a5.63,5.63,0,0,1,.25,2.12,2.79,2.79,0,0,1,0,.85c0,.08-.1.16-.11.25a2.16,2.16,0,0,0,0,.44c0,.39.42.56.37.93,0,.12-.12.22-.17.35.11.14.32.13.48.15.54.09,1.15,0,1.44.36.06.07.08.18.15.25s.12,0,.15.1a.89.89,0,0,1,.06.55.79.79,0,0,1-.12.28,1.38,1.38,0,0,1-.87.43c-.08,0-.16,0-.21,0s-.1.06-.18.07a1.08,1.08,0,0,1-.61-.06c-.25.09-.45-.07-.64-.11s-.12,0-.18,0-.24-.16-.39-.22a3.43,3.43,0,0,0-.54-.11,2.48,2.48,0,0,0-.57-.07c-.07.06-.08.19-.14.26a.68.68,0,0,1-.37-.06.62.62,0,0,1-.48,0c-.28.1-.45-.11-.72-.11a.91.91,0,0,1-.42-.87,1.08,1.08,0,0,0,0-.31c0-.17-.19-.27-.25-.43a2.73,2.73,0,0,1,0-.94,2.63,2.63,0,0,0-.1-.55c-.05-.3-.05-.58-.1-.86s-.16-.48-.21-.72-.11-.53-.14-.78a4.32,4.32,0,0,0-.07-1c-.06-.15-.22-.28-.31-.46-.21-.44-.13-1-.35-1.34-.09-.17-.24-.3-.35-.46s-.2-.33-.29-.5a3.21,3.21,0,0,0-.65-.94,9.16,9.16,0,0,0-.61,1.62c-.07.18-.16.34-.21.51s-.07.39-.12.58a8.24,8.24,0,0,1-.33.83c-.06.13-.12.27-.18.4s-.15.25-.19.37a.92.92,0,0,1-.19.4,2.37,2.37,0,0,1-.35.94c-.12.21-.18.44-.29.61s-.18.22-.26.33a3.94,3.94,0,0,1-.87.9l-.33.21-.3.22c-.22.33-.29.71-.49,1s-.38.41-.51.65-.16.37-.25.54-.24.29-.32.46,0,.32-.1.46-.31.4-.42.61a2.23,2.23,0,0,0-.11.6c0,.14-.06.32-.08.5a2.58,2.58,0,0,1,0,.55c-.06.15-.3.11-.4.25-.06.58.73.41.87.83a1.4,1.4,0,0,1,.64.61,1.28,1.28,0,0,1,.24.43c0,.09,0,.15,0,.21s.09.13.08.28a1.1,1.1,0,0,1-.24.54,1.68,1.68,0,0,1-1,.28,2.08,2.08,0,0,0-.29,0c-.06,0-.11.08-.19.1a.75.75,0,0,1-.42-.1.47.47,0,0,1-.6-.12c-.14,0-.42,0-.44-.21,0,0-.1,0-.14,0l-.13-.11s-.06-.1-.1-.14-.09,0-.13-.07a3.5,3.5,0,0,1-.19-.32,2.77,2.77,0,0,0-.61-.71c-.1.16-.35,0-.46-.1a1.62,1.62,0,0,1-.44-.55,1.51,1.51,0,0,1-.15-.35c0-.11.07-.19.1-.28s0-.26.07-.4a2.48,2.48,0,0,0,.1-.36c0-.08-.15-.18-.19-.25a1.34,1.34,0,0,1-.15-.39c0-.33.11-.6.1-.92,0-.11-.07-.2-.07-.32a3.31,3.31,0,0,1,.07-.49,2,2,0,0,0,.07-.22,1.4,1.4,0,0,0,0-.18,2.42,2.42,0,0,1,.29-1.15c.06-.15.13-.34.21-.51a1.41,1.41,0,0,0,.19-.53c0-.05,0-.12,0-.18a1.75,1.75,0,0,1,.06-.25c0-.25.14-.39.19-.61a2.46,2.46,0,0,1,.06-.3,2.53,2.53,0,0,1,.26-.4,4.65,4.65,0,0,0,.53-.8c.07-.15.18-.29.24-.43s.05-.46.14-.67.13-.18.15-.26a6,6,0,0,0,0-.61c0-.22.19-.37.28-.57a1.81,1.81,0,0,0,.08-.43c.05-.28.27-.49.35-.78-.12,0-.21-.12-.32-.18s-.42-.2-.5-.36a1.59,1.59,0,0,1-.11-.43,2.86,2.86,0,0,1,0-.64,4.91,4.91,0,0,1,.31-.73c0-.09.08-.18.1-.25s0-.26.06-.35a3.89,3.89,0,0,1,.29-.39c.21-.35.29-.71.58-.91l-.26-.25c.09-.28.4-.34.57-.54-.11-.5.38-.67.49-1,0-.06,0-.14,0-.21s.13-.19.15-.29,0-.34,0-.51.05-.25.06-.35-.11-.46-.11-.71a2,2,0,0,1,.1-.58,1.46,1.46,0,0,0,.12-.55c0-.14-.22-.3-.32-.43a1.83,1.83,0,0,1-.31-.43c0-.23.11-.47,0-.72,0-.06-.13,0-.15-.11a1.26,1.26,0,0,1,0-.21c-.18,0-.33,0-.43-.11a2.25,2.25,0,0,1-.22-.57.7.7,0,0,1,.1-.51.44.44,0,0,0,.39-.06.35.35,0,0,0,.29,0c.17-.17-.05-.49.07-.72a1.43,1.43,0,0,1-.54-1.4c.08-1.07.46-2.13.54-3.15-.08,0-.11.14-.19.17s-.1-.12-.18-.1a1.89,1.89,0,0,0,.07-.73c0-.2-.13-.31-.08-.5a1.78,1.78,0,0,1,.3-.5l.19-.21c.06-.07.16-.14.19-.21a1.35,1.35,0,0,0,0-.33c0-.31.12-.66.18-.93a1.6,1.6,0,0,1,.5-1,1.72,1.72,0,0,1,1.19-.33c.08,0,.15.06.25.06s.28-.26.39-.39A2.52,2.52,0,0,0,59.55,9c.06-.09.07-.19.12-.26a1.7,1.7,0,0,1,1.08-.43.4.4,0,0,0,.12-.14c0-.17-.31-.29-.32-.46s.16-.26.25-.35a2.46,2.46,0,0,1,.69-.5,1.47,1.47,0,0,0,.4-.19c.12-.13.09-.34.19-.46S62,6,61.94,5.82a.75.75,0,0,1,.31-.68c0-.11-.16-.1-.14-.25s.15,0,.19,0a1.12,1.12,0,0,0,0-.4c-.6-.15-1.73-.18-2-.72s.43-.65.94-.6a1.15,1.15,0,0,1,.19-.47c0-.07.13-.12.17-.19s0-.21.14-.29a1.46,1.46,0,0,1,0-.26,1.2,1.2,0,0,1,.46-.65.56.56,0,0,1,.61,0,2.94,2.94,0,0,1,2-1.08c.23,0,.49-.09.64,0a2.09,2.09,0,0,1,1-.28c.29,0,.57.07.54.39.22.26.41.56.65.8a5.7,5.7,0,0,1,.55.31A2.36,2.36,0,0,1,69,2.91a10,10,0,0,0,.49,1.22c.06.13.15.27.11.42a6.52,6.52,0,0,0-.86-.11c-.11.06-.05.17-.14.25s-.89.12-1.21.1c0,.16.11.25.15.37a1.74,1.74,0,0,1,.07.54,7.63,7.63,0,0,1-.31,2c.07,0,.17,0,.22.06,0,.38-.22.75-.11,1.14.14.11.38.13.53.24a.31.31,0,0,1-.42.43c-.05.05-.09.11-.18.12a.69.69,0,0,1-.19.42,3.58,3.58,0,0,0,.17.47,3.77,3.77,0,0,1,.44.08c.12.24.27.44.37.69-.06.13.06.23.08.35a5.39,5.39,0,0,1,1.22,1.25c.15,0,.21-.12.33-.14s.29.08.46,0,.13-.14.19-.21.24-.14.33-.24.29-.49.48-.69.23-.16.31-.29c-.5-.3-1.2-.4-1.7-.69.13-.18.41-.19.69-.22a5.5,5.5,0,0,1,2.15.11,9.26,9.26,0,0,1,1.05.4,4.53,4.53,0,0,0,1.11.35,8.25,8.25,0,0,1,1.16.28A1.29,1.29,0,0,1,75.15,13a12.61,12.61,0,0,0-1.61-.67.79.79,0,0,1-.32.71.89.89,0,0,1-.12.42s0,0,0,0-.08.09-.14.11a.49.49,0,0,1-.24.29c0,.23,0,.52-.24.55S72.17,14.36,72,14.33Zm-2.31,1.44c-.07,0-.13.13-.21.18l-.35.22a2.76,2.76,0,0,1-.33.25,1.94,1.94,0,0,0-.33.1c-.11.07-.19.23-.28.25s-.24,0-.33.06A3.27,3.27,0,0,0,68,18.05a2.45,2.45,0,0,1,.37,0c.5-.79,1.07-1.58,1.51-2.38C69.86,15.75,69.79,15.74,69.71,15.78Zm-3.29,5.37s-.06.14,0,.17c.17-.22.27-.53.44-.75-.12-.07-.27-.11-.37-.19C66.47,20.62,66.45,20.91,66.43,21.14Z"/><path class="cls-1" d="M98.2,14.33c-.05.1-.29.22-.36.06-.59,1-1.23,2-1.83,3-.2.34-.41.68-.58,1,0,0,0,0-.08,0,.13.16.36.34.35.58,0,.07-.07.12-.08.18s0,.18,0,.26-.15.25-.21.39-.12.4-.28.5c0,.21-.13.27-.21.42s-.06.2-.12.25a1.31,1.31,0,0,1-.47.15c-.14,0-.29-.08-.46,0a1.7,1.7,0,0,0-.28.39,1.1,1.1,0,0,0-.21.46c0,.1.11.23.17.36a4.31,4.31,0,0,1,.26.79c0,.15,0,.29.05.44s.22.64.06.9c-.11,0-.18-.08-.32-.06a5.44,5.44,0,0,0,.22.83c.09.18.28.27.38.43a3.19,3.19,0,0,1,.11.3,5.35,5.35,0,0,0,.36.5c.17.14.51.19.51.46,0,.11-.09.21-.08.35a1.42,1.42,0,0,0,.18.42c.15.29.3.47.46.73a1.87,1.87,0,0,0,.24.36c.07.06.16.08.21.12a2,2,0,0,1,.32,1,6.78,6.78,0,0,1,.14,1.16c0,.26-.07.55-.08.85,0,.12,0,.25,0,.37-.06.62-.51.9-.72,1.37a5.63,5.63,0,0,1,.25,2.12,2.79,2.79,0,0,1,0,.85c0,.08-.1.16-.11.25a2.16,2.16,0,0,0,0,.44c0,.39.42.56.37.93,0,.12-.12.22-.17.35.11.14.32.13.48.15.54.09,1.15,0,1.44.36.06.07.08.18.15.25s.12,0,.15.1a.89.89,0,0,1,.06.55.79.79,0,0,1-.12.28,1.38,1.38,0,0,1-.87.43c-.08,0-.16,0-.21,0s-.1.06-.18.07a1.08,1.08,0,0,1-.61-.06c-.25.09-.45-.07-.64-.11s-.12,0-.18,0-.24-.16-.39-.22a3.43,3.43,0,0,0-.54-.11,2.48,2.48,0,0,0-.57-.07c-.07.06-.08.19-.14.26a.68.68,0,0,1-.37-.06.62.62,0,0,1-.48,0c-.28.1-.45-.11-.72-.11a.91.91,0,0,1-.42-.87,1.08,1.08,0,0,0,0-.31c0-.17-.19-.27-.25-.43a2.73,2.73,0,0,1,0-.94,2.63,2.63,0,0,0-.1-.55c-.05-.3-.05-.58-.1-.86s-.16-.48-.21-.72-.11-.53-.14-.78a4.32,4.32,0,0,0-.07-1c-.06-.15-.22-.28-.31-.46-.21-.44-.13-1-.35-1.34-.09-.17-.24-.3-.35-.46s-.2-.33-.29-.5a3.21,3.21,0,0,0-.65-.94,9.16,9.16,0,0,0-.61,1.62c-.07.18-.16.34-.21.51s-.07.39-.12.58a8.24,8.24,0,0,1-.33.83c-.06.13-.12.27-.18.4s-.15.25-.19.37a.92.92,0,0,1-.19.4,2.37,2.37,0,0,1-.35.94c-.12.21-.18.44-.29.61s-.18.22-.26.33a3.94,3.94,0,0,1-.87.9l-.33.21-.3.22c-.22.33-.29.71-.49,1s-.38.41-.51.65-.16.37-.25.54-.24.29-.32.46,0,.32-.1.46-.31.4-.42.61a2.23,2.23,0,0,0-.11.6c0,.14-.06.32-.08.5a2.58,2.58,0,0,1,0,.55c-.06.15-.3.11-.4.25-.06.58.73.41.87.83a1.4,1.4,0,0,1,.64.61,1.28,1.28,0,0,1,.24.43c0,.09,0,.15,0,.21s.09.13.08.28a1.1,1.1,0,0,1-.24.54,1.68,1.68,0,0,1-1,.28,2.08,2.08,0,0,0-.29,0c-.06,0-.11.08-.19.1a.75.75,0,0,1-.42-.1.47.47,0,0,1-.6-.12c-.14,0-.42,0-.44-.21,0,0-.1,0-.14,0l-.13-.11s-.06-.1-.1-.14-.09,0-.13-.07a3.5,3.5,0,0,1-.19-.32,2.77,2.77,0,0,0-.61-.71c-.1.16-.35,0-.46-.1a1.62,1.62,0,0,1-.44-.55,1.51,1.51,0,0,1-.15-.35c0-.11.07-.19.1-.28s0-.26.07-.4a2.48,2.48,0,0,0,.1-.36c0-.08-.15-.18-.19-.25a1.34,1.34,0,0,1-.15-.39c0-.33.11-.6.1-.92,0-.11-.07-.2-.07-.32a3.31,3.31,0,0,1,.07-.49,2,2,0,0,0,.07-.22,1.4,1.4,0,0,0,0-.18A2.42,2.42,0,0,1,79,39.22c.06-.15.13-.34.21-.51a1.41,1.41,0,0,0,.19-.53c0-.05,0-.12,0-.18a1.75,1.75,0,0,1,.06-.25c0-.25.14-.39.19-.61a2.46,2.46,0,0,1,.06-.3,2.53,2.53,0,0,1,.26-.4,4.65,4.65,0,0,0,.53-.8c.07-.15.18-.29.24-.43s.05-.46.14-.67.13-.18.15-.26a6,6,0,0,0,0-.61c0-.22.19-.37.28-.57a1.81,1.81,0,0,0,.08-.43c.05-.28.27-.49.35-.78-.12,0-.21-.12-.32-.18s-.42-.2-.5-.36a1.59,1.59,0,0,1-.11-.43,2.86,2.86,0,0,1,0-.64,4.91,4.91,0,0,1,.31-.73c0-.09.08-.18.1-.25s0-.26.06-.35a3.89,3.89,0,0,1,.29-.39c.21-.35.29-.71.58-.91l-.26-.25c.09-.28.4-.34.57-.54-.11-.5.38-.67.49-1,0-.06,0-.14,0-.21s.13-.19.15-.29,0-.34,0-.51.05-.25.06-.35S83,24,83,23.75a2,2,0,0,1,.1-.58,1.46,1.46,0,0,0,.12-.55c0-.14-.22-.3-.32-.43a1.83,1.83,0,0,1-.31-.43c0-.23.11-.47,0-.72,0-.06-.13,0-.15-.11a1.26,1.26,0,0,1,0-.21c-.18,0-.33,0-.43-.11a2.25,2.25,0,0,1-.22-.57.7.7,0,0,1,.1-.51.44.44,0,0,0,.39-.06.35.35,0,0,0,.29,0c.17-.17-.05-.49.07-.72a1.43,1.43,0,0,1-.54-1.4c.08-1.07.46-2.13.54-3.15-.08,0-.11.14-.19.17s-.1-.12-.18-.1a1.89,1.89,0,0,0,.07-.73c0-.2-.13-.31-.08-.5a1.78,1.78,0,0,1,.3-.5l.19-.21c.06-.07.16-.14.19-.21a1.35,1.35,0,0,0,0-.33c0-.31.12-.66.18-.93a1.6,1.6,0,0,1,.5-1,1.72,1.72,0,0,1,1.19-.33c.08,0,.15.06.25.06s.28-.26.39-.39A2.52,2.52,0,0,0,85.73,9c.06-.09.07-.19.12-.26a1.7,1.7,0,0,1,1.08-.43.4.4,0,0,0,.12-.14c0-.17-.31-.29-.32-.46s.16-.26.25-.35a2.46,2.46,0,0,1,.69-.5,1.47,1.47,0,0,0,.4-.19c.12-.13.09-.34.19-.46s-.14-.26-.17-.4a.75.75,0,0,1,.31-.68c0-.11-.16-.1-.14-.25s.15,0,.19,0a1.12,1.12,0,0,0,0-.4c-.6-.15-1.73-.18-2-.72s.43-.65.94-.6a1.15,1.15,0,0,1,.19-.47c0-.07.13-.12.17-.19s0-.21.14-.29a1.46,1.46,0,0,1,0-.26,1.2,1.2,0,0,1,.46-.65.56.56,0,0,1,.61,0A2.94,2.94,0,0,1,91,.25c.23,0,.49-.09.64,0a2.09,2.09,0,0,1,1-.28c.29,0,.57.07.54.39.22.26.41.56.65.8a5.7,5.7,0,0,1,.55.31,2.36,2.36,0,0,1,.85,1.41,10,10,0,0,0,.49,1.22c.06.13.15.27.11.42a6.52,6.52,0,0,0-.86-.11c-.11.06-.05.17-.14.25s-.89.12-1.21.1c0,.16.11.25.15.37a1.74,1.74,0,0,1,.07.54,7.63,7.63,0,0,1-.31,2c.07,0,.17,0,.22.06,0,.38-.22.75-.11,1.14.14.11.38.13.53.24a.31.31,0,0,1-.42.43c-.05.05-.09.11-.18.12a.69.69,0,0,1-.19.42,3.58,3.58,0,0,0,.17.47,3.77,3.77,0,0,1,.44.08c.12.24.27.44.37.69-.06.13.06.23.08.35a5.39,5.39,0,0,1,1.22,1.25c.15,0,.21-.12.33-.14s.29.08.46,0,.13-.14.19-.21.24-.14.33-.24.29-.49.48-.69.23-.16.31-.29c-.5-.3-1.2-.4-1.7-.69.13-.18.41-.19.69-.22a5.5,5.5,0,0,1,2.15.11,9.26,9.26,0,0,1,1.05.4,4.53,4.53,0,0,0,1.11.35,8.25,8.25,0,0,1,1.16.28,1.29,1.29,0,0,1-.86,1.46,12.61,12.61,0,0,0-1.61-.67.79.79,0,0,1-.32.71.89.89,0,0,1-.12.42s0,0,0,0-.08.09-.14.11a.49.49,0,0,1-.24.29c0,.23,0,.52-.24.55S98.35,14.36,98.2,14.33Zm-2.31,1.44c-.07,0-.13.13-.21.18l-.35.22a2.76,2.76,0,0,1-.33.25,1.94,1.94,0,0,0-.33.1c-.11.07-.19.23-.28.25s-.24,0-.33.06a3.27,3.27,0,0,0,.14,1.22,2.45,2.45,0,0,1,.37,0c.5-.79,1.07-1.58,1.51-2.38C96,15.75,96,15.74,95.89,15.78ZM92.6,21.14s-.06.14,0,.17c.17-.22.27-.53.44-.75-.12-.07-.27-.11-.37-.19C92.65,20.62,92.62,20.91,92.6,21.14Z"/><path class="cls-1" d="M124.38,14.33c-.05.1-.29.22-.36.06-.59,1-1.23,2-1.83,3-.2.34-.41.68-.58,1,0,0,0,0-.08,0,.13.16.36.34.35.58,0,.07-.07.12-.08.18s0,.18,0,.26-.15.25-.21.39-.12.4-.28.5c0,.21-.13.27-.21.42s-.06.2-.12.25a1.31,1.31,0,0,1-.47.15c-.14,0-.29-.08-.46,0a1.7,1.7,0,0,0-.28.39,1.1,1.1,0,0,0-.21.46c0,.1.11.23.17.36a4.31,4.31,0,0,1,.26.79c0,.15,0,.29.05.44s.22.64.06.9c-.11,0-.18-.08-.32-.06a5.44,5.44,0,0,0,.22.83c.09.18.28.27.38.43a3.19,3.19,0,0,1,.11.3,5.35,5.35,0,0,0,.36.5c.17.14.51.19.51.46,0,.11-.09.21-.08.35a1.42,1.42,0,0,0,.18.42c.15.29.3.47.46.73a1.87,1.87,0,0,0,.24.36c.07.06.16.08.21.12a2,2,0,0,1,.32,1,6.78,6.78,0,0,1,.14,1.16c0,.26-.07.55-.08.85,0,.12,0,.25,0,.37-.06.62-.51.9-.72,1.37a5.63,5.63,0,0,1,.25,2.12,2.79,2.79,0,0,1,0,.85c0,.08-.1.16-.11.25a2.16,2.16,0,0,0,0,.44c0,.39.42.56.37.93,0,.12-.12.22-.17.35.11.14.32.13.48.15.54.09,1.15,0,1.44.36.06.07.08.18.15.25s.12,0,.15.1a.89.89,0,0,1,.06.55.79.79,0,0,1-.12.28,1.38,1.38,0,0,1-.87.43c-.08,0-.16,0-.21,0s-.1.06-.18.07a1.08,1.08,0,0,1-.61-.06c-.25.09-.45-.07-.64-.11s-.12,0-.18,0-.24-.16-.39-.22a3.43,3.43,0,0,0-.54-.11,2.48,2.48,0,0,0-.57-.07c-.07.06-.08.19-.14.26a.68.68,0,0,1-.37-.06.62.62,0,0,1-.48,0c-.28.1-.45-.11-.72-.11a.91.91,0,0,1-.42-.87,1.08,1.08,0,0,0,0-.31c0-.17-.19-.27-.25-.43a2.73,2.73,0,0,1,0-.94,2.63,2.63,0,0,0-.1-.55c-.05-.3-.05-.58-.1-.86s-.16-.48-.21-.72-.11-.53-.14-.78a4.32,4.32,0,0,0-.07-1c-.06-.15-.22-.28-.31-.46-.21-.44-.13-1-.35-1.34-.09-.17-.24-.3-.35-.46s-.2-.33-.29-.5a3.21,3.21,0,0,0-.65-.94,9.16,9.16,0,0,0-.61,1.62c-.07.18-.16.34-.21.51s-.07.39-.12.58a8.24,8.24,0,0,1-.33.83c-.06.13-.12.27-.18.4s-.15.25-.19.37a.92.92,0,0,1-.19.4,2.37,2.37,0,0,1-.35.94c-.12.21-.18.44-.29.61s-.18.22-.26.33a3.94,3.94,0,0,1-.87.9l-.33.21-.3.22c-.22.33-.29.71-.49,1s-.38.41-.51.65-.16.37-.25.54-.24.29-.32.46,0,.32-.1.46-.31.4-.42.61a2.23,2.23,0,0,0-.11.6c0,.14-.06.32-.08.5a2.58,2.58,0,0,1,0,.55c-.06.15-.3.11-.4.25-.06.58.73.41.87.83a1.4,1.4,0,0,1,.64.61,1.28,1.28,0,0,1,.24.43c0,.09,0,.15,0,.21s.09.13.08.28a1.1,1.1,0,0,1-.24.54,1.68,1.68,0,0,1-1,.28,2.08,2.08,0,0,0-.29,0c-.06,0-.11.08-.19.1a.75.75,0,0,1-.42-.1.47.47,0,0,1-.6-.12c-.14,0-.42,0-.44-.21,0,0-.1,0-.14,0l-.13-.11s-.06-.1-.1-.14-.09,0-.13-.07a3.5,3.5,0,0,1-.19-.32,2.77,2.77,0,0,0-.61-.71c-.1.16-.35,0-.46-.1a1.62,1.62,0,0,1-.44-.55,1.51,1.51,0,0,1-.15-.35c0-.11.07-.19.1-.28s0-.26.07-.4a2.48,2.48,0,0,0,.1-.36c0-.08-.15-.18-.19-.25a1.34,1.34,0,0,1-.15-.39c0-.33.11-.6.1-.92,0-.11-.07-.2-.07-.32a3.31,3.31,0,0,1,.07-.49,2,2,0,0,0,.07-.22,1.4,1.4,0,0,0,0-.18,2.42,2.42,0,0,1,.29-1.15c.06-.15.13-.34.21-.51a1.41,1.41,0,0,0,.19-.53c0-.05,0-.12,0-.18a1.75,1.75,0,0,1,.06-.25c0-.25.14-.39.19-.61a2.46,2.46,0,0,1,.06-.3,2.53,2.53,0,0,1,.26-.4,4.65,4.65,0,0,0,.53-.8c.07-.15.18-.29.24-.43s.05-.46.14-.67.13-.18.15-.26a6,6,0,0,0,0-.61c0-.22.19-.37.28-.57a1.81,1.81,0,0,0,.08-.43c.05-.28.27-.49.35-.78-.12,0-.21-.12-.32-.18s-.42-.2-.5-.36a1.59,1.59,0,0,1-.11-.43,2.86,2.86,0,0,1,0-.64,4.91,4.91,0,0,1,.31-.73c0-.09.08-.18.1-.25s0-.26.06-.35a3.89,3.89,0,0,1,.29-.39c.21-.35.29-.71.58-.91l-.26-.25c.09-.28.4-.34.57-.54-.11-.5.38-.67.49-1,0-.06,0-.14,0-.21s.13-.19.15-.29,0-.34,0-.51.05-.25.06-.35-.11-.46-.11-.71a2,2,0,0,1,.1-.58,1.46,1.46,0,0,0,.12-.55c0-.14-.22-.3-.32-.43a1.83,1.83,0,0,1-.31-.43c0-.23.11-.47,0-.72,0-.06-.13,0-.15-.11a1.26,1.26,0,0,1,0-.21c-.18,0-.33,0-.43-.11A2.25,2.25,0,0,1,108,20a.7.7,0,0,1,.1-.51.44.44,0,0,0,.39-.06.35.35,0,0,0,.29,0c.17-.17-.05-.49.07-.72a1.43,1.43,0,0,1-.54-1.4c.08-1.07.46-2.13.54-3.15-.08,0-.11.14-.19.17s-.1-.12-.18-.1a1.89,1.89,0,0,0,.07-.73c0-.2-.13-.31-.08-.5a1.78,1.78,0,0,1,.3-.5l.19-.21c.06-.07.16-.14.19-.21a1.35,1.35,0,0,0,0-.33c0-.31.12-.66.18-.93a1.6,1.6,0,0,1,.5-1,1.72,1.72,0,0,1,1.19-.33c.08,0,.15.06.25.06s.28-.26.39-.39A2.52,2.52,0,0,0,111.9,9c.06-.09.07-.19.12-.26a1.7,1.7,0,0,1,1.08-.43.4.4,0,0,0,.12-.14c0-.17-.31-.29-.32-.46s.16-.26.25-.35a2.46,2.46,0,0,1,.69-.5,1.47,1.47,0,0,0,.4-.19c.12-.13.09-.34.19-.46s-.14-.26-.17-.4a.75.75,0,0,1,.31-.68c0-.11-.16-.1-.14-.25s.15,0,.19,0a1.12,1.12,0,0,0,0-.4c-.6-.15-1.73-.18-2-.72s.43-.65.94-.6a1.15,1.15,0,0,1,.19-.47c0-.07.13-.12.17-.19s0-.21.14-.29a1.46,1.46,0,0,1,0-.26,1.2,1.2,0,0,1,.46-.65.56.56,0,0,1,.61,0,2.94,2.94,0,0,1,2-1.08c.23,0,.49-.09.64,0a2.09,2.09,0,0,1,1-.28c.29,0,.57.07.54.39.22.26.41.56.65.8a5.7,5.7,0,0,1,.55.31,2.36,2.36,0,0,1,.85,1.41,10,10,0,0,0,.49,1.22c.06.13.15.27.11.42a6.52,6.52,0,0,0-.86-.11c-.11.06-.05.17-.14.25s-.89.12-1.21.1c0,.16.11.25.15.37a1.74,1.74,0,0,1,.07.54,7.63,7.63,0,0,1-.31,2c.07,0,.17,0,.22.06,0,.38-.22.75-.11,1.14.14.11.38.13.53.24a.31.31,0,0,1-.42.43c-.05.05-.09.11-.18.12a.69.69,0,0,1-.19.42,3.58,3.58,0,0,0,.17.47,3.77,3.77,0,0,1,.44.08c.12.24.27.44.37.69-.06.13.06.23.08.35a5.39,5.39,0,0,1,1.22,1.25c.15,0,.21-.12.33-.14s.29.08.46,0,.13-.14.19-.21.24-.14.33-.24.29-.49.48-.69.23-.16.31-.29c-.5-.3-1.2-.4-1.7-.69.13-.18.41-.19.69-.22a5.5,5.5,0,0,1,2.15.11,9.26,9.26,0,0,1,1.05.4,4.53,4.53,0,0,0,1.11.35,8.25,8.25,0,0,1,1.16.28A1.29,1.29,0,0,1,127.5,13a12.61,12.61,0,0,0-1.61-.67.79.79,0,0,1-.32.71.89.89,0,0,1-.12.42s0,0,0,0-.08.09-.14.11a.49.49,0,0,1-.24.29c0,.23,0,.52-.24.55S124.52,14.36,124.38,14.33Zm-2.31,1.44c-.07,0-.13.13-.21.18l-.35.22a2.76,2.76,0,0,1-.33.25,1.94,1.94,0,0,0-.33.1c-.11.07-.19.23-.28.25s-.24,0-.33.06a3.27,3.27,0,0,0,.14,1.22,2.45,2.45,0,0,1,.37,0c.5-.79,1.07-1.58,1.51-2.38C122.21,15.75,122.13,15.74,122.06,15.78Zm-3.29,5.37s-.06.14,0,.17c.17-.22.27-.53.44-.75-.12-.07-.27-.11-.37-.19C118.82,20.62,118.8,20.91,118.78,21.14Z"/><path class="cls-1" d="M150.55,14.33c-.05.1-.29.22-.36.06-.59,1-1.23,2-1.83,3-.2.34-.41.68-.58,1,0,0,0,0-.08,0,.13.16.36.34.35.58,0,.07-.07.12-.08.18s0,.18,0,.26-.15.25-.21.39-.12.4-.28.5c0,.21-.13.27-.21.42s-.06.2-.12.25a1.31,1.31,0,0,1-.47.15c-.14,0-.29-.08-.46,0a1.7,1.7,0,0,0-.28.39,1.1,1.1,0,0,0-.21.46c0,.1.11.23.17.36a4.31,4.31,0,0,1,.26.79c0,.15,0,.29.05.44s.22.64.06.9c-.11,0-.18-.08-.32-.06a5.44,5.44,0,0,0,.22.83c.09.18.28.27.38.43a3.19,3.19,0,0,1,.11.3,5.35,5.35,0,0,0,.36.5c.17.14.51.19.51.46,0,.11-.09.21-.08.35a1.42,1.42,0,0,0,.18.42c.15.29.3.47.46.73a1.87,1.87,0,0,0,.24.36c.07.06.16.08.21.12a2,2,0,0,1,.32,1,6.78,6.78,0,0,1,.14,1.16c0,.26-.07.55-.08.85,0,.12,0,.25,0,.37-.06.62-.51.9-.72,1.37a5.63,5.63,0,0,1,.25,2.12,2.79,2.79,0,0,1,0,.85c0,.08-.1.16-.11.25a2.16,2.16,0,0,0,0,.44c0,.39.42.56.37.93,0,.12-.12.22-.17.35.11.14.32.13.48.15.54.09,1.15,0,1.44.36.06.07.08.18.15.25s.12,0,.15.1a.89.89,0,0,1,.06.55.79.79,0,0,1-.12.28,1.38,1.38,0,0,1-.87.43c-.08,0-.16,0-.21,0s-.1.06-.18.07a1.08,1.08,0,0,1-.61-.06c-.25.09-.45-.07-.64-.11s-.12,0-.18,0-.24-.16-.39-.22a3.43,3.43,0,0,0-.54-.11,2.48,2.48,0,0,0-.57-.07c-.07.06-.08.19-.14.26a.68.68,0,0,1-.37-.06.62.62,0,0,1-.48,0c-.28.1-.45-.11-.72-.11a.91.91,0,0,1-.42-.87,1.08,1.08,0,0,0,0-.31c0-.17-.19-.27-.25-.43a2.73,2.73,0,0,1,0-.94,2.63,2.63,0,0,0-.1-.55c-.05-.3-.05-.58-.1-.86s-.16-.48-.21-.72-.11-.53-.14-.78a4.32,4.32,0,0,0-.07-1c-.06-.15-.22-.28-.31-.46-.21-.44-.13-1-.35-1.34-.09-.17-.24-.3-.35-.46s-.2-.33-.29-.5a3.21,3.21,0,0,0-.65-.94,9.16,9.16,0,0,0-.61,1.62c-.07.18-.16.34-.21.51s-.07.39-.12.58a8.24,8.24,0,0,1-.33.83c-.06.13-.12.27-.18.4s-.15.25-.19.37a.92.92,0,0,1-.19.4,2.37,2.37,0,0,1-.35.94c-.12.21-.18.44-.29.61s-.18.22-.26.33a3.94,3.94,0,0,1-.87.9l-.33.21-.3.22c-.22.33-.29.71-.49,1s-.38.41-.51.65-.16.37-.25.54-.24.29-.32.46,0,.32-.1.46-.31.4-.42.61a2.23,2.23,0,0,0-.11.6c0,.14-.06.32-.08.5a2.58,2.58,0,0,1,0,.55c-.06.15-.3.11-.4.25-.06.58.73.41.87.83a1.4,1.4,0,0,1,.64.61,1.28,1.28,0,0,1,.24.43c0,.09,0,.15,0,.21s.09.13.08.28a1.1,1.1,0,0,1-.24.54,1.68,1.68,0,0,1-1,.28,2.08,2.08,0,0,0-.29,0c-.06,0-.11.08-.19.1a.75.75,0,0,1-.42-.1.47.47,0,0,1-.6-.12c-.14,0-.42,0-.44-.21,0,0-.1,0-.14,0L133,46.4s-.06-.1-.1-.14-.09,0-.13-.07a3.5,3.5,0,0,1-.19-.32,2.77,2.77,0,0,0-.61-.71c-.1.16-.35,0-.46-.1a1.62,1.62,0,0,1-.44-.55,1.51,1.51,0,0,1-.15-.35c0-.11.07-.19.1-.28s0-.26.07-.4a2.48,2.48,0,0,0,.1-.36c0-.08-.15-.18-.19-.25a1.34,1.34,0,0,1-.15-.39c0-.33.11-.6.1-.92,0-.11-.07-.2-.07-.32a3.31,3.31,0,0,1,.07-.49,2,2,0,0,0,.07-.22,1.4,1.4,0,0,0,0-.18,2.42,2.42,0,0,1,.29-1.15c.06-.15.13-.34.21-.51a1.41,1.41,0,0,0,.19-.53c0-.05,0-.12,0-.18a1.75,1.75,0,0,1,.06-.25c0-.25.14-.39.19-.61a2.46,2.46,0,0,1,.06-.3,2.53,2.53,0,0,1,.26-.4,4.65,4.65,0,0,0,.53-.8c.07-.15.18-.29.24-.43s.05-.46.14-.67.13-.18.15-.26a6,6,0,0,0,0-.61c0-.22.19-.37.28-.57a1.81,1.81,0,0,0,.08-.43c.05-.28.27-.49.35-.78-.12,0-.21-.12-.32-.18s-.42-.2-.5-.36a1.59,1.59,0,0,1-.11-.43,2.86,2.86,0,0,1,0-.64,4.91,4.91,0,0,1,.31-.73c0-.09.08-.18.1-.25s0-.26.06-.35a3.89,3.89,0,0,1,.29-.39c.21-.35.29-.71.58-.91l-.26-.25c.09-.28.4-.34.57-.54-.11-.5.38-.67.49-1,0-.06,0-.14,0-.21s.13-.19.15-.29,0-.34,0-.51.05-.25.06-.35-.11-.46-.11-.71a2,2,0,0,1,.1-.58,1.46,1.46,0,0,0,.12-.55c0-.14-.22-.3-.32-.43a1.83,1.83,0,0,1-.31-.43c0-.23.11-.47,0-.72,0-.06-.13,0-.15-.11a1.26,1.26,0,0,1,0-.21c-.18,0-.33,0-.43-.11a2.25,2.25,0,0,1-.22-.57.7.7,0,0,1,.1-.51.44.44,0,0,0,.39-.06.35.35,0,0,0,.29,0c.17-.17-.05-.49.07-.72a1.43,1.43,0,0,1-.54-1.4c.08-1.07.46-2.13.54-3.15-.08,0-.11.14-.19.17s-.1-.12-.18-.1a1.89,1.89,0,0,0,.07-.73c0-.2-.13-.31-.08-.5a1.78,1.78,0,0,1,.3-.5l.19-.21c.06-.07.16-.14.19-.21a1.35,1.35,0,0,0,0-.33c0-.31.12-.66.18-.93a1.6,1.6,0,0,1,.5-1,1.72,1.72,0,0,1,1.19-.33c.08,0,.15.06.25.06s.28-.26.39-.39a2.52,2.52,0,0,0,.18-.21c.06-.09.07-.19.12-.26a1.7,1.7,0,0,1,1.08-.43.4.4,0,0,0,.12-.14c0-.17-.31-.29-.32-.46s.16-.26.25-.35a2.46,2.46,0,0,1,.69-.5,1.47,1.47,0,0,0,.4-.19c.12-.13.09-.34.19-.46s-.14-.26-.17-.4a.75.75,0,0,1,.31-.68c0-.11-.16-.1-.14-.25s.15,0,.19,0a1.12,1.12,0,0,0,0-.4c-.6-.15-1.73-.18-2-.72s.43-.65.94-.6a1.15,1.15,0,0,1,.19-.47c0-.07.13-.12.17-.19s0-.21.14-.29a1.46,1.46,0,0,1,0-.26,1.2,1.2,0,0,1,.46-.65.56.56,0,0,1,.61,0,2.94,2.94,0,0,1,2-1.08c.23,0,.49-.09.64,0a2.09,2.09,0,0,1,1-.28c.29,0,.57.07.54.39.22.26.41.56.65.8a5.7,5.7,0,0,1,.55.31,2.36,2.36,0,0,1,.85,1.41A10,10,0,0,0,148,4.13c.06.13.15.27.11.42a6.52,6.52,0,0,0-.86-.11c-.11.06-.05.17-.14.25s-.89.12-1.21.1c0,.16.11.25.15.37a1.74,1.74,0,0,1,.07.54,7.63,7.63,0,0,1-.31,2c.07,0,.17,0,.22.06,0,.38-.22.75-.11,1.14.14.11.38.13.53.24a.31.31,0,0,1-.42.43c-.05.05-.09.11-.18.12a.69.69,0,0,1-.19.42,3.58,3.58,0,0,0,.17.47,3.77,3.77,0,0,1,.44.08c.12.24.27.44.37.69-.06.13.06.23.08.35A5.39,5.39,0,0,1,148,12.95c.15,0,.21-.12.33-.14s.29.08.46,0,.13-.14.19-.21.24-.14.33-.24.29-.49.48-.69.23-.16.31-.29c-.5-.3-1.2-.4-1.7-.69.13-.18.41-.19.69-.22a5.5,5.5,0,0,1,2.15.11,9.26,9.26,0,0,1,1.05.4,4.53,4.53,0,0,0,1.11.35,8.25,8.25,0,0,1,1.16.28,1.29,1.29,0,0,1-.86,1.46,12.61,12.61,0,0,0-1.61-.67.79.79,0,0,1-.32.71.89.89,0,0,1-.12.42s0,0,0,0-.08.09-.14.11a.49.49,0,0,1-.24.29c0,.23,0,.52-.24.55S150.69,14.36,150.55,14.33Zm-2.31,1.44c-.07,0-.13.13-.21.18l-.35.22a2.76,2.76,0,0,1-.33.25,1.94,1.94,0,0,0-.33.1c-.11.07-.19.23-.28.25s-.24,0-.33.06a3.27,3.27,0,0,0,.14,1.22,2.45,2.45,0,0,1,.37,0c.5-.79,1.07-1.58,1.51-2.38C148.38,15.75,148.31,15.74,148.24,15.78ZM145,21.14s-.06.14,0,.17c.17-.22.27-.53.44-.75-.12-.07-.27-.11-.37-.19C145,20.62,145,20.91,145,21.14Z"/><path class="cls-1" d="M176.73,14.33c-.05.1-.29.22-.36.06-.59,1-1.23,2-1.83,3-.2.34-.41.68-.58,1,0,0,0,0-.08,0,.13.16.36.34.35.58,0,.07-.07.12-.08.18s0,.18,0,.26-.15.25-.21.39-.12.4-.28.5c0,.21-.13.27-.21.42s-.06.2-.12.25a1.31,1.31,0,0,1-.47.15c-.14,0-.29-.08-.46,0a1.7,1.7,0,0,0-.28.39,1.1,1.1,0,0,0-.21.46c0,.1.11.23.17.36a4.31,4.31,0,0,1,.26.79c0,.15,0,.29.05.44s.22.64.06.9c-.11,0-.18-.08-.32-.06a5.44,5.44,0,0,0,.22.83c.09.18.28.27.38.43a3.19,3.19,0,0,1,.11.3,5.35,5.35,0,0,0,.36.5c.17.14.51.19.51.46,0,.11-.09.21-.08.35a1.42,1.42,0,0,0,.18.42c.15.29.3.47.46.73a1.87,1.87,0,0,0,.24.36c.07.06.16.08.21.12a2,2,0,0,1,.32,1,6.78,6.78,0,0,1,.14,1.16c0,.26-.07.55-.08.85,0,.12,0,.25,0,.37-.06.62-.51.9-.72,1.37a5.63,5.63,0,0,1,.25,2.12,2.79,2.79,0,0,1,0,.85c0,.08-.1.16-.11.25a2.16,2.16,0,0,0,0,.44c0,.39.42.56.37.93,0,.12-.12.22-.17.35.11.14.32.13.48.15.54.09,1.15,0,1.44.36.06.07.08.18.15.25s.12,0,.15.1a.89.89,0,0,1,.06.55.79.79,0,0,1-.12.28,1.38,1.38,0,0,1-.87.43c-.08,0-.16,0-.21,0s-.1.06-.18.07a1.08,1.08,0,0,1-.61-.06c-.25.09-.45-.07-.64-.11s-.12,0-.18,0-.24-.16-.39-.22a3.43,3.43,0,0,0-.54-.11,2.48,2.48,0,0,0-.57-.07c-.07.06-.08.19-.14.26a.68.68,0,0,1-.37-.06.62.62,0,0,1-.48,0c-.28.1-.45-.11-.72-.11a.91.91,0,0,1-.42-.87,1.08,1.08,0,0,0,0-.31c0-.17-.19-.27-.25-.43a2.73,2.73,0,0,1,0-.94,2.63,2.63,0,0,0-.1-.55c-.05-.3-.05-.58-.1-.86s-.16-.48-.21-.72-.11-.53-.14-.78a4.32,4.32,0,0,0-.07-1c-.06-.15-.22-.28-.31-.46-.21-.44-.13-1-.35-1.34-.09-.17-.24-.3-.35-.46s-.2-.33-.29-.5a3.21,3.21,0,0,0-.65-.94,9.16,9.16,0,0,0-.61,1.62c-.07.18-.16.34-.21.51s-.07.39-.12.58a8.24,8.24,0,0,1-.33.83c-.06.13-.12.27-.18.4s-.15.25-.19.37a.92.92,0,0,1-.19.4,2.37,2.37,0,0,1-.35.94c-.12.21-.18.44-.29.61s-.18.22-.26.33a3.94,3.94,0,0,1-.87.9l-.33.21-.3.22c-.22.33-.29.71-.49,1s-.38.41-.51.65-.16.37-.25.54-.24.29-.32.46,0,.32-.1.46-.31.4-.42.61a2.23,2.23,0,0,0-.11.6c0,.14-.06.32-.08.5a2.58,2.58,0,0,1,0,.55c-.06.15-.3.11-.4.25-.06.58.73.41.87.83a1.4,1.4,0,0,1,.64.61,1.28,1.28,0,0,1,.24.43c0,.09,0,.15,0,.21s.09.13.08.28a1.1,1.1,0,0,1-.24.54,1.68,1.68,0,0,1-1,.28,2.08,2.08,0,0,0-.29,0c-.06,0-.11.08-.19.1a.75.75,0,0,1-.42-.1.47.47,0,0,1-.6-.12c-.14,0-.42,0-.44-.21,0,0-.1,0-.14,0l-.13-.11s-.06-.1-.1-.14-.09,0-.13-.07a3.5,3.5,0,0,1-.19-.32,2.77,2.77,0,0,0-.61-.71c-.1.16-.35,0-.46-.1a1.62,1.62,0,0,1-.44-.55,1.51,1.51,0,0,1-.15-.35c0-.11.07-.19.1-.28s0-.26.07-.4a2.48,2.48,0,0,0,.1-.36c0-.08-.15-.18-.19-.25a1.34,1.34,0,0,1-.15-.39c0-.33.11-.6.1-.92,0-.11-.07-.2-.07-.32a3.31,3.31,0,0,1,.07-.49,2,2,0,0,0,.07-.22,1.4,1.4,0,0,0,0-.18,2.42,2.42,0,0,1,.29-1.15c.06-.15.13-.34.21-.51a1.41,1.41,0,0,0,.19-.53c0-.05,0-.12,0-.18a1.75,1.75,0,0,1,.06-.25c0-.25.14-.39.19-.61a2.46,2.46,0,0,1,.06-.3,2.53,2.53,0,0,1,.26-.4,4.65,4.65,0,0,0,.53-.8c.07-.15.18-.29.24-.43s.05-.46.14-.67.13-.18.15-.26a6,6,0,0,0,0-.61c0-.22.19-.37.28-.57a1.81,1.81,0,0,0,.08-.43c.05-.28.27-.49.35-.78-.12,0-.21-.12-.32-.18s-.42-.2-.5-.36a1.59,1.59,0,0,1-.11-.43,2.86,2.86,0,0,1,0-.64,4.91,4.91,0,0,1,.31-.73c0-.09.08-.18.1-.25s0-.26.06-.35a3.89,3.89,0,0,1,.29-.39c.21-.35.29-.71.58-.91l-.26-.25c.09-.28.4-.34.57-.54-.11-.5.38-.67.49-1,0-.06,0-.14,0-.21s.13-.19.15-.29,0-.34,0-.51.05-.25.06-.35-.11-.46-.11-.71a2,2,0,0,1,.1-.58,1.46,1.46,0,0,0,.12-.55c0-.14-.22-.3-.32-.43a1.83,1.83,0,0,1-.31-.43c0-.23.11-.47,0-.72,0-.06-.13,0-.15-.11a1.26,1.26,0,0,1,0-.21c-.18,0-.33,0-.43-.11a2.25,2.25,0,0,1-.22-.57.7.7,0,0,1,.1-.51.44.44,0,0,0,.39-.06.35.35,0,0,0,.29,0c.17-.17-.05-.49.07-.72a1.43,1.43,0,0,1-.54-1.4c.08-1.07.46-2.13.54-3.15-.08,0-.11.14-.19.17s-.1-.12-.18-.1a1.89,1.89,0,0,0,.07-.73c0-.2-.13-.31-.08-.5a1.78,1.78,0,0,1,.3-.5l.19-.21c.06-.07.16-.14.19-.21a1.35,1.35,0,0,0,0-.33c0-.31.12-.66.18-.93a1.6,1.6,0,0,1,.5-1,1.72,1.72,0,0,1,1.19-.33c.08,0,.15.06.25.06s.28-.26.39-.39a2.52,2.52,0,0,0,.18-.21c.06-.09.07-.19.12-.26a1.7,1.7,0,0,1,1.08-.43.4.4,0,0,0,.12-.14c0-.17-.31-.29-.32-.46s.16-.26.25-.35a2.46,2.46,0,0,1,.69-.5,1.47,1.47,0,0,0,.4-.19c.12-.13.09-.34.19-.46s-.14-.26-.17-.4a.75.75,0,0,1,.31-.68c0-.11-.16-.1-.14-.25s.15,0,.19,0a1.12,1.12,0,0,0,0-.4c-.6-.15-1.73-.18-2-.72s.43-.65.94-.6a1.15,1.15,0,0,1,.19-.47c0-.07.13-.12.17-.19s0-.21.14-.29a1.46,1.46,0,0,1,0-.26,1.2,1.2,0,0,1,.46-.65.56.56,0,0,1,.61,0,2.94,2.94,0,0,1,2-1.08c.23,0,.49-.09.64,0a2.09,2.09,0,0,1,1-.28c.29,0,.57.07.54.39.22.26.41.56.65.8a5.7,5.7,0,0,1,.55.31,2.36,2.36,0,0,1,.85,1.41,10,10,0,0,0,.49,1.22c.06.13.15.27.11.42a6.52,6.52,0,0,0-.86-.11c-.11.06-.05.17-.14.25s-.89.12-1.21.1c0,.16.11.25.15.37a1.74,1.74,0,0,1,.07.54,7.63,7.63,0,0,1-.31,2c.07,0,.17,0,.22.06,0,.38-.22.75-.11,1.14.14.11.38.13.53.24a.31.31,0,0,1-.42.43c-.05.05-.09.11-.18.12a.69.69,0,0,1-.19.42,3.58,3.58,0,0,0,.17.47,3.77,3.77,0,0,1,.44.08c.12.24.27.44.37.69-.06.13.06.23.08.35a5.39,5.39,0,0,1,1.22,1.25c.15,0,.21-.12.33-.14s.29.08.46,0,.13-.14.19-.21.24-.14.33-.24.29-.49.48-.69.23-.16.31-.29c-.5-.3-1.2-.4-1.7-.69.13-.18.41-.19.69-.22a5.5,5.5,0,0,1,2.15.11,9.26,9.26,0,0,1,1.05.4,4.53,4.53,0,0,0,1.11.35,8.25,8.25,0,0,1,1.16.28,1.29,1.29,0,0,1-.86,1.46,12.61,12.61,0,0,0-1.61-.67.79.79,0,0,1-.32.71.89.89,0,0,1-.12.42s0,0,0,0-.08.09-.14.11a.49.49,0,0,1-.24.29c0,.23,0,.52-.24.55S176.87,14.36,176.73,14.33Zm-2.31,1.44c-.07,0-.13.13-.21.18l-.35.22a2.76,2.76,0,0,1-.33.25,1.94,1.94,0,0,0-.33.1c-.11.07-.19.23-.28.25s-.24,0-.33.06a3.27,3.27,0,0,0,.14,1.22,2.45,2.45,0,0,1,.37,0c.5-.79,1.07-1.58,1.51-2.38C174.55,15.75,174.48,15.74,174.41,15.78Zm-3.29,5.37s-.06.14,0,.17c.17-.22.27-.53.44-.75-.12-.07-.27-.11-.37-.19C171.17,20.62,171.15,20.91,171.12,21.14Z"/><path class="cls-1" d="M202.9,14.33c-.05.1-.29.22-.36.06-.59,1-1.23,2-1.83,3-.2.34-.41.68-.58,1,0,0,0,0-.08,0,.13.16.36.34.35.58,0,.07-.07.12-.08.18s0,.18,0,.26-.15.25-.21.39-.12.4-.28.5c0,.21-.13.27-.21.42s-.06.2-.12.25a1.31,1.31,0,0,1-.47.15c-.14,0-.29-.08-.46,0a1.7,1.7,0,0,0-.28.39A1.1,1.1,0,0,0,198,22c0,.1.11.23.17.36a4.31,4.31,0,0,1,.26.79c0,.15,0,.29.05.44s.22.64.06.9c-.11,0-.18-.08-.32-.06a5.44,5.44,0,0,0,.22.83c.09.18.28.27.38.43a3.19,3.19,0,0,1,.11.3,5.35,5.35,0,0,0,.36.5c.17.14.51.19.51.46,0,.11-.09.21-.08.35a1.42,1.42,0,0,0,.18.42c.15.29.3.47.46.73a1.87,1.87,0,0,0,.24.36c.07.06.16.08.21.12a2,2,0,0,1,.32,1,6.78,6.78,0,0,1,.14,1.16c0,.26-.07.55-.08.85,0,.12,0,.25,0,.37-.06.62-.51.9-.72,1.37a5.63,5.63,0,0,1,.25,2.12,2.79,2.79,0,0,1,0,.85c0,.08-.1.16-.11.25a2.16,2.16,0,0,0,0,.44c0,.39.42.56.37.93,0,.12-.12.22-.17.35.11.14.32.13.48.15.54.09,1.15,0,1.44.36.06.07.08.18.15.25s.12,0,.15.1a.89.89,0,0,1,.06.55.79.79,0,0,1-.12.28,1.38,1.38,0,0,1-.87.43c-.08,0-.16,0-.21,0s-.1.06-.18.07a1.08,1.08,0,0,1-.61-.06c-.25.09-.45-.07-.64-.11s-.12,0-.18,0-.24-.16-.39-.22a3.43,3.43,0,0,0-.54-.11,2.48,2.48,0,0,0-.57-.07c-.07.06-.08.19-.14.26a.68.68,0,0,1-.37-.06.62.62,0,0,1-.48,0c-.28.1-.45-.11-.72-.11a.91.91,0,0,1-.42-.87,1.08,1.08,0,0,0,0-.31c0-.17-.19-.27-.25-.43a2.73,2.73,0,0,1,0-.94,2.63,2.63,0,0,0-.1-.55c-.05-.3-.05-.58-.1-.86s-.16-.48-.21-.72-.11-.53-.14-.78a4.32,4.32,0,0,0-.07-1c-.06-.15-.22-.28-.31-.46-.21-.44-.13-1-.35-1.34-.09-.17-.24-.3-.35-.46s-.2-.33-.29-.5a3.21,3.21,0,0,0-.65-.94,9.16,9.16,0,0,0-.61,1.62c-.07.18-.16.34-.21.51s-.07.39-.12.58a8.24,8.24,0,0,1-.33.83c-.06.13-.12.27-.18.4s-.15.25-.19.37a.92.92,0,0,1-.19.4,2.37,2.37,0,0,1-.35.94c-.12.21-.18.44-.29.61s-.18.22-.26.33a3.94,3.94,0,0,1-.87.9l-.33.21-.3.22c-.22.33-.29.71-.49,1s-.38.41-.51.65-.16.37-.25.54-.24.29-.32.46,0,.32-.1.46-.31.4-.42.61a2.23,2.23,0,0,0-.11.6c0,.14-.06.32-.08.5a2.58,2.58,0,0,1,0,.55c-.06.15-.3.11-.4.25-.06.58.73.41.87.83a1.4,1.4,0,0,1,.64.61,1.28,1.28,0,0,1,.24.43c0,.09,0,.15,0,.21s.09.13.08.28a1.1,1.1,0,0,1-.24.54,1.68,1.68,0,0,1-1,.28,2.08,2.08,0,0,0-.29,0c-.06,0-.11.08-.19.1a.75.75,0,0,1-.42-.1.47.47,0,0,1-.6-.12c-.14,0-.42,0-.44-.21,0,0-.1,0-.14,0l-.13-.11s-.06-.1-.1-.14-.09,0-.13-.07a3.5,3.5,0,0,1-.19-.32,2.77,2.77,0,0,0-.61-.71c-.1.16-.35,0-.46-.1a1.62,1.62,0,0,1-.44-.55,1.51,1.51,0,0,1-.15-.35c0-.11.07-.19.1-.28s0-.26.07-.4a2.48,2.48,0,0,0,.1-.36c0-.08-.15-.18-.19-.25a1.34,1.34,0,0,1-.15-.39c0-.33.11-.6.1-.92,0-.11-.07-.2-.07-.32a3.31,3.31,0,0,1,.07-.49,2,2,0,0,0,.07-.22,1.4,1.4,0,0,0,0-.18,2.42,2.42,0,0,1,.29-1.15c.06-.15.13-.34.21-.51a1.41,1.41,0,0,0,.19-.53c0-.05,0-.12,0-.18a1.75,1.75,0,0,1,.06-.25c0-.25.14-.39.19-.61a2.46,2.46,0,0,1,.06-.3,2.53,2.53,0,0,1,.26-.4,4.65,4.65,0,0,0,.53-.8c.07-.15.18-.29.24-.43s.05-.46.14-.67.13-.18.15-.26a6,6,0,0,0,0-.61c0-.22.19-.37.28-.57a1.81,1.81,0,0,0,.08-.43c.05-.28.27-.49.35-.78-.12,0-.21-.12-.32-.18s-.42-.2-.5-.36a1.59,1.59,0,0,1-.11-.43,2.86,2.86,0,0,1,0-.64,4.91,4.91,0,0,1,.31-.73c0-.09.08-.18.1-.25s0-.26.06-.35a3.89,3.89,0,0,1,.29-.39c.21-.35.29-.71.58-.91l-.26-.25c.09-.28.4-.34.57-.54-.11-.5.38-.67.49-1,0-.06,0-.14,0-.21s.13-.19.15-.29,0-.34,0-.51.05-.25.06-.35-.11-.46-.11-.71a2,2,0,0,1,.1-.58,1.46,1.46,0,0,0,.12-.55c0-.14-.22-.3-.32-.43a1.83,1.83,0,0,1-.31-.43c0-.23.11-.47,0-.72,0-.06-.13,0-.15-.11a1.26,1.26,0,0,1,0-.21c-.18,0-.33,0-.43-.11a2.25,2.25,0,0,1-.22-.57.7.7,0,0,1,.1-.51.44.44,0,0,0,.39-.06.35.35,0,0,0,.29,0c.17-.17-.05-.49.07-.72a1.43,1.43,0,0,1-.54-1.4c.08-1.07.46-2.13.54-3.15-.08,0-.11.14-.19.17s-.1-.12-.18-.1a1.89,1.89,0,0,0,.07-.73c0-.2-.13-.31-.08-.5a1.78,1.78,0,0,1,.3-.5l.19-.21c.06-.07.16-.14.19-.21a1.35,1.35,0,0,0,0-.33c0-.31.12-.66.18-.93a1.6,1.6,0,0,1,.5-1,1.72,1.72,0,0,1,1.19-.33c.08,0,.15.06.25.06s.28-.26.39-.39a2.52,2.52,0,0,0,.18-.21c.06-.09.07-.19.12-.26a1.7,1.7,0,0,1,1.08-.43.4.4,0,0,0,.12-.14c0-.17-.31-.29-.32-.46s.16-.26.25-.35a2.46,2.46,0,0,1,.69-.5,1.47,1.47,0,0,0,.4-.19c.12-.13.09-.34.19-.46s-.14-.26-.17-.4a.75.75,0,0,1,.31-.68c0-.11-.16-.1-.14-.25s.15,0,.19,0a1.12,1.12,0,0,0,0-.4c-.6-.15-1.73-.18-2-.72s.43-.65.94-.6a1.15,1.15,0,0,1,.19-.47c0-.07.13-.12.17-.19s0-.21.14-.29a1.46,1.46,0,0,1,0-.26,1.2,1.2,0,0,1,.46-.65.56.56,0,0,1,.61,0,2.94,2.94,0,0,1,2-1.08c.23,0,.49-.09.64,0a2.09,2.09,0,0,1,1-.28c.29,0,.57.07.54.39.22.26.41.56.65.8a5.7,5.7,0,0,1,.55.31,2.36,2.36,0,0,1,.85,1.41,10,10,0,0,0,.49,1.22c.06.13.15.27.11.42a6.52,6.52,0,0,0-.86-.11c-.11.06-.05.17-.14.25s-.89.12-1.21.1c0,.16.11.25.15.37a1.74,1.74,0,0,1,.07.54,7.63,7.63,0,0,1-.31,2c.07,0,.17,0,.22.06,0,.38-.22.75-.11,1.14.14.11.38.13.53.24a.31.31,0,0,1-.42.43c-.05.05-.09.11-.18.12a.69.69,0,0,1-.19.42,3.58,3.58,0,0,0,.17.47,3.77,3.77,0,0,1,.44.08c.12.24.27.44.37.69-.06.13.06.23.08.35a5.39,5.39,0,0,1,1.22,1.25c.15,0,.21-.12.33-.14s.29.08.46,0,.13-.14.19-.21.24-.14.33-.24.29-.49.48-.69.23-.16.31-.29c-.5-.3-1.2-.4-1.7-.69.13-.18.41-.19.69-.22a5.5,5.5,0,0,1,2.15.11,9.26,9.26,0,0,1,1.05.4,4.53,4.53,0,0,0,1.11.35,8.25,8.25,0,0,1,1.16.28A1.29,1.29,0,0,1,206,13a12.61,12.61,0,0,0-1.61-.67.79.79,0,0,1-.32.71.89.89,0,0,1-.12.42s0,0,0,0-.08.09-.14.11a.49.49,0,0,1-.24.29c0,.23,0,.52-.24.55S203,14.36,202.9,14.33Zm-2.31,1.44c-.07,0-.13.13-.21.18l-.35.22a2.76,2.76,0,0,1-.33.25,1.94,1.94,0,0,0-.33.1c-.11.07-.19.23-.28.25s-.24,0-.33.06a3.27,3.27,0,0,0,.14,1.22,2.45,2.45,0,0,1,.37,0c.5-.79,1.07-1.58,1.51-2.38C200.73,15.75,200.65,15.74,200.58,15.78Zm-3.29,5.37s-.06.14,0,.17c.17-.22.27-.53.44-.75-.12-.07-.27-.11-.37-.19C197.34,20.62,197.32,20.91,197.3,21.14Z"/><path class="cls-1" d="M229.07,14.33c-.05.1-.29.22-.36.06-.59,1-1.23,2-1.83,3-.2.34-.41.68-.58,1,0,0,0,0-.08,0,.13.16.36.34.35.58,0,.07-.07.12-.08.18s0,.18,0,.26-.15.25-.21.39-.12.4-.28.5c0,.21-.13.27-.21.42s-.06.2-.12.25a1.31,1.31,0,0,1-.47.15c-.14,0-.29-.08-.46,0a1.7,1.7,0,0,0-.28.39,1.1,1.1,0,0,0-.21.46c0,.1.11.23.17.36a4.31,4.31,0,0,1,.26.79c0,.15,0,.29.05.44s.22.64.06.9c-.11,0-.18-.08-.32-.06a5.44,5.44,0,0,0,.22.83c.09.18.28.27.38.43a3.19,3.19,0,0,1,.11.3,5.35,5.35,0,0,0,.36.5c.17.14.51.19.51.46,0,.11-.09.21-.08.35a1.42,1.42,0,0,0,.18.42c.15.29.3.47.46.73a1.87,1.87,0,0,0,.24.36c.07.06.16.08.21.12a2,2,0,0,1,.32,1,6.78,6.78,0,0,1,.14,1.16c0,.26-.07.55-.08.85,0,.12,0,.25,0,.37-.06.62-.51.9-.72,1.37a5.63,5.63,0,0,1,.25,2.12,2.79,2.79,0,0,1,0,.85c0,.08-.1.16-.11.25a2.16,2.16,0,0,0,0,.44c0,.39.42.56.37.93,0,.12-.12.22-.17.35.11.14.32.13.48.15.54.09,1.15,0,1.44.36.06.07.08.18.15.25s.12,0,.15.1a.89.89,0,0,1,.06.55.79.79,0,0,1-.12.28,1.38,1.38,0,0,1-.87.43c-.08,0-.16,0-.21,0s-.1.06-.18.07a1.08,1.08,0,0,1-.61-.06c-.25.09-.45-.07-.64-.11s-.12,0-.18,0-.24-.16-.39-.22a3.43,3.43,0,0,0-.54-.11,2.48,2.48,0,0,0-.57-.07c-.07.06-.08.19-.14.26a.68.68,0,0,1-.37-.06.62.62,0,0,1-.48,0c-.28.1-.45-.11-.72-.11a.91.91,0,0,1-.42-.87,1.08,1.08,0,0,0,0-.31c0-.17-.19-.27-.25-.43a2.73,2.73,0,0,1,0-.94,2.63,2.63,0,0,0-.1-.55c-.05-.3-.05-.58-.1-.86s-.16-.48-.21-.72-.11-.53-.14-.78a4.32,4.32,0,0,0-.07-1c-.06-.15-.22-.28-.31-.46-.21-.44-.13-1-.35-1.34-.09-.17-.24-.3-.35-.46s-.2-.33-.29-.5a3.21,3.21,0,0,0-.65-.94,9.16,9.16,0,0,0-.61,1.62c-.07.18-.16.34-.21.51s-.07.39-.12.58a8.24,8.24,0,0,1-.33.83c-.06.13-.12.27-.18.4s-.15.25-.19.37a.92.92,0,0,1-.19.4,2.37,2.37,0,0,1-.35.94c-.12.21-.18.44-.29.61s-.18.22-.26.33a3.94,3.94,0,0,1-.87.9l-.33.21-.3.22c-.22.33-.29.71-.49,1s-.38.41-.51.65-.16.37-.25.54-.24.29-.32.46,0,.32-.1.46-.31.4-.42.61a2.23,2.23,0,0,0-.11.6c0,.14-.06.32-.08.5a2.58,2.58,0,0,1,0,.55c-.06.15-.3.11-.4.25-.06.58.73.41.87.83a1.4,1.4,0,0,1,.64.61,1.28,1.28,0,0,1,.24.43c0,.09,0,.15,0,.21s.09.13.08.28a1.1,1.1,0,0,1-.24.54,1.68,1.68,0,0,1-1,.28,2.08,2.08,0,0,0-.29,0c-.06,0-.11.08-.19.1a.75.75,0,0,1-.42-.1.47.47,0,0,1-.6-.12c-.14,0-.42,0-.44-.21,0,0-.1,0-.14,0l-.13-.11s-.06-.1-.1-.14-.09,0-.13-.07a3.5,3.5,0,0,1-.19-.32,2.77,2.77,0,0,0-.61-.71c-.1.16-.35,0-.46-.1a1.62,1.62,0,0,1-.44-.55,1.51,1.51,0,0,1-.15-.35c0-.11.07-.19.1-.28s0-.26.07-.4a2.48,2.48,0,0,0,.1-.36c0-.08-.15-.18-.19-.25a1.34,1.34,0,0,1-.15-.39c0-.33.11-.6.1-.92,0-.11-.07-.2-.07-.32a3.31,3.31,0,0,1,.07-.49,2,2,0,0,0,.07-.22,1.4,1.4,0,0,0,0-.18,2.42,2.42,0,0,1,.29-1.15c.06-.15.13-.34.21-.51a1.41,1.41,0,0,0,.19-.53c0-.05,0-.12,0-.18a1.75,1.75,0,0,1,.06-.25c0-.25.14-.39.19-.61a2.46,2.46,0,0,1,.06-.3,2.53,2.53,0,0,1,.26-.4,4.65,4.65,0,0,0,.53-.8c.07-.15.18-.29.24-.43s.05-.46.14-.67.13-.18.15-.26a6,6,0,0,0,0-.61c0-.22.19-.37.28-.57a1.81,1.81,0,0,0,.08-.43c.05-.28.27-.49.35-.78-.12,0-.21-.12-.32-.18s-.42-.2-.5-.36a1.59,1.59,0,0,1-.11-.43,2.86,2.86,0,0,1,0-.64,4.91,4.91,0,0,1,.31-.73c0-.09.08-.18.1-.25s0-.26.06-.35a3.89,3.89,0,0,1,.29-.39c.21-.35.29-.71.58-.91l-.26-.25c.09-.28.4-.34.57-.54-.11-.5.38-.67.49-1,0-.06,0-.14,0-.21s.13-.19.15-.29,0-.34,0-.51.05-.25.06-.35-.11-.46-.11-.71a2,2,0,0,1,.1-.58,1.46,1.46,0,0,0,.12-.55c0-.14-.22-.3-.32-.43a1.83,1.83,0,0,1-.31-.43c0-.23.11-.47,0-.72,0-.06-.13,0-.15-.11a1.26,1.26,0,0,1,0-.21c-.18,0-.33,0-.43-.11a2.25,2.25,0,0,1-.22-.57.7.7,0,0,1,.1-.51.44.44,0,0,0,.39-.06.35.35,0,0,0,.29,0c.17-.17-.05-.49.07-.72a1.43,1.43,0,0,1-.54-1.4c.08-1.07.46-2.13.54-3.15-.08,0-.11.14-.19.17s-.1-.12-.18-.1a1.89,1.89,0,0,0,.07-.73c0-.2-.13-.31-.08-.5a1.78,1.78,0,0,1,.3-.5l.19-.21c.06-.07.16-.14.19-.21a1.35,1.35,0,0,0,0-.33c0-.31.12-.66.18-.93a1.6,1.6,0,0,1,.5-1,1.72,1.72,0,0,1,1.19-.33c.08,0,.15.06.25.06s.28-.26.39-.39A2.52,2.52,0,0,0,216.6,9c.06-.09.07-.19.12-.26a1.7,1.7,0,0,1,1.08-.43.4.4,0,0,0,.12-.14c0-.17-.31-.29-.32-.46s.16-.26.25-.35a2.46,2.46,0,0,1,.69-.5,1.47,1.47,0,0,0,.4-.19c.12-.13.09-.34.19-.46S219,6,219,5.82a.75.75,0,0,1,.31-.68c0-.11-.16-.1-.14-.25s.15,0,.19,0a1.12,1.12,0,0,0,0-.4c-.6-.15-1.73-.18-2-.72s.43-.65.94-.6a1.15,1.15,0,0,1,.19-.47c0-.07.13-.12.17-.19s0-.21.14-.29a1.46,1.46,0,0,1,0-.26,1.2,1.2,0,0,1,.46-.65.56.56,0,0,1,.61,0,2.94,2.94,0,0,1,2-1.08c.23,0,.49-.09.64,0a2.09,2.09,0,0,1,1-.28c.29,0,.57.07.54.39.22.26.41.56.65.8a5.7,5.7,0,0,1,.55.31A2.36,2.36,0,0,1,226,2.91a10,10,0,0,0,.49,1.22c.06.13.15.27.11.42a6.52,6.52,0,0,0-.86-.11c-.11.06-.05.17-.14.25s-.89.12-1.21.1c0,.16.11.25.15.37a1.74,1.74,0,0,1,.07.54,7.63,7.63,0,0,1-.31,2c.07,0,.17,0,.22.06,0,.38-.22.75-.11,1.14.14.11.38.13.53.24a.31.31,0,0,1-.42.43c-.05.05-.09.11-.18.12a.69.69,0,0,1-.19.42,3.58,3.58,0,0,0,.17.47,3.77,3.77,0,0,1,.44.08c.12.24.27.44.37.69-.06.13.06.23.08.35a5.39,5.39,0,0,1,1.22,1.25c.15,0,.21-.12.33-.14s.29.08.46,0,.13-.14.19-.21.24-.14.33-.24.29-.49.48-.69.23-.16.31-.29c-.5-.3-1.2-.4-1.7-.69.13-.18.41-.19.69-.22a5.5,5.5,0,0,1,2.15.11,9.26,9.26,0,0,1,1.05.4,4.53,4.53,0,0,0,1.11.35,8.25,8.25,0,0,1,1.16.28,1.29,1.29,0,0,1-.86,1.46,12.61,12.61,0,0,0-1.61-.67.79.79,0,0,1-.32.71.89.89,0,0,1-.12.42s0,0,0,0-.08.09-.14.11a.49.49,0,0,1-.24.29c0,.23,0,.52-.24.55S229.21,14.36,229.07,14.33Zm-2.31,1.44c-.07,0-.13.13-.21.18l-.35.22a2.76,2.76,0,0,1-.33.25,1.94,1.94,0,0,0-.33.1c-.11.07-.19.23-.28.25s-.24,0-.33.06a3.27,3.27,0,0,0,.14,1.22,2.45,2.45,0,0,1,.37,0c.5-.79,1.07-1.58,1.51-2.38C226.9,15.75,226.83,15.74,226.76,15.78Zm-3.29,5.37s-.06.14,0,.17c.17-.22.27-.53.44-.75-.12-.07-.27-.11-.37-.19C223.52,20.62,223.49,20.91,223.47,21.14Z"/><path class="cls-1" d="M255.25,14.33c-.05.1-.29.22-.36.06-.59,1-1.23,2-1.83,3-.2.34-.41.68-.58,1,0,0,0,0-.08,0,.13.16.36.34.35.58,0,.07-.07.12-.08.18s0,.18,0,.26-.15.25-.21.39-.12.4-.28.5c0,.21-.13.27-.21.42s-.06.2-.12.25a1.31,1.31,0,0,1-.47.15c-.14,0-.29-.08-.46,0a1.7,1.7,0,0,0-.28.39,1.1,1.1,0,0,0-.21.46c0,.1.11.23.17.36a4.31,4.31,0,0,1,.26.79c0,.15,0,.29.05.44s.22.64.06.9c-.11,0-.18-.08-.32-.06a5.44,5.44,0,0,0,.22.83c.09.18.28.27.38.43a3.19,3.19,0,0,1,.11.3,5.35,5.35,0,0,0,.36.5c.17.14.51.19.51.46,0,.11-.09.21-.08.35a1.42,1.42,0,0,0,.18.42c.15.29.3.47.46.73a1.87,1.87,0,0,0,.24.36c.07.06.16.08.21.12a2,2,0,0,1,.32,1,6.78,6.78,0,0,1,.14,1.16c0,.26-.07.55-.08.85,0,.12,0,.25,0,.37-.06.62-.51.9-.72,1.37a5.63,5.63,0,0,1,.25,2.12,2.79,2.79,0,0,1,0,.85c0,.08-.1.16-.11.25a2.16,2.16,0,0,0,0,.44c0,.39.42.56.37.93,0,.12-.12.22-.17.35.11.14.32.13.48.15.54.09,1.15,0,1.44.36.06.07.08.18.15.25s.12,0,.15.1a.89.89,0,0,1,.06.55.79.79,0,0,1-.12.28,1.38,1.38,0,0,1-.87.43c-.08,0-.16,0-.21,0s-.1.06-.18.07a1.08,1.08,0,0,1-.61-.06c-.25.09-.45-.07-.64-.11s-.12,0-.18,0-.24-.16-.39-.22a3.43,3.43,0,0,0-.54-.11,2.48,2.48,0,0,0-.57-.07c-.07.06-.08.19-.14.26a.68.68,0,0,1-.37-.06.62.62,0,0,1-.48,0c-.28.1-.45-.11-.72-.11a.91.91,0,0,1-.42-.87,1.08,1.08,0,0,0,0-.31c0-.17-.19-.27-.25-.43a2.73,2.73,0,0,1,0-.94,2.63,2.63,0,0,0-.1-.55c-.05-.3-.05-.58-.1-.86s-.16-.48-.21-.72-.11-.53-.14-.78a4.32,4.32,0,0,0-.07-1c-.06-.15-.22-.28-.31-.46-.21-.44-.13-1-.35-1.34-.09-.17-.24-.3-.35-.46s-.2-.33-.29-.5a3.21,3.21,0,0,0-.65-.94,9.16,9.16,0,0,0-.61,1.62c-.07.18-.16.34-.21.51s-.07.39-.12.58a8.24,8.24,0,0,1-.33.83c-.06.13-.12.27-.18.4s-.15.25-.19.37a.92.92,0,0,1-.19.4,2.37,2.37,0,0,1-.35.94c-.12.21-.18.44-.29.61s-.18.22-.26.33a3.94,3.94,0,0,1-.87.9l-.33.21-.3.22c-.22.33-.29.71-.49,1s-.38.41-.51.65-.16.37-.25.54-.24.29-.32.46,0,.32-.1.46-.31.4-.42.61a2.23,2.23,0,0,0-.11.6c0,.14-.06.32-.08.5a2.58,2.58,0,0,1,0,.55c-.06.15-.3.11-.4.25-.06.58.73.41.87.83a1.4,1.4,0,0,1,.64.61,1.28,1.28,0,0,1,.24.43c0,.09,0,.15,0,.21s.09.13.08.28a1.1,1.1,0,0,1-.24.54,1.68,1.68,0,0,1-1,.28,2.08,2.08,0,0,0-.29,0c-.06,0-.11.08-.19.1a.75.75,0,0,1-.42-.1.47.47,0,0,1-.6-.12c-.14,0-.42,0-.44-.21,0,0-.1,0-.14,0l-.13-.11s-.06-.1-.1-.14-.09,0-.13-.07a3.5,3.5,0,0,1-.19-.32,2.77,2.77,0,0,0-.61-.71c-.1.16-.35,0-.46-.1a1.62,1.62,0,0,1-.44-.55,1.51,1.51,0,0,1-.15-.35c0-.11.07-.19.1-.28s0-.26.07-.4a2.48,2.48,0,0,0,.1-.36c0-.08-.15-.18-.19-.25a1.34,1.34,0,0,1-.15-.39c0-.33.11-.6.1-.92,0-.11-.07-.2-.07-.32a3.31,3.31,0,0,1,.07-.49,2,2,0,0,0,.07-.22,1.4,1.4,0,0,0,0-.18,2.42,2.42,0,0,1,.29-1.15c.06-.15.13-.34.21-.51a1.41,1.41,0,0,0,.19-.53c0-.05,0-.12,0-.18a1.75,1.75,0,0,1,.06-.25c0-.25.14-.39.19-.61a2.46,2.46,0,0,1,.06-.3,2.53,2.53,0,0,1,.26-.4,4.65,4.65,0,0,0,.53-.8c.07-.15.18-.29.24-.43s.05-.46.14-.67.13-.18.15-.26a6,6,0,0,0,0-.61c0-.22.19-.37.28-.57a1.81,1.81,0,0,0,.08-.43c.05-.28.27-.49.35-.78-.12,0-.21-.12-.32-.18s-.42-.2-.5-.36a1.59,1.59,0,0,1-.11-.43,2.86,2.86,0,0,1,0-.64,4.91,4.91,0,0,1,.31-.73c0-.09.08-.18.1-.25s0-.26.06-.35a3.89,3.89,0,0,1,.29-.39c.21-.35.29-.71.58-.91l-.26-.25c.09-.28.4-.34.57-.54-.11-.5.38-.67.49-1,0-.06,0-.14,0-.21s.13-.19.15-.29,0-.34,0-.51.05-.25.06-.35-.11-.46-.11-.71a2,2,0,0,1,.1-.58,1.46,1.46,0,0,0,.12-.55c0-.14-.22-.3-.32-.43a1.83,1.83,0,0,1-.31-.43c0-.23.11-.47,0-.72,0-.06-.13,0-.15-.11a1.26,1.26,0,0,1,0-.21c-.18,0-.33,0-.43-.11a2.25,2.25,0,0,1-.22-.57.7.7,0,0,1,.1-.51.44.44,0,0,0,.39-.06.35.35,0,0,0,.29,0c.17-.17-.05-.49.07-.72a1.43,1.43,0,0,1-.54-1.4c.08-1.07.46-2.13.54-3.15-.08,0-.11.14-.19.17s-.1-.12-.18-.1a1.89,1.89,0,0,0,.07-.73c0-.2-.13-.31-.08-.5a1.78,1.78,0,0,1,.3-.5l.19-.21c.06-.07.16-.14.19-.21a1.35,1.35,0,0,0,0-.33c0-.31.12-.66.18-.93a1.6,1.6,0,0,1,.5-1A1.72,1.72,0,0,1,242,9.55c.08,0,.15.06.25.06s.28-.26.39-.39a2.52,2.52,0,0,0,.18-.21c.06-.09.07-.19.12-.26A1.7,1.7,0,0,1,244,8.32a.4.4,0,0,0,.12-.14c0-.17-.31-.29-.32-.46s.16-.26.25-.35a2.46,2.46,0,0,1,.69-.5,1.47,1.47,0,0,0,.4-.19c.12-.13.09-.34.19-.46s-.14-.26-.17-.4a.75.75,0,0,1,.31-.68c0-.11-.16-.1-.14-.25s.15,0,.19,0a1.12,1.12,0,0,0,0-.4c-.6-.15-1.73-.18-2-.72s.43-.65.94-.6a1.15,1.15,0,0,1,.19-.47c0-.07.13-.12.17-.19s0-.21.14-.29A1.46,1.46,0,0,1,245,2a1.2,1.2,0,0,1,.46-.65.56.56,0,0,1,.61,0,2.94,2.94,0,0,1,2-1.08c.23,0,.49-.09.64,0a2.09,2.09,0,0,1,1-.28c.29,0,.57.07.54.39.22.26.41.56.65.8a5.7,5.7,0,0,1,.55.31,2.36,2.36,0,0,1,.85,1.41,10,10,0,0,0,.49,1.22c.06.13.15.27.11.42a6.52,6.52,0,0,0-.86-.11c-.11.06-.05.17-.14.25s-.89.12-1.21.1c0,.16.11.25.15.37a1.74,1.74,0,0,1,.07.54,7.63,7.63,0,0,1-.31,2c.07,0,.17,0,.22.06,0,.38-.22.75-.11,1.14.14.11.38.13.53.24a.31.31,0,0,1-.42.43c-.05.05-.09.11-.18.12a.69.69,0,0,1-.19.42,3.58,3.58,0,0,0,.17.47,3.77,3.77,0,0,1,.44.08c.12.24.27.44.37.69-.06.13.06.23.08.35a5.39,5.39,0,0,1,1.22,1.25c.15,0,.21-.12.33-.14s.29.08.46,0,.13-.14.19-.21.24-.14.33-.24.29-.49.48-.69.23-.16.31-.29c-.5-.3-1.2-.4-1.7-.69.13-.18.41-.19.69-.22a5.5,5.5,0,0,1,2.15.11A9.26,9.26,0,0,1,257,11a4.53,4.53,0,0,0,1.11.35,8.25,8.25,0,0,1,1.16.28,1.29,1.29,0,0,1-.86,1.46,12.61,12.61,0,0,0-1.61-.67.79.79,0,0,1-.32.71.89.89,0,0,1-.12.42s0,0,0,0-.08.09-.14.11a.49.49,0,0,1-.24.29c0,.23,0,.52-.24.55S255.39,14.36,255.25,14.33Zm-2.31,1.44c-.07,0-.13.13-.21.18l-.35.22a2.76,2.76,0,0,1-.33.25,1.94,1.94,0,0,0-.33.1c-.11.07-.19.23-.28.25s-.24,0-.33.06a3.27,3.27,0,0,0,.14,1.22,2.45,2.45,0,0,1,.37,0c.5-.79,1.07-1.58,1.51-2.38C253.08,15.75,253,15.74,252.93,15.78Zm-3.29,5.37s-.06.14,0,.17c.17-.22.27-.53.44-.75-.12-.07-.27-.11-.37-.19C249.69,20.62,249.67,20.91,249.65,21.14Z"/><path class="cls-1" d="M281.42,14.33c-.05.1-.29.22-.36.06-.59,1-1.23,2-1.83,3-.2.34-.41.68-.58,1,0,0,0,0-.08,0,.13.16.36.34.35.58,0,.07-.07.12-.08.18s0,.18,0,.26-.15.25-.21.39-.12.4-.28.5c0,.21-.13.27-.21.42s-.06.2-.12.25a1.31,1.31,0,0,1-.47.15c-.14,0-.29-.08-.46,0a1.7,1.7,0,0,0-.28.39,1.1,1.1,0,0,0-.21.46c0,.1.11.23.17.36a4.31,4.31,0,0,1,.26.79c0,.15,0,.29.05.44s.22.64.06.9c-.11,0-.18-.08-.32-.06a5.44,5.44,0,0,0,.22.83c.09.18.28.27.38.43a3.19,3.19,0,0,1,.11.3,5.35,5.35,0,0,0,.36.5c.17.14.51.19.51.46,0,.11-.09.21-.08.35a1.42,1.42,0,0,0,.18.42c.15.29.3.47.46.73a1.87,1.87,0,0,0,.24.36c.07.06.16.08.21.12a2,2,0,0,1,.32,1,6.78,6.78,0,0,1,.14,1.16c0,.26-.07.55-.08.85,0,.12,0,.25,0,.37-.06.62-.51.9-.72,1.37a5.63,5.63,0,0,1,.25,2.12,2.79,2.79,0,0,1,0,.85c0,.08-.1.16-.11.25a2.16,2.16,0,0,0,0,.44c0,.39.42.56.37.93,0,.12-.12.22-.17.35.11.14.32.13.48.15.54.09,1.15,0,1.44.36.06.07.08.18.15.25s.12,0,.15.1a.89.89,0,0,1,.06.55.79.79,0,0,1-.12.28,1.38,1.38,0,0,1-.87.43c-.08,0-.16,0-.21,0s-.1.06-.18.07a1.08,1.08,0,0,1-.61-.06c-.25.09-.45-.07-.64-.11s-.12,0-.18,0-.24-.16-.39-.22a3.43,3.43,0,0,0-.54-.11,2.48,2.48,0,0,0-.57-.07c-.07.06-.08.19-.14.26a.68.68,0,0,1-.37-.06.62.62,0,0,1-.48,0c-.28.1-.45-.11-.72-.11a.91.91,0,0,1-.42-.87,1.08,1.08,0,0,0,0-.31c0-.17-.19-.27-.25-.43a2.73,2.73,0,0,1,0-.94,2.63,2.63,0,0,0-.1-.55c-.05-.3-.05-.58-.1-.86s-.16-.48-.21-.72-.11-.53-.14-.78a4.32,4.32,0,0,0-.07-1c-.06-.15-.22-.28-.31-.46-.21-.44-.13-1-.35-1.34-.09-.17-.24-.3-.35-.46s-.2-.33-.29-.5a3.21,3.21,0,0,0-.65-.94,9.16,9.16,0,0,0-.61,1.62c-.07.18-.16.34-.21.51s-.07.39-.12.58a8.24,8.24,0,0,1-.33.83c-.06.13-.12.27-.18.4s-.15.25-.19.37a.92.92,0,0,1-.19.4,2.37,2.37,0,0,1-.35.94c-.12.21-.18.44-.29.61s-.18.22-.26.33a3.94,3.94,0,0,1-.87.9l-.33.21-.3.22c-.22.33-.29.71-.49,1s-.38.41-.51.65-.16.37-.25.54-.24.29-.32.46,0,.32-.1.46-.31.4-.42.61a2.23,2.23,0,0,0-.11.6c0,.14-.06.32-.08.5a2.58,2.58,0,0,1,0,.55c-.06.15-.3.11-.4.25-.06.58.73.41.87.83a1.4,1.4,0,0,1,.64.61,1.28,1.28,0,0,1,.24.43c0,.09,0,.15,0,.21s.09.13.08.28a1.1,1.1,0,0,1-.24.54,1.68,1.68,0,0,1-1,.28,2.08,2.08,0,0,0-.29,0c-.06,0-.11.08-.19.1a.75.75,0,0,1-.42-.1.47.47,0,0,1-.6-.12c-.14,0-.42,0-.44-.21,0,0-.1,0-.14,0l-.13-.11s-.06-.1-.1-.14-.09,0-.13-.07a3.5,3.5,0,0,1-.19-.32,2.77,2.77,0,0,0-.61-.71c-.1.16-.35,0-.46-.1a1.62,1.62,0,0,1-.44-.55,1.51,1.51,0,0,1-.15-.35c0-.11.07-.19.1-.28s0-.26.07-.4a2.48,2.48,0,0,0,.1-.36c0-.08-.15-.18-.19-.25a1.34,1.34,0,0,1-.15-.39c0-.33.11-.6.1-.92,0-.11-.07-.2-.07-.32a3.31,3.31,0,0,1,.07-.49,2,2,0,0,0,.07-.22,1.4,1.4,0,0,0,0-.18,2.42,2.42,0,0,1,.29-1.15c.06-.15.13-.34.21-.51a1.41,1.41,0,0,0,.19-.53c0-.05,0-.12,0-.18a1.75,1.75,0,0,1,.06-.25c0-.25.14-.39.19-.61a2.46,2.46,0,0,1,.06-.3,2.53,2.53,0,0,1,.26-.4,4.65,4.65,0,0,0,.53-.8c.07-.15.18-.29.24-.43s.05-.46.14-.67.13-.18.15-.26a6,6,0,0,0,0-.61c0-.22.19-.37.28-.57a1.81,1.81,0,0,0,.08-.43c.05-.28.27-.49.35-.78-.12,0-.21-.12-.32-.18s-.42-.2-.5-.36a1.59,1.59,0,0,1-.11-.43,2.86,2.86,0,0,1,0-.64,4.91,4.91,0,0,1,.31-.73c0-.09.08-.18.1-.25s0-.26.06-.35a3.89,3.89,0,0,1,.29-.39c.21-.35.29-.71.58-.91l-.26-.25c.09-.28.4-.34.57-.54-.11-.5.38-.67.49-1,0-.06,0-.14,0-.21s.13-.19.15-.29,0-.34,0-.51.05-.25.06-.35-.11-.46-.11-.71a2,2,0,0,1,.1-.58,1.46,1.46,0,0,0,.12-.55c0-.14-.22-.3-.32-.43a1.83,1.83,0,0,1-.31-.43c0-.23.11-.47,0-.72,0-.06-.13,0-.15-.11a1.26,1.26,0,0,1,0-.21c-.18,0-.33,0-.43-.11a2.25,2.25,0,0,1-.22-.57.7.7,0,0,1,.1-.51.44.44,0,0,0,.39-.06.35.35,0,0,0,.29,0c.17-.17-.05-.49.07-.72a1.43,1.43,0,0,1-.54-1.4c.08-1.07.46-2.13.54-3.15-.08,0-.11.14-.19.17s-.1-.12-.18-.1a1.89,1.89,0,0,0,.07-.73c0-.2-.13-.31-.08-.5a1.78,1.78,0,0,1,.3-.5l.19-.21c.06-.07.16-.14.19-.21a1.35,1.35,0,0,0,0-.33c0-.31.12-.66.18-.93a1.6,1.6,0,0,1,.5-1,1.72,1.72,0,0,1,1.19-.33c.08,0,.15.06.25.06s.28-.26.39-.39a2.52,2.52,0,0,0,.18-.21c.06-.09.07-.19.12-.26a1.7,1.7,0,0,1,1.08-.43.4.4,0,0,0,.12-.14c0-.17-.31-.29-.32-.46s.16-.26.25-.35a2.46,2.46,0,0,1,.69-.5,1.47,1.47,0,0,0,.4-.19c.12-.13.09-.34.19-.46s-.14-.26-.17-.4a.75.75,0,0,1,.31-.68c0-.11-.16-.1-.14-.25s.15,0,.19,0a1.12,1.12,0,0,0,0-.4c-.6-.15-1.73-.18-2-.72s.43-.65.94-.6a1.15,1.15,0,0,1,.19-.47c0-.07.13-.12.17-.19s0-.21.14-.29a1.46,1.46,0,0,1,0-.26,1.2,1.2,0,0,1,.46-.65.56.56,0,0,1,.61,0,2.94,2.94,0,0,1,2-1.08c.23,0,.49-.09.64,0a2.09,2.09,0,0,1,1-.28c.29,0,.57.07.54.39.22.26.41.56.65.8a5.7,5.7,0,0,1,.55.31,2.36,2.36,0,0,1,.85,1.41,10,10,0,0,0,.49,1.22c.06.13.15.27.11.42a6.52,6.52,0,0,0-.86-.11c-.11.06-.05.17-.14.25s-.89.12-1.21.1c0,.16.11.25.15.37a1.74,1.74,0,0,1,.07.54,7.63,7.63,0,0,1-.31,2c.07,0,.17,0,.22.06,0,.38-.22.75-.11,1.14.14.11.38.13.53.24a.31.31,0,0,1-.42.43c-.05.05-.09.11-.18.12a.69.69,0,0,1-.19.42,3.58,3.58,0,0,0,.17.47,3.77,3.77,0,0,1,.44.08c.12.24.27.44.37.69-.06.13.06.23.08.35a5.39,5.39,0,0,1,1.22,1.25c.15,0,.21-.12.33-.14s.29.08.46,0,.13-.14.19-.21.24-.14.33-.24.29-.49.48-.69.23-.16.31-.29c-.5-.3-1.2-.4-1.7-.69.13-.18.41-.19.69-.22a5.5,5.5,0,0,1,2.15.11,9.26,9.26,0,0,1,1.05.4,4.53,4.53,0,0,0,1.11.35,8.25,8.25,0,0,1,1.16.28,1.29,1.29,0,0,1-.86,1.46,12.61,12.61,0,0,0-1.61-.67.79.79,0,0,1-.32.71.89.89,0,0,1-.12.42s0,0,0,0-.08.09-.14.11a.49.49,0,0,1-.24.29c0,.23,0,.52-.24.55S281.56,14.36,281.42,14.33Zm-2.31,1.44c-.07,0-.13.13-.21.18l-.35.22a2.76,2.76,0,0,1-.33.25,1.94,1.94,0,0,0-.33.1c-.11.07-.19.23-.28.25s-.24,0-.33.06a3.27,3.27,0,0,0,.14,1.22,2.45,2.45,0,0,1,.37,0c.5-.79,1.07-1.58,1.51-2.38C279.25,15.75,279.18,15.74,279.11,15.78Zm-3.29,5.37s-.06.14,0,.17c.17-.22.27-.53.44-.75-.12-.07-.27-.11-.37-.19C275.87,20.62,275.84,20.91,275.82,21.14Z"/><path class="cls-1" d="M307.59,14.33c-.05.1-.29.22-.36.06-.59,1-1.23,2-1.83,3-.2.34-.41.68-.58,1,0,0,0,0-.08,0,.13.16.36.34.35.58,0,.07-.07.12-.08.18s0,.18,0,.26-.15.25-.21.39-.12.4-.28.5c0,.21-.13.27-.21.42s-.06.2-.12.25a1.31,1.31,0,0,1-.47.15c-.14,0-.29-.08-.46,0a1.7,1.7,0,0,0-.28.39,1.1,1.1,0,0,0-.21.46c0,.1.11.23.17.36a4.31,4.31,0,0,1,.26.79c0,.15,0,.29.05.44s.22.64.06.9c-.11,0-.18-.08-.32-.06a5.44,5.44,0,0,0,.22.83c.09.18.28.27.38.43a3.19,3.19,0,0,1,.11.3,5.35,5.35,0,0,0,.36.5c.17.14.51.19.51.46,0,.11-.09.21-.08.35a1.42,1.42,0,0,0,.18.42c.15.29.3.47.46.73a1.87,1.87,0,0,0,.24.36c.07.06.16.08.21.12a2,2,0,0,1,.32,1,6.78,6.78,0,0,1,.14,1.16c0,.26-.07.55-.08.85,0,.12,0,.25,0,.37-.06.62-.51.9-.72,1.37a5.63,5.63,0,0,1,.25,2.12,2.79,2.79,0,0,1,0,.85c0,.08-.1.16-.11.25a2.16,2.16,0,0,0,0,.44c0,.39.42.56.37.93,0,.12-.12.22-.17.35.11.14.32.13.48.15.54.09,1.15,0,1.44.36.06.07.08.18.15.25s.12,0,.15.1a.89.89,0,0,1,.06.55.79.79,0,0,1-.12.28,1.38,1.38,0,0,1-.87.43c-.08,0-.16,0-.21,0s-.1.06-.18.07a1.08,1.08,0,0,1-.61-.06c-.25.09-.45-.07-.64-.11s-.12,0-.18,0-.24-.16-.39-.22a3.43,3.43,0,0,0-.54-.11,2.48,2.48,0,0,0-.57-.07c-.07.06-.08.19-.14.26a.68.68,0,0,1-.37-.06.62.62,0,0,1-.48,0c-.28.1-.45-.11-.72-.11a.91.91,0,0,1-.42-.87,1.08,1.08,0,0,0,0-.31c0-.17-.19-.27-.25-.43a2.73,2.73,0,0,1,0-.94,2.63,2.63,0,0,0-.1-.55c-.05-.3-.05-.58-.1-.86s-.16-.48-.21-.72-.11-.53-.14-.78a4.32,4.32,0,0,0-.07-1c-.06-.15-.22-.28-.31-.46-.21-.44-.13-1-.35-1.34-.09-.17-.24-.3-.35-.46s-.2-.33-.29-.5a3.21,3.21,0,0,0-.65-.94,9.16,9.16,0,0,0-.61,1.62c-.07.18-.16.34-.21.51s-.07.39-.12.58a8.24,8.24,0,0,1-.33.83c-.06.13-.12.27-.18.4s-.15.25-.19.37a.92.92,0,0,1-.19.4,2.37,2.37,0,0,1-.35.94c-.12.21-.18.44-.29.61s-.18.22-.26.33a3.94,3.94,0,0,1-.87.9l-.33.21-.3.22c-.22.33-.29.71-.49,1s-.38.41-.51.65-.16.37-.25.54-.24.29-.32.46,0,.32-.1.46-.31.4-.42.61a2.23,2.23,0,0,0-.11.6c0,.14-.06.32-.08.5a2.58,2.58,0,0,1,0,.55c-.06.15-.3.11-.4.25-.06.58.73.41.87.83a1.4,1.4,0,0,1,.64.61,1.28,1.28,0,0,1,.24.43c0,.09,0,.15,0,.21s.09.13.08.28a1.1,1.1,0,0,1-.24.54,1.68,1.68,0,0,1-1,.28,2.08,2.08,0,0,0-.29,0c-.06,0-.11.08-.19.1a.75.75,0,0,1-.42-.1.47.47,0,0,1-.6-.12c-.14,0-.42,0-.44-.21,0,0-.1,0-.14,0l-.13-.11s-.06-.1-.1-.14-.09,0-.13-.07a3.5,3.5,0,0,1-.19-.32,2.77,2.77,0,0,0-.61-.71c-.1.16-.35,0-.46-.1a1.62,1.62,0,0,1-.44-.55,1.51,1.51,0,0,1-.15-.35c0-.11.07-.19.1-.28s0-.26.07-.4a2.48,2.48,0,0,0,.1-.36c0-.08-.15-.18-.19-.25a1.34,1.34,0,0,1-.15-.39c0-.33.11-.6.1-.92,0-.11-.07-.2-.07-.32a3.31,3.31,0,0,1,.07-.49,2,2,0,0,0,.07-.22,1.4,1.4,0,0,0,0-.18,2.42,2.42,0,0,1,.29-1.15c.06-.15.13-.34.21-.51a1.41,1.41,0,0,0,.19-.53c0-.05,0-.12,0-.18a1.75,1.75,0,0,1,.06-.25c0-.25.14-.39.19-.61a2.46,2.46,0,0,1,.06-.3,2.53,2.53,0,0,1,.26-.4,4.65,4.65,0,0,0,.53-.8c.07-.15.18-.29.24-.43s.05-.46.14-.67.13-.18.15-.26a6,6,0,0,0,0-.61c0-.22.19-.37.28-.57a1.81,1.81,0,0,0,.08-.43c.05-.28.27-.49.35-.78-.12,0-.21-.12-.32-.18s-.42-.2-.5-.36a1.59,1.59,0,0,1-.11-.43,2.86,2.86,0,0,1,0-.64,4.91,4.91,0,0,1,.31-.73c0-.09.08-.18.1-.25s0-.26.06-.35a3.89,3.89,0,0,1,.29-.39c.21-.35.29-.71.58-.91l-.26-.25c.09-.28.4-.34.57-.54-.11-.5.38-.67.49-1,0-.06,0-.14,0-.21s.13-.19.15-.29,0-.34,0-.51.05-.25.06-.35-.11-.46-.11-.71a2,2,0,0,1,.1-.58,1.46,1.46,0,0,0,.12-.55c0-.14-.22-.3-.32-.43a1.83,1.83,0,0,1-.31-.43c0-.23.11-.47,0-.72,0-.06-.13,0-.15-.11a1.26,1.26,0,0,1,0-.21c-.18,0-.33,0-.43-.11a2.25,2.25,0,0,1-.22-.57.7.7,0,0,1,.1-.51.44.44,0,0,0,.39-.06.35.35,0,0,0,.29,0c.17-.17-.05-.49.07-.72a1.43,1.43,0,0,1-.54-1.4c.08-1.07.46-2.13.54-3.15-.08,0-.11.14-.19.17s-.1-.12-.18-.1a1.89,1.89,0,0,0,.07-.73c0-.2-.13-.31-.08-.5a1.78,1.78,0,0,1,.3-.5l.19-.21c.06-.07.16-.14.19-.21a1.35,1.35,0,0,0,0-.33c0-.31.12-.66.18-.93a1.6,1.6,0,0,1,.5-1,1.72,1.72,0,0,1,1.19-.33c.08,0,.15.06.25.06s.28-.26.39-.39a2.52,2.52,0,0,0,.18-.21c.06-.09.07-.19.12-.26a1.7,1.7,0,0,1,1.08-.43.4.4,0,0,0,.12-.14c0-.17-.31-.29-.32-.46s.16-.26.25-.35a2.46,2.46,0,0,1,.69-.5,1.47,1.47,0,0,0,.4-.19c.12-.13.09-.34.19-.46s-.14-.26-.17-.4a.75.75,0,0,1,.31-.68c0-.11-.16-.1-.14-.25s.15,0,.19,0a1.12,1.12,0,0,0,0-.4c-.6-.15-1.73-.18-2-.72s.43-.65.94-.6a1.15,1.15,0,0,1,.19-.47c0-.07.13-.12.17-.19s0-.21.14-.29a1.46,1.46,0,0,1,0-.26,1.2,1.2,0,0,1,.46-.65.56.56,0,0,1,.61,0,2.94,2.94,0,0,1,2-1.08c.23,0,.49-.09.64,0A2.09,2.09,0,0,1,302,0c.29,0,.57.07.54.39.22.26.41.56.65.8a5.7,5.7,0,0,1,.55.31,2.36,2.36,0,0,1,.85,1.41A10,10,0,0,0,305,4.13c.06.13.15.27.11.42a6.52,6.52,0,0,0-.86-.11c-.11.06-.05.17-.14.25s-.89.12-1.21.1c0,.16.11.25.15.37a1.74,1.74,0,0,1,.07.54,7.63,7.63,0,0,1-.31,2c.07,0,.17,0,.22.06,0,.38-.22.75-.11,1.14.14.11.38.13.53.24a.31.31,0,0,1-.42.43c-.05.05-.09.11-.18.12a.69.69,0,0,1-.19.42,3.58,3.58,0,0,0,.17.47,3.77,3.77,0,0,1,.44.08c.12.24.27.44.37.69-.06.13.06.23.08.35A5.39,5.39,0,0,1,305,12.95c.15,0,.21-.12.33-.14s.29.08.46,0,.13-.14.19-.21.24-.14.33-.24.29-.49.48-.69.23-.16.31-.29c-.5-.3-1.2-.4-1.7-.69.13-.18.41-.19.69-.22a5.5,5.5,0,0,1,2.15.11,9.26,9.26,0,0,1,1.05.4,4.53,4.53,0,0,0,1.11.35,8.25,8.25,0,0,1,1.16.28,1.29,1.29,0,0,1-.86,1.46,12.61,12.61,0,0,0-1.61-.67.79.79,0,0,1-.32.71.89.89,0,0,1-.12.42s0,0,0,0-.08.09-.14.11a.49.49,0,0,1-.24.29c0,.23,0,.52-.24.55S307.74,14.36,307.59,14.33Zm-2.31,1.44c-.07,0-.13.13-.21.18l-.35.22a2.76,2.76,0,0,1-.33.25,1.94,1.94,0,0,0-.33.1c-.11.07-.19.23-.28.25s-.24,0-.33.06a3.27,3.27,0,0,0,.14,1.22,2.45,2.45,0,0,1,.37,0c.5-.79,1.07-1.58,1.51-2.38C305.42,15.75,305.35,15.74,305.28,15.78ZM302,21.14s-.06.14,0,.17c.17-.22.27-.53.44-.75-.12-.07-.27-.11-.37-.19C302,20.62,302,20.91,302,21.14Z"/></g></g></svg>