<svg xmlns="http://www.w3.org/2000/svg" viewBox="0 0 238.77 34.85"><defs><style>.cls-1,.cls-2{fill:#6cafdf;}.cls-1{opacity:0.85;}.cls-3{fill:#fff;fill-rule:evenodd;}</style></defs><title>Asset 4</title><g id="Layer_2" data-name="Layer 2"><g id="Layer_1-2" data-name="Layer 1"><rect class="cls-1" width="238.77" height="34.85" rx="17.43" ry="17.43" transform="translate(238.77 34.85) rotate(-180)"/><rect class="cls-2" x="184.53" width="54.24" height="34.85" rx="17.43" ry="17.43" transform="translate(423.29 34.85) rotate(-180)"/><path class="cls-3" d="M219.84,23.89l-3.46,1.42V16.85L204.91,11l3.32-1.32,11.61,5.85v8.36Zm.65-2.37,8-3.19v1.58l-8,3.19V21.52ZM205.83,29l9.91-4V23.41l-9.91,4-10.32-5.12v1.58L205.83,29Zm14.65-9.8v1.58l8-3.19V16l-8,3.19ZM205.83,26.6l9.91-4V21.06l-9.91,4L195.52,19.9v1.58l10.32,5.12Zm14.65-9.8v1.58l8-3.19V13.61l-8,3.19Zm-14.65,7.44,9.91-4V18.7l-9.91,4-10.32-5.12v1.58l10.32,5.12Zm11.61-10.63a1.44,1.44,0,0,0-.11-.32,3.74,3.74,0,0,0-1.74-1.51,10.64,10.64,0,0,0-3.12-1l-.76-.09,5.73,2.88Zm11-2.29L218.16,6.08l-8.75,3.49,1.25.63,2-.8L216.12,8l.39.2a3.72,3.72,0,0,0,2.69.07l.44-.18,4.53,2.3-.44.18c-.79.32-.87.86-.17,1.21l.39.2-3.44,1.38-2,.79,1.95,1V16l8-3.19V11.32Zm-14.82,4.79-5.79,2.31-.39-.2a3.72,3.72,0,0,0-2.69-.07l-.44.18L199.82,16l.44-.18c.79-.32.87-.86.17-1.21l-.39-.2,5.8-2.32-1.24-.63-9.08,3.63v1.64l10.32,5.12,9.91-4v-.76l-2.08-1.06Zm-7.14-3.63a1.26,1.26,0,0,0,.13.67,3.74,3.74,0,0,0,1.74,1.51,10.64,10.64,0,0,0,3.12,1,12.46,12.46,0,0,0,1.45.14Z"/></g></g></svg>