<svg xmlns="http://www.w3.org/2000/svg" viewBox="0 0 124.4 124.4"><defs><style>.cls-1{fill:#6cafe0;}.cls-1,.cls-2{fill-rule:evenodd;}.cls-2{fill:#ab1e41;}</style></defs><title>Asset 6</title><g id="Layer_2" data-name="Layer 2"><g id="by_the_numbers" data-name="by the numbers"><polygon class="cls-1" points="69.81 32.28 69.86 58.96 90 94.46 79.07 100.63 56.32 60.53 56.18 32.28 69.81 32.28"/><path class="cls-2" d="M62.2,0A62.2,62.2,0,1,1,0,62.2,62.2,62.2,0,0,1,62.2,0ZM13,55.82H23.77V68.58H13a49.64,49.64,0,0,0,42.83,42.83V100.62H68.58V111.4a49.64,49.64,0,0,0,42.83-42.83H100.62V55.82H111.4A49.63,49.63,0,0,0,68.58,13V23.77H55.82V13A49.63,49.63,0,0,0,13,55.82Z"/></g></g></svg>