<svg xmlns="http://www.w3.org/2000/svg" viewBox="0 0 188.71 200.65"><defs><style>.cls-1,.cls-3{fill:#6cafe0;}.cls-1,.cls-2{fill-rule:evenodd;}.cls-2{fill:#ab1e41;}.cls-4{fill:#152d53;}</style></defs><title>Asset 13</title><g id="Layer_2" data-name="Layer 2"><g id="by_the_numbers" data-name="by the numbers"><polygon class="cls-1" points="134.12 32.28 134.17 58.96 154.31 94.46 143.38 100.63 120.64 60.53 120.5 32.28 134.12 32.28"/><path class="cls-2" d="M126.51,0a62.2,62.2,0,1,1-62.2,62.2A62.2,62.2,0,0,1,126.51,0ZM77.3,55.82H88.08V68.58H77.3a49.64,49.64,0,0,0,42.83,42.83V100.62h12.76V111.4a49.64,49.64,0,0,0,42.83-42.83H164.93V55.82h10.78A49.63,49.63,0,0,0,132.89,13V23.77H120.13V13A49.63,49.63,0,0,0,77.3,55.82Z"/><path class="cls-3" d="M9.66,161.32a10.82,10.82,0,0,1-4.08-.72,8.28,8.28,0,0,1-3-2.06,8.94,8.94,0,0,1-1.9-3.31A14,14,0,0,1,0,150.78q0-5.53,2.95-8.47t8.55-2.93a20.78,20.78,0,0,1,2.24.13q1.2.13,2.24.29,1.21.2,2.39.43l.26.65q-.2.92-.36,2t-.33,2.23q-.16,1.28-.23,2.78l-5,.29a5.16,5.16,0,0,1,0-.56c0-.17,0-.37,0-.59s0-.46,0-.72a2.75,2.75,0,0,0-.5-1.88,2.31,2.31,0,0,0-1.74-.54,3.33,3.33,0,0,0-1.43.28,2,2,0,0,0-.93,1,5.57,5.57,0,0,0-.49,1.77,20.91,20.91,0,0,0-.15,2.7A14.37,14.37,0,0,0,8.25,155a2.51,2.51,0,0,0,2.41,1.72,2.06,2.06,0,0,0,1.82-.85,6.34,6.34,0,0,0,.75-2.95l5-.33q-.1,1.15-.2,2.33-.07,1-.13,2.24t-.07,2.41l-.43.52a19.29,19.29,0,0,1-2.29.62,21.38,21.38,0,0,1-2.47.44A23.88,23.88,0,0,1,9.66,161.32Z"/><path class="cls-3" d="M39.4,155.95a4.1,4.1,0,0,0,.74,1.62,1.71,1.71,0,0,0,1.2.57l.23.33-.26,2.59q-.82,0-1.64,0l-1.51,0-1.47,0q-1.18,0-2.29,0l-2,.07-2,.07-.26-.29.2-2.75,1.18-.16a2.26,2.26,0,0,0,.62-.16.44.44,0,0,0,.25-.28,2,2,0,0,0,0-.51,2.3,2.3,0,0,0,0-.25c0-.1,0-.21,0-.34l-.2-1.28-1.36,0-1.16,0q-.56,0-1.26,0l-1.36.12-.33,1.47a5.82,5.82,0,0,0-.1.74c0,.29.06.47.18.55a1.82,1.82,0,0,0,.83.12h.85l.26.32-.26,2.66q-.88,0-1.77,0l-1.64,0-1.64,0-1.54,0-1.41,0H19.09l.23-2.78A2.43,2.43,0,0,0,21,156.43l5.21-16.5,8.61-.53.49.39q.88,3.57,1.7,6.75.33,1.34.69,2.73t.67,2.65l.57,2.31Q39.2,155.29,39.4,155.95ZM28.1,151.1h1.67l.8,0,.9,0-1.11-5.73h-.72Z"/><path class="cls-3" d="M48.73,161q-1.28,0-2.51,0l-2.21.12-2.19.16.29-3a2.49,2.49,0,0,0,1.69-.8,3.65,3.65,0,0,0,.44-2.08V144.32A2.62,2.62,0,0,0,44,143a1.06,1.06,0,0,0-.92-.33l-.29,0-.26,0h-.29l-.29-.46.26-2.46h5.27l1.7,0,2.26,0,2.82-.1-.36,3.21q-.85.1-1.39.21a3.2,3.2,0,0,0-.87.29,1,1,0,0,0-.46.47,2.17,2.17,0,0,0-.16.72q-.07,1.11-.13,2.31t-.11,2.57q0,1.38-.07,2.95t0,3.44a1.65,1.65,0,0,0,.28,1.08,1.19,1.19,0,0,0,.95.33,4.22,4.22,0,0,0,1.46-.21,1.87,1.87,0,0,0,.93-.8,4.48,4.48,0,0,0,.53-1.64q.17-1,.27-2.69l4.13-.43.39.49q-.16,1.25-.29,2.65-.13,1.21-.26,2.8t-.23,3.29l-.49.52-3-.1q-1.38-.07-3.09-.1T48.73,161Z"/><path class="cls-3" d="M67,161q-1.28,0-2.51,0l-2.21.12-2.19.16.29-3a2.49,2.49,0,0,0,1.69-.8,3.65,3.65,0,0,0,.44-2.08V144.32a2.62,2.62,0,0,0-.23-1.34,1.06,1.06,0,0,0-.92-.33l-.29,0-.26,0h-.29l-.29-.46.26-2.46h5.27l1.7,0,2.26,0,2.82-.1-.36,3.21q-.85.1-1.39.21a3.2,3.2,0,0,0-.87.29,1,1,0,0,0-.46.47,2.17,2.17,0,0,0-.16.72q-.07,1.11-.13,2.31T69,149.4q0,1.38-.07,2.95t0,3.44a1.65,1.65,0,0,0,.28,1.08,1.19,1.19,0,0,0,.95.33,4.22,4.22,0,0,0,1.46-.21,1.87,1.87,0,0,0,.93-.8,4.48,4.48,0,0,0,.53-1.64q.17-1,.27-2.69l4.13-.43.39.49q-.16,1.25-.29,2.65-.13,1.21-.26,2.8t-.23,3.29l-.49.52-3-.1q-1.38-.07-3.09-.1T67,161Z"/><path class="cls-3" d="M91.89,155.23a8.3,8.3,0,0,0,0,1,1.19,1.19,0,0,0,.21.59.78.78,0,0,0,.48.28,4.3,4.3,0,0,0,.85.07,9.42,9.42,0,0,0,1.74-.13,2.21,2.21,0,0,0,1.09-.51,2.35,2.35,0,0,0,.63-1,11.73,11.73,0,0,0,.38-1.78l4.13-.29.39.49q-.16,1-.33,2t-.31,2.16q-.15,1.21-.28,2.55l-.49.52-3.34-.1q-1.51-.07-3.39-.1t-3.78,0q-1.28,0-2.51,0l-2.21.12-2.19.16.29-3a2.49,2.49,0,0,0,1.69-.8,3.65,3.65,0,0,0,.44-2.08l0-11a4,4,0,0,0-.16-1.41.71.71,0,0,0-.72-.36l-.29,0-.26,0a1.25,1.25,0,0,1-.29,0l-.39-.46.29-2.59,2.69.07q1.15,0,2.47,0h2.47q1.54,0,3,0l2.85-.08,2.44-.12q1.1-.06,1.79-.16l.43.52q-.2,1-.33,2.1t-.25,2.11q-.12,1.16-.18,2.31l-4.52.29a3.29,3.29,0,0,1,0-.46c0-.13,0-.26,0-.39s0-.25,0-.36a2.59,2.59,0,0,0-.13-.9,1,1,0,0,0-.48-.54,2.72,2.72,0,0,0-1-.28,13.13,13.13,0,0,0-1.62-.08,1.64,1.64,0,0,0-.9.16.9.9,0,0,0-.21.72l-.2,3.7,1.23,0,1.46,0,1,0q.61,0,1.2-.08l1.44-.1.39.46-.46,3.77q-.72,0-1.41,0l-1.28,0-1.24,0a13.25,13.25,0,0,0-1.36.07l-1.1.13q0,.85,0,1.54Z"/><path class="cls-3" d="M104.21,144.81a4.28,4.28,0,0,0-.7-1.6,1.68,1.68,0,0,0-1.1-.59l-.23-.33.26-2.59q.79,0,1.6,0t1.46,0h1.42l2.28,0,2,0q1,0,2-.1l.26.29-.2,2.75-1.18.16a1.87,1.87,0,0,0-.62.18.5.5,0,0,0-.25.29,1.89,1.89,0,0,0,0,.47q0,.26.07.88c0,.42.11.92.2,1.51s.19,1.23.29,1.92l.33,2q.36,2.42.88,5.34h.72q.75-3.13,1.34-5.66.23-1.09.48-2.16t.44-2c.13-.59.23-1.1.31-1.53a6.23,6.23,0,0,0,.11-.84q0-.43-.18-.54a1.86,1.86,0,0,0-.83-.12h-.85l-.26-.32.26-2.66,1.77.07q.75,0,1.64,0h4.36q.69,0,1.31,0l-.23,2.78a1.44,1.44,0,0,0-.8.51,5.06,5.06,0,0,0-.54,1.3l-4.88,16.5-9,.56-1.61-6.94q-.33-1.38-.65-2.82l-.62-2.74q-.3-1.29-.56-2.36Z"/><path class="cls-3" d="M132.63,155.23a8.3,8.3,0,0,0,0,1,1.19,1.19,0,0,0,.21.59.78.78,0,0,0,.48.28,4.3,4.3,0,0,0,.85.07,9.42,9.42,0,0,0,1.74-.13,2.21,2.21,0,0,0,1.09-.51,2.35,2.35,0,0,0,.63-1,11.73,11.73,0,0,0,.38-1.78l4.13-.29.39.49q-.16,1-.33,2t-.31,2.16q-.15,1.21-.28,2.55l-.49.52-3.34-.1q-1.51-.07-3.39-.1t-3.78,0q-1.28,0-2.51,0l-2.21.12-2.19.16.29-3a2.49,2.49,0,0,0,1.69-.8,3.65,3.65,0,0,0,.44-2.08l0-11A4,4,0,0,0,126,143a.71.71,0,0,0-.72-.36l-.29,0-.26,0a1.25,1.25,0,0,1-.29,0l-.39-.46.29-2.59,2.69.07q1.15,0,2.47,0H132q1.54,0,3,0l2.85-.08,2.44-.12q1.1-.06,1.79-.16l.43.52q-.2,1-.33,2.1t-.25,2.11q-.12,1.16-.18,2.31l-4.52.29a3.29,3.29,0,0,1,0-.46c0-.13,0-.26,0-.39s0-.25,0-.36a2.59,2.59,0,0,0-.13-.9,1,1,0,0,0-.48-.54,2.72,2.72,0,0,0-1-.28,13.13,13.13,0,0,0-1.62-.08,1.64,1.64,0,0,0-.9.16.9.9,0,0,0-.21.72l-.2,3.7,1.23,0,1.46,0,1,0q.61,0,1.2-.08l1.44-.1.39.46-.46,3.77q-.72,0-1.41,0l-1.28,0-1.24,0a13.25,13.25,0,0,0-1.36.07l-1.1.13q0,.85,0,1.54Z"/><path class="cls-3" d="M152.41,153.49v2.23a8.89,8.89,0,0,0,.07,1.21,1.2,1.2,0,0,0,.31.7,1.29,1.29,0,0,0,.7.33,9.67,9.67,0,0,0,1.24.11l.16.26-.33,2.75-2.16-.07-1.78,0-1.42,0q-.92,0-1.9,0l-1.83.12-1.93.13.29-3a2.52,2.52,0,0,0,1.67-.8,3.35,3.35,0,0,0,.46-2V144.06a2.49,2.49,0,0,0-.18-1.13.71.71,0,0,0-.67-.31l-.39,0-.36,0a2.32,2.32,0,0,1-.39,0l-.33-.39.36-2.56q1,0,1.83,0h2.82l1.6,0q1,0,2-.08l2.46-.1q9,0,9,6.16,0,3.87-3.93,6.19l2,3.42q1.7,2.9,3.18,2.9l.36.52-.29,2.36-5.08.36a3.49,3.49,0,0,1-2.23-.67,5.48,5.48,0,0,1-1.51-2.31l-2-5Zm2.59-3.8a3.15,3.15,0,0,0,1.56-1.17,4.1,4.1,0,0,0,.44-2.12,2.38,2.38,0,0,0-.88-2.05,4.81,4.81,0,0,0-2.82-.65c-.24,0-.39,0-.44.13a1.51,1.51,0,0,0-.11.59q-.1,1.24-.15,2.48t-.08,2.47Z"/><path class="cls-3" d="M175,143.5a2.82,2.82,0,0,0,.2.74q.2.55.47,1.25t.59,1.44l.57,1.36h.46l1.34-3.73a4,4,0,0,0,.43-1.44.41.41,0,0,0-.28-.41,2.83,2.83,0,0,0-1-.11l-.1-.2.26-2.59h5.17l1.29,0,1.2,0,1.21-.07.13.26-.26,2.85a7.75,7.75,0,0,0-2,1.67,11.44,11.44,0,0,0-1.64,2.46l-3,6a5.32,5.32,0,0,0-.43,1.52q-.07.67-.07,1.52a2.78,2.78,0,0,0,.34,1.6,1.53,1.53,0,0,0,1.29.46h.59a4.58,4.58,0,0,0,.56,0l.52-.07.16.2-.29,3.08q-1.41,0-2.69-.1l-2.24-.07L176,161q-.79,0-1.92,0l-2.18.12-2.49.13.26-3a11.22,11.22,0,0,0,1.7-.21,2.75,2.75,0,0,0,1-.42,1.35,1.35,0,0,0,.51-.75,4.57,4.57,0,0,0,.13-1.19v-.52a4.56,4.56,0,0,0-.2-1.35,8.79,8.79,0,0,0-.72-1.58l-3.5-6.49a6.29,6.29,0,0,0-3.24-2.74l-.13-.2.33-3q1.11,0,2.06,0t1.62,0h1.23l1.55,0q1,0,1.95-.08l2.39-.13.23.36-.29,2.75Q175,142.69,175,143.5Z"/><path class="cls-3" d="M14.59,200.26H.84v-3.09l6.35-8A16.89,16.89,0,0,0,9,186a6.38,6.38,0,0,0,.55-2.42,4.45,4.45,0,0,0-.58-2.4,1.85,1.85,0,0,0-1.66-.91,1.87,1.87,0,0,0-1.72,1.11,6.1,6.1,0,0,0-.6,2.91H.56l0-.08a7.78,7.78,0,0,1,1.79-5.36,6.19,6.19,0,0,1,5-2.2,6.61,6.61,0,0,1,5,1.85,7,7,0,0,1,1.79,5.05,8.12,8.12,0,0,1-1,4,36.61,36.61,0,0,1-3.33,4.76l-3,4.35h7.87Z"/><path class="cls-3" d="M17.56,190l1.15-13H30.1v3.73H22.42l-.5,5.49a4,4,0,0,1,1.24-.82,4.26,4.26,0,0,1,1.56-.36,5.16,5.16,0,0,1,4.47,2,9.39,9.39,0,0,1,1.56,5.78A8.7,8.7,0,0,1,29,198.36a6.05,6.05,0,0,1-5,2.24,7,7,0,0,1-4.81-1.78,5.94,5.94,0,0,1-2-4.84l0-.08,4.41-.24a4.06,4.06,0,0,0,.64,2.44,2,2,0,0,0,1.68.87,1.81,1.81,0,0,0,1.74-1.14,7,7,0,0,0,.54-3,7.29,7.29,0,0,0-.61-3.26,2.14,2.14,0,0,0-3.31-.69,2.73,2.73,0,0,0-.7,1.36Z"/><path class="cls-3" d="M50.31,200.65Q49.59,198,49,195.8t-1.11-3.9l-1.08-3.54h-.42q-.07,2-.1,3.67,0,.72,0,1.41t0,1.28c0,.39,0,.73,0,1v.54a1,1,0,0,0,1.08,1.11h.21a1.55,1.55,0,0,0,.31,0,1.69,1.69,0,0,0,.33,0l.29.26L48,200.39l-1.93-.07-1.57,0-1.18,0-1.15,0-1.26.08-1.42.15.26-2.95a2.09,2.09,0,0,0,1.36-.57,2.55,2.55,0,0,0,.51-1.59q.29-3.15.56-5.68.1-1.08.21-2.15t.2-1.94q.08-.87.13-1.46t0-.76a3.89,3.89,0,0,0,0-.71.63.63,0,0,0-.25-.39,1.39,1.39,0,0,0-.61-.21L40.75,182l-.26-.26.33-2.79q1,.07,1.9.1l1.57,0,1.34,0,1.54,0,1.67,0,1.83-.07q.36,1.87.79,3.7t.79,3.34q.42,1.77.85,3.37h.43l.95-3.37q.42-1.47.88-3.29l.92-3.62q1.54,0,3,0t3-.07l1.13,0,1,0,1-.07.23.13-.26,2.92a3.54,3.54,0,0,0-1.75.38,1.58,1.58,0,0,0-.41,1.29q0,.75.07,2.13t.16,2.95q.1,1.57.23,3.14t.26,2.72a6.77,6.77,0,0,0,.44,2.23,1.09,1.09,0,0,0,1.06.62h.36a1.62,1.62,0,0,0,.33,0l.29,0,.23.26-.29,2.79q-.59,0-1.21,0t-1.2,0q-.64,0-1.2,0l-1.18,0-2,.07-2,.1q-.92,0-1.08.08l.39-2.95a2.2,2.2,0,0,0,1.29-.46,1.53,1.53,0,0,0,.38-1.15v-.74q0-.48,0-1.07t0-1.23c0-.43,0-.86,0-1.3q0-1.51-.07-3.25H58q-.56,1.64-1.15,3.57-.52,1.67-1.15,3.82t-1.28,4.57Z"/><path class="cls-3" d="M76.25,183.55q-.16,2.32-.25,5.34t-.08,6.23a5.29,5.29,0,0,0,.2,1.81.83.83,0,0,0,.85.44h.46a1.34,1.34,0,0,0,.33,0l.26-.07.26.33L78,200.39l-2.23-.07-1.82,0-1.42,0q-.79,0-1.72,0l-1.78.07-1.93.07.26-2.82a4.86,4.86,0,0,0,1.08-.33,1.73,1.73,0,0,0,.66-.49,1.67,1.67,0,0,0,.31-.74,6.35,6.35,0,0,0,.08-1.13V183.62a2.61,2.61,0,0,0-.23-1.34,1.06,1.06,0,0,0-.92-.33L68,182l-.26,0h-.29l-.29-.46.26-2.46h5.27l1.46,0,1.88,0,2.29-.1-.23,2.95q-.56.1-.92.2a1.33,1.33,0,0,0-.56.28,1,1,0,0,0-.28.47A3.88,3.88,0,0,0,76.25,183.55Z"/><path class="cls-3" d="M95.15,189.35l-.13-6a2.34,2.34,0,0,0-.28-1.13,1,1,0,0,0-.8-.28h-1l-.16-.36.16-2.65,2,.07,1.79,0,1.62,0,1.49,0,1.47,0,1.59,0-.16,2.95a2.49,2.49,0,0,0-1.46.61,2.22,2.22,0,0,0-.44,1.46l-.42,16.28-6.16.39q-1.38-2.29-2.6-4.22T89.51,193q-1.08-1.67-2-3.08h-.43l.1,5.78a2.46,2.46,0,0,0,.29,1.3,1.15,1.15,0,0,0,1,.36l.34,0,.34,0,.43-.07.29.3-.36,2.85-2-.07-1.68,0-1.38,0q-.86,0-1.75,0t-1.65.1l-1.68.13.33-3a2.26,2.26,0,0,0,1.39-.61,2.19,2.19,0,0,0,.47-1.46L82,184a3.57,3.57,0,0,0-.1-.92,1.17,1.17,0,0,0-.36-.59,1.73,1.73,0,0,0-.74-.34,11.89,11.89,0,0,0-1.26-.21l-.39-.45.2-2.6q.72.07,1.54.1l1.54,0,1.77,0,1.39,0,1.36,0,1.44-.07q1.11,2,2.23,3.86t2,3.34l2,3.21Z"/><path class="cls-3" d="M111.29,193.08a4.36,4.36,0,0,0,.64,2.51,2.15,2.15,0,0,0,1.9.94,2.23,2.23,0,0,0,1.81-.67,3.47,3.47,0,0,0,.56-2.22v-1q0-.62,0-1.38c0-.5,0-1,0-1.61v-5.91a3.65,3.65,0,0,0-.18-1.39.67.67,0,0,0-.67-.38l-.26,0-.23,0a1.1,1.1,0,0,1-.26,0l-.1-.13.36-2.92,1.51.07q.62,0,1.29,0h2.72q.83,0,1.52,0l1.6-.07-.26,2.95a6.83,6.83,0,0,0-.84.31,2,2,0,0,0-.47.29.68.68,0,0,0-.21.34,2.1,2.1,0,0,0,0,.49v9.24q0,4-2.19,6t-6.55,2q-4.22,0-6.14-1.64t-1.92-5.27v-10a3.61,3.61,0,0,0-.18-1.42.75.75,0,0,0-.74-.34l-.28,0-.31,0a1.87,1.87,0,0,1-.36,0l-.07-.13.33-2.92,1.93.07q.85,0,1.86,0h2l1.21,0,1.47,0,1.7-.07-.33,3a1.71,1.71,0,0,0-1.2.46,1.82,1.82,0,0,0-.38,1.15Z"/><path class="cls-3" d="M129.89,183a2.78,2.78,0,0,0-1.1.18,1.35,1.35,0,0,0-.66.67,5,5,0,0,0-.39,1.36q-.15.87-.25,2.24l-4.06.26q.07-1.41.13-2.88.06-1.25.08-2.77t0-2.93l.42-.46,3.89.36h10.27l4-.36.42.46q0,1.47,0,2.93t.07,2.67q0,1.41.07,2.72l-4.06.26q-.13-1.51-.25-2.44a5.2,5.2,0,0,0-.34-1.44,1.23,1.23,0,0,0-.62-.67,2.79,2.79,0,0,0-1-.16q-.07,2.46-.11,5.58t0,6.4a3,3,0,0,0,.38,1.75,1.55,1.55,0,0,0,1.33.51h.59a4.57,4.57,0,0,0,.56,0l.52-.07.16.2-.29,3.08q-1.34,0-2.61-.1l-2.21-.07-1.81,0q-.78,0-1.91,0l-2.17.12-2.48.13.26-3a12.59,12.59,0,0,0,1.64-.25,2.28,2.28,0,0,0,1-.46,1.57,1.57,0,0,0,.49-.82,5.15,5.15,0,0,0,.13-1.26Z"/><path class="cls-3" d="M152.16,194.53a8.3,8.3,0,0,0,0,1,1.19,1.19,0,0,0,.21.59.78.78,0,0,0,.48.28,4.3,4.3,0,0,0,.85.07,9.42,9.42,0,0,0,1.74-.13,2.21,2.21,0,0,0,1.09-.51,2.35,2.35,0,0,0,.63-1,11.73,11.73,0,0,0,.38-1.78l4.13-.29.39.49q-.16,1-.33,2t-.31,2.16q-.15,1.21-.28,2.55l-.49.52-3.34-.1q-1.51-.07-3.39-.1t-3.78,0q-1.28,0-2.51,0l-2.21.12-2.19.16.29-3a2.49,2.49,0,0,0,1.69-.8,3.65,3.65,0,0,0,.44-2.08l0-11a4,4,0,0,0-.16-1.41.71.71,0,0,0-.72-.36l-.29,0-.26,0a1.25,1.25,0,0,1-.29,0l-.39-.46.29-2.59,2.69.07q1.15,0,2.47,0h2.47q1.54,0,3,0l2.85-.08,2.44-.12q1.1-.06,1.79-.16l.43.52q-.2,1-.33,2.1t-.25,2.11q-.12,1.16-.18,2.31l-4.52.29a3.29,3.29,0,0,1,0-.46c0-.13,0-.26,0-.39s0-.25,0-.36a2.59,2.59,0,0,0-.13-.9,1,1,0,0,0-.48-.54,2.72,2.72,0,0,0-1-.28,13.13,13.13,0,0,0-1.62-.08,1.64,1.64,0,0,0-.9.16.9.9,0,0,0-.21.72l-.2,3.7,1.23,0,1.46,0,1,0q.61,0,1.2-.08l1.44-.1.39.46-.46,3.77q-.72,0-1.41,0l-1.28,0-1.24,0a13.25,13.25,0,0,0-1.36.07l-1.1.13q0,.85,0,1.54Z"/><path class="cls-3" d="M169.88,200.65a14.67,14.67,0,0,1-2.64-.21,17.75,17.75,0,0,1-2-.47,12.76,12.76,0,0,1-1.8-.72l-.39-.59q.16-.95.29-1.9t.23-1.75q.1-.93.16-1.75l4.13-.29a3.66,3.66,0,0,0,.74,2.55,2.8,2.8,0,0,0,2.15.79,3,3,0,0,0,1.59-.36,1.11,1.11,0,0,0,.57-1,1.37,1.37,0,0,0-.39-.95,4,4,0,0,0-1.06-.79,16.56,16.56,0,0,0-1.51-.7l-1.72-.74a18.28,18.28,0,0,1-1.83-1,8.09,8.09,0,0,1-1.6-1.24,5.53,5.53,0,0,1-1.15-1.67,5.39,5.39,0,0,1-.43-2.23,5.79,5.79,0,0,1,.72-2.87,6.57,6.57,0,0,1,2-2.21,10.39,10.39,0,0,1,3.19-1.42,15.73,15.73,0,0,1,4.13-.51,19.42,19.42,0,0,1,2.51.15q1.13.15,2,.31a14.72,14.72,0,0,1,1.77.46l.39.72q-.2.82-.36,1.74t-.29,1.82q-.13,1-.23,2.14l-3.8.26-.39-.26v-.52q0-2.29-2.39-2.29a2.5,2.5,0,0,0-1.49.41,1.25,1.25,0,0,0-.57,1.06,1.31,1.31,0,0,0,.34.88,3.81,3.81,0,0,0,.92.74,10.36,10.36,0,0,0,1.31.66l1.56.64q1,.43,2,.93a8.38,8.38,0,0,1,1.8,1.23,5.93,5.93,0,0,1,1.31,1.7,5.08,5.08,0,0,1,.51,2.36,5.77,5.77,0,0,1-.7,2.87,6.22,6.22,0,0,1-2,2.14,10.26,10.26,0,0,1-3.23,1.36A17.75,17.75,0,0,1,169.88,200.65Z"/><path class="cls-4" d="M30.43,126h-13V72.76L5,73V63.63l25.43-4.54Z"/></g></g></svg>