<svg xmlns="http://www.w3.org/2000/svg" viewBox="0 0 147.36 235.4"><defs><style>.cls-1{fill:#ab1d40;}</style></defs><title>Asset 6</title><g id="Layer_2" data-name="Layer 2"><g id="by_the_numbers" data-name="by the numbers"><path class="cls-1" d="M144.57,82.39c-.66-1.66-1.13-4.18-1.53-4.85a5.65,5.65,0,0,1-1-2.39c-.13-1.06-1.26-3.25-2.46-6.18s-4.12-10-4.45-10.82a9,9,0,0,0-2-2.26v-.8l-1.2-.93a2.27,2.27,0,0,0,.33-1.33c-.07-.73-1-.6-1-.6l-.4-3.19L130,47.93s-.66-5.64-1.06-8.83a14.13,14.13,0,0,0-2.13-6.44A8,8,0,0,0,123,29.8h-1.26l-.27-.66L120,29.2l-.8.53-.66-.33h-1.2l.46-.86s1-.13,1.26-.8a1.14,1.14,0,0,0-.33-1.2l.6-.27.27-1.39a2.39,2.39,0,0,0,1.46-.13,2,2,0,0,0,.53-2.26,17,17,0,0,1-1.46-2.32,10.7,10.7,0,0,1-.27-2.59c0-.8,1.13-1.53,1.13-1.53l-.13,1.06a3.53,3.53,0,0,0,1.26-1.46c.46-1,.8-1.66.46-4.38S120.8,7.35,119.07,6a29.23,29.23,0,0,0-4.91-2.86,14.81,14.81,0,0,0-1.66-1.39c-.93-.66-4.25-1.46-6-1.66s-5.11.27-6,.86A7.65,7.65,0,0,0,98.28,4,10.3,10.3,0,0,1,95.1,7.48c-1.26.86-1.79,3.05-2.06,3.85A19.28,19.28,0,0,1,92,14.06,8.79,8.79,0,0,0,90.78,17a10.49,10.49,0,0,0,.4,3.79A3.59,3.59,0,0,1,91,22.89c-.27.4-1.13.2-1.13.2a3.47,3.47,0,0,0,.86.8,8.64,8.64,0,0,0,1.26.27,2.56,2.56,0,0,1-.8,1,6.82,6.82,0,0,1-1.79.4,3.17,3.17,0,0,0,1.46.4,9.66,9.66,0,0,0,1.53-.13l1.06,3.12-3.12,1.13L88.92,30l-1.46.73c-.53.27-2.72,1.46-4.85,2.32a19.1,19.1,0,0,1-4.32,1.13l-.13,1.06a7.4,7.4,0,0,0-2,1.2,12.24,12.24,0,0,0-2.66,4.25c-1.06,2.39-2.32,13-2.72,16.14s-1.93,13.35-2.26,14.94-1.79,4.32-3.05,8.9S63.82,92,63.22,95.61s-1.66,5.84-1.86,8.63a88.94,88.94,0,0,1-2,10.29A25,25,0,0,1,56.91,119a41.29,41.29,0,0,0-2.32,4.78,4,4,0,0,0-1.2.86,4.46,4.46,0,0,0-.8,1.39,7.81,7.81,0,0,1-.66,1.26c-.27.4,0,.6.07,1a14.74,14.74,0,0,1-.2,1.86,10.57,10.57,0,0,0,.6,2.86,19.65,19.65,0,0,1-1.66,2c-.8.8-2.26,2.06-2.26,2.06a5,5,0,0,1-1.2-.46,9.8,9.8,0,0,0-3.19-.73c-1.33-.13-1.79-1.13-3.12-1.66s-4.71-1.13-5.31-1.33-.93,1.06-.93,1.06L31,132.33s-.4-.86-.66-1.39a1.69,1.69,0,0,0-.93-.73,7.58,7.58,0,0,0,.86-2c.2-.93.53-2.06.53-2.06a1.89,1.89,0,0,0,1.13-.13c.46-.27.46-1.46.46-1.46s1.26,1.26,1.93,1.06.33-1,.2-2.52-.46-3.85-.46-3.85l.46-.2a22.88,22.88,0,0,0,.46-3.19,20.54,20.54,0,0,0-.46-4,5.5,5.5,0,0,0-1.2-2.59c-.53-.53-1.79-2.52-3.12-3.19A18.29,18.29,0,0,0,23,105a7.93,7.93,0,0,0-3.92,2.39c-.6.66-1.73.66-2.32,1.46s-1.73,5.78-1.73,5.78l.53.47-.07,3.12a4.89,4.89,0,0,0-1.46-.73c-.4,0-.07,1.13.13,1.79s.13,3.45.4,4.58,1.79,1,1.79,1l.73,4.05-.8.4a7.21,7.21,0,0,0-1.59,2.06A26.9,26.9,0,0,1,13.28,134L9.5,136a9.37,9.37,0,0,0-3.12,2.39C5.18,140,4,143.22,3.19,145.28S0,152.72,0,152.72a7.85,7.85,0,0,0,2.32,1.79c1,.33,2.86,1,2.86,1a24,24,0,0,1-.53,2.59,9.5,9.5,0,0,0-.13,4.52c.33,2.39.07,10.76.46,12.82a8.72,8.72,0,0,1-.13,4.25,13.39,13.39,0,0,0-.33,3.79,20.08,20.08,0,0,0,1,5,3.81,3.81,0,0,0,2.59,2.32c.53,0,.13-1,.13-1a1.27,1.27,0,0,0,.2-.8c-.07-.4-1.26-1.73-1.59-2.59a1.1,1.1,0,0,1,.73-1.59c.6-.13,1.33,1.06,1.33,1.06s.27,2.72.46,4a38.09,38.09,0,0,1,.13,5.64,11.52,11.52,0,0,0,.8,4.05c.2.66-.6,1.53-.93,2.46s.13,1.53.13,2.26a29.05,29.05,0,0,0-.27,3.39,21.12,21.12,0,0,0,1,5.84c.6,1.33,1.13,4.78,1.46,5.58s-.53,1.93-.8,2.32a4.29,4.29,0,0,0-.27,1.59l-.93.2A3.4,3.4,0,0,1,9,224.77a4.71,4.71,0,0,0-.6,2.32l-.73.6-.13,1.2a3.85,3.85,0,0,0,1.86,1.39,8.44,8.44,0,0,1,2.26,1,4,4,0,0,0,2,.8c1.33.2,7.57-.2,7.57-.2v-2.32l-.46-1.06a2.64,2.64,0,0,0,1.2-.93,2.9,2.9,0,0,0,.2-1.53s.27-.86.53-1.86,1.06-1.46,1.59-3.19a11.59,11.59,0,0,0,0-5.64c-.4-1.46-1.06-1.66-1.2-2.52a24.57,24.57,0,0,0-1-3.59c-.66-2.12.2-4.65.6-7.17s-.2-8.63-.2-8.63L23,193a5.74,5.74,0,0,1,.53,1.86,21.79,21.79,0,0,1,.13,4.38c-.2,1.73.53,2.72.66,4.38s.4,4.71.73,7.84a29.73,29.73,0,0,0,2.72,8.43c.6,1.13.13,2.26.07,3.59s1.59,2.66,1.59,2.66a41.23,41.23,0,0,1-1,4.78c-.46,1.33-.8,2.32-.46,2.86s3.72.8,5,.66,4.38-.4,5-.8.27-2.46.27-3.45.73-1.39.8-2a17.21,17.21,0,0,0-.4-2.79,4.79,4.79,0,0,0,1-1.66,45,45,0,0,0,.6-4.78,13.86,13.86,0,0,0-1.06-5.18s-.2-3.05-.13-4.45-.2-3.92-.27-4.91a15.19,15.19,0,0,1,.66-3.19,4.07,4.07,0,0,0-.6-2.52c-.27-.66.2-2,.13-4.45s-1-4.12-1.26-5.84,1.06-2.19,1.39-3.85-1.59-4-1.59-4a6,6,0,0,1,.66-1.79c.46-.73-.07-1.73-.13-2.72s.46-1.46.66-3-.66-4.05-1-6.18A64,64,0,0,0,36,160.22a17.57,17.57,0,0,0,1.2-1.46A15.63,15.63,0,0,0,39,154.25a24,24,0,0,0,.4-6.71s1.93,0,3.25-.13,1.59.8,2.06,1.2,1.59.13,2.59-.2A7.32,7.32,0,0,0,50.4,146a2.52,2.52,0,0,0,.4-1.79A25.76,25.76,0,0,1,53.39,141,23.27,23.27,0,0,0,57,135.45c1.13-2.19,1.93-3.92,1.93-4.91a20.51,20.51,0,0,1,.6-3.32,9.14,9.14,0,0,1,.46,1.86,1.22,1.22,0,0,0,1.13,1.2c.66,0,.73-.53.93-1.06a35.93,35.93,0,0,0,.2-3.92c.13-1.86-.13-2.46.53-4.25s2-2.72,2.66-3.65a4.44,4.44,0,0,0,.4-3.25c-.2-.73-.2-1.26.33-3.85s3.19-8.37,4.32-10.82,6.18-13.22,7-16.07a39.44,39.44,0,0,0,1.79-10c-.07-2.66,1.66-9,1.66-9s.66,1.93.86,2.86a37.56,37.56,0,0,1,.07,6.18c-.13,1.46.33,5.11.13,6s-1,1.06-1.59,2.26-.4,4.12-.66,5.71S78.1,91,78.23,92.75s.13,8.7-.07,11.69S78,114,77.9,116.06s0,8.1,0,10.56,1.59,6.51,2.32,9.63,2.26,10.89,2.92,12.82a16.35,16.35,0,0,1,.73,4.18L85.13,155s-.13,6.18-.2,8.57-1,3.45-1.53,7.57a41.6,41.6,0,0,0,.4,11.49c.53,4.05,1.73,9.63,2.66,13.55s2.46,10.49,2.66,11.89a21.85,21.85,0,0,1-.33,5.11c-.2,1.33.73,2.39,1.13,3.25s-.33,1.59-.66,2.79a10.56,10.56,0,0,0-.27,4.32c.27,1.2,2,2.39,2.92,3.52a4.52,4.52,0,0,1,.6,3.12l1.33-.07A7.28,7.28,0,0,1,93.5,228a1.33,1.33,0,0,1,1.06-1.13,16.28,16.28,0,0,1,.07,3.45,6.16,6.16,0,0,0,.6,3.92c.66,1.2,2.72.4,2.72.4l.4.8,1.39-.13.33-.6a17.29,17.29,0,0,0,4-.13c1.26-.33,1.93-.27,2.32-1.06a2.39,2.39,0,0,0-.27-2.32,10.94,10.94,0,0,1-1-3.05c-.27-1.2-1.2-2.46-1.46-3.39s.27-2.52.86-4.05.27-2.92.46-4.45a40.28,40.28,0,0,1,1.93-6.11,63.3,63.3,0,0,0,2.06-8c.6-2.92,3.06-8.63,4.58-12.62a27.64,27.64,0,0,0,2-9.89c.2-3.65-.4-8.77-.4-12.82s2.12-11.29,2.12-11.29l.66-.13s.07-2.06.27-3.92a48.92,48.92,0,0,1,2.19-7.84c.8-2.32,4.05-10.63,5.11-13.61s2.32-6.11,2.39-8.83-.8-14.94-.8-14.94l2.26-1.73a15.57,15.57,0,0,1-1-1.73,4.78,4.78,0,0,1-.27-1.86,62.76,62.76,0,0,0,7.44-2.39,63,63,0,0,0,8.77-4.58c1.33-.93,3-2.46,3.05-4S145.23,84.05,144.57,82.39Zm-42.85,91.47c-.35,3.28-1.77,8.5-1.86,11.07s-.27,8.94-.35,14.43.09,8.59-.35,10.54a12,12,0,0,1-1.42,3.45,17.26,17.26,0,0,0-.8-5.14,20.88,20.88,0,0,1-1.42-7c-.09-2.66.71-11.07,1.06-15.05s1.33-7.44.89-10.27a24.28,24.28,0,0,1,.09-9.12c.71-2.74,1.51-4.07,1.77-6.11s.53-6.46.53-6.46l1.24-3s.09,5.67-.18,7.08a23.21,23.21,0,0,0,.18,7.35A24,24,0,0,1,101.71,173.86Z"/></g></g></svg>