<svg xmlns="http://www.w3.org/2000/svg" viewBox="0 0 103.41 152.44"><defs><style>.cls-1{fill:#ab1e41;}</style></defs><title>Asset 7</title><g id="Layer_2" data-name="Layer 2"><g id="by_the_numbers" data-name="by the numbers"><path class="cls-1" d="M87,152.44A16.39,16.39,0,0,0,103.41,136V65.41A16.39,16.39,0,0,0,87,49H16.39A16.4,16.4,0,0,0,0,65.41V136a16.39,16.39,0,0,0,16.39,16.39ZM14.24,138.19V63.27H89.17v74.92ZM69.38,0a5,5,0,0,0-5,5.05c0,1.45,0,21.1,0,21.1l-5.12-6.27a4.44,4.44,0,1,0-6.88,5.61c.83,1,13.34,16.12,13.34,16.12a5,5,0,0,0,7.36,0S85.56,26.51,86.39,25.5a4.44,4.44,0,1,0-6.88-5.61l-5.12,6.27s0-19.65,0-21.1A5.05,5.05,0,0,0,69.38,0ZM31.7,43.2a5,5,0,0,0,5-5c0-1.46,0-21.09,0-21.09l5.13,6.27a4.44,4.44,0,1,0,6.88-5.62C47.89,16.7,35.38,1.6,35.38,1.6A5,5,0,0,0,28,1.6L14.69,17.71a4.44,4.44,0,0,0,6.88,5.62l5.12-6.27s0,19.64,0,21.09A5,5,0,0,0,31.7,43.2Z"/></g></g></svg>