<svg xmlns="http://www.w3.org/2000/svg" viewBox="0 0 156.8 228.32"><defs><style>.cls-1{fill:#ab1e41;}.cls-2{fill:#6cafe0;}.cls-3{fill:#152d53;}</style></defs><title>Asset 15</title><g id="Layer_2" data-name="Layer 2"><g id="by_the_numbers" data-name="by the numbers"><path class="cls-1" d="M87.21,152.44A16.39,16.39,0,0,0,103.6,136V65.41A16.39,16.39,0,0,0,87.21,49H16.58A16.4,16.4,0,0,0,.19,65.41V136a16.39,16.39,0,0,0,16.39,16.39ZM14.43,138.19V63.27H89.36v74.92ZM69.57,0a5,5,0,0,0-5,5.05c0,1.45,0,21.1,0,21.1l-5.12-6.27a4.44,4.44,0,1,0-6.88,5.61c.83,1,13.34,16.12,13.34,16.12a5,5,0,0,0,7.36,0S85.75,26.51,86.58,25.5a4.44,4.44,0,1,0-6.88-5.61l-5.12,6.27s0-19.65,0-21.1A5.05,5.05,0,0,0,69.57,0ZM31.89,43.2a5,5,0,0,0,5-5c0-1.46,0-21.09,0-21.09L42,23.33a4.44,4.44,0,1,0,6.88-5.62C48.08,16.7,35.57,1.6,35.57,1.6a5,5,0,0,0-7.36,0L14.88,17.71a4.44,4.44,0,0,0,6.88,5.62l5.12-6.27s0,19.64,0,21.09A5,5,0,0,0,31.89,43.2Z"/><path class="cls-2" d="M8.51,184.66a8,8,0,0,0,0,1,1.15,1.15,0,0,0,.21.57.75.75,0,0,0,.46.27,4.14,4.14,0,0,0,.81.06,9.06,9.06,0,0,0,1.67-.13,2.11,2.11,0,0,0,1-.49,2.25,2.25,0,0,0,.6-1,11.24,11.24,0,0,0,.37-1.71l4-.28.37.47q-.16.91-.31,1.95t-.3,2.07q-.14,1.16-.27,2.45l-.47.5-3.2-.09q-1.44-.06-3.25-.09t-3.62,0q-1.22,0-2.4,0l-2.12.11-2.1.16.28-2.89a2.38,2.38,0,0,0,1.62-.77,3.5,3.5,0,0,0,.42-2l0-10.51A3.8,3.8,0,0,0,2.2,173a.68.68,0,0,0-.69-.35l-.28,0-.25,0a1.14,1.14,0,0,1-.28,0l-.38-.44.28-2.48,2.57.06q1.1,0,2.37,0H7.91q1.47,0,2.92,0l2.73-.08,2.34-.11q1.05-.06,1.71-.16l.41.5q-.19,1-.31,2t-.24,2q-.11,1.11-.17,2.21L13,176.5a3.09,3.09,0,0,1,0-.44c0-.13,0-.25,0-.38s0-.24,0-.35a2.47,2.47,0,0,0-.13-.86,1,1,0,0,0-.46-.52,2.63,2.63,0,0,0-.94-.27,12.72,12.72,0,0,0-1.55-.08,1.57,1.57,0,0,0-.86.16.86.86,0,0,0-.2.69L8.69,178l1.18,0,1.4,0,.93,0q.58,0,1.15-.08l1.38-.09.38.44-.44,3.61q-.69,0-1.35,0l-1.22,0-1.19,0a13,13,0,0,0-1.3.06L8.54,182q0,.82,0,1.47Z"/><path class="cls-2" d="M25.55,190.15q-1.22,0-2.4,0l-2.12.11-2.1.16.28-2.89a2.38,2.38,0,0,0,1.62-.77,3.5,3.5,0,0,0,.42-2V174.21a2.5,2.5,0,0,0-.22-1.29,1,1,0,0,0-.88-.31l-.28,0-.25,0h-.28l-.28-.44.25-2.35h5.05l1.63,0,2.17,0,2.7-.09-.35,3.08q-.82.09-1.33.2a3.1,3.1,0,0,0-.83.28,1,1,0,0,0-.44.46,2.09,2.09,0,0,0-.16.69q-.06,1.07-.13,2.21t-.11,2.46q0,1.32-.06,2.82t0,3.3a1.58,1.58,0,0,0,.27,1,1.15,1.15,0,0,0,.91.31,4,4,0,0,0,1.4-.2,1.79,1.79,0,0,0,.89-.77,4.29,4.29,0,0,0,.51-1.57q.16-1,.25-2.57l4-.41.37.47q-.16,1.19-.28,2.54-.13,1.16-.25,2.68t-.22,3.15l-.47.5-2.92-.09q-1.32-.06-3-.09T25.55,190.15Z"/><path class="cls-2" d="M44.91,184.66a8,8,0,0,0,0,1,1.15,1.15,0,0,0,.21.57.75.75,0,0,0,.46.27,4.14,4.14,0,0,0,.81.06,9.06,9.06,0,0,0,1.67-.13,2.11,2.11,0,0,0,1-.49,2.25,2.25,0,0,0,.6-1,11.24,11.24,0,0,0,.37-1.71l4-.28.37.47q-.16.91-.31,1.95t-.3,2.07q-.14,1.16-.27,2.45l-.47.5-3.2-.09q-1.44-.06-3.25-.09t-3.62,0q-1.22,0-2.4,0l-2.12.11-2.1.16.28-2.89a2.38,2.38,0,0,0,1.62-.77,3.5,3.5,0,0,0,.42-2l0-10.51A3.8,3.8,0,0,0,38.6,173a.68.68,0,0,0-.69-.35l-.28,0-.25,0a1.14,1.14,0,0,1-.28,0l-.38-.44.28-2.48,2.57.06q1.1,0,2.37,0h2.37q1.47,0,2.92,0l2.73-.08,2.34-.11q1.05-.06,1.71-.16l.41.5q-.19,1-.31,2t-.24,2q-.11,1.11-.17,2.21l-4.33.28a3.09,3.09,0,0,1,0-.44c0-.13,0-.25,0-.38s0-.24,0-.35a2.47,2.47,0,0,0-.13-.86,1,1,0,0,0-.46-.52,2.63,2.63,0,0,0-.94-.27,12.72,12.72,0,0,0-1.55-.08,1.57,1.57,0,0,0-.86.16.86.86,0,0,0-.2.69L45.1,178l1.18,0,1.4,0,.93,0q.58,0,1.15-.08l1.38-.09.38.44-.44,3.61q-.69,0-1.35,0l-1.22,0-1.19,0a13,13,0,0,0-1.3.06l-1.05.13q0,.82,0,1.47Z"/><path class="cls-2" d="M56.71,174.68a4.1,4.1,0,0,0-.67-1.54,1.61,1.61,0,0,0-1.05-.57l-.22-.31.25-2.48q.75,0,1.54,0t1.4,0h1.37l2.18,0,1.93,0q1,0,1.88-.09l.25.28-.19,2.64-1.13.16a1.78,1.78,0,0,0-.6.17.47.47,0,0,0-.24.28,1.79,1.79,0,0,0,0,.46q0,.25.06.85t.19,1.44q.13.85.28,1.84l.31,2q.34,2.32.85,5.12h.69q.72-3,1.29-5.43.22-1,.46-2.07t.42-1.88q.19-.85.3-1.47a6.06,6.06,0,0,0,.11-.8c0-.27-.06-.45-.17-.52a1.79,1.79,0,0,0-.8-.11h-.82l-.25-.31.25-2.55,1.69.06q.72,0,1.57,0H74q.66,0,1.26,0L75,172.48a1.38,1.38,0,0,0-.77.49,4.86,4.86,0,0,0-.52,1.24L69,190l-8.63.54-1.54-6.65q-.31-1.32-.63-2.7l-.6-2.62q-.28-1.24-.53-2.26Z"/><path class="cls-2" d="M94.34,185.35a3.93,3.93,0,0,0,.71,1.55,1.64,1.64,0,0,0,1.15.55l.22.31-.25,2.48q-.79,0-1.57,0l-1.44,0-1.41,0q-1.13,0-2.2,0l-1.91.06-1.88.06-.25-.28.19-2.64,1.13-.16a2.15,2.15,0,0,0,.6-.16.42.42,0,0,0,.24-.27,1.94,1.94,0,0,0,0-.49,2.27,2.27,0,0,0,0-.24c0-.09,0-.2,0-.33l-.19-1.22-1.3,0-1.11,0q-.53,0-1.21,0l-1.3.11-.31,1.41a5.58,5.58,0,0,0-.09.71q0,.42.17.53a1.75,1.75,0,0,0,.8.11h.82l.25.31-.25,2.55q-.85,0-1.69,0l-1.57,0-1.57,0-1.48,0-1.35,0H74.89l.22-2.67a2.33,2.33,0,0,0,1.6-1.73l5-15.81,8.25-.5.47.38q.85,3.42,1.63,6.47.31,1.29.66,2.62t.64,2.54l.55,2.21Q94.16,184.72,94.34,185.35ZM83.52,180.7h1.6l.77,0,.86,0-1.07-5.49H85Z"/><path class="cls-2" d="M102.44,173.64a2.65,2.65,0,0,0-1.05.17,1.29,1.29,0,0,0-.63.64,4.75,4.75,0,0,0-.38,1.3q-.14.83-.24,2.15l-3.89.25q.06-1.35.13-2.76.06-1.19.08-2.65t0-2.81l.41-.44,3.73.34h9.84l3.79-.34.41.44q0,1.41,0,2.81t.06,2.56q0,1.35.06,2.61l-3.89.25q-.13-1.44-.24-2.34a5,5,0,0,0-.33-1.38,1.17,1.17,0,0,0-.6-.64,2.66,2.66,0,0,0-1-.16q-.06,2.35-.11,5.35t0,6.14a2.91,2.91,0,0,0,.36,1.68,1.48,1.48,0,0,0,1.27.49h.56a4.21,4.21,0,0,0,.53,0l.5-.06.16.19-.28,3q-1.28,0-2.5-.09l-2.11-.06-1.74,0q-.75,0-1.83,0l-2.08.11-2.38.13.25-2.89a12,12,0,0,0,1.57-.24,2.18,2.18,0,0,0,.94-.44,1.5,1.5,0,0,0,.47-.78,5,5,0,0,0,.13-1.21Z"/><path class="cls-2" d="M124.69,190.53q-4.58,0-7-2.61t-2.39-7.56q0-5.3,2.62-8.1t7.64-2.79q9.35,0,9.35,10,0,5.34-2.65,8.19T124.69,190.53Zm.6-4a2,2,0,0,0,1.91-1.16,9.82,9.82,0,0,0,.56-4q0-2.13-.14-3.61a10,10,0,0,0-.47-2.39,2.66,2.66,0,0,0-.88-1.3,2.24,2.24,0,0,0-1.33-.39,1.91,1.91,0,0,0-1.87,1.15,9.84,9.84,0,0,0-.55,3.91q0,2.13.14,3.63a10,10,0,0,0,.47,2.4,2.81,2.81,0,0,0,.86,1.32A2.05,2.05,0,0,0,125.29,186.57Z"/><path class="cls-2" d="M144.37,183v2.13a8.45,8.45,0,0,0,.06,1.16,1.16,1.16,0,0,0,.3.67,1.23,1.23,0,0,0,.67.31,9.17,9.17,0,0,0,1.19.11l.16.25-.31,2.64-2.07-.06-1.71,0-1.37,0q-.88,0-1.82,0l-1.76.11-1.85.13.28-2.89a2.41,2.41,0,0,0,1.6-.77,3.21,3.21,0,0,0,.44-1.9V174a2.38,2.38,0,0,0-.17-1.08.68.68,0,0,0-.64-.3l-.38,0-.35,0a2.23,2.23,0,0,1-.38,0l-.31-.37.35-2.45q.94,0,1.76,0h2.7l1.54,0q1,0,1.91-.08l2.35-.09q8.66,0,8.66,5.9,0,3.7-3.77,5.93l1.95,3.28q1.63,2.78,3,2.78l.35.5-.28,2.27-4.86.34a3.35,3.35,0,0,1-2.13-.64,5.25,5.25,0,0,1-1.44-2.21l-1.95-4.8Zm2.48-3.64a3,3,0,0,0,1.49-1.12,3.92,3.92,0,0,0,.42-2,2.28,2.28,0,0,0-.85-2,4.6,4.6,0,0,0-2.7-.62c-.23,0-.37,0-.42.13a1.45,1.45,0,0,0-.11.56q-.09,1.19-.14,2.37t-.08,2.37Z"/><path class="cls-2" d="M8.54,220.66v2.13A8.45,8.45,0,0,0,8.6,224a1.16,1.16,0,0,0,.3.67,1.23,1.23,0,0,0,.67.31,9.17,9.17,0,0,0,1.19.11l.16.25-.31,2.64-2.07-.06-1.71,0-1.37,0q-.88,0-1.82,0L1.88,228,0,228.1l.28-2.89a2.41,2.41,0,0,0,1.6-.77,3.21,3.21,0,0,0,.44-1.9V211.62a2.38,2.38,0,0,0-.17-1.08.68.68,0,0,0-.64-.3l-.38,0-.35,0a2.23,2.23,0,0,1-.38,0l-.31-.37.35-2.45q.94,0,1.76,0h2.7l1.54,0q1,0,1.91-.08l2.35-.09q8.66,0,8.66,5.9,0,3.7-3.77,5.93l1.95,3.28q1.63,2.78,3,2.78l.35.5L20.68,228l-4.86.34a3.35,3.35,0,0,1-2.13-.64,5.25,5.25,0,0,1-1.44-2.21l-1.95-4.8ZM11,217a3,3,0,0,0,1.49-1.12,3.92,3.92,0,0,0,.42-2,2.28,2.28,0,0,0-.85-2,4.6,4.6,0,0,0-2.7-.62c-.23,0-.37,0-.42.13a1.45,1.45,0,0,0-.11.56q-.09,1.19-.14,2.37t-.08,2.37Z"/><path class="cls-2" d="M29.78,222.32a8,8,0,0,0,0,1,1.15,1.15,0,0,0,.21.57.75.75,0,0,0,.46.27,4.14,4.14,0,0,0,.81.06,9.06,9.06,0,0,0,1.67-.13,2.11,2.11,0,0,0,1-.49,2.25,2.25,0,0,0,.6-1,11.24,11.24,0,0,0,.37-1.71l4-.28.37.47Q39.17,222,39,223t-.3,2.07q-.14,1.16-.27,2.45L38,228l-3.2-.09q-1.44-.06-3.25-.09t-3.62,0q-1.22,0-2.4,0l-2.12.11-2.1.16.28-2.89a2.38,2.38,0,0,0,1.62-.77,3.5,3.5,0,0,0,.42-2l0-10.51a3.8,3.8,0,0,0-.16-1.35.68.68,0,0,0-.69-.35l-.28,0-.25,0a1.14,1.14,0,0,1-.28,0l-.38-.44.28-2.48,2.57.06q1.1,0,2.37,0h2.37q1.47,0,2.92,0l2.73-.08,2.34-.11q1.05-.06,1.71-.16l.41.5q-.19,1-.31,2t-.24,2q-.11,1.11-.17,2.21l-4.33.28a3.09,3.09,0,0,1,0-.44c0-.13,0-.25,0-.38s0-.24,0-.35a2.47,2.47,0,0,0-.13-.86,1,1,0,0,0-.46-.52,2.63,2.63,0,0,0-.94-.27,12.72,12.72,0,0,0-1.55-.08,1.57,1.57,0,0,0-.86.16.86.86,0,0,0-.2.69L30,215.67l1.18,0,1.4,0,.93,0q.58,0,1.15-.08l1.38-.09.38.44-.44,3.61q-.69,0-1.35,0l-1.22,0-1.19,0a13,13,0,0,0-1.3.06l-1.05.13q0,.82,0,1.47Z"/><path class="cls-2" d="M46.76,228.19a14.14,14.14,0,0,1-2.53-.2,17.39,17.39,0,0,1-1.93-.46,12.3,12.3,0,0,1-1.73-.69l-.38-.57q.16-.91.28-1.82t.22-1.68q.09-.9.16-1.68l4-.28a3.51,3.51,0,0,0,.71,2.45,2.68,2.68,0,0,0,2.06.75,2.85,2.85,0,0,0,1.52-.34,1.06,1.06,0,0,0,.55-.94,1.31,1.31,0,0,0-.38-.91,3.87,3.87,0,0,0-1-.75,15.93,15.93,0,0,0-1.44-.67l-1.65-.71a17.22,17.22,0,0,1-1.76-.91,7.77,7.77,0,0,1-1.54-1.19,5.31,5.31,0,0,1-1.1-1.6,5.17,5.17,0,0,1-.41-2.13,5.55,5.55,0,0,1,.69-2.75A6.29,6.29,0,0,1,43,209a9.91,9.91,0,0,1,3.06-1.37,15.05,15.05,0,0,1,4-.49,18.74,18.74,0,0,1,2.4.14q1.08.14,1.9.3A14.36,14.36,0,0,1,56,208l.38.69q-.19.79-.35,1.66t-.28,1.74q-.13,1-.22,2.06l-3.64.25-.38-.25v-.5q0-2.2-2.29-2.2a2.41,2.41,0,0,0-1.43.39,1.2,1.2,0,0,0-.55,1,1.26,1.26,0,0,0,.33.85,3.66,3.66,0,0,0,.88.71,10,10,0,0,0,1.26.63l1.49.61q.94.41,1.9.89a8,8,0,0,1,1.73,1.18,5.68,5.68,0,0,1,1.26,1.63,4.87,4.87,0,0,1,.49,2.26,5.54,5.54,0,0,1-.67,2.75A6,6,0,0,1,54,226.43a9.85,9.85,0,0,1-3.09,1.3A17,17,0,0,1,46.76,228.19Z"/><path class="cls-2" d="M66.82,228.16a10.36,10.36,0,0,1-3.91-.69,7.94,7.94,0,0,1-2.9-2,8.58,8.58,0,0,1-1.82-3.17,13.46,13.46,0,0,1-.63-4.27q0-5.3,2.82-8.11t8.19-2.81a20,20,0,0,1,2.15.13q1.15.13,2.15.28,1.16.19,2.29.41l.25.63q-.19.88-.35,1.91t-.31,2.13q-.16,1.22-.22,2.67l-4.83.28a4.84,4.84,0,0,1,0-.53c0-.17,0-.36,0-.56s0-.44,0-.69a2.64,2.64,0,0,0-.48-1.8,2.22,2.22,0,0,0-1.67-.52,3.18,3.18,0,0,0-1.37.27,1.93,1.93,0,0,0-.89.91,5.32,5.32,0,0,0-.47,1.69,20,20,0,0,0-.14,2.59,13.77,13.77,0,0,0,.72,5.16,2.4,2.4,0,0,0,2.31,1.65,2,2,0,0,0,1.75-.82,6.06,6.06,0,0,0,.72-2.82l4.8-.31q-.09,1.1-.19,2.23-.06,1-.13,2.15t-.06,2.31l-.41.5a18.37,18.37,0,0,1-2.2.6,20.42,20.42,0,0,1-2.37.42A23.06,23.06,0,0,1,66.82,228.16Z"/><path class="cls-2" d="M84,220.93a4.18,4.18,0,0,0,.62,2.41,2.06,2.06,0,0,0,1.82.9,2.14,2.14,0,0,0,1.74-.64,3.33,3.33,0,0,0,.54-2.12v-1q0-.6,0-1.32t0-1.54V212a3.5,3.5,0,0,0-.17-1.34.65.65,0,0,0-.64-.36l-.25,0-.22,0a1,1,0,0,1-.25,0l-.09-.13.35-2.79,1.44.06q.6,0,1.24,0h2.6q.8,0,1.46,0l1.54-.06-.25,2.82a6.57,6.57,0,0,0-.8.3,1.9,1.9,0,0,0-.46.28.65.65,0,0,0-.2.33,2,2,0,0,0,0,.47v8.85a7.49,7.49,0,0,1-2.1,5.78q-2.1,1.95-6.28,1.95t-5.88-1.57q-1.84-1.57-1.84-5.05V212a3.47,3.47,0,0,0-.17-1.37.72.72,0,0,0-.71-.33l-.27,0-.3,0a1.72,1.72,0,0,1-.35,0l-.06-.13.31-2.79,1.85.06q.81,0,1.78,0h1.91l1.16,0,1.41,0,1.63-.06-.31,2.92a1.64,1.64,0,0,0-1.15.44,1.75,1.75,0,0,0-.36,1.1Z"/><path class="cls-2" d="M104.61,222.32a8,8,0,0,0,0,1,1.15,1.15,0,0,0,.21.57.75.75,0,0,0,.46.27,4.14,4.14,0,0,0,.81.06,9.06,9.06,0,0,0,1.67-.13,2.11,2.11,0,0,0,1-.49,2.25,2.25,0,0,0,.6-1,11.24,11.24,0,0,0,.37-1.71l4-.28.37.47q-.16.91-.31,1.95t-.3,2.07q-.14,1.16-.27,2.45l-.47.5-3.2-.09q-1.44-.06-3.25-.09t-3.62,0q-1.22,0-2.4,0L98.2,228l-2.1.16.28-2.89a2.38,2.38,0,0,0,1.62-.77,3.5,3.5,0,0,0,.42-2l0-10.51a3.8,3.8,0,0,0-.16-1.35.68.68,0,0,0-.69-.35l-.28,0-.25,0a1.14,1.14,0,0,1-.28,0l-.38-.44.28-2.48,2.57.06q1.1,0,2.37,0H104q1.47,0,2.92,0l2.73-.08,2.34-.11q1.05-.06,1.71-.16l.41.5q-.19,1-.31,2t-.24,2q-.11,1.11-.17,2.21l-4.33.28a3.09,3.09,0,0,1,0-.44c0-.13,0-.25,0-.38s0-.24,0-.35a2.47,2.47,0,0,0-.13-.86,1,1,0,0,0-.46-.52,2.63,2.63,0,0,0-.94-.27,12.72,12.72,0,0,0-1.55-.08,1.57,1.57,0,0,0-.86.16.86.86,0,0,0-.2.69l-.19,3.55,1.18,0,1.4,0,.93,0q.58,0,1.15-.08l1.38-.09.38.44-.44,3.61q-.69,0-1.35,0l-1.22,0-1.19,0a13,13,0,0,0-1.3.06l-1.05.13q0,.82,0,1.47Z"/><path class="cls-2" d="M121.59,228.19a14.14,14.14,0,0,1-2.53-.2,17.39,17.39,0,0,1-1.93-.46,12.3,12.3,0,0,1-1.73-.69l-.38-.57q.16-.91.28-1.82t.22-1.68q.09-.9.16-1.68l4-.28a3.51,3.51,0,0,0,.71,2.45,2.68,2.68,0,0,0,2.06.75,2.85,2.85,0,0,0,1.52-.34,1.06,1.06,0,0,0,.55-.94,1.31,1.31,0,0,0-.38-.91,3.87,3.87,0,0,0-1-.75,15.93,15.93,0,0,0-1.44-.67l-1.65-.71a17.22,17.22,0,0,1-1.76-.91,7.77,7.77,0,0,1-1.54-1.19,5.31,5.31,0,0,1-1.1-1.6,5.17,5.17,0,0,1-.41-2.13,5.55,5.55,0,0,1,.69-2.75,6.29,6.29,0,0,1,2-2.12,9.91,9.91,0,0,1,3.06-1.37,15.05,15.05,0,0,1,4-.49,18.74,18.74,0,0,1,2.4.14q1.08.14,1.9.3a14.36,14.36,0,0,1,1.69.44l.38.69q-.19.79-.35,1.66t-.28,1.74q-.13,1-.22,2.06l-3.64.25-.38-.25v-.5q0-2.2-2.29-2.2a2.41,2.41,0,0,0-1.43.39,1.2,1.2,0,0,0-.55,1,1.26,1.26,0,0,0,.33.85,3.66,3.66,0,0,0,.88.71,10,10,0,0,0,1.26.63l1.49.61q.94.41,1.9.89a8,8,0,0,1,1.73,1.18,5.68,5.68,0,0,1,1.26,1.63,4.87,4.87,0,0,1,.49,2.26,5.54,5.54,0,0,1-.67,2.75,6,6,0,0,1-1.95,2.06,9.85,9.85,0,0,1-3.09,1.3A17,17,0,0,1,121.59,228.19Z"/><path class="cls-3" d="M48.19,93.46A10.67,10.67,0,0,1,46.79,99a9.92,9.92,0,0,1-3.86,3.73,10.72,10.72,0,0,1,6,9.88q0,5.78-3.33,8.85a12.41,12.41,0,0,1-8.77,3.07A12.48,12.48,0,0,1,28,121.42q-3.36-3.09-3.36-8.84a11,11,0,0,1,1.59-5.91,10.59,10.59,0,0,1,4.41-4A9.76,9.76,0,0,1,26.79,99a10.75,10.75,0,0,1-1.39-5.52q0-5.49,3.13-8.54a11.33,11.33,0,0,1,8.25-3,11.38,11.38,0,0,1,8.27,3Q48.19,88,48.19,93.46ZM40.82,112a7.78,7.78,0,0,0-1.11-4.43,3.39,3.39,0,0,0-2.93-1.64,3.35,3.35,0,0,0-2.93,1.64,9.65,9.65,0,0,0,0,8.88,3.49,3.49,0,0,0,5.88,0A7.83,7.83,0,0,0,40.82,112Zm-.77-18.14a8.18,8.18,0,0,0-.84-4,2.74,2.74,0,0,0-4.85,0,8.27,8.27,0,0,0-.83,4.05A8.48,8.48,0,0,0,34.38,98a2.65,2.65,0,0,0,2.43,1.5A2.62,2.62,0,0,0,39.23,98,8.58,8.58,0,0,0,40.05,93.84Z"/><path class="cls-3" d="M64.08,118a4.78,4.78,0,0,0,4.06-2.33,11.44,11.44,0,0,0,1.61-6.55v-1.59a8,8,0,0,1-2.66,2.5,6.51,6.51,0,0,1-3.23.85,8.92,8.92,0,0,1-7.64-3.83q-2.78-3.83-2.77-10.43a16.29,16.29,0,0,1,3.43-10.52,11,11,0,0,1,17.52.11q3.42,4.4,3.42,12.25v10.13q0,7.29-3.88,11.57a12.7,12.7,0,0,1-9.83,4.28,16.56,16.56,0,0,1-3.73-.46,15.94,15.94,0,0,1-3.64-1.31l.91-6a16.25,16.25,0,0,0,3.09,1A16,16,0,0,0,64.08,118Zm1.31-13.21a4.59,4.59,0,0,0,2.52-.7,5.85,5.85,0,0,0,1.84-1.89V97.53a15.89,15.89,0,0,0-1.14-6.8q-1.14-2.31-3-2.19h-.17q-1.74-.11-2.85,2.35a14,14,0,0,0-1.11,5.79,14.74,14.74,0,0,0,1,5.95A3.16,3.16,0,0,0,65.38,104.84Z"/></g></g></svg>