<svg xmlns="http://www.w3.org/2000/svg" viewBox="0 0 289.4 172.73"><defs><style>.cls-1{fill:#ab1e41;}.cls-2{fill:#cb1e51;}</style></defs><title>Asset 8</title><g id="Layer_2" data-name="Layer 2"><g id="by_the_numbers" data-name="by the numbers"><polygon class="cls-1" points="54.29 172.74 0 121.41 42.44 133.37 42.44 77.98 75.02 125.36 102.65 0 115.49 86.37 143.12 72.06 143.12 114.5 211.23 80.94 138.19 172.74 159.9 123.38 132.27 138.19 132.27 96.73 109.56 122.39 100.68 86.37 85.87 156.94 59.22 128.32 62.19 154.97 43.43 148.06 54.29 172.74"/><polygon class="cls-1" points="182.27 169.79 166.24 154.63 178.77 158.17 178.77 141.81 188.39 155.8 196.55 118.78 200.34 144.29 208.5 140.06 208.5 152.59 228.62 142.68 207.05 169.79 213.46 155.22 205.3 159.59 205.3 147.35 198.59 154.93 195.97 144.29 191.6 165.13 183.73 156.68 184.6 164.55 179.06 162.51 182.27 169.79"/><polygon class="cls-1" points="243.05 169.79 227.02 154.63 239.56 158.17 239.56 141.81 249.18 155.8 257.34 118.78 261.13 144.29 269.29 140.06 269.29 152.59 289.4 142.68 267.83 169.79 274.24 155.22 266.08 159.59 266.08 147.35 259.38 154.93 256.75 144.29 252.38 165.13 244.51 156.68 245.39 164.55 239.85 162.51 243.05 169.79"/><polygon class="cls-2" points="54.29 172.74 43.43 148.06 62.19 154.97 59.22 128.32 85.87 156.94 100.68 86.37 109.56 122.39 132.27 96.73 132.27 138.19 159.9 123.38 138.19 172.74 112.59 162.86 87.8 170.62 76.94 167.24 54.29 172.74"/></g></g></svg>