<svg xmlns="http://www.w3.org/2000/svg" viewBox="0 0 289.4 202.72"><defs><style>.cls-1{fill:#6cafe0;}.cls-2{fill:#ab1e41;}.cls-3{fill:#cb1e51;}.cls-4{fill:#fff;}</style></defs><title>Asset 14</title><g id="Layer_2" data-name="Layer 2"><g id="by_the_numbers" data-name="by the numbers"><path class="cls-1" d="M34.45,196.59a8.32,8.32,0,0,0,0,1,1.19,1.19,0,0,0,.22.59.78.78,0,0,0,.48.28,4.29,4.29,0,0,0,.85.07,9.42,9.42,0,0,0,1.74-.13,2.21,2.21,0,0,0,1.09-.51,2.35,2.35,0,0,0,.63-1,11.69,11.69,0,0,0,.38-1.78l4.13-.29.39.49q-.16,1-.33,2t-.31,2.16q-.15,1.21-.28,2.55l-.49.52-3.34-.1q-1.51-.07-3.39-.1t-3.78,0q-1.28,0-2.51,0l-2.21.12-2.19.16.29-3a2.49,2.49,0,0,0,1.69-.8,3.66,3.66,0,0,0,.44-2.08l0-11a4,4,0,0,0-.16-1.41.71.71,0,0,0-.72-.36l-.29,0-.26,0a1.24,1.24,0,0,1-.29,0l-.39-.46.29-2.59,2.69.07q1.15,0,2.47,0h2.47q1.54,0,3,0l2.85-.08,2.44-.12q1.1-.06,1.78-.16l.43.52q-.2,1-.33,2.1t-.25,2.11q-.11,1.16-.18,2.31l-4.52.29a3.22,3.22,0,0,1,0-.46c0-.13,0-.26,0-.39s0-.25,0-.36A2.58,2.58,0,0,0,39,186a1,1,0,0,0-.47-.54,2.72,2.72,0,0,0-1-.28,13.14,13.14,0,0,0-1.62-.08,1.64,1.64,0,0,0-.9.16c-.14.11-.21.35-.21.72l-.2,3.7,1.23,0,1.46,0,1,0q.61,0,1.2-.08l1.44-.1.39.46-.46,3.77q-.72,0-1.41,0l-1.28,0-1.24,0a13.26,13.26,0,0,0-1.36.07l-1.1.13q0,.85,0,1.54Z"/><path class="cls-1" d="M52.15,191,49.47,187a8.2,8.2,0,0,0-1-1.24,6,6,0,0,0-.9-.75,3.49,3.49,0,0,0-.93-.44l-1.08-.31-.16-.2.29-3q.69,0,1.57,0h4.19l1.49,0q.93,0,1.88-.08l2.29-.1.2.36L57.09,184q-1.28,0-1.28.78a2.88,2.88,0,0,0,.59,1.53q.59.88,1.47,2.11.29-.52.66-1.1t.66-1.11q.29-.53.49-1a1.7,1.7,0,0,0,.2-.61.52.52,0,0,0-.26-.5,2.27,2.27,0,0,0-1-.15l-.07-.2.2-2.68h6.54q.74,0,1.36,0l1.41-.07.13.27L68,184.21q-.79.39-1.38.75a9,9,0,0,0-1.08.76,7,7,0,0,0-.9.89,11.86,11.86,0,0,0-.84,1.14l-3.08,4.71,2.85,4a8.87,8.87,0,0,0,2,2.13,3.78,3.78,0,0,0,2.12.69l.13.13-.3,2.95q-.89,0-1.74,0l-1.48,0-1.21,0-1.71,0q-1.11,0-2.26.1-1.31.07-2.82.1l-.23-.23.23-2.75q1-.07,1-.66a1.55,1.55,0,0,0-.36-.88l-2-2.88-1.24,2a4.57,4.57,0,0,0-.41.73,1.49,1.49,0,0,0-.15.56q0,1,1.28,1l.2.37-.16,2.71q-1.11,0-2.09-.1l-1.65-.07-1.19,0-1.24,0-1.44.07q-.85.06-1.7.1L45,202l.2-2.68a4.12,4.12,0,0,0,.88-.6,13.06,13.06,0,0,0,1.08-1q.56-.58,1.13-1.25t1-1.32Z"/><path class="cls-1" d="M69.06,181.13h4.68l1.56,0q1,0,1.95-.08l2.39-.1a15.11,15.11,0,0,1,3.37.33,9.68,9.68,0,0,1,2.41.87,5.62,5.62,0,0,1,1.6,1.24,5.69,5.69,0,0,1,.93,1.47,6.36,6.36,0,0,1,.44,1.52,9.17,9.17,0,0,1,.11,1.38,7,7,0,0,1-.65,3,8,8,0,0,1-1.79,2.47,8.65,8.65,0,0,1-2.62,1.69,8,8,0,0,1-3.13.62H77.51v1.57a3.84,3.84,0,0,0,.31,1.85q.31.51,1.33.51h.36a1.8,1.8,0,0,0,.36,0l.36,0,.16.26-.33,2.82-2.16-.07-1.77,0-1.41,0q-.56,0-1.57,0l-2,.12-2.49.13.29-3a2.52,2.52,0,0,0,1.67-.8,3.33,3.33,0,0,0,.46-2v-11a3.64,3.64,0,0,0-.18-1.39.68.68,0,0,0-.67-.38l-.39,0-.36,0a2.43,2.43,0,0,1-.39,0l-.33-.39Zm10.77,10.68a2.59,2.59,0,0,0,1.46-1.25,5.31,5.31,0,0,0,.48-2.46,3,3,0,0,0-.8-2.31,3.8,3.8,0,0,0-2.57-.72c-.24,0-.39,0-.44.13a1.52,1.52,0,0,0-.11.59q-.07,1.24-.13,2.69t-.13,3Z"/><path class="cls-1" d="M95.36,202.32q-1.28,0-2.51,0l-2.21.12-2.19.16.29-3a2.49,2.49,0,0,0,1.69-.8,3.66,3.66,0,0,0,.44-2.08V185.69a2.62,2.62,0,0,0-.23-1.34,1.06,1.06,0,0,0-.92-.33l-.29,0-.26,0h-.29l-.29-.46.26-2.46h5.27l1.7,0,2.26,0,2.82-.1-.36,3.21q-.85.1-1.39.21a3.19,3.19,0,0,0-.87.29,1,1,0,0,0-.46.47,2.18,2.18,0,0,0-.16.72q-.07,1.11-.13,2.31t-.11,2.57q0,1.38-.07,2.95t0,3.44a1.65,1.65,0,0,0,.28,1.08,1.19,1.19,0,0,0,.95.33,4.22,4.22,0,0,0,1.46-.21,1.87,1.87,0,0,0,.93-.8,4.46,4.46,0,0,0,.53-1.64q.17-1,.27-2.69l4.13-.43.39.49q-.16,1.25-.29,2.65-.13,1.21-.26,2.8t-.23,3.29l-.49.52-3-.1q-1.38-.07-3.1-.1T95.36,202.32Z"/><path class="cls-1" d="M116.51,202.72q-4.78,0-7.27-2.72t-2.49-7.89q0-5.53,2.73-8.45t8-2.91q9.76,0,9.76,10.45,0,5.57-2.77,8.55T116.51,202.72Zm.62-4.13a2.05,2.05,0,0,0,2-1.21,10.25,10.25,0,0,0,.59-4.13q0-2.23-.15-3.77a10.41,10.41,0,0,0-.49-2.49,2.78,2.78,0,0,0-.92-1.36,2.34,2.34,0,0,0-1.39-.41,2,2,0,0,0-1.95,1.2,10.27,10.27,0,0,0-.57,4.08q0,2.23.15,3.78a10.44,10.44,0,0,0,.49,2.51,2.93,2.93,0,0,0,.9,1.38A2.14,2.14,0,0,0,117.14,198.59Z"/><path class="cls-1" d="M135,202.72a14.67,14.67,0,0,1-2.64-.21,17.78,17.78,0,0,1-2-.47,12.71,12.71,0,0,1-1.8-.72l-.39-.59q.16-.95.29-1.9t.23-1.75q.1-.93.16-1.75L133,195a3.66,3.66,0,0,0,.74,2.55,2.8,2.8,0,0,0,2.15.79,3,3,0,0,0,1.59-.36,1.11,1.11,0,0,0,.57-1,1.37,1.37,0,0,0-.39-.95,4,4,0,0,0-1.06-.79,16.49,16.49,0,0,0-1.51-.7l-1.72-.74a18.17,18.17,0,0,1-1.83-1,8.06,8.06,0,0,1-1.6-1.24,5.54,5.54,0,0,1-1.15-1.67,5.4,5.4,0,0,1-.43-2.23,5.79,5.79,0,0,1,.72-2.87,6.56,6.56,0,0,1,2-2.21,10.37,10.37,0,0,1,3.19-1.42,15.73,15.73,0,0,1,4.13-.51,19.39,19.39,0,0,1,2.5.15q1.13.15,2,.31a14.71,14.71,0,0,1,1.77.46l.39.72q-.2.82-.36,1.74t-.29,1.82q-.13,1-.23,2.14l-3.8.26-.39-.26v-.52q0-2.29-2.39-2.29a2.5,2.5,0,0,0-1.49.41,1.25,1.25,0,0,0-.57,1.06,1.31,1.31,0,0,0,.34.88,3.79,3.79,0,0,0,.92.74,10.31,10.31,0,0,0,1.31.66l1.56.64q1,.43,2,.93a8.39,8.39,0,0,1,1.8,1.23,5.93,5.93,0,0,1,1.31,1.7,5.09,5.09,0,0,1,.51,2.36,5.78,5.78,0,0,1-.7,2.87,6.21,6.21,0,0,1-2,2.14,10.26,10.26,0,0,1-3.23,1.36A17.74,17.74,0,0,1,135,202.72Z"/><path class="cls-1" d="M155.42,185.62q-.16,2.32-.25,5.34t-.08,6.23a5.32,5.32,0,0,0,.2,1.81.83.83,0,0,0,.85.44h.46a1.35,1.35,0,0,0,.33,0l.26-.07.26.33-.29,2.78-2.23-.07-1.82,0-1.42,0q-.79,0-1.72,0l-1.78.07-1.93.07.26-2.82a4.85,4.85,0,0,0,1.08-.33,1.73,1.73,0,0,0,.65-.49,1.66,1.66,0,0,0,.31-.74,6.35,6.35,0,0,0,.08-1.13V185.68a2.61,2.61,0,0,0-.23-1.34,1.06,1.06,0,0,0-.92-.33l-.29,0-.26,0h-.29l-.29-.46.26-2.46h5.27l1.46,0,1.88,0,2.29-.1-.23,2.95q-.56.1-.92.2a1.33,1.33,0,0,0-.56.28,1,1,0,0,0-.28.47A3.92,3.92,0,0,0,155.42,185.62Z"/><path class="cls-1" d="M168.13,202.72q-4.78,0-7.27-2.72t-2.49-7.89q0-5.53,2.73-8.45t8-2.91q9.76,0,9.76,10.45,0,5.57-2.77,8.55T168.13,202.72Zm.62-4.13a2,2,0,0,0,2-1.21,10.23,10.23,0,0,0,.59-4.13q0-2.23-.15-3.77a10.41,10.41,0,0,0-.49-2.49,2.77,2.77,0,0,0-.92-1.36,2.34,2.34,0,0,0-1.39-.41,2,2,0,0,0-1.95,1.2,10.27,10.27,0,0,0-.57,4.08q0,2.23.15,3.78a10.44,10.44,0,0,0,.49,2.51,2.94,2.94,0,0,0,.9,1.38A2.14,2.14,0,0,0,168.75,198.59Z"/><path class="cls-1" d="M195.77,191.42l-.13-6a2.34,2.34,0,0,0-.28-1.13,1,1,0,0,0-.8-.28h-1l-.16-.36.16-2.65,2,.07,1.79,0,1.62,0,1.49,0,1.47,0,1.59,0-.16,2.95a2.49,2.49,0,0,0-1.46.61,2.22,2.22,0,0,0-.44,1.46L201,202.32l-6.16.39q-1.38-2.29-2.6-4.22t-2.15-3.41q-1.08-1.67-2-3.08h-.43l.1,5.78a2.46,2.46,0,0,0,.29,1.3,1.15,1.15,0,0,0,1,.36l.34,0,.34,0,.43-.07.29.3-.36,2.85-2-.07-1.68,0-1.38,0q-.86,0-1.75,0t-1.65.1l-1.68.13.33-3a2.26,2.26,0,0,0,1.39-.61,2.19,2.19,0,0,0,.47-1.46l.39-11.43a3.57,3.57,0,0,0-.1-.92,1.17,1.17,0,0,0-.36-.59,1.73,1.73,0,0,0-.74-.34,11.89,11.89,0,0,0-1.26-.21l-.39-.45.2-2.6q.72.07,1.54.1l1.54,0,1.77,0,1.39,0,1.36,0L189,181q1.11,2,2.23,3.86t2,3.34l2,3.21Z"/><path class="cls-1" d="M210.8,202.72a14.67,14.67,0,0,1-2.64-.21,17.75,17.75,0,0,1-2-.47,12.76,12.76,0,0,1-1.8-.72l-.39-.59q.16-.95.29-1.9t.23-1.75q.1-.93.16-1.75l4.13-.29a3.66,3.66,0,0,0,.74,2.55,2.8,2.8,0,0,0,2.15.79,3,3,0,0,0,1.59-.36,1.11,1.11,0,0,0,.57-1,1.37,1.37,0,0,0-.39-.95,4,4,0,0,0-1.06-.79,16.56,16.56,0,0,0-1.51-.7l-1.72-.74a18.28,18.28,0,0,1-1.83-1,8.09,8.09,0,0,1-1.6-1.24,5.53,5.53,0,0,1-1.15-1.67,5.39,5.39,0,0,1-.43-2.23,5.79,5.79,0,0,1,.72-2.87,6.57,6.57,0,0,1,2-2.21,10.39,10.39,0,0,1,3.19-1.42,15.73,15.73,0,0,1,4.13-.51,19.42,19.42,0,0,1,2.51.15q1.13.15,2,.31a14.72,14.72,0,0,1,1.77.46l.39.72q-.2.82-.36,1.74t-.29,1.82q-.13,1-.23,2.14l-3.8.26-.39-.26v-.52q0-2.29-2.39-2.29a2.5,2.5,0,0,0-1.49.41,1.25,1.25,0,0,0-.57,1.06,1.31,1.31,0,0,0,.34.88,3.81,3.81,0,0,0,.92.74,10.36,10.36,0,0,0,1.31.66l1.56.64q1,.43,2,.93a8.38,8.38,0,0,1,1.8,1.23,5.93,5.93,0,0,1,1.31,1.7,5.08,5.08,0,0,1,.51,2.36,5.77,5.77,0,0,1-.7,2.87,6.22,6.22,0,0,1-2,2.14,10.26,10.26,0,0,1-3.23,1.36A17.75,17.75,0,0,1,210.8,202.72Z"/><polygon class="cls-2" points="54.29 172.74 0 121.41 42.44 133.37 42.44 77.98 75.02 125.36 102.65 0 115.49 86.37 143.12 72.06 143.12 114.5 211.23 80.94 138.19 172.74 159.9 123.38 132.27 138.19 132.27 96.73 109.56 122.39 100.68 86.37 85.87 156.94 59.22 128.32 62.19 154.97 43.43 148.06 54.29 172.74"/><polygon class="cls-2" points="182.27 169.79 166.24 154.63 178.77 158.17 178.77 141.81 188.39 155.8 196.55 118.78 200.34 144.29 208.5 140.06 208.5 152.59 228.62 142.68 207.05 169.79 213.46 155.22 205.3 159.59 205.3 147.35 198.59 154.93 195.97 144.29 191.6 165.13 183.73 156.68 184.6 164.55 179.06 162.51 182.27 169.79"/><polygon class="cls-2" points="243.05 169.79 227.02 154.63 239.56 158.17 239.56 141.81 249.18 155.8 257.34 118.78 261.13 144.29 269.29 140.06 269.29 152.59 289.4 142.68 267.83 169.79 274.24 155.22 266.08 159.59 266.08 147.35 259.38 154.93 256.75 144.29 252.38 165.13 244.51 156.68 245.39 164.55 239.85 162.51 243.05 169.79"/><polygon class="cls-3" points="54.29 172.74 43.43 148.06 62.19 154.97 59.22 128.32 85.87 156.94 100.68 86.37 109.56 122.39 132.27 96.73 132.27 138.19 159.9 123.38 138.19 172.74 112.59 162.86 87.8 170.62 76.94 167.24 54.29 172.74"/><path class="cls-4" d="M100,138.49l2.8-31.53h27.65v9H111.78l-1.2,13.32a9.76,9.76,0,0,1,3-2,10.31,10.31,0,0,1,3.79-.87q7.07-.12,10.85,4.87t3.79,14a21.14,21.14,0,0,1-4.29,13.51q-4.29,5.44-12.25,5.44A17.06,17.06,0,0,1,103.8,160q-4.91-4.33-4.76-11.75l.08-.19,10.72-.58a9.85,9.85,0,0,0,1.55,5.92,4.83,4.83,0,0,0,4.08,2.12,4.41,4.41,0,0,0,4.23-2.78,17.08,17.08,0,0,0,1.32-7.28,17.72,17.72,0,0,0-1.48-7.92,5.19,5.19,0,0,0-8-1.67,6.61,6.61,0,0,0-1.71,3.3Z"/></g></g></svg>