<svg xmlns="http://www.w3.org/2000/svg" viewBox="0 0 120.18 238.26"><defs><style>.cls-1{fill:#6cafe0;fill-rule:evenodd;}</style></defs><title>Asset 3</title><g id="Layer_2" data-name="Layer 2"><g id="by_the_numbers" data-name="by the numbers"><path class="cls-1" d="M99.85,72.73c-.26.5-1.45,1.13-1.83.28-3,5.22-6.22,10.19-9.28,15.4-1,1.72-2.07,3.46-3,5.27-.07.12-.19.18-.42.14.64.84,1.85,1.73,1.76,3,0,.34-.33.6-.42.91s0,.9-.14,1.34c-.18.76-.77,1.27-1.05,2-.4,1-.62,2-1.41,2.53.17,1-.65,1.36-1.06,2.11-.27.5-.32,1-.63,1.27a6.67,6.67,0,0,1-2.39.77c-.7,0-1.48-.39-2.32-.21a8.65,8.65,0,0,0-1.4,2,5.57,5.57,0,0,0-1.06,2.32c0,.52.56,1.17.84,1.83a21.85,21.85,0,0,1,1.34,4c.17.76.16,1.49.28,2.25.2,1.19,1.12,3.23.28,4.57-.56.2-.91-.39-1.62-.28.51,1.6.46,2.92,1.12,4.22.46.89,1.4,1.35,1.9,2.18a16.17,16.17,0,0,1,.56,1.55,27.17,27.17,0,0,0,1.83,2.53c.85.71,2.57,1,2.6,2.32,0,.57-.46,1.08-.42,1.76a7.22,7.22,0,0,0,.91,2.11c.74,1.46,1.5,2.4,2.32,3.73a9.5,9.5,0,0,0,1.19,1.83c.33.31.82.4,1.06.63.94.93,1.31,3,1.62,5a34.38,34.38,0,0,1,.7,5.91c0,1.34-.36,2.8-.42,4.29,0,.62.06,1.28,0,1.9-.28,3.16-2.59,4.58-3.66,7,1.55,2.74,1,6.94,1.26,10.76a14.14,14.14,0,0,1-.14,4.29c-.12.42-.51.84-.56,1.27a11,11,0,0,0,0,2.25c.17,2,2.12,2.83,1.9,4.71-.07.61-.63,1.1-.84,1.76.55.73,1.62.64,2.46.78,2.74.44,5.81.06,7.31,1.83.29.34.43.93.77,1.27.19.18.59.25.77.49a4.52,4.52,0,0,1,.28,2.81,4,4,0,0,1-.63,1.41,7,7,0,0,1-4.43,2.18c-.38,0-.79-.23-1.05-.21s-.5.28-.91.35a5.46,5.46,0,0,1-3.09-.28c-1.27.47-2.26-.34-3.24-.56-.32-.07-.61.05-.91,0-.82-.15-1.19-.83-2-1.13a17.42,17.42,0,0,0-2.74-.56,12.56,12.56,0,0,0-2.88-.35c-.35.33-.4,1-.7,1.34a3.45,3.45,0,0,1-1.9-.28A3.13,3.13,0,0,1,74,205c-1.43.5-2.3-.55-3.66-.56A4.6,4.6,0,0,1,68.2,200a5.46,5.46,0,0,0,.21-1.55c-.14-.87-1-1.39-1.27-2.18-.47-1.27,0-3.33.14-4.78a13.36,13.36,0,0,0-.49-2.81c-.26-1.52-.27-2.94-.49-4.36-.2-1.26-.81-2.41-1.05-3.66s-.57-2.7-.71-3.94c-.18-1.7.2-3.7-.35-5.06-.31-.75-1.12-1.44-1.55-2.32-1.08-2.21-.67-4.9-1.76-6.82-.48-.86-1.24-1.54-1.76-2.32s-1-1.7-1.48-2.53c-1-1.75-1.83-3.59-3.3-4.78-1.46,2.28-2,5.37-3.1,8.23-.34.89-.79,1.72-1.05,2.6s-.33,2-.63,3a41.83,41.83,0,0,1-1.69,4.22c-.29.68-.58,1.37-.91,2s-.74,1.26-1,1.9a4.65,4.65,0,0,1-1,2,12,12,0,0,1-1.76,4.78c-.59,1-.92,2.24-1.48,3.1-.36.56-.91,1.1-1.34,1.69A20,20,0,0,1,36,191c-.56.37-1.14.66-1.69,1.05s-1.05.71-1.55,1.13c-1.09,1.67-1.48,3.58-2.46,5.21-.72,1.19-1.93,2.07-2.6,3.3-.48.88-.8,1.85-1.27,2.74s-1.21,1.49-1.61,2.32-.17,1.62-.49,2.32c-.53,1.16-1.58,2-2.11,3.1a11.32,11.32,0,0,0-.56,3c-.11.73-.33,1.62-.42,2.53a13.08,13.08,0,0,1-.14,2.81c-.33.75-1.53.58-2,1.27-.32,2.93,3.73,2.09,4.43,4.22a7.1,7.1,0,0,1,3.24,3.09,6.51,6.51,0,0,1,1.2,2.18c.08.48,0,.78,0,1.06s.46.67.42,1.41a5.57,5.57,0,0,1-1.19,2.75,8.54,8.54,0,0,1-4.93,1.41,10.53,10.53,0,0,0-1.48-.14c-.33,0-.58.43-1,.49a3.83,3.83,0,0,1-2.11-.49c-.93.58-2.66.22-3-.63-.7.23-2.11-.08-2.25-1.05-.23-.17-.48.11-.7-.07a7.57,7.57,0,0,1-.63-.56c-.22-.23-.29-.5-.49-.71s-.48-.18-.64-.35a17.75,17.75,0,0,1-1-1.62,14.06,14.06,0,0,0-3.09-3.59c-.5.82-1.76,0-2.32-.49a8.24,8.24,0,0,1-2.25-2.81,7.68,7.68,0,0,1-.77-1.76c-.05-.54.35-.95.49-1.41s.19-1.33.35-2a12.61,12.61,0,0,0,.49-1.83c0-.4-.76-.91-1-1.27a6.82,6.82,0,0,1-.77-2c-.25-1.68.58-3.06.49-4.64,0-.55-.36-1-.35-1.62a16.8,16.8,0,0,1,.35-2.46,10.4,10.4,0,0,0,.36-1.13,7.08,7.08,0,0,0-.14-.91c-.18-2.31.76-4.06,1.48-5.84.31-.78.65-1.73,1.06-2.6a7.13,7.13,0,0,0,1-2.67c0-.28-.21-.61-.21-.91a8.86,8.86,0,0,1,.28-1.27c.24-1.28.7-2,1-3.09a12.5,12.5,0,0,1,.28-1.55,12.83,12.83,0,0,1,1.34-2,23.58,23.58,0,0,0,2.67-4.08c.34-.78.94-1.47,1.2-2.18.35-1,.27-2.34.71-3.38.19-.47.68-.89.77-1.34a30.38,30.38,0,0,0,.21-3.09c.13-1.09,1-1.89,1.41-2.88a9.17,9.17,0,0,0,.42-2.18c.27-1.41,1.39-2.5,1.76-3.94-.61-.12-1.06-.63-1.62-.91-.82-.42-2.14-1-2.53-1.83a8.09,8.09,0,0,1-.56-2.18,14.51,14.51,0,0,1,.07-3.24c.16-1.1,1.11-2.52,1.55-3.73.16-.45.39-.9.49-1.27.16-.62.1-1.32.28-1.76a19.75,19.75,0,0,1,1.48-2c1.06-1.79,1.47-3.59,3-4.64-.44-.43-.89-.84-1.34-1.27.48-1.4,2-1.71,2.88-2.74-.56-2.54,1.92-3.42,2.46-5.27.09-.31,0-.72.14-1.06.17-.55.67-.95.77-1.48.14-.74-.07-1.75,0-2.6.05-.67.27-1.28.28-1.76,0-1-.54-2.34-.56-3.59a10.19,10.19,0,0,1,.49-3,7.43,7.43,0,0,0,.63-2.81c-.12-.69-1.13-1.52-1.62-2.18a9.27,9.27,0,0,1-1.55-2.18c-.25-1.18.55-2.38,0-3.66-.12-.32-.65-.24-.77-.56a6.38,6.38,0,0,1,.14-1.05c-.89,0-1.7.09-2.18-.56a11.42,11.42,0,0,1-1.13-2.88,3.58,3.58,0,0,1,.49-2.6,2.24,2.24,0,0,0,2-.28,1.77,1.77,0,0,0,1.47.07c.88-.89-.27-2.48.36-3.66-1.92-1-3-3.91-2.75-7.11.43-5.42,2.34-10.81,2.75-16-.41-.08-.56.71-1,.84-.22-.27-.5-.62-.91-.49.18-1.27.66-2.35.35-3.73-.23-1-.67-1.59-.42-2.53a9,9,0,0,1,1.55-2.53c.28-.34.67-.69,1-1.06s.83-.73,1-1.06a6.86,6.86,0,0,0,.21-1.69c.19-1.55.61-3.33.92-4.71.47-2.06,1-3.78,2.53-5a8.71,8.71,0,0,1,6-1.69c.4,0,.75.32,1.26.28.87-.07,1.44-1.3,2-2a12.76,12.76,0,0,0,.91-1.06c.29-.48.36-1,.63-1.34,1-1.35,3.4-1.89,5.49-2.18a2,2,0,0,0,.63-.7c0-.88-1.55-1.49-1.62-2.32,0-.6.81-1.33,1.27-1.76a12.47,12.47,0,0,1,3.52-2.53,7.47,7.47,0,0,0,2-1c.59-.66.46-1.71,1-2.32-.05-.72-.72-1.33-.85-2A3.81,3.81,0,0,1,50.2,26.1c-.09-.57-.8-.51-.7-1.27.34-.27.78.21,1,.07a5.71,5.71,0,0,0,.14-2c-3.05-.75-8.75-.93-10.13-3.66-1.28-2.54,2.2-3.31,4.78-3a5.85,5.85,0,0,1,1-2.39c.23-.34.65-.62.84-1,.27-.52.23-1.09.7-1.48A7.38,7.38,0,0,1,47.73,10a6.11,6.11,0,0,1,2.32-3.31,2.83,2.83,0,0,1,3.09.07c2.27-2.4,5.33-5.21,10.06-5.49,1.15-.07,2.51-.48,3.24.14A10.62,10.62,0,0,1,71.3,0C72.75,0,74.17.37,74,2c1.14,1.32,2.08,2.85,3.31,4.08A28.9,28.9,0,0,1,80.16,7.6c2.36,1.47,3.43,4.31,4.29,7.17A50.61,50.61,0,0,0,86.91,21c.3.66.78,1.36.56,2.11a33.07,33.07,0,0,0-4.36-.56c-.55.29-.27.87-.7,1.27-.89.82-4.51.62-6.12.49-.25.8.55,1.29.77,1.9a8.83,8.83,0,0,1,.35,2.74,38.72,38.72,0,0,1-1.55,10.2c.34.14.89.05,1.13.28.08,1.91-1.12,3.79-.56,5.77.72.57,1.92.66,2.67,1.2A1.59,1.59,0,0,1,77,48.53c-.26.26-.45.58-.91.63a3.49,3.49,0,0,1-1,2.11,18.17,18.17,0,0,0,.85,2.39,19.12,19.12,0,0,1,2.25.42c.58,1.22,1.39,2.22,1.9,3.52-.33.64.29,1.15.42,1.76a27.35,27.35,0,0,1,6.19,6.33c.74-.05,1.07-.62,1.69-.7.95-.13,1.46.39,2.32-.07.46-.25.64-.73,1-1.06.53-.49,1.2-.72,1.69-1.19,1-.94,1.45-2.48,2.46-3.52.49-.5,1.15-.79,1.55-1.48-2.55-1.51-6.09-2-8.65-3.52.68-.93,2.07-.94,3.52-1.12,3.33-.42,7.95-.43,10.9.56a47,47,0,0,1,5.35,2,23,23,0,0,0,5.63,1.76A41.84,41.84,0,0,1,120,58.8c.76,3.8-1.78,6.26-4.36,7.38a64,64,0,0,0-8.16-3.38c.21,1.78-.73,2.71-1.62,3.59a4.5,4.5,0,0,1-.63,2.11c-.22.23,0-.15-.14-.14s-.43.45-.71.56a2.49,2.49,0,0,1-1.19,1.48c-.12,1.17-.19,2.62-1.19,2.81C101.38,73.34,100.57,72.88,99.85,72.73ZM88.11,80c-.36.21-.64.64-1.06.91s-1.17.7-1.76,1.13a14,14,0,0,1-1.69,1.26,9.83,9.83,0,0,0-1.69.49c-.54.34-1,1.15-1.41,1.27-.62.16-1.24-.17-1.69.28a16.59,16.59,0,0,0,.7,6.19,12.45,12.45,0,0,1,1.9.14c2.54-4,5.43-8,7.67-12.1C88.84,79.9,88.47,79.83,88.11,80ZM71.44,107.26c0,.24-.33.71.07.84.88-1.14,1.35-2.68,2.25-3.8-.6-.36-1.35-.58-1.9-1C71.67,104.6,71.55,106.08,71.44,107.26Z"/></g></g></svg>