<svg xmlns="http://www.w3.org/2000/svg" viewBox="0 0 159.23 239"><defs><style>.cls-1{fill:#ab1d40;fill-rule:evenodd;}</style></defs><title>Asset 7</title><g id="Layer_2" data-name="Layer 2"><g id="by_the_numbers" data-name="by the numbers"><path class="cls-1" d="M159.23,172.32v14.12c-3.68-3.86-8.36-6.72-12.1-10.51-.1-.67-.59-.94-.89-1.4s-.35-.7-.57-1c-1.32-1.87-2.79-3.42-4.18-5.19-.93-1.2-1.82-2.33-2.66-3.61s-1.53-2.58-2.34-3.93c-2.35-3.92-5.37-7.17-7.92-10.89a19.78,19.78,0,0,1-2.4-4c-.54-1.49-.71-3.12-1.52-4.43a7.93,7.93,0,0,0-3.8-3.23c-.32-.74-.89-1.27-1.27-2a19.13,19.13,0,0,1-1-2.22c-1.21-3.11-2.46-6.18-3.67-9.25-.61-1.55-1.3-3.08-1.84-4.62-2.19-6.33-5.49-12-8.49-17.42-.17,1.09-.17,1.67-.32,2.28a8.63,8.63,0,0,1-4.43,5.82c-.89.43-2.59.49-2.34,2s2.62,1.54,3,2.79a4.25,4.25,0,0,1-.32,2.28c-1.24.75-3.34.63-3.48,2.47,0,.43.68.13.7.51a2.13,2.13,0,0,1-1.46,2.34c-.27,0-.57-.25-1-.32s-.85.05-1.14,0a3.68,3.68,0,0,1-1.77-1A8.84,8.84,0,0,1,92,120.2c.25-.4.75-.56.82-1.14a8.07,8.07,0,0,0-.63-1.14,6.42,6.42,0,0,0-1.33-.19c-.4.07-.83.6-1.2.89a8.39,8.39,0,0,1-1.27.82c-1-.47-2.21-.48-3.36-.89-.49-.17-.85-.48-1.33-.38-.7.14-.65,1-.89,1.65a31.32,31.32,0,0,1-3.36,5.76,9.94,9.94,0,0,0,1.46,2c.36,1.19,1,2.15.89,3.55-.07,1-.64,2-.57,2.91,0,.63.63,1.13.82,1.71.26.77.42,1.83.7,2.85a8.71,8.71,0,0,1,.44,2.91c-.12,1-.83,1.63-.95,2.47-.18,1.3.64,2.08.7,3a2.34,2.34,0,0,1-.44,1.46c-.22.23-1.34.37-1.52.76-.28.61.41,1.89.76,2.28s1,.52,1.08,1c.14.82-.89,1-.89,1.58,0,.28.44.48.7.82.9,1.21,1.09,3.15,2.15,3.93.68.38,2,.38,2.6.89a8.54,8.54,0,0,1,1,1.64c.26.41.61.76.89,1.21,1.36,2.2,2.76,4.22,4.18,6.27.58.84,1.24,1.71,1.71,2.53s.67,1.92,1.2,2.91,1.07,1.74,1.52,2.66.78,1.82,1.27,2.91c.39.88,1.3,2.15,1.27,2.91,0,.59-.58,1.24-.82,1.84a6.3,6.3,0,0,1-1.58,2.72c-.46.4-1.24.64-1.33,1.14a7.1,7.1,0,0,0,.44,1.71c.23.92.32,1.73.51,2.6s.68,1.29.82,2c0,.21,0,.42,0,.64s.22.51.25.76a4.16,4.16,0,0,1-.82,2.79,8.36,8.36,0,0,1-5.07,1.52,23.46,23.46,0,0,1-3.29-.38,10.87,10.87,0,0,1-1.2-.57,14.06,14.06,0,0,0-4.18-1.14c-1.75-.14-2.7.46-4.12.63a11.75,11.75,0,0,1-1.9,0c-1.06-.05-2.21-.17-3.29-.25a8.64,8.64,0,0,1-3.93-1.08c-.44-.33-.85-1-1.33-1.46s-1.22-1-1.33-1.52a5.44,5.44,0,0,1,.57-2.6,7.72,7.72,0,0,1,2-2.15c2.64-1.51,6.51.32,9.31-.25-.13-.56-.43-.66-.51-1.14s.32-1.1.19-1.77c-.07-.38-.71-.91-1.08-1.27s-1-.78-1.08-1.27c-.13-.75.38-1.09.38-1.65a2.39,2.39,0,0,0-.63-1.46c-.88-.84-2.81.18-3.1-1.27a3.26,3.26,0,0,1-2.22-1.33c-.3-.5-.25-1.1-.63-1.39a3.64,3.64,0,0,0-1-.32,8.52,8.52,0,0,1-2.66-1.33,28.08,28.08,0,0,0-2.53-3.55c-.29-.35-.71-.58-1-.95s-.37-.67-.63-1-.58-.48-.82-.76c-.52-.61-.86-1.36-1.33-1.9s-2-2.13-2.85-2.09-.68.69-1,1.2-.91.78-1,1.33c-.17.86.62,1.42,1,2.09.88,1.76,0,3.92.06,6a20.73,20.73,0,0,0,.51,2.41c.34,1.88.57,4.5.76,6.46.1,1.07-.24,2.22-.13,3.1a8.81,8.81,0,0,0,.76,2c.28.66.53,1.39.83,2a15.21,15.21,0,0,1,1.58,4.11c.12.89.08,1.72.19,2.53s.37,1.51.44,2.34c.14,1.49-.31,2.93-.19,4.5a30.67,30.67,0,0,0,.89,4.18c.42,2,1.23,4,1,6.59,0,.31-.18.63-.19,1,0,.74.23,1,.38,1.52s.16,1.5.38,2.28a7.81,7.81,0,0,1,.57,1.84c-.1,1.27-2,1.72-2.6,2.85s.07,2.78-.06,4.18a13.61,13.61,0,0,1-.57,3c-.54,1.54-1.61,2.17-3.17,2.78a13.85,13.85,0,0,1-1.77.76c-1.63.34-3.53.2-5.26.38-.55-.23-.48-.88-.89-1.14-.63-.41-1.89,0-2.85.13-.54.08-.88,0-1.2.06-1.94.41-3.83,1.85-6,2.28-1.08.22-2.37.2-3.67.38a31,31,0,0,1-3.86.51,11.21,11.21,0,0,1-1.9-.32,10.83,10.83,0,0,1-4.56-1.77c-.3-.24-.5-.64-.82-.89a13.88,13.88,0,0,1-1.2-.82,6,6,0,0,1-1.4-2.28c-.58-1.94.18-3.05.89-4.31a10.6,10.6,0,0,1,1.2-2,6.81,6.81,0,0,1,6.52-1.58c1.56-.85,4.11-.29,5.76-.82.14-.67,0-1.15.19-1.84s.87-1.26.89-2a17.4,17.4,0,0,0-.44-1.77c-.11-1.09.35-2.28.25-3.42-.15-1.77-1.28-3.25-1.65-5.07-.61-3-.39-6.12-.63-9.05a11.17,11.17,0,0,0-.76-2.47,7.35,7.35,0,0,1,.19-3.86,6.47,6.47,0,0,0,.57-1.65c0-.76-.8-1.16-1.46-1.52a9,9,0,0,1-3.67-3.8,18.59,18.59,0,0,1-1.52-3,15.74,15.74,0,0,1-.38-3,7.87,7.87,0,0,0-.82-2.28,16.56,16.56,0,0,1-1-2.09,9.93,9.93,0,0,1,.13-3.23c.05-1.57-.52-2.86-.32-4.24a27.19,27.19,0,0,1,.82-2.79,21.38,21.38,0,0,1,.7-2.91c.33-.79.93-1.47,1.27-2.34s.38-2.55.7-3.8,1.06-2.05,1.21-3a3.76,3.76,0,0,0,0-1c-.23-.93-1.86-.67-2-1.65s1.7-1.74,2.28-2.34c1-1,1.4-2.47,2.09-3.67.37-4.45,2.32-7.31,3.23-11.21-.25-.05-.45.19-.89.06.56-1.82,1.75-3.78,2-6,.19-1.58-.09-3.23.06-4.81.06-.57.36-1.12.13-1.71-1.81-.29-2.11-1.62-2.79-3.17A16.67,16.67,0,0,1,35.23,112a6.77,6.77,0,0,1,1.14-3.23,16.48,16.48,0,0,1,1.14-2c.32-.39.8-.5,1.08-.95a23.47,23.47,0,0,0-.82-2.41A14.3,14.3,0,0,0,41.31,102c.92-2.46.51-6.24,2.15-8a3.84,3.84,0,0,0,2.22-.06c-.31-2.16-.86-4.38-.25-6.52.19-.68.85-1.22.7-2-.42-.05-1.17.07-1.9.06a15.4,15.4,0,0,1-2-.19c-.15-1.07-1.33-1.64-1.14-2.85a4.19,4.19,0,0,1,.63-1.08,19.53,19.53,0,0,0,1.52-3.61c.67-1.78,1.88-3.06,2.28-4.62a20.48,20.48,0,0,0-2.6-1.84c-.94-.58-2-1-2.91-1.52a5.1,5.1,0,0,1-1.2-1.46c-1.12-1.48-3-2.5-4.43-3.74-2.79-2.36-6-4.13-7.6-7.54a5.2,5.2,0,0,0,.13-1.71,3,3,0,0,0-2-2.15c-.29,0-.58.27-.89.25s-.66-.44-1-.51c-1-.17-2,.14-2.79-.13-1.08-.38-1.64-1.69-2.72-1.65-.32-.9-1.8-1.58-2.09-2.47s.24-1.63.25-2.34c0-.28-.19-.69-.19-1.08s.26-1,.19-1.27-.49-.43-.57-.7a3.89,3.89,0,0,1,.57-3c-.84-.62-2.55-.36-2.85-1.52a2.19,2.19,0,0,1,.51-1.84,9.12,9.12,0,0,0,1.84-.44c-1.15-.32-1.58-1.29-2.41-1.9a7.81,7.81,0,0,0-1.65-.7,7.29,7.29,0,0,0-1.71-.7c-.3,0-.57.13-.89.13s-.52-.17-.76-.19-.58.08-.82.06a5.63,5.63,0,0,1-1.77-.76,5.62,5.62,0,0,1-2.34-.13C.19,31.61-.55,28.52.4,25.84a6.42,6.42,0,0,1,3.86-3.61,16.55,16.55,0,0,1,3.29,1.33A8.23,8.23,0,0,0,8.82,25c.56.08.87.39,1.39.51a1.08,1.08,0,0,1,.19.76c1.13.05.93,1.18,1.71,1.71a11.64,11.64,0,0,0,1.84.63c1.6.62,3.46.5,4.12,1.77,1-.24,1.55.76,2.15.51.25-.11.27-.44.44-.7s.49-.46.64-.76c-1-2.15.7-3.76,1.58-5,2.68-.44,6.67-1,8.8.32.56.84,1.48,1.08,2.22,1.84s1,2,1.71,2.79c.2.22.62.4.89.63.54.48,1.62,1.53,1.71,2.09s-.44,1.06-.38,1.52.8.7,1.14,1.08.42.75.7,1c3-.19,6.37-.48,6.84,2.15,1.5.72,3.68.76,5.13,1.52.56-1,.56-3.33,2.34-2.47a11.64,11.64,0,0,0,2.79-2.15c.21-.11.28,0,.38.13A37.24,37.24,0,0,0,60,29.45c.64-1.33,1.18-3,1.77-4.5a9,9,0,0,0,.63-1.46c.13-.76-.1-1.59,0-2.28-1.34-.27-3-.17-4-.83-.05-.5.52-.75-.13-.51.16-.62,1.51-.05,1.52-.82-1.83-.29-4.38-.39-6.27-.89A3,3,0,0,1,52,17.29a6.32,6.32,0,0,1-.19-3.61c.16-.37.88-.69,1.39-1.08a12,12,0,0,0,1.27-1.27,23.7,23.7,0,0,1,2.66-2.41C58,8.32,59,7.42,60,6.71c.44-.31,1-.62,1.52-1a7.11,7.11,0,0,1,1.4-1.14c.8-.31,1.89-.19,2.53-.44s1-2.24,1.39-2.85C67.74-.11,70.64-.17,72.91.19s4.43,1,6.52,1.33c1.21.22,2.44.24,3.48.51a18.78,18.78,0,0,1,3.36,1.33,14.36,14.36,0,0,1,3.1,2.16,16.75,16.75,0,0,1,4.05,5.63,26.58,26.58,0,0,1,1,3.42c.25.91.75,1.77,1,2.72.11.38,0,.82.13,1.2.18.77.57,1.48.7,2.28a11.82,11.82,0,0,0,2.41,1.08,21.77,21.77,0,0,1,2.28,1.2,12.18,12.18,0,0,1,3.8,3.23,4.41,4.41,0,0,1,.7,1.52c.1.92-.61,2.08-1.46,2a51.8,51.8,0,0,1-5.51-.57A13.59,13.59,0,0,1,97,28.56a23.05,23.05,0,0,0-4.31-1.78c-.45.86.39.93.51,1.33.17.59-.33,1.5-.51,2.09a9.5,9.5,0,0,1-.7,2,6.71,6.71,0,0,0-2.22.38v.82c.24.21.63.19.76.44.39.74-.4,1.79-.32,2.78a6.9,6.9,0,0,0,.25,1,10.63,10.63,0,0,1,.13,1.08,28.45,28.45,0,0,0,1.58,5.57c.3.83.41,1.65.63,2.47.1.35.35.66.44,1,.4,1.46-.06,2.93,1.14,3.93.8-.09.78-.92,1.08-1.52s1-1.56,1.52-1.64c.8-.13,1.48.7,2,1s1.57.5,1.84,1.14c.39.9-.28,1.6-.76,2.28-1,1.37-2.55,2.73-2.78,4.5a12,12,0,0,0,.38,2.59,16.55,16.55,0,0,0,2-.82c4-1.13,7.51,1.17,9.31,3.67a8,8,0,0,1,1.14,5c-.18,2-.61,4.64-1,6.65-.06.35-.29.81-.19,1.07s.7.2,1,.57c-.17,3.77-1,6.86-1.33,10.51-.86,1-1.68,1.27-1.33,3.1a24.28,24.28,0,0,0,1.84,4.12c.63,1.45,1.27,2.79,1.9,4.05.71,1.41,1.18,2.82,1.77,4.18s1.32,2.69,2,4,1.23,2.73,1.9,4.05,1.47,2.61,2.09,3.92,1.55,2.45,2.22,3.74c.34.66.7,1.29,1.08,1.9s.92,1.14,1.27,1.77c1.81,3.26,2.93,6.94,4.56,10.26.8,1.64,2,3,2.79,4.62.42.83.82,1.67,1.27,2.47s1,1.56,1.39,2.34c1.29,2.53,2,5.41,3.29,7.92.94,1.82,1.94,3.67,2.91,5.45a14.44,14.44,0,0,0,1,1.84c.43.55,1.13,1,1.27,1.58,0,.23.13-.27.19,0a19.89,19.89,0,0,0,3.67,4.12,41.44,41.44,0,0,0,4.05,3.8C152.82,168.11,155.69,170.68,159.23,172.32ZM90.58,86.7c-.2,1-.74,2-.95,3.23a5.87,5.87,0,0,0-.38,2.53c.06.23.36.46.38.76s-.48,1,0,1.27c.37.06.28-.46.32-.63a63.36,63.36,0,0,0,.95-7.28s.07-.05,0-.06S90.74,86.69,90.58,86.7Zm2,25.71c0-.38.27-.69.13-1.08a17.69,17.69,0,0,1-4.12-5.51A1.18,1.18,0,0,1,88,106a4.55,4.55,0,0,0-.63,3.48c.12.14.52,0,.63.13a7.75,7.75,0,0,0,.06,1.46c.49,0,.64.29.63.76a13.58,13.58,0,0,0,1.71.7c.15-.31.25-.68.82-.57a4.77,4.77,0,0,1,.32,1C92,112.89,92.18,112.57,92.54,112.41Z"/></g></g></svg>