<svg xmlns="http://www.w3.org/2000/svg" viewBox="0 0 118.12 234.18"><defs><style>.cls-1{fill:#152d53;fill-rule:evenodd;}</style></defs><title>Asset 2</title><g id="Layer_2" data-name="Layer 2"><g id="by_the_numbers" data-name="by the numbers"><path class="cls-1" d="M98.14,71.48c-.26.49-1.43,1.11-1.8.28-2.95,5.13-6.12,10-9.12,15.14-1,1.69-2,3.4-2.9,5.18-.07.12-.19.18-.41.14.63.82,1.82,1.7,1.73,2.9,0,.33-.33.59-.41.9s0,.88-.14,1.31c-.18.74-.76,1.25-1,1.93-.39,1-.61,2-1.38,2.49.16,1-.64,1.34-1,2.07-.27.49-.31,1-.62,1.24a6.55,6.55,0,0,1-2.35.76c-.68,0-1.46-.39-2.28-.21A8.5,8.5,0,0,0,75,107.57a5.47,5.47,0,0,0-1,2.28c0,.51.55,1.15.83,1.8a21.47,21.47,0,0,1,1.31,3.94c.17.74.15,1.47.27,2.21.19,1.17,1.1,3.17.28,4.49-.55.2-.9-.38-1.59-.28.5,1.57.45,2.87,1.1,4.15.45.87,1.38,1.32,1.87,2.14a15.89,15.89,0,0,1,.55,1.52,26.7,26.7,0,0,0,1.8,2.49c.83.7,2.52,1,2.56,2.28,0,.56-.45,1.07-.41,1.73a7.1,7.1,0,0,0,.9,2.08c.72,1.44,1.48,2.36,2.28,3.66a9.34,9.34,0,0,0,1.17,1.8c.33.3.8.39,1,.62.93.92,1.29,3,1.59,4.91a33.79,33.79,0,0,1,.69,5.81c0,1.32-.35,2.76-.41,4.22,0,.61.05,1.26,0,1.87-.28,3.1-2.55,4.5-3.59,6.84,1.53,2.69,1,6.82,1.24,10.58a13.9,13.9,0,0,1-.14,4.22c-.12.41-.5.82-.55,1.24a10.79,10.79,0,0,0,0,2.21c.17,1.93,2.08,2.78,1.87,4.63-.07.6-.62,1.08-.83,1.73.54.72,1.6.63,2.42.76,2.7.43,5.71.06,7.19,1.8.29.34.42.91.76,1.25.19.18.58.25.76.48a4.44,4.44,0,0,1,.28,2.76,4,4,0,0,1-.62,1.38,6.86,6.86,0,0,1-4.36,2.14c-.38,0-.78-.22-1-.21s-.49.28-.9.35a5.36,5.36,0,0,1-3-.28c-1.25.46-2.22-.33-3.18-.55-.31-.07-.6.05-.9,0-.81-.15-1.17-.81-1.94-1.11a17.12,17.12,0,0,0-2.69-.55,12.34,12.34,0,0,0-2.84-.35c-.35.32-.39.95-.69,1.31a3.39,3.39,0,0,1-1.87-.28,3.07,3.07,0,0,1-2.42-.21c-1.41.49-2.26-.54-3.59-.55A4.53,4.53,0,0,1,67,196.54a5.36,5.36,0,0,0,.2-1.52c-.14-.86-1-1.37-1.24-2.14-.46-1.25,0-3.28.14-4.7a13.13,13.13,0,0,0-.48-2.77c-.26-1.49-.26-2.89-.48-4.28-.2-1.24-.79-2.37-1-3.59s-.56-2.65-.69-3.87c-.18-1.68.2-3.63-.35-5-.3-.74-1.1-1.42-1.52-2.28-1.06-2.18-.66-4.81-1.73-6.7-.47-.84-1.21-1.51-1.73-2.28s-1-1.67-1.45-2.49c-1-1.72-1.8-3.53-3.25-4.7-1.43,2.24-2,5.28-3,8.09-.33.87-.78,1.69-1,2.56s-.33,1.95-.62,2.9a41.11,41.11,0,0,1-1.66,4.15c-.29.67-.57,1.35-.9,2s-.73,1.24-1,1.87a4.57,4.57,0,0,1-1,2,11.82,11.82,0,0,1-1.73,4.7c-.58,1-.91,2.2-1.45,3-.36.55-.9,1.08-1.31,1.66a19.63,19.63,0,0,1-4.36,4.5c-.55.37-1.12.65-1.66,1s-1,.7-1.52,1.11c-1.08,1.64-1.45,3.52-2.42,5.12-.71,1.17-1.9,2-2.56,3.25-.47.87-.78,1.82-1.25,2.7s-1.19,1.47-1.59,2.28-.17,1.6-.48,2.28c-.52,1.14-1.55,2-2.07,3a11.13,11.13,0,0,0-.55,3c-.11.72-.32,1.59-.41,2.49a12.86,12.86,0,0,1-.14,2.76c-.32.73-1.51.57-2,1.24-.32,2.88,3.66,2.05,4.36,4.15a7,7,0,0,1,3.18,3,6.39,6.39,0,0,1,1.18,2.14c.08.47,0,.76,0,1s.46.66.41,1.38a5.48,5.48,0,0,1-1.17,2.7,8.4,8.4,0,0,1-4.84,1.38,10.35,10.35,0,0,0-1.45-.14c-.32,0-.57.42-1,.48a3.76,3.76,0,0,1-2.07-.48c-.92.57-2.61.21-3-.62-.69.23-2.08-.08-2.21-1-.23-.17-.47.11-.69-.07a7.44,7.44,0,0,1-.62-.55c-.22-.23-.29-.49-.48-.69s-.47-.18-.63-.34a17.44,17.44,0,0,1-1-1.59,13.82,13.82,0,0,0-3-3.53c-.49.8-1.73,0-2.28-.48A8.1,8.1,0,0,1,1.22,222a7.55,7.55,0,0,1-.76-1.73c0-.53.34-.93.48-1.38s.19-1.31.34-2a12.39,12.39,0,0,0,.48-1.79c0-.4-.75-.89-1-1.24A6.7,6.7,0,0,1,0,211.89c-.24-1.65.57-3,.48-4.56,0-.54-.35-1-.35-1.59a16.51,16.51,0,0,1,.35-2.42,10.22,10.22,0,0,0,.35-1.11,7,7,0,0,0-.14-.9c-.18-2.27.75-4,1.45-5.74.31-.77.64-1.7,1-2.56a7,7,0,0,0,1-2.63c0-.27-.21-.6-.21-.9a8.7,8.7,0,0,1,.28-1.24c.24-1.26.68-2,1-3a12.28,12.28,0,0,1,.28-1.52,12.61,12.61,0,0,1,1.31-2,23.18,23.18,0,0,0,2.63-4c.33-.77.92-1.44,1.18-2.14.34-.94.26-2.3.69-3.32.19-.46.67-.87.76-1.32a29.86,29.86,0,0,0,.21-3c.13-1.08,1-1.86,1.38-2.83a9,9,0,0,0,.42-2.14c.27-1.38,1.37-2.46,1.73-3.87-.6-.12-1-.62-1.59-.9-.8-.41-2.1-1-2.49-1.8a8,8,0,0,1-.55-2.14,14.26,14.26,0,0,1,.07-3.18c.15-1.08,1.09-2.48,1.52-3.66.16-.44.39-.89.48-1.25.16-.61.09-1.3.28-1.73A19.41,19.41,0,0,1,15,142.41c1-1.76,1.45-3.53,2.9-4.56-.43-.42-.88-.83-1.31-1.25.47-1.37,2-1.68,2.83-2.7-.55-2.5,1.89-3.36,2.42-5.18.09-.3,0-.71.14-1,.17-.54.66-.93.76-1.45.14-.73-.06-1.72,0-2.56.05-.65.27-1.26.28-1.73,0-1-.53-2.3-.55-3.53a10,10,0,0,1,.48-2.9,7.3,7.3,0,0,0,.62-2.76c-.11-.68-1.11-1.49-1.59-2.14a9.11,9.11,0,0,1-1.52-2.15c-.24-1.16.55-2.34,0-3.59-.12-.32-.64-.24-.76-.55a6.27,6.27,0,0,1,.14-1c-.88,0-1.67.08-2.14-.55a11.23,11.23,0,0,1-1.11-2.83,3.51,3.51,0,0,1,.48-2.56A2.2,2.2,0,0,0,19,97.06a1.74,1.74,0,0,0,1.45.07c.87-.87-.27-2.44.35-3.59-1.88-1-2.95-3.84-2.7-7,.42-5.33,2.3-10.62,2.7-15.69-.41-.08-.55.7-1,.83-.22-.27-.49-.61-.9-.48.18-1.25.65-2.31.35-3.66-.22-1-.66-1.56-.41-2.49a8.87,8.87,0,0,1,1.52-2.49c.27-.33.66-.68,1-1s.82-.72,1-1a6.74,6.74,0,0,0,.21-1.66c.19-1.53.6-3.28.9-4.63.46-2,1-3.72,2.49-4.91a8.56,8.56,0,0,1,5.94-1.66c.39,0,.74.32,1.24.28.85-.07,1.41-1.28,1.94-1.93a12.54,12.54,0,0,0,.9-1c.29-.47.35-1,.62-1.31,1-1.32,3.34-1.86,5.39-2.14a2,2,0,0,0,.62-.69c0-.86-1.52-1.46-1.59-2.28,0-.59.79-1.31,1.24-1.73a12.26,12.26,0,0,1,3.46-2.49,7.34,7.34,0,0,0,2-1c.58-.64.45-1.68,1-2.28,0-.71-.7-1.31-.83-2a3.75,3.75,0,0,1,1.52-3.39c-.08-.56-.78-.5-.69-1.25.33-.26.76.2,1,.07a5.61,5.61,0,0,0,.14-2c-3-.73-8.6-.91-10-3.59-1.26-2.49,2.16-3.25,4.7-3a5.75,5.75,0,0,1,1-2.35c.23-.34.64-.61.83-1,.27-.51.22-1.07.69-1.45a7.26,7.26,0,0,1-.07-1.31A6,6,0,0,1,49.2,6.57a2.78,2.78,0,0,1,3,.07c2.23-2.35,5.24-5.12,9.88-5.39,1.13-.07,2.46-.47,3.18.14A10.43,10.43,0,0,1,70.08,0c1.43,0,2.83.37,2.69,1.94,1.12,1.3,2,2.8,3.25,4a28.4,28.4,0,0,1,2.76,1.52c2.32,1.44,3.37,4.24,4.22,7.05a49.74,49.74,0,0,0,2.42,6.08c.3.65.77,1.34.55,2.07a32.5,32.5,0,0,0-4.29-.55c-.54.29-.27.86-.69,1.24-.87.81-4.43.61-6,.48-.25.78.55,1.26.76,1.87a8.68,8.68,0,0,1,.35,2.7,38.06,38.06,0,0,1-1.52,10c.33.13.87.05,1.11.28.08,1.88-1.1,3.72-.56,5.67.71.56,1.89.65,2.63,1.18a1.56,1.56,0,0,1-2.07,2.14c-.25.25-.44.57-.9.62a3.43,3.43,0,0,1-1,2.07,17.85,17.85,0,0,0,.83,2.35,18.79,18.79,0,0,1,2.21.42c.57,1.2,1.37,2.18,1.87,3.46-.32.62.29,1.13.42,1.73a26.88,26.88,0,0,1,6.08,6.22c.73-.05,1.05-.61,1.66-.69.93-.13,1.44.38,2.28-.07.45-.24.63-.72,1-1,.52-.48,1.18-.71,1.66-1.17,1-.92,1.43-2.44,2.42-3.46.48-.49,1.13-.77,1.52-1.45-2.5-1.48-6-2-8.5-3.46.67-.92,2-.92,3.46-1.1,3.27-.42,7.81-.43,10.71.55a46.18,46.18,0,0,1,5.26,2,22.59,22.59,0,0,0,5.53,1.73A41.12,41.12,0,0,1,118,57.8c.75,3.73-1.75,6.15-4.29,7.26a62.89,62.89,0,0,0-8-3.32c.21,1.75-.72,2.66-1.59,3.53a4.43,4.43,0,0,1-.62,2.07c-.21.23,0-.15-.14-.14s-.42.44-.69.55a2.44,2.44,0,0,1-1.17,1.45c-.12,1.15-.19,2.58-1.17,2.76C99.64,72.09,98.85,71.63,98.14,71.48ZM86.6,78.67c-.35.21-.63.63-1,.9s-1.15.69-1.73,1.11a13.75,13.75,0,0,1-1.66,1.24,9.66,9.66,0,0,0-1.66.48c-.53.34-.94,1.13-1.38,1.24-.61.16-1.21-.17-1.66.28A16.3,16.3,0,0,0,78.16,90a12.23,12.23,0,0,1,1.87.14c2.5-3.93,5.33-7.89,7.54-11.89C87.31,78.53,87,78.46,86.6,78.67ZM70.22,105.43c0,.24-.32.7.07.83.87-1.12,1.33-2.64,2.21-3.73-.59-.35-1.33-.57-1.87-1C70.44,102.81,70.32,104.27,70.22,105.43Z"/></g></g></svg>