<svg xmlns="http://www.w3.org/2000/svg" viewBox="0 0 112.19 65.1"><defs><style>.cls-1{fill:#152d53;}.cls-2{fill:#ab1e41;fill-rule:evenodd;}</style></defs><title>Asset 21</title><g id="Layer_2" data-name="Layer 2"><g id="by_the_numbers" data-name="by the numbers"><path class="cls-1" d="M51.4,41.23A1.9,1.9,0,0,0,51,39.92a4.38,4.38,0,0,0-1.51-1,10,10,0,0,1-3.33-1.75A3.48,3.48,0,0,1,45,34.47a3.57,3.57,0,0,1,1.29-2.85,4.9,4.9,0,0,1,3.29-1.1,4.55,4.55,0,0,1,3.3,1.23,4,4,0,0,1,1.23,3.09l0,.06h-2.7a2.44,2.44,0,0,0-.49-1.58,1.89,1.89,0,0,0-2.67-.1,1.79,1.79,0,0,0-.46,1.27,1.47,1.47,0,0,0,.52,1.16,7.25,7.25,0,0,0,1.8,1,7.55,7.55,0,0,1,3,1.73,3.9,3.9,0,0,1,1,2.84,3.59,3.59,0,0,1-1.23,2.89,4.88,4.88,0,0,1-3.27,1A5.49,5.49,0,0,1,46.15,44a4,4,0,0,1-1.44-3.4l0-.06h2.7A2.68,2.68,0,0,0,48,42.39a2.24,2.24,0,0,0,1.68.58A1.68,1.68,0,0,0,51,42.5,1.82,1.82,0,0,0,51.4,41.23Z"/><path class="cls-1" d="M63.47,38.71H58.7v4h5.61v2.22h-8.4V30.73h8.38v2.22H58.7v3.54h4.78Z"/><path class="cls-1" d="M68.55,39.29v5.65H65.77V30.74h4.64a4.66,4.66,0,0,1,3.29,1.11,4,4,0,0,1,1.2,3.08,3.59,3.59,0,0,1-.5,1.92A3.5,3.5,0,0,1,73,38.13a2.73,2.73,0,0,1,1.58,1.23A4.34,4.34,0,0,1,75,41.51v1a6.31,6.31,0,0,0,.14,1.25,1.72,1.72,0,0,0,.48,1v.2H72.76a1.59,1.59,0,0,1-.43-1,11.57,11.57,0,0,1-.09-1.43v-1a2.73,2.73,0,0,0-.44-1.65,1.46,1.46,0,0,0-1.24-.59Zm0-2.22H70.4a1.59,1.59,0,0,0,1.29-.52,2.21,2.21,0,0,0,.44-1.47,2.52,2.52,0,0,0-.44-1.55A1.52,1.52,0,0,0,70.41,33H68.55Z"/><path class="cls-1" d="M81.2,41.32l.11.55h.06l.11-.52,2.38-10.61h2.92l-4,14.22H79.91l-4-14.22h2.92Z"/><path class="cls-1" d="M90.86,44.95H88.09V30.73h2.76Z"/><path class="cls-1" d="M102.08,40.37l0,.06A4.89,4.89,0,0,1,101,44a4.4,4.4,0,0,1-3.34,1.19,4.7,4.7,0,0,1-3.53-1.35A5.26,5.26,0,0,1,92.82,40V35.72a5.4,5.4,0,0,1,1.27-3.83,4.45,4.45,0,0,1,3.41-1.36,4.52,4.52,0,0,1,3.42,1.21,5.13,5.13,0,0,1,1.2,3.58l0,.06H99.42a3.31,3.31,0,0,0-.38-2,1.75,1.75,0,0,0-1.53-.62,1.63,1.63,0,0,0-1.44.73,4,4,0,0,0-.5,2.22V40a3.82,3.82,0,0,0,.53,2.24,1.8,1.8,0,0,0,1.56.73,1.57,1.57,0,0,0,1.4-.58,3.46,3.46,0,0,0,.35-2Z"/><path class="cls-1" d="M111.35,38.71h-4.78v4h5.61V45h-8.4V30.73h8.38v2.22h-5.6v3.55h4.78Z"/><path class="cls-1" d="M57.51,6.13A5.64,5.64,0,0,1,56.76,9a5.24,5.24,0,0,1-2,2,5.67,5.67,0,0,1,3.16,5.22,6.05,6.05,0,0,1-1.76,4.68,6.56,6.56,0,0,1-4.64,1.63,6.6,6.6,0,0,1-4.65-1.63,6,6,0,0,1-1.78-4.67,5.81,5.81,0,0,1,.84-3.12A5.6,5.6,0,0,1,48.23,11a5.16,5.16,0,0,1-2-2,5.69,5.69,0,0,1-.74-2.92A6,6,0,0,1,47.1,1.61,6,6,0,0,1,51.47,0a6,6,0,0,1,4.37,1.61A6,6,0,0,1,57.51,6.13Zm-3.9,9.8A4.12,4.12,0,0,0,53,13.58a1.8,1.8,0,0,0-1.55-.87,1.77,1.77,0,0,0-1.55.87,4.2,4.2,0,0,0-.57,2.34,4.18,4.18,0,0,0,.57,2.36,1.85,1.85,0,0,0,3.11,0A4.14,4.14,0,0,0,53.61,15.93Zm-.41-9.6a4.33,4.33,0,0,0-.44-2.13,1.4,1.4,0,0,0-1.29-.78,1.39,1.39,0,0,0-1.28.77,4.37,4.37,0,0,0-.44,2.14,4.49,4.49,0,0,0,.44,2.18,1.44,1.44,0,0,0,2.57,0A4.55,4.55,0,0,0,53.2,6.33Z"/><path class="cls-1" d="M71.72,14h1.9v3.42h-1.9v4.8H67.46v-4.8H60.19L60,14.77,67.44.32h4.27Zm-7.87,0h3.61V6.44l-.09,0-.23.41Z"/><path class="cls-1" d="M88.68,3.75a21.45,21.45,0,0,0-3.94,7.32,49.62,49.62,0,0,0-1.41,9.05l-.2,2.11H78.85l.21-2.11a38.94,38.94,0,0,1,1.75-9,26.29,26.29,0,0,1,3.77-7.38H75.34V.32H88.68Z"/><path class="cls-1" d="M54.21,60.31l0,.06a4.89,4.89,0,0,1-1.11,3.54,4.4,4.4,0,0,1-3.34,1.19,4.7,4.7,0,0,1-3.53-1.35,5.26,5.26,0,0,1-1.32-3.83V55.66a5.4,5.4,0,0,1,1.27-3.83,4.45,4.45,0,0,1,3.41-1.36,4.52,4.52,0,0,1,3.42,1.21,5.13,5.13,0,0,1,1.2,3.58l0,.06H51.54a3.32,3.32,0,0,0-.38-2,1.76,1.76,0,0,0-1.53-.62,1.63,1.63,0,0,0-1.44.73,4,4,0,0,0-.5,2.22v4.27a3.82,3.82,0,0,0,.53,2.24,1.8,1.8,0,0,0,1.56.73,1.57,1.57,0,0,0,1.4-.58,3.47,3.47,0,0,0,.35-2Z"/><path class="cls-1" d="M62.31,61.86H58.56l-.76,3H55l4-14.22h2.89l4,14.22h-2.8Zm-3.18-2.22h2.62l-1.28-5h-.06Z"/><path class="cls-1" d="M69.78,62.68H75v2.22H67V50.67h2.78Z"/><path class="cls-1" d="M79.14,62.68h5.2v2.22h-8V50.67h2.78Z"/><path class="cls-1" d="M92,61.18a1.9,1.9,0,0,0-.43-1.31,4.38,4.38,0,0,0-1.51-1,10,10,0,0,1-3.33-1.75,3.48,3.48,0,0,1-1.11-2.75A3.57,3.57,0,0,1,87,51.57a4.9,4.9,0,0,1,3.29-1.1,4.55,4.55,0,0,1,3.3,1.23,4,4,0,0,1,1.23,3.09l0,.06h-2.7a2.44,2.44,0,0,0-.49-1.58,1.89,1.89,0,0,0-2.67-.1,1.79,1.79,0,0,0-.46,1.26A1.47,1.47,0,0,0,89,55.58a7.29,7.29,0,0,0,1.8,1,7.56,7.56,0,0,1,3,1.73,3.9,3.9,0,0,1,1,2.84,3.59,3.59,0,0,1-1.23,2.89,4.89,4.89,0,0,1-3.27,1,5.48,5.48,0,0,1-3.52-1.19,4,4,0,0,1-1.44-3.4l0-.06h2.71a2.67,2.67,0,0,0,.56,1.89,2.24,2.24,0,0,0,1.68.58,1.67,1.67,0,0,0,1.3-.47A1.82,1.82,0,0,0,92,61.18Z"/><path class="cls-2" d="M23.73,61.8A2.61,2.61,0,0,1,21.37,64H16.65a2.6,2.6,0,0,1-2.39-2.62v-2a2.6,2.6,0,0,1,2.39-2.62h4.72a2.63,2.63,0,0,1,2,1.36,19.72,19.72,0,0,0,5.53-2.53V47.68a2.57,2.57,0,0,1,.85-1.9h6c1.42.78,2.7,2.17,2.7,3.71V54.3c0,2.75-2.73,5.1-5.45,5.48a9.81,9.81,0,0,1-1.61.06,5.73,5.73,0,0,0-2.95.22,22.47,22.47,0,0,1-4.72,1.75ZM29.44,44c-1.23-4.87-4.83-8-10.36-8S10,39.13,8.72,44H3.57a16.54,16.54,0,0,1,4.08-8.37A15.24,15.24,0,0,1,19.08,31a15.24,15.24,0,0,1,11.43,4.64A16.55,16.55,0,0,1,34.59,44ZM8.67,45.78a2.57,2.57,0,0,1,.85,1.9v9.59A2.57,2.57,0,0,1,7,59.83H6.23c-3,0-6.23-2.49-6.23-5.53V49.49C0,48,1.33,46.56,2.73,45.78Z"/></g></g></svg>