<svg xmlns="http://www.w3.org/2000/svg" viewBox="0 0 124.66 44.11"><defs><style>.cls-1{fill:#152d53;}.cls-2{fill:#ab1e41;}</style></defs><title>Asset 18</title><g id="Layer_2" data-name="Layer 2"><g id="by_the_numbers" data-name="by the numbers"><path class="cls-1" d="M52.44,22.23H48.16V4.79l-4.06.09V1.79L52.44.3Z"/><path class="cls-1" d="M70.09,14H72v3.42h-1.9v4.8H65.83v-4.8H58.56l-.23-2.66L65.81.32h4.27Zm-7.87,0h3.61V6.44l-.09,0-.23.41Z"/><path class="cls-1" d="M78.24,22.2l-2.18,4.68h-2.5l.89-4.8V18.6h3.79Z"/><path class="cls-1" d="M93.95,3.75A21.45,21.45,0,0,0,90,11.07a49.62,49.62,0,0,0-1.41,9.05l-.2,2.11H84.12l.21-2.11a38.94,38.94,0,0,1,1.75-9,26.29,26.29,0,0,1,3.77-7.38H80.61V.32H93.95Z"/><path class="cls-1" d="M109.27,3.75a21.45,21.45,0,0,0-3.94,7.32,49.62,49.62,0,0,0-1.41,9.05l-.2,2.11H99.44l.21-2.11a38.94,38.94,0,0,1,1.75-9,26.29,26.29,0,0,1,3.77-7.38H95.93V.32h13.34Z"/><path class="cls-1" d="M124.66,22.23H111.72V19.33l6-7.57a16,16,0,0,0,1.71-2.94,6,6,0,0,0,.52-2.28,4.19,4.19,0,0,0-.54-2.26,1.74,1.74,0,0,0-1.57-.86,1.76,1.76,0,0,0-1.62,1,5.73,5.73,0,0,0-.56,2.74h-4.17l0-.08a7.32,7.32,0,0,1,1.69-5A5.83,5.83,0,0,1,117.81,0a6.22,6.22,0,0,1,4.7,1.75A6.56,6.56,0,0,1,124.2,6.5a7.64,7.64,0,0,1-.94,3.73,34.42,34.42,0,0,1-3.14,4.49l-2.86,4.09h7.41Z"/><path class="cls-1" d="M51.25,39H47.44v2.66H52v2.3H44.57V32.13H52v2.3H47.44v2.23h3.81Z"/><path class="cls-1" d="M59.68,40.45h.06l2.05-8.32h3.6V43.91H62.52V37.73h-.06l-1.79,6.18H58.76L57.05,38H57v5.92H54.12V32.13h3.54Z"/><path class="cls-1" d="M73,40.62a1.25,1.25,0,0,0-.35-.91,3,3,0,0,0-1.28-.63,6.22,6.22,0,0,1-2.87-1.23,3.13,3.13,0,0,1-.89-2.44A3.21,3.21,0,0,1,68.67,33a4.14,4.14,0,0,1,2.92-1,4.22,4.22,0,0,1,3,1,3.39,3.39,0,0,1,1,2.69l0,.06H72.82a1.9,1.9,0,0,0-.27-1.11,1.11,1.11,0,0,0-1-.38,1.07,1.07,0,0,0-.88.32,1.5,1.5,0,0,0,.07,1.79,3.21,3.21,0,0,0,1.42.63,6,6,0,0,1,2.74,1.23,3.07,3.07,0,0,1,.9,2.39,3.16,3.16,0,0,1-1.16,2.54,4.59,4.59,0,0,1-3.06,1,4.79,4.79,0,0,1-3.27-1,3.32,3.32,0,0,1-1.1-2.76l0-.06H70a1.58,1.58,0,0,0,.42,1.2,1.71,1.71,0,0,0,1.15.34,1.43,1.43,0,0,0,1.05-.32A1.19,1.19,0,0,0,73,40.62Z"/><path class="cls-2" d="M33.65,43.09c.64,0,.93-.28.93-.9V9.51a1,1,0,0,0-.22-.67,1,1,0,0,0-.72-.23H1a1,1,0,0,0-.72.23,1,1,0,0,0-.22.67V42.2a1,1,0,0,0,.22.67,1,1,0,0,0,.72.23Zm-1.45-21.4-7.58,4.38,7.58,4.38-3.61,6.25L21,32.32v8.75H13.79V32.32L6.21,36.69,2.6,30.44l7.58-4.38L2.6,21.69l3.61-6.25,7.58,4.38V11.06H21v8.75l7.58-4.38ZM18,36.41h0a.85.85,0,0,1-.16.37c-.15.25-.31.51-.24.64s0,0,0,0,.16-.12.3-.34v0A.71.71,0,0,0,18,36.41Zm0,0h0Zm0,0h0Zm.11-7.08c0,.25,0,.9,0,1.25s-.32.72-.71,1.1l-.26.26a2.55,2.55,0,0,0-.88,2.38,2,2,0,0,0,.71.92A12.72,12.72,0,0,1,17,34c.09-.51.46-.87,1.18-1.6A2.21,2.21,0,0,0,19,30.49,1.61,1.61,0,0,0,18.14,29.34Zm1.24-7a2.12,2.12,0,0,0-1-1c0,.34,0,1.39,0,1.39a2.07,2.07,0,0,1-.08.58,5.33,5.33,0,0,1-1.07,1.59,12.86,12.86,0,0,0-.88,1.15,2.51,2.51,0,0,0-.16,2.59,1.3,1.3,0,0,0,.6.51c0-.27-.05-1-.05-1.11s0,0,0-.07A2.15,2.15,0,0,1,17,26.71a7.36,7.36,0,0,1,.94-1,6.25,6.25,0,0,0,1.42-1.78A1.87,1.87,0,0,0,19.38,22.33Zm-2.94-2.2a2.54,2.54,0,0,1-.8-1.43A1.68,1.68,0,0,1,16,17c.12-.11.39-.09.79,0a2,2,0,0,0,.44,0c.21,0,.7-.39.7-.72a.53.53,0,0,0-.17-.38,1.2,1.2,0,0,0-.8-.3,1,1,0,0,0-.55.19A1.59,1.59,0,0,1,16,16a2.1,2.1,0,0,0-1.36,1.34,4.26,4.26,0,0,0,.69,3.59,4.46,4.46,0,0,0,1.14.95Zm.88,11.45a2.35,2.35,0,0,0,.65-.86l.13-5-.07.07a7.28,7.28,0,0,0-.92,1,1.64,1.64,0,0,0-.24.74L17,31.87l0,0Zm.83-8.29,0-.09.23-8.85a1,1,0,0,0-2,0l0,1.28a1.09,1.09,0,0,1,.57-.17,1.35,1.35,0,0,1,.9.34.67.67,0,0,1,.21.48c0,.43-.56.81-.81.86a1.9,1.9,0,0,1-.49,0l-.32,0,.29,8.14.32-.39A5.31,5.31,0,0,0,18.15,23.29ZM17.25,38a.27.27,0,1,0,.53,0v-.47a.22.22,0,0,1-.12,0,.19.19,0,0,1-.16-.1c-.12-.2.06-.48.24-.78l.07-.12.1-3.81A2.74,2.74,0,0,0,17.11,34Z"/><path class="cls-2" d="M1,43.19a1.12,1.12,0,0,1-.79-.26h0A1,1,0,0,1,0,42.2H0V9.51a1,1,0,0,1,.25-.74h0A1.12,1.12,0,0,1,1,8.51H33.64a1.12,1.12,0,0,1,.79.26h0a1,1,0,0,1,.25.74h0V42.2a1,1,0,0,1-.26.75h0a1.08,1.08,0,0,1-.78.25h0V43c.61,0,.82-.22.83-.8h0V9.51a.86.86,0,0,0-.19-.6h0a.93.93,0,0,0-.65-.2H1a.94.94,0,0,0-.64.2h0a.86.86,0,0,0-.19.6h0V42.2a.86.86,0,0,0,.19.6h0A.93.93,0,0,0,1,43H33.64v.2Zm12.65-2V32.49L6.17,36.83,2.46,30.4,10,26.07,2.46,21.73,6.17,15.3l7.51,4.34V11h7.42v8.68l7.51-4.34,3.66,6.34-.09.05.09-.05.05.09-7.51,4.34,7.51,4.34-3.71,6.43-7.51-4.34v8.68Zm.2-.2h7V32.14l7.64,4.41,3.51-6.08-7.64-4.41,7.64-4.41-3.51-6.08L20.9,20V11.16h-7V20L6.24,15.58,2.74,21.65l7.64,4.41L2.74,30.48l3.51,6.08,7.64-4.41V41ZM17.15,38l-.09-2.6-.13-.1a2.08,2.08,0,0,1-.75-1h0a1.47,1.47,0,0,1-.07-.47h0A2.93,2.93,0,0,1,16.93,32h0l-.1-2.73-.1,0a1.4,1.4,0,0,1-.65-.56h0a2.36,2.36,0,0,1-.3-1.18h0A2.79,2.79,0,0,1,16.25,26h0c.13-.2.28-.4.44-.61h0L16.57,22l-.12-.07a4.57,4.57,0,0,1-1.16-1h0a4.3,4.3,0,0,1-.86-2.64h0a3.62,3.62,0,0,1,.14-1h0A2.19,2.19,0,0,1,16,15.87h0a1.31,1.31,0,0,0,.33-.14h0l0-1.39a1.1,1.1,0,0,1,1.1-1.1h0a1.1,1.1,0,0,1,1.1,1.1h0l-.18,6.88.09,0a2.22,2.22,0,0,1,1.06,1h0l-.09,0-.09,0a2,2,0,0,0-.81-.85h0c0,.39,0,1.08,0,1.21h0v0h0a2.57,2.57,0,0,1-.08.57h0A5.36,5.36,0,0,1,17.3,25h0a12.79,12.79,0,0,0-.87,1.14h0A2.59,2.59,0,0,0,16,27.52h0a2.15,2.15,0,0,0,.27,1.07h0a1.16,1.16,0,0,0,.41.4h0c0-.32,0-.83,0-.94h0s0,0,0-.06h0s0-.11,0-.19h0a2.08,2.08,0,0,1,.3-1.15h0a7.4,7.4,0,0,1,.95-1.06h0a6.17,6.17,0,0,0,1.4-1.75h0a2.12,2.12,0,0,0,.18-.81h0a1.55,1.55,0,0,0-.15-.66h0l.09,0,.09,0a1.75,1.75,0,0,1,.17.75h0a2.32,2.32,0,0,1-.19.89h0a5.53,5.53,0,0,1-1.24,1.61h0l-.1,3.68.07,0a1.71,1.71,0,0,1,.95,1.23h0a1.67,1.67,0,0,1,0,.24h0a2.5,2.5,0,0,1-.94,1.72h0l-.18.18h0l-.09,3.56.09.09.1-.1v.14h.14l-.1.1,0,0,0,0a.9.9,0,0,1,0,.27h0a.75.75,0,0,1-.12.41h0v0l-.16.23h0l0,.63a.37.37,0,0,1-.37.37h0a.37.37,0,0,1-.37-.36Zm.2,0a.17.17,0,0,0,.17.17h0a.17.17,0,0,0,.17-.17h0V37.7h0a.29.29,0,0,1-.25-.15h0a.38.38,0,0,1-.05-.2h0a1.54,1.54,0,0,1,.29-.69h0l.06-.09h0L17.81,33a2.24,2.24,0,0,0-.61.94h0l.15,4h0ZM18,36.84a2.17,2.17,0,0,0-.24.46h0a2,2,0,0,0,.16-.23h0l0,0a.56.56,0,0,0,.09-.25h0l0,.05Zm.29-7.08c0,.28,0,.61,0,.83h0c0,.5-.35.79-.74,1.17h0l-.26.26a2.84,2.84,0,0,0-.92,1.87h0a1.26,1.26,0,0,0,.06.4h0a1.74,1.74,0,0,0,.5.73h0c0-.25,0-.58,0-.82h0a1.79,1.79,0,0,1,0-.27h0c.1-.56.49-.93,1.21-1.65h0a2.31,2.31,0,0,0,.88-1.57h0a1.49,1.49,0,0,0,0-.21h0a1.44,1.44,0,0,0-.68-1h0c0,.07,0,.16,0,.24Zm-1.13,1.87.13-.12.07.07-.07-.07a2.31,2.31,0,0,0,.62-.8h0L18,25.95a6.34,6.34,0,0,0-.8.89h0a1.54,1.54,0,0,0-.23.68h0l.15,4.11Zm1-2.24,0-.05,0,.05Zm-1.23-4.45.15-.18h0a5.31,5.31,0,0,0,1-1.49h0l0-.08h0l.23-8.84a.9.9,0,0,0-.9-.9h0a.9.9,0,0,0-.9.9h0l0,1.12a1.08,1.08,0,0,1,.47-.11h0a1.45,1.45,0,0,1,1,.37h0a.77.77,0,0,1,.24.56h0a1.21,1.21,0,0,1-.89,1h-.12a3.64,3.64,0,0,1-.4,0h0l-.21,0h0l.28,7.76Zm1.47-2.1-.05,0h0l.05,0Zm.11-.08h0Zm0,0h0v0Zm0-.06h0Zm-1.45-7a1,1,0,0,0-.5.17h0a1.68,1.68,0,0,1-.45.2h0a2,2,0,0,0-1.29,1.28h0a3.43,3.43,0,0,0-.14,1h0a4.11,4.11,0,0,0,.81,2.51h0a4.28,4.28,0,0,0,1,.83h0l-.06-1.49a2.65,2.65,0,0,1-.8-1.46h0a3.18,3.18,0,0,1-.06-.59h0a1.54,1.54,0,0,1,.49-1.2h0a.53.53,0,0,1,.37-.11h0a4.12,4.12,0,0,1,.5,0h0l.36,0h.05c.16,0,.64-.38.62-.62h0a.43.43,0,0,0-.14-.31h0a1.11,1.11,0,0,0-.72-.27h0Zm-.57,4.44h0l.06-.07-.06.07Zm-.33-3.05a1.34,1.34,0,0,0-.43,1h0a3,3,0,0,0,.06.55h0A2.44,2.44,0,0,0,16.5,20h0l-.11-3h-.05a.34.34,0,0,0-.23.05Z"/></g></g></svg>