<svg xmlns="http://www.w3.org/2000/svg" viewBox="0 0 108.9 66.21"><defs><style>.cls-1{fill:#152d53;}.cls-2{fill:#ab1e41;}.cls-3{fill:none;stroke:#fff;stroke-miterlimit:10;stroke-width:1.96px;}</style></defs><title>Asset 20</title><g id="Layer_2" data-name="Layer 2"><g id="by_the_numbers" data-name="by the numbers"><path class="cls-1" d="M50.8,40.82h-4v4.66H43.87l0-11.78,7.66,0V36H46.76v2.53h4Z"/><path class="cls-1" d="M59.47,43.46H56l-.61,2h-3l3.84-11.77h3.15l3.77,11.79h-3Zm-2.79-2.3h2.11l-1-3.47h-.06Z"/><path class="cls-1" d="M67.1,43.22H71v2.29h-6.8l0-11.78h2.87Z"/><path class="cls-1" d="M77.87,42.26a1.24,1.24,0,0,0-.35-.91,3.05,3.05,0,0,0-1.28-.63,6.21,6.21,0,0,1-2.86-1.23A3.13,3.13,0,0,1,72.49,37a3.21,3.21,0,0,1,1.08-2.46,4.14,4.14,0,0,1,2.92-1,4.22,4.22,0,0,1,3,1,3.39,3.39,0,0,1,1,2.69l0,.06H77.72a1.9,1.9,0,0,0-.27-1.12,1.11,1.11,0,0,0-1-.38,1.07,1.07,0,0,0-.88.32,1.29,1.29,0,0,0-.27.85,1.3,1.3,0,0,0,.33.94,3.17,3.17,0,0,0,1.41.63,6,6,0,0,1,2.74,1.24,3.07,3.07,0,0,1,.9,2.4,3.16,3.16,0,0,1-1.16,2.54,4.6,4.6,0,0,1-3.06,1,4.78,4.78,0,0,1-3.27-1A3.32,3.32,0,0,1,72.14,42l0-.06h2.78a1.58,1.58,0,0,0,.41,1.2,1.71,1.71,0,0,0,1.15.35,1.43,1.43,0,0,0,1.05-.32A1.19,1.19,0,0,0,77.87,42.26Z"/><path class="cls-1" d="M89.2,40.61H85.39v2.66h4.55v2.3H82.51l0-11.78H90v2.29H85.4v2.24H89.2Z"/><path class="cls-1" d="M52.3,22.23H48V4.79L44,4.88V1.79L52.3.3Z"/><path class="cls-1" d="M62.76,22.2l-2.18,4.68h-2.5l.89-4.8V18.6h3.79Z"/><path class="cls-1" d="M76.83,14h1.9v3.42h-1.9v4.8H72.57v-4.8H65.3l-.23-2.66L72.56.32h4.27ZM69,14h3.61V6.44l-.09,0-.23.41Z"/><path class="cls-1" d="M93.64,13.64q0,4.38-1.74,6.65a6,6,0,0,1-9.36,0Q80.8,18,80.8,13.64V8.93q0-4.37,1.74-6.65a5.94,5.94,0,0,1,9.35,0q1.75,2.28,1.75,6.65ZM89.37,8.55a9.93,9.93,0,0,0-.56-3.87q-.56-1.22-1.55-1.14h-.09q-1-.07-1.55,1.14a10.17,10.17,0,0,0-.54,3.87V14a10.08,10.08,0,0,0,.56,3.91q.56,1.23,1.57,1.14h.09q1,.09,1.54-1.13A10.33,10.33,0,0,0,89.37,14Z"/><path class="cls-1" d="M101.64,19.13a2.53,2.53,0,0,0,2.15-1.23,6.05,6.05,0,0,0,.85-3.46v-.84a4.23,4.23,0,0,1-1.41,1.33,3.44,3.44,0,0,1-1.71.45,4.72,4.72,0,0,1-4-2A9.23,9.23,0,0,1,96,7.83a8.61,8.61,0,0,1,1.81-5.56,5.82,5.82,0,0,1,9.26.06,10.33,10.33,0,0,1,1.81,6.48v5.36a8.76,8.76,0,0,1-2.05,6.12,6.72,6.72,0,0,1-5.2,2.27,8.76,8.76,0,0,1-2-.24,8.44,8.44,0,0,1-1.93-.69l.48-3.19a8.56,8.56,0,0,0,1.63.53A8.44,8.44,0,0,0,101.64,19.13Zm.69-7a2.43,2.43,0,0,0,1.33-.37,3.09,3.09,0,0,0,1-1V8.28a8.41,8.41,0,0,0-.6-3.6q-.6-1.22-1.58-1.16h-.09q-.92-.06-1.5,1.24a7.4,7.4,0,0,0-.59,3.06A7.8,7.8,0,0,0,100.8,11,1.67,1.67,0,0,0,102.33,12.15Z"/><circle class="cls-2" cx="17.37" cy="48.49" r="17.37"/><path class="cls-2" d="M11.75,27.26A.87.87,0,0,0,13,28.49a5.73,5.73,0,0,1,8.1,0,.87.87,0,0,0,1.23,0,.87.87,0,0,0,0-1.23,7.47,7.47,0,0,0-10.56,0Z"/><path class="cls-2" d="M9,24.9a.87.87,0,1,0,1.23,1.24,9.62,9.62,0,0,1,13.61,0,.88.88,0,0,0,1.23,0,.88.88,0,0,0,0-1.24A11.38,11.38,0,0,0,9,24.9Z"/><path class="cls-2" d="M4.48,21.31a1.36,1.36,0,0,0,1.93,1.93,15,15,0,0,1,21.29,0,1.37,1.37,0,0,0,1.93,0,1.38,1.38,0,0,0,0-1.93,17.79,17.79,0,0,0-25.14,0Z"/><circle class="cls-2" cx="17.37" cy="48.49" r="3.41"/><circle class="cls-3" cx="17.37" cy="48.49" r="3.83"/><circle class="cls-3" cx="17.37" cy="48.49" r="5.61"/><circle class="cls-3" cx="17.37" cy="48.49" r="7.84"/><circle class="cls-3" cx="17.37" cy="48.49" r="10.57"/><circle class="cls-3" cx="17.37" cy="48.49" r="13.2"/><rect class="cls-2" x="2.92" y="48.1" width="12.52" height="1.1"/><rect class="cls-2" x="19.64" y="48.15" width="10.92" height="0.96"/><rect class="cls-2" x="19.93" y="48.1" width="12.52" height="1.1"/><rect class="cls-2" x="17.45" y="41.78" width="12.52" height="1.1" transform="translate(-22.99 29.16) rotate(-45)"/><rect class="cls-2" x="11.22" y="39.07" width="12.52" height="1.1" transform="translate(-22.14 57.1) rotate(-90)"/><rect class="cls-2" x="4.9" y="41.56" width="12.52" height="1.1" transform="translate(-10.72 79.77) rotate(-135)"/><rect class="cls-2" x="4.68" y="54.1" width="12.52" height="1.1" transform="translate(57.32 85.56) rotate(135)"/><rect class="cls-2" x="10.9" y="56.81" width="12.52" height="1.1" transform="translate(74.52 40.19) rotate(90)"/><rect class="cls-2" x="17.22" y="54.32" width="12.52" height="1.1" transform="translate(45.68 -0.53) rotate(45)"/><path class="cls-1" d="M50,64H46.5l-.61,2h-3l3.81-11.78h3.15L53.6,66h-3Zm-2.79-2.29h2.11l-1-3.47h-.06Z"/><path class="cls-1" d="M57.59,63.71h3.93V66H54.72V54.22h2.87Z"/><path class="cls-1" d="M69.22,64H65.76l-.61,2h-3l3.81-11.78h3.15L72.87,66h-3Zm-2.79-2.29h2.11l-1-3.47h-.06Z"/><path class="cls-1" d="M82,57.79a3.17,3.17,0,0,1-.45,1.71,3.29,3.29,0,0,1-1.31,1.17,2.47,2.47,0,0,1,1.47,1,3.3,3.3,0,0,1,.45,1.78v.79c0,.24,0,.54.05.89a1.54,1.54,0,0,0,.19.72V66h-3a1.84,1.84,0,0,1-.13-.71q0-.53,0-1v-.77a1.85,1.85,0,0,0-.34-1.21,1.32,1.32,0,0,0-1-.44H76.71V66H73.84V54.22h4a4.5,4.5,0,0,1,3,1A3.24,3.24,0,0,1,82,57.79Zm-5.27,1.75h1.11a1.15,1.15,0,0,0,.93-.41A1.68,1.68,0,0,0,79.09,58a1.64,1.64,0,0,0-.35-1.07,1.13,1.13,0,0,0-.93-.43H76.71Z"/><path class="cls-1" d="M89.73,62.54h.06l2.05-8.32h3.6V66H92.57V59.83h-.06L90.72,66H88.81L87.1,60.08H87V66H84.17V54.22h3.54Z"/><path class="cls-1" d="M103,62.72a1.24,1.24,0,0,0-.35-.91,3,3,0,0,0-1.28-.63A6.21,6.21,0,0,1,98.52,60a3.13,3.13,0,0,1-.88-2.44,3.2,3.2,0,0,1,1.08-2.46,4.14,4.14,0,0,1,2.92-1,4.22,4.22,0,0,1,3,1,3.39,3.39,0,0,1,1,2.69l0,.06h-2.78a1.9,1.9,0,0,0-.27-1.11,1.11,1.11,0,0,0-1-.38,1.07,1.07,0,0,0-.88.32,1.5,1.5,0,0,0,.07,1.79,3.21,3.21,0,0,0,1.42.63A6,6,0,0,1,105,60.3a3.07,3.07,0,0,1,.9,2.39,3.16,3.16,0,0,1-1.16,2.54,4.6,4.6,0,0,1-3.06,1,4.79,4.79,0,0,1-3.27-1,3.32,3.32,0,0,1-1.1-2.76l0-.06h2.78a1.58,1.58,0,0,0,.41,1.2,1.71,1.71,0,0,0,1.15.34,1.42,1.42,0,0,0,1.05-.32A1.19,1.19,0,0,0,103,62.72Z"/></g></g></svg>