<svg xmlns="http://www.w3.org/2000/svg" viewBox="0 0 142.75 68.03"><defs><style>.cls-1{fill:#152d53;}.cls-2{fill:#ab1e41;fill-rule:evenodd;}</style></defs><title>Asset 19</title><g id="Layer_2" data-name="Layer 2"><g id="by_the_numbers" data-name="by the numbers"><path class="cls-1" d="M53.6,44.12a5.11,5.11,0,0,1-1.71,1.28,6.37,6.37,0,0,1-2.77.52,4.51,4.51,0,0,1-3.39-1.34,4.8,4.8,0,0,1-1.3-3.49V38.63a4.85,4.85,0,0,1,1.28-3.47A4.31,4.31,0,0,1,49,33.81a4.83,4.83,0,0,1,3.22,1,3.35,3.35,0,0,1,1.11,2.82l0,.06H50.5a1.67,1.67,0,0,0-.33-1.21A1.58,1.58,0,0,0,49,36.1a1.39,1.39,0,0,0-1.23.7,3.33,3.33,0,0,0-.45,1.82v2.45a3.22,3.22,0,0,0,.48,1.85,1.53,1.53,0,0,0,1.34.7,3.28,3.28,0,0,0,1-.12,1.66,1.66,0,0,0,.6-.35V41.39H49V39.47H53.6Z"/><path class="cls-1" d="M64.42,41.08a5,5,0,0,1-1.26,3.51,4.26,4.26,0,0,1-3.26,1.35,4.31,4.31,0,0,1-3.28-1.35,4.91,4.91,0,0,1-1.27-3.51V38.63a4.87,4.87,0,0,1,1.26-3.48,4.66,4.66,0,0,1,6.54,0,4.87,4.87,0,0,1,1.26,3.48Zm-2.86-2.46a3.36,3.36,0,0,0-.45-1.81,1.41,1.41,0,0,0-2.46,0,3.48,3.48,0,0,0-.43,1.81v2.46a3.54,3.54,0,0,0,.43,1.84,1.4,1.4,0,0,0,2.46,0,3.48,3.48,0,0,0,.44-1.84Z"/><path class="cls-1" d="M75.06,41.08A5,5,0,0,1,73.8,44.6a4.63,4.63,0,0,1-6.54,0A4.91,4.91,0,0,1,66,41.08V38.63a4.87,4.87,0,0,1,1.26-3.48,4.66,4.66,0,0,1,6.54,0,4.87,4.87,0,0,1,1.26,3.48ZM72.2,38.63a3.35,3.35,0,0,0-.45-1.81,1.41,1.41,0,0,0-2.46,0,3.46,3.46,0,0,0-.43,1.81v2.46a3.54,3.54,0,0,0,.43,1.84,1.4,1.4,0,0,0,2.46,0,3.48,3.48,0,0,0,.44-1.84Z"/><path class="cls-1" d="M76.93,45.74V34H81a4.29,4.29,0,0,1,3.25,1.35,4.85,4.85,0,0,1,1.28,3.48v2.12a4.84,4.84,0,0,1-1.28,3.48A4.29,4.29,0,0,1,81,45.74Zm2.87-9.49v7.19H81a1.38,1.38,0,0,0,1.21-.7,3.35,3.35,0,0,0,.45-1.84V38.78A3.34,3.34,0,0,0,82.19,37a1.38,1.38,0,0,0-1.21-.7Z"/><path class="cls-1" d="M49.45,9.39h2.14a1.92,1.92,0,0,0,1.7-.81,4,4,0,0,0,.56-2.28,3.57,3.57,0,0,0-.56-2.08,1.83,1.83,0,0,0-1.6-.8,1.86,1.86,0,0,0-1.45.71A2.75,2.75,0,0,0,49.63,6H45.49l0-.09a5.29,5.29,0,0,1,1.71-4.25A6.25,6.25,0,0,1,51.57,0a6.75,6.75,0,0,1,4.76,1.63,6,6,0,0,1,1.78,4.61A5.25,5.25,0,0,1,57.34,9a5.31,5.31,0,0,1-2.11,2,4.8,4.8,0,0,1,2.35,2,6,6,0,0,1,.81,3.17,6,6,0,0,1-1.92,4.71,7.1,7.1,0,0,1-4.92,1.72A6.76,6.76,0,0,1,47,20.93a5.55,5.55,0,0,1-1.82-4.63l0-.09h4.15a3.24,3.24,0,0,0,.66,2.09,2,2,0,0,0,1.64.83,2.13,2.13,0,0,0,1.77-.84,3.52,3.52,0,0,0,.65-2.24,4.1,4.1,0,0,0-.64-2.55,2.27,2.27,0,0,0-1.89-.81H49.45Z"/><path class="cls-1" d="M65,22.2l-2.18,4.68h-2.5l.89-4.8V18.6H65Z"/><path class="cls-1" d="M80.6,13.64q0,4.38-1.74,6.65a6,6,0,0,1-9.36,0Q67.76,18,67.76,13.64V8.93q0-4.37,1.74-6.65a5.94,5.94,0,0,1,9.35,0Q80.6,4.56,80.6,8.93ZM76.33,8.55a9.93,9.93,0,0,0-.56-3.87q-.56-1.22-1.55-1.14h-.09q-1-.07-1.55,1.14A10.17,10.17,0,0,0,72,8.55V14a10.08,10.08,0,0,0,.56,3.91q.56,1.23,1.57,1.14h.09q1,.09,1.54-1.13A10.33,10.33,0,0,0,76.33,14Z"/><path class="cls-1" d="M95.54,6.13A5.64,5.64,0,0,1,94.8,9a5.24,5.24,0,0,1-2,2,5.67,5.67,0,0,1,3.16,5.22,6.05,6.05,0,0,1-1.76,4.68,7.43,7.43,0,0,1-9.29,0,6,6,0,0,1-1.78-4.67,5.81,5.81,0,0,1,.84-3.12A5.6,5.6,0,0,1,86.27,11a5.16,5.16,0,0,1-2-2,5.69,5.69,0,0,1-.74-2.92,6,6,0,0,1,1.66-4.52,6.73,6.73,0,0,1,8.74,0A6,6,0,0,1,95.54,6.13Zm-3.9,9.8a4.12,4.12,0,0,0-.59-2.34,1.8,1.8,0,0,0-1.55-.87,1.77,1.77,0,0,0-1.55.87,4.2,4.2,0,0,0-.57,2.34A4.18,4.18,0,0,0,88,18.28a1.85,1.85,0,0,0,3.11,0A4.14,4.14,0,0,0,91.64,15.93Zm-.41-9.6a4.33,4.33,0,0,0-.44-2.13,1.4,1.4,0,0,0-1.29-.78,1.39,1.39,0,0,0-1.28.77,4.37,4.37,0,0,0-.44,2.14,4.49,4.49,0,0,0,.44,2.18,1.44,1.44,0,0,0,2.57,0A4.55,4.55,0,0,0,91.24,6.33Z"/><path class="cls-1" d="M111.34,3.75a21.45,21.45,0,0,0-3.94,7.32A49.62,49.62,0,0,0,106,20.13l-.2,2.11h-4.29l.21-2.11a38.94,38.94,0,0,1,1.75-9,26.29,26.29,0,0,1,3.77-7.38H98V.32h13.34Z"/><path class="cls-1" d="M47.26,67.85H44.62V57h2.63Z"/><path class="cls-1" d="M57.66,67.85H55l-3.05-6-.06,0v6H49.27V57h2.63L55,63,55,63V57h2.64Z"/><path class="cls-1" d="M67.08,59.15H64.45v8.7H61.8v-8.7h-2.6V57h7.88Z"/><path class="cls-1" d="M74.59,63.3h-3.5v2.44h4.17v2.11H68.46V57h6.81v2.11H71.09v2h3.5Z"/><path class="cls-1" d="M85.61,67.85H83l-3.05-6-.06,0v6H77.22V57h2.63l3.05,6L83,63V57h2.64Z"/><path class="cls-1" d="M95,59.15H92.4v8.7H89.76v-8.7h-2.6V57H95Z"/><path class="cls-1" d="M108.14,64.15l0,.06a3.69,3.69,0,0,1-1,2.84,4,4,0,0,1-2.87,1,3.74,3.74,0,0,1-2.92-1.22,4.61,4.61,0,0,1-1.1-3.21V61.32a4.6,4.6,0,0,1,1.1-3.2,3.74,3.74,0,0,1,2.92-1.23,4,4,0,0,1,2.89,1,3.65,3.65,0,0,1,1,2.82l0,.06h-2.55a2.48,2.48,0,0,0-.27-1.34,1.29,1.29,0,0,0-2,.24,3.46,3.46,0,0,0-.35,1.68v2.25a3.5,3.5,0,0,0,.35,1.7,1.12,1.12,0,0,0,1,.64,1.1,1.1,0,0,0,1-.39,2.56,2.56,0,0,0,.26-1.36Z"/><path class="cls-1" d="M115.58,66h-3.17l-.56,1.87h-2.79L112.56,57h2.89l3.48,10.81h-2.78ZM113,63.87H115L114,60.69H114Z"/><path class="cls-1" d="M122.59,65.74h3.61v2.11H120V57h2.63Z"/><path class="cls-1" d="M130.27,65.74h3.61v2.11h-6.24V57h2.63Z"/><path class="cls-1" d="M140.13,64.83a1.14,1.14,0,0,0-.32-.84,2.8,2.8,0,0,0-1.18-.58A5.71,5.71,0,0,1,136,62.29a2.87,2.87,0,0,1-.81-2.24,2.94,2.94,0,0,1,1-2.26,3.8,3.8,0,0,1,2.68-.91,3.88,3.88,0,0,1,2.75.92,3.11,3.11,0,0,1,1,2.47l0,.06H140a1.74,1.74,0,0,0-.25-1,1,1,0,0,0-.88-.35,1,1,0,0,0-.81.3,1.37,1.37,0,0,0,.06,1.64,2.94,2.94,0,0,0,1.3.58,5.54,5.54,0,0,1,2.51,1.13,2.81,2.81,0,0,1,.83,2.2,2.9,2.9,0,0,1-1.06,2.33,4.22,4.22,0,0,1-2.81.89,4.39,4.39,0,0,1-3-.94,3,3,0,0,1-1-2.53l0-.06h2.55a1.45,1.45,0,0,0,.38,1.1,1.57,1.57,0,0,0,1.06.32,1.3,1.3,0,0,0,1-.3A1.09,1.09,0,0,0,140.13,64.83Z"/><path class="cls-2" d="M27,32.49c2.7-2.26,6.27-3,9.32-.73,3.65,2.71,3.4,7.36,1.12,10.88L36.57,44A18.65,18.65,0,1,1,27,32.49ZM19,49c-.2.21-.57.6-.89.39L9.67,43.77A1.41,1.41,0,0,0,8,43.66c-.87.73,0,2,.45,2.67L17,58a2.29,2.29,0,0,0,1.63,1.06c1.08.08,1.86-.85,2.39-1.67L32.62,39.52c.52-.81,1.29-2.41.27-3.16s-2.05.28-2.67.93L19,49Zm-.33-14.67a14.83,14.83,0,1,0,13.69,9.1l1.88-2.89c1.12-1.73,1.78-4.27-.19-5.73S30.2,34.55,28.84,36l-1.29,1.35A14.78,14.78,0,0,0,18.66,34.35Z"/></g></g></svg>