<svg xmlns="http://www.w3.org/2000/svg" viewBox="0 0 141.1 63.4"><defs><style>.cls-1{fill:#ab1e41;}.cls-2{fill:#fff;}.cls-3{fill:#152d53;}</style></defs><title>Asset 22</title><g id="Layer_2" data-name="Layer 2"><g id="by_the_numbers" data-name="by the numbers"><path class="cls-1" d="M2.17,62.71A2.06,2.06,0,0,1,.43,59.51L17.92,29a2,2,0,0,1,3.56,0L39,59.51a2.06,2.06,0,0,1-1.75,3.19Z"/><path class="cls-1" d="M37.24,62.82H2.17v-.23H37.24a1.83,1.83,0,0,0,1.94-1.91h0a2.26,2.26,0,0,0-.29-1.11h0L21.38,29.06A2,2,0,0,0,19.7,28h0A2,2,0,0,0,18,29.06h0L.53,59.57a2.25,2.25,0,0,0-.3,1.11h0a1.84,1.84,0,0,0,1.94,1.91h0v.23a2.13,2.13,0,0,1-1.62-.66h0A2.18,2.18,0,0,1,0,60.68H0a2.5,2.5,0,0,1,.33-1.22h0L17.82,29a2.23,2.23,0,0,1,1.88-1.18h0a2.23,2.23,0,0,1,1.88,1.18h0l17.5,30.51a2.49,2.49,0,0,1,.32,1.22h0a2.17,2.17,0,0,1-.55,1.48h0a2.13,2.13,0,0,1-1.62.66h0Z"/><path class="cls-2" d="M13.26,48.37c.77-.45,2.75-.86,4.9,1.47l.58-.33a1.21,1.21,0,0,1,.06-.93,1.2,1.2,0,0,1,.77-.51v-.67c-3.1-.7-3.72-2.62-3.72-3.51a5.35,5.35,0,0,1,.94-3.11,4.71,4.71,0,0,1,2.47-1.73v-.19A5.28,5.28,0,0,0,14,43.75,6.31,6.31,0,0,0,14.38,46a6.35,6.35,0,0,0-2.16.83,5.28,5.28,0,0,0-1.6,7l.16-.1a4.69,4.69,0,0,1,.26-3A5.33,5.33,0,0,1,13.26,48.37Zm12.19,7.42a5.34,5.34,0,0,1-3.16-.74c-.77-.45-2.12-1.95-1.17-5l-.58-.33a1,1,0,0,1-1.66,0l-.58.33c.95,3-.4,4.53-1.18,5a5.34,5.34,0,0,1-3.16.74,4.66,4.66,0,0,1-2.74-1.28l-.16.09a5.29,5.29,0,0,0,6.85,2.11,6.32,6.32,0,0,0,1.8-1.46,6.3,6.3,0,0,0,1.8,1.46,5.28,5.28,0,0,0,6.84-2.11l-.16-.09A4.66,4.66,0,0,1,25.45,55.79Zm1.74-8.93A6.42,6.42,0,0,0,25,46a6.36,6.36,0,0,0,.37-2.29,5.28,5.28,0,0,0-5.25-4.87v.19a4.71,4.71,0,0,1,2.47,1.73,5.34,5.34,0,0,1,.94,3.11c0,.89-.63,2.81-3.72,3.51v.67a1.18,1.18,0,0,1,.77.52,1.2,1.2,0,0,1,.06.92l.57.33c2.15-2.33,4.12-1.92,4.9-1.47a5.3,5.3,0,0,1,2.22,2.37,4.67,4.67,0,0,1,.26,3l.16.1A5.28,5.28,0,0,0,27.19,46.87Zm-10.1-1a4.16,4.16,0,0,1,5.23,0,2.16,2.16,0,0,0,.81-1.17,5.58,5.58,0,0,0-6.85,0A2.19,2.19,0,0,0,17.09,45.88Zm-2.91,2.46a5.58,5.58,0,0,0,3.42,5.93A2.17,2.17,0,0,0,18.21,53a4.15,4.15,0,0,1-2.61-4.53A2.2,2.2,0,0,0,14.18,48.34Zm7,4.65a2.17,2.17,0,0,0,.61,1.29,5.57,5.57,0,0,0,3.42-5.93,2.19,2.19,0,0,0-1.42.12A4.16,4.16,0,0,1,21.19,53Z"/><path class="cls-3" d="M47,12.54,48.09.32H58.81V3.82H51.59L51.12,9a3.79,3.79,0,0,1,1.17-.78,4,4,0,0,1,1.47-.34A4.85,4.85,0,0,1,58,9.76a8.84,8.84,0,0,1,1.47,5.44,8.19,8.19,0,0,1-1.66,5.24A5.7,5.7,0,0,1,53,22.55a6.61,6.61,0,0,1-4.52-1.68,5.59,5.59,0,0,1-1.84-4.55l0-.08L50.83,16a3.82,3.82,0,0,0,.6,2.3,1.87,1.87,0,0,0,1.58.82,1.71,1.71,0,0,0,1.64-1.08,6.62,6.62,0,0,0,.51-2.82,6.87,6.87,0,0,0-.57-3.07,2,2,0,0,0-3.12-.65,2.56,2.56,0,0,0-.66,1.28Z"/><path class="cls-3" d="M74.73,13.64q0,4.38-1.74,6.65a6,6,0,0,1-9.36,0Q61.89,18,61.89,13.64V8.93q0-4.37,1.74-6.65a5.94,5.94,0,0,1,9.35,0q1.75,2.28,1.75,6.65ZM70.45,8.55a9.93,9.93,0,0,0-.56-3.87q-.56-1.22-1.55-1.14h-.09q-1-.07-1.55,1.14a10.17,10.17,0,0,0-.54,3.87V14a10.08,10.08,0,0,0,.56,3.91q.56,1.23,1.57,1.14h.09q1,.09,1.54-1.13A10.33,10.33,0,0,0,70.45,14Z"/><path class="cls-3" d="M84.88,0a7.57,7.57,0,0,1,1.95.23,9.18,9.18,0,0,1,1.8.7l-.72,3.24a10.06,10.06,0,0,0-1.47-.52,6.2,6.2,0,0,0-1.54-.17A2.88,2.88,0,0,0,82.39,4.9a7,7,0,0,0-.9,4l.06.06a4.06,4.06,0,0,1,1.51-1.07,5.17,5.17,0,0,1,2-.39A4.41,4.41,0,0,1,89,9.62,9.49,9.49,0,0,1,90.37,15a8.18,8.18,0,0,1-1.79,5.43A5.74,5.74,0,0,1,84,22.55,6,6,0,0,1,79,20.2a10,10,0,0,1-1.89-6.44V9.24a9.91,9.91,0,0,1,2.18-6.75A7.05,7.05,0,0,1,84.88,0Zm-.93,10.9a3.44,3.44,0,0,0-1.52.31,2.53,2.53,0,0,0-1,.86V13.8a9.12,9.12,0,0,0,.69,4A2.08,2.08,0,0,0,84,19.13q1,0,1.55-1.22A6.74,6.74,0,0,0,86.1,15,6.25,6.25,0,0,0,85.5,12,1.77,1.77,0,0,0,83.95,10.9Z"/><path class="cls-3" d="M55.45,42.79H52.78V37.12H48.51v5.67H45.84l0-13.7h2.68l0,5.89h4.25l0-5.89h2.67Z"/><path class="cls-3" d="M63.84,39.84H60.23l-.73,2.93H56.8l3.82-13.71h2.78l3.88,13.69h-2.7Zm-3.07-2.13h2.52L62,32.86H62Z"/><path class="cls-3" d="M70.94,40.61H76.2v2.14l-8.27,0V41.41L73,31.18H67.85V29.06l8.24,0v1.3Z"/><path class="cls-3" d="M84,39.79H80.41l-.73,2.93H77L80.8,29h2.79L87.47,42.7h-2.7Zm-3.07-2.13h2.52l-1.24-4.84h-.06Z"/><path class="cls-3" d="M91.19,37.25v5.45H88.54L88.5,29H93a4.5,4.5,0,0,1,3.18,1.06,3.85,3.85,0,0,1,1.16,3,3.44,3.44,0,0,1-.48,1.85,3.36,3.36,0,0,1-1.4,1.24A2.62,2.62,0,0,1,97,37.3a4.19,4.19,0,0,1,.47,2.07v1a6.1,6.1,0,0,0,.14,1.21,1.65,1.65,0,0,0,.46.93v.2H95.26a1.54,1.54,0,0,1-.42-1,10.93,10.93,0,0,1-.09-1.38v-.93a2.63,2.63,0,0,0-.42-1.59,1.41,1.41,0,0,0-1.2-.56Zm0-2.14H93a1.54,1.54,0,0,0,1.24-.5,2.15,2.15,0,0,0,.42-1.42,2.41,2.41,0,0,0-.43-1.49A1.45,1.45,0,0,0,93,31.14h-1.8Z"/><path class="cls-3" d="M99.46,42.67l0-13.7h4.14a4.4,4.4,0,0,1,3.48,1.58,6.07,6.07,0,0,1,1.38,4.1V37a6,6,0,0,1-1.36,4.1,4.4,4.4,0,0,1-3.48,1.6Zm2.65-11.57,0,9.43h1.31a1.92,1.92,0,0,0,1.72-1,4.84,4.84,0,0,0,.6-2.59V34.63a4.8,4.8,0,0,0-.61-2.57,1.92,1.92,0,0,0-1.73-1Z"/><path class="cls-3" d="M119.53,37.7a5.19,5.19,0,0,1-1.3,3.77,5.14,5.14,0,0,1-7,0A5.22,5.22,0,0,1,110,37.72V33.89a5.25,5.25,0,0,1,1.29-3.77,4.54,4.54,0,0,1,3.46-1.38,4.61,4.61,0,0,1,3.48,1.36,5.2,5.2,0,0,1,1.33,3.76Zm-2.67-3.86a3.77,3.77,0,0,0-.55-2.22,1.84,1.84,0,0,0-1.59-.75,1.81,1.81,0,0,0-1.58.75,3.86,3.86,0,0,0-.52,2.23v3.87a3.82,3.82,0,0,0,.54,2.23,2,2,0,0,0,3.16,0,3.78,3.78,0,0,0,.54-2.24Z"/><path class="cls-3" d="M130.37,28.89l0,9.32a4.38,4.38,0,0,1-1.27,3.38,5.34,5.34,0,0,1-6.73,0,4.39,4.39,0,0,1-1.29-3.37l0-9.32h2.67l0,9.32a2.75,2.75,0,0,0,.52,1.84,1.83,1.83,0,0,0,1.46.59,1.88,1.88,0,0,0,1.48-.57,2.77,2.77,0,0,0,.5-1.87l0-9.32Z"/><path class="cls-3" d="M138.43,39a1.84,1.84,0,0,0-.42-1.26,4.24,4.24,0,0,0-1.46-.91,9.61,9.61,0,0,1-3.21-1.68,3.36,3.36,0,0,1-1.08-2.65,3.43,3.43,0,0,1,1.24-2.75,4.71,4.71,0,0,1,3.17-1.07,4.39,4.39,0,0,1,3.18,1.17,3.84,3.84,0,0,1,1.19,3l0,.06h-2.6a2.36,2.36,0,0,0-.47-1.52,1.82,1.82,0,0,0-2.57-.09,1.73,1.73,0,0,0-.44,1.22,1.42,1.42,0,0,0,.5,1.11,7,7,0,0,0,1.73,1,7.29,7.29,0,0,1,2.94,1.66,3.75,3.75,0,0,1,1,2.73,3.46,3.46,0,0,1-1.18,2.79,4.7,4.7,0,0,1-3.15,1,5.28,5.28,0,0,1-3.39-1.13,3.83,3.83,0,0,1-1.4-3.28l0-.06h2.61a2.57,2.57,0,0,0,.54,1.82,2.16,2.16,0,0,0,1.62.55,1.61,1.61,0,0,0,1.25-.46A1.75,1.75,0,0,0,138.43,39Z"/><path class="cls-3" d="M54.37,58.79l0,.06a4.71,4.71,0,0,1-1.07,3.41,4.23,4.23,0,0,1-3.22,1.15,4.52,4.52,0,0,1-3.4-1.3,5.07,5.07,0,0,1-1.27-3.69V54.31a5.2,5.2,0,0,1,1.23-3.69A4.29,4.29,0,0,1,50,49.31a4.35,4.35,0,0,1,3.3,1.17,4.94,4.94,0,0,1,1.15,3.45l0,.06H51.8A3.2,3.2,0,0,0,51.43,52,1.69,1.69,0,0,0,50,51.44a1.57,1.57,0,0,0-1.38.71,3.84,3.84,0,0,0-.48,2.14V58.4a3.68,3.68,0,0,0,.51,2.16,1.74,1.74,0,0,0,1.5.71,1.52,1.52,0,0,0,1.35-.56,3.34,3.34,0,0,0,.33-1.91Z"/><path class="cls-3" d="M65.24,58.28A5.19,5.19,0,0,1,63.94,62a5.14,5.14,0,0,1-7,0,5.21,5.21,0,0,1-1.3-3.76V54.44A5.25,5.25,0,0,1,57,50.68a4.55,4.55,0,0,1,3.46-1.37,4.61,4.61,0,0,1,3.48,1.37,5.21,5.21,0,0,1,1.32,3.77Zm-2.66-3.87A3.76,3.76,0,0,0,62,52.19a1.84,1.84,0,0,0-1.59-.75,1.81,1.81,0,0,0-1.58.75,3.86,3.86,0,0,0-.53,2.23v3.87a3.82,3.82,0,0,0,.54,2.24,2,2,0,0,0,3.16,0,3.77,3.77,0,0,0,.55-2.24Z"/><path class="cls-3" d="M76.57,63.2H73.91l-4.19-8.76-.06,0V63.2H67V49.5h2.68l4.19,8.75.06,0V49.5h2.66Z"/><path class="cls-3" d="M78.66,63.2V49.5H82.8a4.4,4.4,0,0,1,3.48,1.59,6.07,6.07,0,0,1,1.37,4.11v2.31a6.05,6.05,0,0,1-1.37,4.1A4.4,4.4,0,0,1,82.8,63.2Zm2.68-11.56v9.43h1.31a1.92,1.92,0,0,0,1.73-1A4.84,4.84,0,0,0,85,57.51V55.18a4.79,4.79,0,0,0-.61-2.57,1.92,1.92,0,0,0-1.73-1Z"/><path class="cls-3" d="M92.29,63.2H89.63V49.5h2.66Z"/><path class="cls-3" d="M102.3,51.64H99.21V63.2H96.54V51.64H93.48V49.5h8.82Z"/><path class="cls-3" d="M106.39,63.2h-2.66V49.5h2.66Z"/><path class="cls-3" d="M117.84,58.28A5.19,5.19,0,0,1,116.53,62a5.14,5.14,0,0,1-7,0,5.21,5.21,0,0,1-1.3-3.76V54.44a5.25,5.25,0,0,1,1.3-3.77A4.55,4.55,0,0,1,113,49.31a4.61,4.61,0,0,1,3.48,1.37,5.21,5.21,0,0,1,1.32,3.77Zm-2.66-3.87a3.76,3.76,0,0,0-.55-2.22,1.84,1.84,0,0,0-1.59-.75,1.81,1.81,0,0,0-1.58.75,3.86,3.86,0,0,0-.53,2.23v3.87a3.82,3.82,0,0,0,.54,2.24,2,2,0,0,0,3.16,0,3.77,3.77,0,0,0,.55-2.24Z"/><path class="cls-3" d="M129.17,63.2h-2.66l-4.19-8.76-.06,0V63.2h-2.68V49.5h2.68l4.19,8.75.06,0V49.5h2.66Z"/><path class="cls-3" d="M137.34,59.63a1.83,1.83,0,0,0-.41-1.26,4.23,4.23,0,0,0-1.46-.92,9.63,9.63,0,0,1-3.2-1.69,3.35,3.35,0,0,1-1.07-2.65,3.44,3.44,0,0,1,1.24-2.74,4.71,4.71,0,0,1,3.17-1.06,4.39,4.39,0,0,1,3.18,1.18,3.85,3.85,0,0,1,1.19,3l0,.06h-2.6a2.35,2.35,0,0,0-.47-1.52,1.82,1.82,0,0,0-2.57-.1,1.73,1.73,0,0,0-.45,1.22,1.42,1.42,0,0,0,.5,1.11,7,7,0,0,0,1.73,1A7.3,7.3,0,0,1,139,56.88a3.76,3.76,0,0,1,1,2.73,3.46,3.46,0,0,1-1.19,2.79,4.71,4.71,0,0,1-3.15,1,5.28,5.28,0,0,1-3.39-1.14A3.83,3.83,0,0,1,130.9,59l0-.06h2.61a2.57,2.57,0,0,0,.54,1.83,2.15,2.15,0,0,0,1.62.55,1.61,1.61,0,0,0,1.26-.45A1.75,1.75,0,0,0,137.34,59.63Z"/></g></g></svg>