<svg xmlns="http://www.w3.org/2000/svg" viewBox="0 0 89.16 50.34"><defs><style>.cls-1{fill:#152d53;}.cls-2{fill:#ab1e41;}</style></defs><title>Asset 23</title><g id="Layer_2" data-name="Layer 2"><g id="by_the_numbers" data-name="by the numbers"><path class="cls-1" d="M49.49,12.33h2.14a1.92,1.92,0,0,0,1.7-.81,4,4,0,0,0,.56-2.28,3.57,3.57,0,0,0-.56-2.08,1.83,1.83,0,0,0-1.6-.8,1.86,1.86,0,0,0-1.45.71,2.75,2.75,0,0,0-.61,1.86H45.54l0-.09a5.29,5.29,0,0,1,1.71-4.25,6.25,6.25,0,0,1,4.4-1.65,6.75,6.75,0,0,1,4.76,1.63,6,6,0,0,1,1.78,4.61,5.25,5.25,0,0,1-.77,2.76,5.31,5.31,0,0,1-2.11,2,4.8,4.8,0,0,1,2.35,2,6,6,0,0,1,.81,3.17,6,6,0,0,1-1.92,4.71,7.1,7.1,0,0,1-4.92,1.72,6.76,6.76,0,0,1-4.53-1.62,5.55,5.55,0,0,1-1.82-4.63l0-.09h4.15a3.24,3.24,0,0,0,.66,2.09,2,2,0,0,0,1.64.83,2.13,2.13,0,0,0,1.77-.84A3.52,3.52,0,0,0,54.16,19a4.1,4.1,0,0,0-.64-2.55,2.27,2.27,0,0,0-1.89-.81H49.49Z"/><path class="cls-1" d="M72.28,17h1.9v3.42h-1.9v4.8H68v-4.8H60.75l-.23-2.66L68,3.25h4.27Zm-7.87,0H68V9.38l-.09,0-.23.41Z"/><path class="cls-1" d="M88.78,9.06A5.64,5.64,0,0,1,88,12a5.24,5.24,0,0,1-2,2,5.67,5.67,0,0,1,3.16,5.22,6.05,6.05,0,0,1-1.76,4.68,7.43,7.43,0,0,1-9.29,0,6,6,0,0,1-1.78-4.67,5.81,5.81,0,0,1,.84-3.12A5.6,5.6,0,0,1,79.51,14a5.16,5.16,0,0,1-2-2,5.69,5.69,0,0,1-.74-2.92,6,6,0,0,1,1.66-4.52,6.73,6.73,0,0,1,8.74,0A6,6,0,0,1,88.78,9.06Zm-3.9,9.8a4.12,4.12,0,0,0-.59-2.34,1.8,1.8,0,0,0-1.55-.87,1.77,1.77,0,0,0-1.55.87,4.2,4.2,0,0,0-.57,2.34,4.18,4.18,0,0,0,.57,2.36,1.85,1.85,0,0,0,3.11,0A4.14,4.14,0,0,0,84.88,18.86Zm-.41-9.6A4.33,4.33,0,0,0,84,7.14a1.4,1.4,0,0,0-1.29-.78,1.39,1.39,0,0,0-1.28.77A4.37,4.37,0,0,0,81,9.27a4.49,4.49,0,0,0,.44,2.18,1.44,1.44,0,0,0,2.57,0A4.55,4.55,0,0,0,84.48,9.27Z"/><path class="cls-2" d="M14,45.66,2.38,41.77,0,42.55v7.79Zm5.75-9.71,11.66,3.89,2.38-.78V31.26Zm-1.16-1.58,6.74-2.29c8.53-12,0-16.94,0-16.94-.24,1.71-1.21,6.23-3.8,9.3C16.69,30.17,18.28,33,18.63,34.37ZM9.52,32.49,16.85,35c-2.17-6.52,2-9.68,3.65-12.37C30.24,6.81,13.69,0,13.69,0c2.19,2.64,1.25,8.06-5.26,14.5C.63,22.24,8.36,31.18,9.52,32.49ZM33.83,50.34V42.55L0,31.26v7.79Z"/><path class="cls-1" d="M51.19,44.34h-4V49H44.27V37.22h7.65v2.29H47.14V42h4Z"/><path class="cls-1" d="M56.61,49H53.74V37.22h2.87Z"/><path class="cls-1" d="M66.94,40.79a3.16,3.16,0,0,1-.46,1.71,3.29,3.29,0,0,1-1.31,1.17,2.47,2.47,0,0,1,1.47,1,3.31,3.31,0,0,1,.45,1.78v.79q0,.36.05.89a1.54,1.54,0,0,0,.19.72V49h-3a1.84,1.84,0,0,1-.13-.71q0-.53,0-1v-.77a1.85,1.85,0,0,0-.34-1.21,1.32,1.32,0,0,0-1-.44H61.67V49H58.8V37.22h4a4.5,4.5,0,0,1,3,1A3.24,3.24,0,0,1,66.94,40.79Zm-5.27,1.75h1.11a1.15,1.15,0,0,0,.93-.41A1.68,1.68,0,0,0,64.06,41a1.64,1.64,0,0,0-.35-1.07,1.13,1.13,0,0,0-.93-.43H61.67Z"/><path class="cls-1" d="M75.82,44H72v2.66h4.55V49H69.14V37.22h7.42v2.29H72v2.23h3.81Z"/><path class="cls-1" d="M83.94,45.72a1.24,1.24,0,0,0-.35-.91,3,3,0,0,0-1.28-.63,6.21,6.21,0,0,1-2.87-1.23,3.13,3.13,0,0,1-.88-2.44,3.21,3.21,0,0,1,1.08-2.46,4.14,4.14,0,0,1,2.92-1,4.22,4.22,0,0,1,3,1,3.39,3.39,0,0,1,1,2.69l0,.06H83.78a1.9,1.9,0,0,0-.27-1.12,1.11,1.11,0,0,0-1-.38,1.07,1.07,0,0,0-.88.32,1.5,1.5,0,0,0,.07,1.79,3.21,3.21,0,0,0,1.42.63,6,6,0,0,1,2.74,1.23,3.07,3.07,0,0,1,.9,2.39,3.16,3.16,0,0,1-1.16,2.54,4.6,4.6,0,0,1-3.06,1,4.79,4.79,0,0,1-3.27-1,3.32,3.32,0,0,1-1.1-2.76l0-.06H81a1.58,1.58,0,0,0,.41,1.2,1.71,1.71,0,0,0,1.15.34,1.42,1.42,0,0,0,1.05-.32A1.19,1.19,0,0,0,83.94,45.72Z"/></g></g></svg>