<svg xmlns="http://www.w3.org/2000/svg" viewBox="0 0 88.17 47.08"><defs><style>.cls-1{fill:#152d53;}.cls-2{fill:#ab1e41;}</style></defs><title>Asset 24</title><g id="Layer_2" data-name="Layer 2"><g id="by_the_numbers" data-name="by the numbers"><path class="cls-1" d="M37,16.66,38.11,4.44H48.83V7.95H41.6l-.47,5.16a3.79,3.79,0,0,1,1.17-.78A4,4,0,0,1,43.77,12,4.85,4.85,0,0,1,48,13.89a8.84,8.84,0,0,1,1.47,5.44,8.19,8.19,0,0,1-1.66,5.24A5.7,5.7,0,0,1,43,26.67,6.61,6.61,0,0,1,38.51,25a5.59,5.59,0,0,1-1.84-4.55l0-.08,4.15-.23a3.82,3.82,0,0,0,.6,2.3,1.87,1.87,0,0,0,1.58.82,1.71,1.71,0,0,0,1.64-1.08,6.62,6.62,0,0,0,.51-2.82,6.87,6.87,0,0,0-.57-3.07,2,2,0,0,0-3.12-.65,2.56,2.56,0,0,0-.66,1.28Z"/><path class="cls-1" d="M57.47,23.26A2.53,2.53,0,0,0,59.62,22a6.05,6.05,0,0,0,.85-3.46v-.84A4.23,4.23,0,0,1,59.06,19a3.44,3.44,0,0,1-1.71.45,4.72,4.72,0,0,1-4-2A9.23,9.23,0,0,1,51.84,12a8.61,8.61,0,0,1,1.81-5.56,5.82,5.82,0,0,1,9.26.06,10.33,10.33,0,0,1,1.81,6.48v5.36a8.76,8.76,0,0,1-2.05,6.12,6.72,6.72,0,0,1-5.2,2.27,8.76,8.76,0,0,1-2-.24,8.44,8.44,0,0,1-1.93-.69l.48-3.19a8.56,8.56,0,0,0,1.63.53A8.44,8.44,0,0,0,57.47,23.26Zm.69-7a2.43,2.43,0,0,0,1.33-.37,3.09,3.09,0,0,0,1-1V12.4a8.41,8.41,0,0,0-.6-3.6q-.6-1.22-1.58-1.16h-.09q-.92-.06-1.5,1.24A7.4,7.4,0,0,0,56.1,12a7.8,7.8,0,0,0,.53,3.15A1.67,1.67,0,0,0,58.16,16.27Z"/><path class="cls-1" d="M46.67,41.42a5.2,5.2,0,0,1-1.31,3.76,4.62,4.62,0,0,1-3.48,1.36,4.59,4.59,0,0,1-3.47-1.35,5.21,5.21,0,0,1-1.3-3.76V37.58a5.25,5.25,0,0,1,1.3-3.77,4.55,4.55,0,0,1,3.46-1.37,4.61,4.61,0,0,1,3.48,1.37,5.21,5.21,0,0,1,1.32,3.77ZM44,37.55a3.76,3.76,0,0,0-.55-2.22,1.84,1.84,0,0,0-1.59-.75,1.81,1.81,0,0,0-1.58.75,3.87,3.87,0,0,0-.53,2.23v3.87a3.83,3.83,0,0,0,.54,2.24,2.05,2.05,0,0,0,3.16,0A3.77,3.77,0,0,0,44,41.42Z"/><path class="cls-1" d="M56.23,34.77H53.14V46.34H50.47V34.77H47.4V32.64h8.82Z"/><path class="cls-1" d="M67.12,46.33H64.45V40.66H60.19v5.67H57.51V32.64h2.68v5.89h4.25V32.64h2.67Z"/><path class="cls-1" d="M76.47,40.32h-4.6V44.2h5.41v2.14H69.19V32.64h8.07v2.13H71.87v3.42h4.6Z"/><path class="cls-1" d="M81.35,40.88v5.45H78.68V32.64h4.47a4.5,4.5,0,0,1,3.18,1.07,3.85,3.85,0,0,1,1.15,3A3.44,3.44,0,0,1,87,38.53a3.37,3.37,0,0,1-1.4,1.24,2.62,2.62,0,0,1,1.52,1.19A4.16,4.16,0,0,1,87.58,43v1a6,6,0,0,0,.13,1.21,1.65,1.65,0,0,0,.46.94v.2H85.4a1.54,1.54,0,0,1-.41-1A11.14,11.14,0,0,1,84.9,44V43a2.63,2.63,0,0,0-.42-1.59,1.4,1.4,0,0,0-1.2-.56Zm0-2.14h1.79a1.54,1.54,0,0,0,1.24-.5,2.14,2.14,0,0,0,.42-1.42,2.41,2.41,0,0,0-.42-1.5,1.46,1.46,0,0,0-1.23-.55h-1.8Z"/><path class="cls-2" d="M21.82,5.19v-4L13.37,2.74a2.47,2.47,0,0,0-2.12-1.22h-.82a2.46,2.46,0,0,0-1.74.72,2.41,2.41,0,1,0-4,2A18.16,18.16,0,0,0,0,6.6l1,1A22.28,22.28,0,0,1,8,5.74V6.93c-4.05.32-7,1.3-7,2.47V47.08H20.72V9.39c0-1.16-2.95-2.15-7-2.47V5.19ZM4.63,2.41a1.66,1.66,0,1,1,3.12.77c-.81.23-1.55.47-2.22.7A1.66,1.66,0,0,1,4.63,2.41ZM18,37.39H8.1V16.89H18Z"/></g></g></svg>