<svg xmlns="http://www.w3.org/2000/svg" viewBox="0 0 251.89 215.77"><defs><style>.cls-1{fill:#6cafe0;fill-rule:evenodd;}</style></defs><title>Asset 2</title><g id="Layer_2" data-name="Layer 2"><g id="Layer_24" data-name="Layer 24"><path class="cls-1" d="M63.88,120.1v7h11v11.26a20.51,20.51,0,0,1,4.21,1.14l5.79,2.25V120.29l41.5-41.5,41.5,41.5v28.55l3.33-1.55a21.44,21.44,0,0,1,6.67-1.9V127.1h12v-7L126.88,57l-63,63.05Zm22-51h19v5.09l-19,18.9v-24ZM11.28,215.77,0,166.06l57.83-19.25c6.94-3.08,13.35-3.52,19.35-1.93L122.86,163l5.12,2c12.19,4.5,9.09,26.33-8.07,21.16l-15.2-5.17c-8.73-3-9.62,1-4.82,2.71l18.47,6.11a16.53,16.53,0,0,0,7.05,1c9.06-.43,17.65-9,13-21.52l35.39-15.8c14.44-7.06,22.21,10.26,10.37,17.29l-52.37,31.83c-3.94,2.28-7.55,3.08-10.92,2L64.79,193c-9.62-2-10.19-2.25-18.85,2.76Z"/><path class="cls-1" d="M240.61,0l11.28,49.71L194.06,69c-6.94,3.08-13.35,3.52-19.35,1.93L129,52.73l-5.12-2c-12.19-4.5-9.09-26.33,8.07-21.16l15.2,5.17c8.73,3,9.62-1,4.82-2.71l-18.47-6.11a16.53,16.53,0,0,0-7.05-1c-9.06.43-17.65,9-13,21.52L78.06,62.22C63.63,69.28,55.85,52,67.69,44.93L120.06,13.1c3.94-2.28,7.55-3.08,10.92-2L187.1,22.77c9.62,2,10.19,2.25,18.85-2.76Z"/></g></g></svg>