<svg xmlns="http://www.w3.org/2000/svg" viewBox="0 0 1066.5 594.62"><defs><style>.cls-1{fill:#6cafe0;}.cls-2{fill:#152d53;}.cls-3,.cls-7{fill:#ab1e41;}.cls-4{fill:#fff;}.cls-5,.cls-6{fill:none;stroke-miterlimit:10;}.cls-5{stroke:#fff;stroke-width:1.99px;}.cls-6{stroke:#ab1e41;stroke-width:4.48px;}.cls-7{fill-rule:evenodd;}</style></defs><title>Asset 2</title><g id="Layer_2" data-name="Layer 2"><g id="Layer_1-2" data-name="Layer 1"><polygon class="cls-1" points="172.69 98.43 172.69 98.43 324.99 98.43 324.99 171.5 172.69 171.5 172.69 171.5 172.69 98.43"/><polygon class="cls-1" points="171.94 182.68 171.94 182.68 248.84 182.68 248.84 255.75 171.94 255.75 171.94 255.75 171.94 182.68"/><polygon class="cls-1" points="170.5 433.88 170.5 433.88 183.51 433.88 183.51 506.95 170.5 506.95 170.5 506.95 170.5 433.88"/><polygon class="cls-1" points="169.56 520.7 169.56 520.7 175.83 520.7 175.83 593.76 169.56 593.76 169.56 593.76 169.56 520.7"/><polygon class="cls-1" points="171.54 349.72 171.54 349.72 191.27 349.72 191.27 422.79 171.54 422.79 171.54 422.79 171.54 349.72"/><path class="cls-2" d="M55.19,146.2a5.18,5.18,0,0,1-1.74,1.3,6.48,6.48,0,0,1-2.81.53,4.58,4.58,0,0,1-3.44-1.37,4.88,4.88,0,0,1-1.33-3.54v-2.5a4.92,4.92,0,0,1,1.3-3.53,4.38,4.38,0,0,1,3.32-1.37,4.91,4.91,0,0,1,3.27,1,3.41,3.41,0,0,1,1.13,2.86l0,.06H52a1.7,1.7,0,0,0-.33-1.22,1.61,1.61,0,0,0-1.21-.38,1.41,1.41,0,0,0-1.25.72,3.38,3.38,0,0,0-.46,1.85v2.49a3.27,3.27,0,0,0,.48,1.88,1.56,1.56,0,0,0,1.37.71,3.36,3.36,0,0,0,1-.12,1.67,1.67,0,0,0,.61-.35v-1.8H50.54v-2h4.65Z"/><path class="cls-2" d="M66.19,143.11a5,5,0,0,1-1.28,3.57,4.33,4.33,0,0,1-3.31,1.37,4.38,4.38,0,0,1-3.33-1.37,5,5,0,0,1-1.3-3.57v-2.5a4.94,4.94,0,0,1,1.28-3.54,4.74,4.74,0,0,1,6.65,0,5,5,0,0,1,1.28,3.54Zm-2.91-2.5a3.4,3.4,0,0,0-.46-1.83,1.43,1.43,0,0,0-2.5,0,3.52,3.52,0,0,0-.44,1.84v2.5a3.59,3.59,0,0,0,.44,1.87,1.42,1.42,0,0,0,2.5,0,3.54,3.54,0,0,0,.45-1.87Z"/><path class="cls-2" d="M77,143.11a5,5,0,0,1-1.28,3.57,4.33,4.33,0,0,1-3.31,1.37,4.38,4.38,0,0,1-3.33-1.37,5,5,0,0,1-1.29-3.57v-2.5a5,5,0,0,1,1.28-3.54,4.74,4.74,0,0,1,6.65,0A5,5,0,0,1,77,140.61Zm-2.91-2.5a3.41,3.41,0,0,0-.46-1.83,1.4,1.4,0,0,0-1.24-.73,1.38,1.38,0,0,0-1.26.73,3.53,3.53,0,0,0-.44,1.84v2.5a3.59,3.59,0,0,0,.44,1.87,1.42,1.42,0,0,0,2.5,0,3.53,3.53,0,0,0,.45-1.87Z"/><path class="cls-2" d="M78.92,147.84v-12H83a4.35,4.35,0,0,1,3.3,1.37,4.94,4.94,0,0,1,1.3,3.54v2.16a4.92,4.92,0,0,1-1.3,3.53,4.36,4.36,0,0,1-3.3,1.37Zm2.91-9.64v7.3H83a1.4,1.4,0,0,0,1.23-.71,3.4,3.4,0,0,0,.46-1.87v-2.16a3.4,3.4,0,0,0-.46-1.85,1.4,1.4,0,0,0-1.23-.72Z"/><path class="cls-2" d="M50.94,110.87h2.17a2,2,0,0,0,1.73-.83,4.07,4.07,0,0,0,.57-2.32,3.63,3.63,0,0,0-.57-2.12,1.86,1.86,0,0,0-1.62-.81,1.89,1.89,0,0,0-1.48.72,2.79,2.79,0,0,0-.62,1.88H46.92l0-.09A5.38,5.38,0,0,1,48.62,103a6.35,6.35,0,0,1,4.47-1.67A6.86,6.86,0,0,1,57.93,103a6,6,0,0,1,1.8,4.69,5.43,5.43,0,0,1-2.92,4.82,4.89,4.89,0,0,1,2.39,2,6.79,6.79,0,0,1-1.12,8,7.21,7.21,0,0,1-5,1.74,6.86,6.86,0,0,1-4.6-1.64,5.64,5.64,0,0,1-1.85-4.7l0-.09h4.22a3.29,3.29,0,0,0,.67,2.13,2.06,2.06,0,0,0,1.67.84,2.16,2.16,0,0,0,1.8-.85,3.58,3.58,0,0,0,.67-2.27,4.17,4.17,0,0,0-.65-2.59,2.3,2.3,0,0,0-1.92-.82H50.94Z"/><path class="cls-2" d="M66.78,123.89l-2.22,4.76H62l.9-4.88v-3.53h3.85Z"/><path class="cls-2" d="M82.61,115.19q0,4.45-1.77,6.75a6.06,6.06,0,0,1-9.5,0q-1.77-2.3-1.77-6.75V110.4q0-4.43,1.77-6.75a6,6,0,0,1,9.5,0q1.77,2.32,1.77,6.75ZM78.27,110a10.09,10.09,0,0,0-.57-3.93q-.57-1.24-1.58-1.16H76q-1-.08-1.57,1.16a10.33,10.33,0,0,0-.55,3.93v5.52a10.24,10.24,0,0,0,.57,4q.57,1.25,1.59,1.16h.09q1,.09,1.56-1.15a10.51,10.51,0,0,0,.55-4Z"/><path class="cls-2" d="M97.76,107.56a5.73,5.73,0,0,1-.76,3,5.33,5.33,0,0,1-2.07,2,5.76,5.76,0,0,1,3.21,5.31,6.15,6.15,0,0,1-1.79,4.76,7.55,7.55,0,0,1-9.44,0,6.13,6.13,0,0,1-1.8-4.75,5.91,5.91,0,0,1,.86-3.17,5.69,5.69,0,0,1,2.37-2.13,5.25,5.25,0,0,1-2.08-2,5.78,5.78,0,0,1-.75-3,6.13,6.13,0,1,1,12.25,0Zm-4,10a4.18,4.18,0,0,0-.6-2.38,1.82,1.82,0,0,0-1.58-.88,1.8,1.8,0,0,0-1.57.88,5.18,5.18,0,0,0,0,4.77,1.87,1.87,0,0,0,3.16,0A4.21,4.21,0,0,0,93.8,117.51Zm-.41-9.75a4.4,4.4,0,0,0-.45-2.16,1.47,1.47,0,0,0-2.61,0,4.44,4.44,0,0,0-.44,2.18,4.55,4.55,0,0,0,.45,2.21,1.46,1.46,0,0,0,2.61,0A4.62,4.62,0,0,0,93.39,107.76Z"/><path class="cls-2" d="M113.82,105.14a21.8,21.8,0,0,0-4,7.44,50.41,50.41,0,0,0-1.43,9.2l-.2,2.14h-4.36l.21-2.14a39.53,39.53,0,0,1,1.78-9.15,26.73,26.73,0,0,1,3.83-7.5h-9.39v-3.47h13.55Z"/><path class="cls-2" d="M53.9,230.72H49.79v4.74H46.87l0-12,7.78,0v2.33H49.8v2.57h4.11Z"/><path class="cls-2" d="M62.73,233.4H59.22l-.62,2.07H55.5l3.9-12h3.21l3.83,12H63.35Zm-2.83-2.34H62l-1-3.53h-.06Z"/><path class="cls-2" d="M70.47,233.16h4v2.33H67.55l0-12h2.92Z"/><path class="cls-2" d="M81.41,232.18a1.26,1.26,0,0,0-.36-.93,3.09,3.09,0,0,0-1.3-.64,6.32,6.32,0,0,1-2.91-1.25,3.18,3.18,0,0,1-.89-2.48,3.26,3.26,0,0,1,1.1-2.5,4.22,4.22,0,0,1,3-1,4.28,4.28,0,0,1,3,1,3.44,3.44,0,0,1,1,2.74l0,.06H81.25a1.93,1.93,0,0,0-.27-1.13,1.13,1.13,0,0,0-1-.39,1.09,1.09,0,0,0-.89.33,1.32,1.32,0,0,0-.27.86,1.33,1.33,0,0,0,.34,1,3.25,3.25,0,0,0,1.44.64,6.12,6.12,0,0,1,2.78,1.25,3.11,3.11,0,0,1,.91,2.43,3.21,3.21,0,0,1-1.18,2.58,4.67,4.67,0,0,1-3.11,1,4.87,4.87,0,0,1-3.32-1,3.38,3.38,0,0,1-1.11-2.8l0-.06h2.82a1.61,1.61,0,0,0,.42,1.22,1.73,1.73,0,0,0,1.17.35,1.45,1.45,0,0,0,1.07-.33A1.22,1.22,0,0,0,81.41,232.18Z"/><path class="cls-2" d="M92.92,230.5H89v2.7h4.62v2.33H86.12l0-12h7.54v2.33H89.05v2.27h3.87Z"/><path class="cls-2" d="M55.35,211.78H51V194.05l-4.13.09V191l8.47-1.51Z"/><path class="cls-2" d="M66,211.75l-2.22,4.76H61.25l.9-4.88v-3.53H66Z"/><path class="cls-2" d="M80.3,203.43h1.93v3.47H80.3v4.88H76V206.9H68.59l-.23-2.71L76,189.51H80.3Zm-8,0H76v-7.69h-.09l-.23.41Z"/><path class="cls-2" d="M97.38,203q0,4.45-1.77,6.75a6.06,6.06,0,0,1-9.5,0q-1.77-2.3-1.77-6.75v-4.79q0-4.43,1.77-6.75a6,6,0,0,1,9.5,0q1.77,2.32,1.77,6.75ZM93,197.87a10.09,10.09,0,0,0-.57-3.93q-.57-1.24-1.58-1.16H90.8q-1-.08-1.57,1.16a10.33,10.33,0,0,0-.55,3.93v5.52a10.24,10.24,0,0,0,.57,4q.57,1.25,1.59,1.16h.09q1,.09,1.56-1.15a10.51,10.51,0,0,0,.55-4Z"/><path class="cls-2" d="M105.51,208.62a2.57,2.57,0,0,0,2.18-1.25,6.14,6.14,0,0,0,.86-3.52V203a4.3,4.3,0,0,1-1.43,1.35,3.49,3.49,0,0,1-1.74.46,4.79,4.79,0,0,1-4.11-2.06,9.37,9.37,0,0,1-1.49-5.6,8.75,8.75,0,0,1,1.84-5.65,5.92,5.92,0,0,1,9.41.06,10.5,10.5,0,0,1,1.83,6.58v5.44a8.9,8.9,0,0,1-2.09,6.22,6.82,6.82,0,0,1-5.28,2.3,8.88,8.88,0,0,1-2-.25,8.57,8.57,0,0,1-2-.7l.49-3.24a8.14,8.14,0,0,0,3.47.72Zm.7-7.1a2.47,2.47,0,0,0,1.35-.37,3.13,3.13,0,0,0,1-1V197.6a8.54,8.54,0,0,0-.61-3.66q-.61-1.24-1.61-1.18h-.09q-.93-.06-1.53,1.26a7.51,7.51,0,0,0-.6,3.11,7.92,7.92,0,0,0,.54,3.2A1.7,1.7,0,0,0,106.21,201.53Z"/><path class="cls-2" d="M52.07,468.41h2.17a2,2,0,0,0,1.73-.83,4.07,4.07,0,0,0,.57-2.32,3.63,3.63,0,0,0-.57-2.12,1.86,1.86,0,0,0-1.62-.81,1.89,1.89,0,0,0-1.48.72,2.79,2.79,0,0,0-.62,1.88H48.05l0-.09a5.38,5.38,0,0,1,1.74-4.31,6.35,6.35,0,0,1,4.47-1.67,6.86,6.86,0,0,1,4.83,1.66,6,6,0,0,1,1.8,4.69A5.43,5.43,0,0,1,57.95,470a4.89,4.89,0,0,1,2.39,2,6.79,6.79,0,0,1-1.12,8,7.21,7.21,0,0,1-5,1.74,6.86,6.86,0,0,1-4.6-1.64,5.64,5.64,0,0,1-1.85-4.7l0-.09H52a3.29,3.29,0,0,0,.67,2.13,2.06,2.06,0,0,0,1.67.84,2.16,2.16,0,0,0,1.8-.85,3.58,3.58,0,0,0,.67-2.27,4.17,4.17,0,0,0-.65-2.59,2.3,2.3,0,0,0-1.92-.82H52.07Z"/><path class="cls-2" d="M75.23,473.1h1.93v3.47H75.23v4.88H70.9v-4.88H63.51l-.23-2.71,7.6-14.68h4.34Zm-8,0H70.9v-7.69h-.09l-.23.41Z"/><path class="cls-2" d="M92,465.09a5.73,5.73,0,0,1-.76,3,5.33,5.33,0,0,1-2.07,2,5.76,5.76,0,0,1,3.21,5.31,6.15,6.15,0,0,1-1.79,4.76,7.55,7.55,0,0,1-9.44,0,6.13,6.13,0,0,1-1.8-4.75,5.91,5.91,0,0,1,.86-3.17,5.69,5.69,0,0,1,2.37-2.13,5.25,5.25,0,0,1-2.08-2,5.78,5.78,0,0,1-.75-3,6.13,6.13,0,1,1,12.25,0Zm-4,10a4.18,4.18,0,0,0-.6-2.38,1.82,1.82,0,0,0-1.58-.88,1.8,1.8,0,0,0-1.57.88,5.18,5.18,0,0,0,0,4.77,1.87,1.87,0,0,0,3.16,0A4.21,4.21,0,0,0,88,475Zm-.41-9.75a4.4,4.4,0,0,0-.45-2.16,1.47,1.47,0,0,0-2.61,0,4.44,4.44,0,0,0-.44,2.18,4.55,4.55,0,0,0,.45,2.21,1.46,1.46,0,0,0,2.61,0A4.62,4.62,0,0,0,87.58,465.3Z"/><path class="cls-2" d="M46.64,563.71l1.1-12.42H58.63v3.56H51.29l-.47,5.25a3.85,3.85,0,0,1,1.19-.79,4.06,4.06,0,0,1,1.49-.34,4.94,4.94,0,0,1,4.27,1.92,9,9,0,0,1,1.49,5.53,8.33,8.33,0,0,1-1.69,5.32,5.79,5.79,0,0,1-4.83,2.14,6.72,6.72,0,0,1-4.6-1.71,5.68,5.68,0,0,1-1.87-4.63l0-.08,4.22-.23a3.88,3.88,0,0,0,.61,2.33,1.9,1.9,0,0,0,1.61.83,1.74,1.74,0,0,0,1.67-1.09,6.72,6.72,0,0,0,.52-2.87,7,7,0,0,0-.58-3.12,2,2,0,0,0-3.17-.66,2.6,2.6,0,0,0-.67,1.3Z"/><path class="cls-2" d="M67.41,570.41a2.57,2.57,0,0,0,2.18-1.25,6.14,6.14,0,0,0,.86-3.52v-.86A4.3,4.3,0,0,1,69,566.13a3.49,3.49,0,0,1-1.74.46,4.79,4.79,0,0,1-4.11-2.06,9.37,9.37,0,0,1-1.49-5.6,8.75,8.75,0,0,1,1.84-5.65,5.92,5.92,0,0,1,9.41.06,10.5,10.5,0,0,1,1.83,6.58v5.44a8.9,8.9,0,0,1-2.09,6.22,6.82,6.82,0,0,1-5.28,2.3,8.88,8.88,0,0,1-2-.25,8.57,8.57,0,0,1-2-.7l.49-3.24a8.14,8.14,0,0,0,3.47.72Zm.7-7.1a2.47,2.47,0,0,0,1.35-.37,3.13,3.13,0,0,0,1-1v-2.54a8.54,8.54,0,0,0-.61-3.66q-.61-1.24-1.61-1.18h-.09q-.93-.06-1.53,1.26a7.51,7.51,0,0,0-.6,3.11,7.92,7.92,0,0,0,.54,3.2A1.7,1.7,0,0,0,68.12,563.32Z"/><path class="cls-2" d="M56.48,588.91a5.27,5.27,0,0,1-1.33,3.82,5.22,5.22,0,0,1-7.06,0,5.3,5.3,0,0,1-1.32-3.82V585a5.33,5.33,0,0,1,1.32-3.83,4.62,4.62,0,0,1,3.52-1.39,4.68,4.68,0,0,1,3.54,1.39A5.29,5.29,0,0,1,56.48,585ZM53.77,585a3.82,3.82,0,0,0-.56-2.26A1.87,1.87,0,0,0,51.6,582a1.84,1.84,0,0,0-1.61.76,3.92,3.92,0,0,0-.53,2.26v3.93a3.88,3.88,0,0,0,.55,2.27,1.85,1.85,0,0,0,1.61.76,1.87,1.87,0,0,0,1.61-.76,3.85,3.85,0,0,0,.55-2.27Z"/><path class="cls-2" d="M66.18,582.16H63V593.9H60.34V582.16H57.22V580h9Z"/><path class="cls-2" d="M77.25,593.9H74.53v-5.76H70.21v5.76H67.49V580h2.72v6h4.32v-6h2.71Z"/><path class="cls-2" d="M86.75,587.79H82.08v3.94h5.5v2.17H79.35V580h8.2v2.17H82.08v3.47h4.67Z"/><path class="cls-2" d="M91.74,588.36v5.53H89V580h4.54a4.56,4.56,0,0,1,3.23,1.08,3.91,3.91,0,0,1,1.17,3,3.49,3.49,0,0,1-.49,1.88A3.41,3.41,0,0,1,96,587.22a2.66,2.66,0,0,1,1.54,1.2,4.25,4.25,0,0,1,.47,2.1v1a6.09,6.09,0,0,0,.13,1.23,1.68,1.68,0,0,0,.47,1v.2H95.86a1.56,1.56,0,0,1-.42-1,11.27,11.27,0,0,1-.09-1.41v-.95a2.67,2.67,0,0,0-.42-1.62,1.43,1.43,0,0,0-1.22-.57Zm0-2.17h1.82a1.57,1.57,0,0,0,1.26-.51,2.17,2.17,0,0,0,.43-1.44,2.46,2.46,0,0,0-.43-1.52,1.48,1.48,0,0,0-1.25-.56H91.74Z"/><path class="cls-3" d="M2.21,421.38a2.09,2.09,0,0,1-1.77-3.25l17.78-31a2,2,0,0,1,3.62,0l17.78,31a2.09,2.09,0,0,1-1.77,3.25Z"/><path class="cls-3" d="M37.83,421.5H2.21v-.23H37.83a1.86,1.86,0,0,0,2-1.94h0a2.29,2.29,0,0,0-.3-1.13h0l-17.78-31A2,2,0,0,0,20,386.12h0a2,2,0,0,0-1.71,1.08h0l-17.77,31a2.29,2.29,0,0,0-.3,1.13h0a1.86,1.86,0,0,0,2,1.94h0v.23a2.17,2.17,0,0,1-1.64-.67h0A2.22,2.22,0,0,1,0,419.32H0a2.54,2.54,0,0,1,.33-1.24h0l17.77-31a2.26,2.26,0,0,1,1.91-1.2h0a2.27,2.27,0,0,1,1.91,1.19h0l17.78,31a2.53,2.53,0,0,1,.32,1.24h0a2.21,2.21,0,0,1-.56,1.51h0a2.16,2.16,0,0,1-1.64.67h0Z"/><path class="cls-4" d="M13.47,406.82c.78-.45,2.79-.88,5,1.49L19,408a1.23,1.23,0,0,1,.06-.94,1.22,1.22,0,0,1,.78-.52v-.68c-3.14-.71-3.78-2.66-3.78-3.56a5.43,5.43,0,0,1,1-3.16,4.78,4.78,0,0,1,2.51-1.76v-.19a5.36,5.36,0,0,0-5.33,4.95,6.41,6.41,0,0,0,.37,2.33,6.45,6.45,0,0,0-2.2.84,5.37,5.37,0,0,0-1.63,7.09l.17-.1a4.76,4.76,0,0,1,.26-3.06A5.41,5.41,0,0,1,13.47,406.82Zm12.38,7.54a5.43,5.43,0,0,1-3.21-.75c-.78-.45-2.15-2-1.19-5.05l-.59-.34a1.06,1.06,0,0,1-1.69,0l-.59.34c1,3.08-.41,4.6-1.2,5.05a5.42,5.42,0,0,1-3.21.75,4.74,4.74,0,0,1-2.78-1.3l-.16.09a5.37,5.37,0,0,0,7,2.14A6.42,6.42,0,0,0,20,413.81a6.4,6.4,0,0,0,1.83,1.49,5.37,5.37,0,0,0,7-2.14l-.16-.1A4.74,4.74,0,0,1,25.85,414.36Zm1.77-9.07a6.52,6.52,0,0,0-2.2-.84,6.46,6.46,0,0,0,.37-2.33,5.36,5.36,0,0,0-5.33-4.95v.19A4.78,4.78,0,0,1,23,399.12a5.43,5.43,0,0,1,1,3.16c0,.91-.64,2.86-3.78,3.56v.68a1.2,1.2,0,0,1,.78.53A1.21,1.21,0,0,1,21,408l.58.34c2.19-2.37,4.19-1.95,5-1.49a5.39,5.39,0,0,1,2.25,2.41,4.75,4.75,0,0,1,.27,3.06l.16.1A5.37,5.37,0,0,0,27.63,405.29Zm-10.26-1a4.23,4.23,0,0,1,5.31,0,2.2,2.2,0,0,0,.82-1.19,5.67,5.67,0,0,0-7,0A2.22,2.22,0,0,0,17.36,404.29Zm-3,2.5a5.67,5.67,0,0,0,3.48,6,2.2,2.2,0,0,0,.62-1.31,4.22,4.22,0,0,1-2.65-4.6A2.24,2.24,0,0,0,14.41,406.79Zm7.12,4.72a2.21,2.21,0,0,0,.62,1.31,5.66,5.66,0,0,0,3.48-6,2.23,2.23,0,0,0-1.44.12,4.23,4.23,0,0,1-2.66,4.6Z"/><path class="cls-2" d="M47.73,370.41,48.83,358H59.72v3.56H52.38l-.47,5.25a3.85,3.85,0,0,1,1.19-.79,4.06,4.06,0,0,1,1.49-.34,4.94,4.94,0,0,1,4.27,1.92,9,9,0,0,1,1.49,5.53,8.33,8.33,0,0,1-1.69,5.32,5.79,5.79,0,0,1-4.83,2.14,6.72,6.72,0,0,1-4.6-1.71,5.68,5.68,0,0,1-1.87-4.63l0-.08,4.22-.23a3.88,3.88,0,0,0,.61,2.33,1.9,1.9,0,0,0,1.61.83A1.74,1.74,0,0,0,55.5,376a6.72,6.72,0,0,0,.52-2.87,7,7,0,0,0-.58-3.12,2,2,0,0,0-3.17-.66,2.6,2.6,0,0,0-.67,1.3Z"/><path class="cls-2" d="M75.92,371.53q0,4.45-1.77,6.75a6.06,6.06,0,0,1-9.5,0q-1.77-2.3-1.77-6.75v-4.79q0-4.43,1.77-6.75a6,6,0,0,1,9.5,0q1.77,2.32,1.77,6.75Zm-4.34-5.17a10.09,10.09,0,0,0-.57-3.93q-.57-1.24-1.58-1.16h-.09q-1-.08-1.57,1.16a10.33,10.33,0,0,0-.55,3.93v5.52a10.24,10.24,0,0,0,.57,4q.57,1.25,1.59,1.16h.09q1,.09,1.56-1.15a10.51,10.51,0,0,0,.55-4Z"/><path class="cls-2" d="M86.23,357.68a7.72,7.72,0,0,1,2,.24,9.29,9.29,0,0,1,1.83.71l-.73,3.29a10.23,10.23,0,0,0-1.49-.53,6.3,6.3,0,0,0-1.57-.18,2.93,2.93,0,0,0-2.55,1.45,7.16,7.16,0,0,0-.91,4.09l.06.06a4.12,4.12,0,0,1,1.53-1.09,5.24,5.24,0,0,1,2.08-.4,4.48,4.48,0,0,1,3.94,2.13,9.65,9.65,0,0,1,1.41,5.44A8.31,8.31,0,0,1,90,378.4a5.84,5.84,0,0,1-4.69,2.18,6.12,6.12,0,0,1-5-2.39,10.16,10.16,0,0,1-1.92-6.54v-4.59a10.06,10.06,0,0,1,2.21-6.86A7.16,7.16,0,0,1,86.23,357.68Zm-.95,11.07a3.49,3.49,0,0,0-1.54.31,2.57,2.57,0,0,0-1,.88v1.75a9.26,9.26,0,0,0,.7,4,2.11,2.11,0,0,0,1.89,1.4q1,0,1.58-1.24a6.85,6.85,0,0,0,.6-3,6.34,6.34,0,0,0-.61-3A1.8,1.8,0,0,0,85.29,368.75Z"/><path class="cls-2" d="M56.26,401.09H53.54v-5.76H49.21l0,5.76H46.5l0-13.92h2.72l0,6h4.32l0-6h2.72Z"/><path class="cls-2" d="M64.81,398.1H61.14l-.74,3H57.66l3.88-13.93h2.83l3.95,13.91H65.57Zm-3.12-2.16h2.56L63,391h-.06Z"/><path class="cls-2" d="M72,398.88h5.34V401l-8.4,0v-1.37l5.19-10.39H68.88v-2.17l8.37,0v1.32Z"/><path class="cls-2" d="M85.31,398H81.64l-.74,3H78.16L82,387.11h2.83L88.81,401H86.07Zm-3.12-2.16h2.56L83.48,391h-.06Z"/><path class="cls-2" d="M92.6,395.46V401H89.9l0-13.91H94.4a4.57,4.57,0,0,1,3.23,1.08,3.91,3.91,0,0,1,1.18,3,3.5,3.5,0,0,1-.48,1.88,3.43,3.43,0,0,1-1.42,1.26,2.66,2.66,0,0,1,1.55,1.2,4.25,4.25,0,0,1,.48,2.1v1a6.12,6.12,0,0,0,.14,1.23,1.68,1.68,0,0,0,.47,1v.2H96.73a1.57,1.57,0,0,1-.42-1,11.27,11.27,0,0,1-.09-1.41v-.95a2.67,2.67,0,0,0-.43-1.61,1.42,1.42,0,0,0-1.22-.57Zm0-2.17h1.82a1.56,1.56,0,0,0,1.26-.51,2.16,2.16,0,0,0,.43-1.44,2.44,2.44,0,0,0-.43-1.52,1.48,1.48,0,0,0-1.25-.56H92.58Z"/><path class="cls-2" d="M101,401l0-13.92h4.2a4.47,4.47,0,0,1,3.54,1.61,6.17,6.17,0,0,1,1.41,4.17v2.34a6.14,6.14,0,0,1-1.38,4.17,4.47,4.47,0,0,1-3.53,1.63Zm2.69-11.75,0,9.58H105a2,2,0,0,0,1.75-1,4.93,4.93,0,0,0,.61-2.63v-2.36a4.88,4.88,0,0,0-.62-2.61,2,2,0,0,0-1.76-1Z"/><path class="cls-2" d="M121.39,395.92a5.27,5.27,0,0,1-1.32,3.83,5.22,5.22,0,0,1-7.06,0,5.3,5.3,0,0,1-1.33-3.82V392a5.34,5.34,0,0,1,1.31-3.83,4.62,4.62,0,0,1,3.51-1.4A4.68,4.68,0,0,1,120,388.2a5.29,5.29,0,0,1,1.35,3.82ZM118.67,392a3.82,3.82,0,0,0-.56-2.25,1.87,1.87,0,0,0-1.62-.76,1.84,1.84,0,0,0-1.6.76,3.93,3.93,0,0,0-.53,2.26v3.93a3.88,3.88,0,0,0,.55,2.27,2.08,2.08,0,0,0,3.21,0,3.83,3.83,0,0,0,.55-2.27Z"/><path class="cls-2" d="M132.4,387l0,9.47a4.45,4.45,0,0,1-1.3,3.44,5.42,5.42,0,0,1-6.83,0,4.46,4.46,0,0,1-1.31-3.43l0-9.47h2.71l0,9.47a2.79,2.79,0,0,0,.53,1.87,1.87,1.87,0,0,0,1.48.6,1.92,1.92,0,0,0,1.5-.58,2.82,2.82,0,0,0,.51-1.9l0-9.47Z"/><path class="cls-2" d="M140.59,397.24a1.86,1.86,0,0,0-.42-1.28,4.27,4.27,0,0,0-1.48-.93,9.81,9.81,0,0,1-3.26-1.71,3.41,3.41,0,0,1-1.09-2.69,3.49,3.49,0,0,1,1.25-2.79,4.79,4.79,0,0,1,3.22-1.08,4.46,4.46,0,0,1,3.23,1.19,3.91,3.91,0,0,1,1.21,3l0,.06h-2.64a2.38,2.38,0,0,0-.48-1.55,1.85,1.85,0,0,0-2.61-.09,1.76,1.76,0,0,0-.45,1.24,1.44,1.44,0,0,0,.51,1.13,7.14,7.14,0,0,0,1.76,1,7.4,7.4,0,0,1,3,1.69,3.82,3.82,0,0,1,1,2.77,3.51,3.51,0,0,1-1.2,2.83,4.78,4.78,0,0,1-3.2,1,5.36,5.36,0,0,1-3.45-1.15,3.89,3.89,0,0,1-1.42-3.33l0-.06h2.65a2.61,2.61,0,0,0,.55,1.85,2.19,2.19,0,0,0,1.65.56,1.65,1.65,0,0,0,1.27-.46A1.78,1.78,0,0,0,140.59,397.24Z"/><path class="cls-3" d="M16.05,502.27,4.21,498.32l-2.42.79V507Zm5.84-9.87,11.84,3.95,2.42-.79v-7.91Zm-1.18-1.6,6.85-2.32c8.66-12.22,0-17.21,0-17.21-.24,1.74-1.23,6.33-3.86,9.45C18.74,486.53,20.36,489.45,20.72,490.79Zm-9.25-1.91,7.45,2.5c-2.21-6.62,2-9.84,3.71-12.56,9.89-16-6.92-22.94-6.92-22.94,2.23,2.68,1.27,8.19-5.34,14.74C2.43,478.47,10.29,487.56,11.47,488.89ZM36.16,507v-7.91L1.79,487.64v7.91Z"/><polygon class="cls-1" points="172.69 13.54 172.69 13.54 1066.5 13.54 1066.5 86.6 172.69 86.6 172.69 86.6 172.69 13.54"/><path class="cls-2" d="M55.66,63.36H51.32V45.63l-4.13.09V42.59l8.47-1.51Z"/><path class="cls-2" d="M73.57,55H75.5v3.47H73.57v4.88H69.25V58.48H61.86l-.23-2.71,7.6-14.68h4.34Zm-8,0h3.67V47.32h-.09l-.23.41Z"/><path class="cls-2" d="M81.88,63.33l-2.22,4.76H77.12L78,63.2V59.67h3.85Z"/><path class="cls-2" d="M97.84,44.58a21.8,21.8,0,0,0-4,7.44,50.41,50.41,0,0,0-1.43,9.2l-.2,2.14H87.85l.21-2.14a39.53,39.53,0,0,1,1.78-9.15,26.73,26.73,0,0,1,3.83-7.5H84.29V41.09H97.84Z"/><path class="cls-2" d="M113.4,44.58a21.8,21.8,0,0,0-4,7.44,50.41,50.41,0,0,0-1.43,9.2l-.2,2.14h-4.36l.21-2.14a39.53,39.53,0,0,1,1.78-9.15,26.73,26.73,0,0,1,3.83-7.5H99.85V41.09H113.4Z"/><path class="cls-2" d="M129,63.36H115.89v-3L122,52.71a16.23,16.23,0,0,0,1.74-3,6.11,6.11,0,0,0,.53-2.31,4.26,4.26,0,0,0-.55-2.3,1.77,1.77,0,0,0-1.59-.87,1.79,1.79,0,0,0-1.64,1.06,5.83,5.83,0,0,0-.57,2.78h-4.24l0-.08a7.45,7.45,0,0,1,1.71-5.13,5.92,5.92,0,0,1,4.77-2.1,6.32,6.32,0,0,1,4.77,1.77,6.67,6.67,0,0,1,1.71,4.83,7.76,7.76,0,0,1-1,3.79,35.11,35.11,0,0,1-3.19,4.56l-2.91,4.16H129Z"/><path class="cls-2" d="M54.49,80.38H50.62v2.7h4.62v2.33H47.7v-12h7.54v2.33H50.62v2.27h3.87Z"/><path class="cls-2" d="M63.08,81.9h.06l2.08-8.46h3.66v12H66V79.14H65.9l-1.82,6.28H62.14l-1.74-6h-.06v6H57.43v-12H61Z"/><path class="cls-2" d="M76.59,82.08a1.27,1.27,0,0,0-.36-.93,3.1,3.1,0,0,0-1.3-.64A6.3,6.3,0,0,1,72,79.26a3.17,3.17,0,0,1-.9-2.48,3.26,3.26,0,0,1,1.09-2.5,4.22,4.22,0,0,1,3-1,4.29,4.29,0,0,1,3,1A3.44,3.44,0,0,1,79.27,77l0,.06H76.43A1.92,1.92,0,0,0,76.15,76a1.12,1.12,0,0,0-1-.38,1.09,1.09,0,0,0-.89.33,1.31,1.31,0,0,0-.27.86,1.33,1.33,0,0,0,.34,1,3.26,3.26,0,0,0,1.44.64,6.13,6.13,0,0,1,2.78,1.25A3.11,3.11,0,0,1,79.49,82a3.21,3.21,0,0,1-1.17,2.58,4.67,4.67,0,0,1-3.11,1,4.87,4.87,0,0,1-3.32-1,3.38,3.38,0,0,1-1.12-2.8l0-.06h2.82A1.6,1.6,0,0,0,74,82.94a1.73,1.73,0,0,0,1.17.35A1.45,1.45,0,0,0,76.28,83,1.22,1.22,0,0,0,76.59,82.08Z"/><path class="cls-3" d="M36.57,84.55c.65,0,.95-.29.95-.91V50.43a1,1,0,0,0-.22-.68,1,1,0,0,0-.73-.23H3.44a1,1,0,0,0-.73.23,1,1,0,0,0-.22.68V83.64a1,1,0,0,0,.22.68,1,1,0,0,0,.73.23ZM35.09,62.81l-7.7,4.45,7.7,4.45L31.43,78l-7.7-4.45v8.89H16.39V73.6L8.69,78,5,71.7l7.7-4.45L5,62.81l3.67-6.35,7.7,4.45V52h7.33V60.9l7.7-4.45Zm-14.39,15h0a.86.86,0,0,1-.16.38c-.16.26-.32.52-.24.65s0,0,0,0,.16-.12.3-.35v0A.72.72,0,0,0,20.71,77.76Zm0,0h0Zm0,0h0Zm.11-7.19c0,.26,0,.91,0,1.27s-.32.73-.72,1.12l-.27.26a2.59,2.59,0,0,0-.89,2.42,2,2,0,0,0,.72.94,12.92,12.92,0,0,1,0-1.31c.09-.52.46-.89,1.2-1.62a2.24,2.24,0,0,0,.91-1.9A1.64,1.64,0,0,0,20.81,70.58Zm1.26-7.12a2.16,2.16,0,0,0-1-1c0,.34,0,1.41,0,1.41a2.1,2.1,0,0,1-.08.59,5.41,5.41,0,0,1-1.08,1.61A13.07,13.07,0,0,0,19,67.24a2.55,2.55,0,0,0-.17,2.63,1.32,1.32,0,0,0,.61.52c0-.27-.05-1-.05-1.12s0,0,0-.07a2.19,2.19,0,0,1,.28-1.3,7.48,7.48,0,0,1,1-1.06A6.35,6.35,0,0,0,22,65,1.9,1.9,0,0,0,22.08,63.46Zm-3-2.24a2.58,2.58,0,0,1-.81-1.46,1.71,1.71,0,0,1,.4-1.72c.12-.11.4-.09.81,0a2,2,0,0,0,.45,0c.21,0,.71-.39.71-.73a.54.54,0,0,0-.17-.39,1.22,1.22,0,0,0-.81-.3,1.06,1.06,0,0,0-.56.19,1.61,1.61,0,0,1-.43.19,2.13,2.13,0,0,0-1.39,1.37A4.33,4.33,0,0,0,18,62a4.54,4.54,0,0,0,1.16,1ZM20,72.86a2.39,2.39,0,0,0,.66-.87l.13-5.11-.07.07a7.39,7.39,0,0,0-.93,1,1.67,1.67,0,0,0-.25.75l.16,4.41,0,0Zm.84-8.43,0-.09.23-9a1,1,0,0,0-2,0l0,1.3a1.11,1.11,0,0,1,.58-.18,1.38,1.38,0,0,1,.91.35.68.68,0,0,1,.21.49c0,.44-.57.82-.82.87a1.93,1.93,0,0,1-.5,0l-.33,0,.3,8.27.33-.4A5.39,5.39,0,0,0,20.82,64.43Zm-.91,15a.27.27,0,1,0,.54,0v-.47a.23.23,0,0,1-.12,0,.19.19,0,0,1-.16-.11c-.12-.2.06-.49.24-.79l.07-.12.1-3.88a2.78,2.78,0,0,0-.83,1.2Z"/><path class="cls-3" d="M3.44,84.65a1.14,1.14,0,0,1-.8-.26h0a1.07,1.07,0,0,1-.25-.75h0V50.43a1.07,1.07,0,0,1,.25-.75h0a1.14,1.14,0,0,1,.8-.26H36.57a1.14,1.14,0,0,1,.8.26h0a1.06,1.06,0,0,1,.25.75h0V83.64a1,1,0,0,1-.26.76h0a1.1,1.1,0,0,1-.79.25h0v-.21c.62,0,.83-.22.85-.81h0V50.43a.87.87,0,0,0-.19-.61h0a1,1,0,0,0-.66-.2H3.44a1,1,0,0,0-.66.2h0a.87.87,0,0,0-.19.61h0V83.64a.87.87,0,0,0,.19.61h0a1,1,0,0,0,.66.2H36.57v.21Zm12.85-2.06V73.78L8.66,78.19,4.89,71.66l7.63-4.41L4.89,62.84l3.77-6.53,7.63,4.41V51.91h7.54v8.82l7.63-4.41,3.72,6.44-.09.05.09-.05.05.09L27.6,67.25l7.63,4.41-3.77,6.53-7.63-4.41v8.82Zm.21-.21h7.13v-9l7.76,4.48L35,71.73l-7.76-4.48L35,62.77l-3.56-6.17-7.76,4.48v-9H16.5v9L8.73,56.59,5.17,62.77l7.77,4.48L5.17,71.73l3.56,6.17,7.76-4.48v9Zm3.32-3-.1-2.64-.13-.1a2.12,2.12,0,0,1-.76-1h0a1.49,1.49,0,0,1-.07-.48h0a3,3,0,0,1,.84-1.89h0l-.1-2.77-.1,0a1.42,1.42,0,0,1-.66-.56h0a2.39,2.39,0,0,1-.3-1.2h0a2.84,2.84,0,0,1,.47-1.54h0c.13-.2.28-.41.45-.62h0l-.12-3.44-.12-.07a4.65,4.65,0,0,1-1.18-1h0A4.37,4.37,0,0,1,17,59.39h0a3.68,3.68,0,0,1,.15-1.06h0a2.22,2.22,0,0,1,1.46-1.43h0a1.33,1.33,0,0,0,.34-.14h0l-.05-1.41a1.12,1.12,0,0,1,1.12-1.12h0a1.12,1.12,0,0,1,1.12,1.12h0l-.18,7,.1,0a2.25,2.25,0,0,1,1.07,1h0l-.09,0-.09,0a2.05,2.05,0,0,0-.83-.87h0c0,.4,0,1.09,0,1.23h0v0h0a2.61,2.61,0,0,1-.09.58h0A5.44,5.44,0,0,1,20,66.14h0a13,13,0,0,0-.89,1.16h0a2.63,2.63,0,0,0-.44,1.43h0a2.19,2.19,0,0,0,.27,1.09h0a1.18,1.18,0,0,0,.41.4h0c0-.33,0-.84,0-1h0s0,0,0-.07h0c0-.05,0-.12,0-.19h0a2.11,2.11,0,0,1,.31-1.17h0a7.52,7.52,0,0,1,1-1.07h0A6.27,6.27,0,0,0,22,65h0a2.15,2.15,0,0,0,.18-.83h0A1.57,1.57,0,0,0,22,63.5h0l.09,0,.09,0a1.78,1.78,0,0,1,.17.76h0a2.36,2.36,0,0,1-.2.91h0a5.62,5.62,0,0,1-1.25,1.63h0l-.1,3.73.07,0a1.74,1.74,0,0,1,1,1.25h0a1.7,1.7,0,0,1,0,.24h0a2.54,2.54,0,0,1-1,1.74h0l-.19.19h0l-.09,3.62.1.1.1-.1v.15H21l-.1.1,0,0,0,0a.92.92,0,0,1,0,.27h0a.76.76,0,0,1-.13.42h0v0a2.48,2.48,0,0,1-.16.24h0l0,.64a.37.37,0,0,1-.37.37h0a.37.37,0,0,1-.37-.37Zm.21,0a.17.17,0,0,0,.17.17h0a.17.17,0,0,0,.17-.17h0v-.33h0a.29.29,0,0,1-.25-.16h0a.39.39,0,0,1-.05-.2h0a1.56,1.56,0,0,1,.3-.7h0l.06-.09h0l.09-3.58a2.28,2.28,0,0,0-.62,1h0L20,79.4h0Zm.62-1.2a2.21,2.21,0,0,0-.24.47h0a2.06,2.06,0,0,0,.16-.24h0l0,0a.56.56,0,0,0,.09-.26h0l0,.05ZM20.93,71c0,.29,0,.62,0,.84h0c0,.51-.36.8-.75,1.18h0l-.27.26A2.89,2.89,0,0,0,19,75.2h0a1.28,1.28,0,0,0,.06.41h0a1.77,1.77,0,0,0,.51.74h0c0-.26,0-.59,0-.83h0a1.82,1.82,0,0,1,0-.27h0c.1-.57.5-.94,1.22-1.68h0a2.35,2.35,0,0,0,.89-1.6h0a1.51,1.51,0,0,0,0-.21h0a1.47,1.47,0,0,0-.69-1h0c0,.07,0,.16,0,.25Zm-1.15,1.9.13-.13.07.07-.07-.07a2.35,2.35,0,0,0,.63-.81h0l.13-4.83a6.44,6.44,0,0,0-.81.91h0a1.57,1.57,0,0,0-.23.69h0l.15,4.17Zm1-2.28,0-.06,0,.06Zm-1.25-4.52.15-.19h0a5.39,5.39,0,0,0,1-1.51h0l0-.08h0l.23-9a.92.92,0,0,0-.91-.91h0a.92.92,0,0,0-.91.91h0l0,1.14a1.09,1.09,0,0,1,.48-.11h0a1.47,1.47,0,0,1,1,.38h0a.78.78,0,0,1,.24.56h0a1.23,1.23,0,0,1-.91,1h-.12a3.7,3.7,0,0,1-.41,0h0l-.21,0h0l.29,7.88ZM21,64,21,64h0L21,64Zm.11-.08h0Zm0,0h0v0Zm0-.06h0Zm-1.47-7.12a1,1,0,0,0-.51.18h0a1.71,1.71,0,0,1-.45.2h0a2,2,0,0,0-1.31,1.3h0a3.48,3.48,0,0,0-.14,1h0a4.18,4.18,0,0,0,.82,2.55h0a4.35,4.35,0,0,0,1,.84h0L19,61.27a2.7,2.7,0,0,1-.81-1.49h0a3.23,3.23,0,0,1-.06-.6h0a1.57,1.57,0,0,1,.5-1.21h0a.54.54,0,0,1,.38-.11h0a4.19,4.19,0,0,1,.51,0h0l.36,0h.05c.16,0,.65-.39.63-.63h0a.44.44,0,0,0-.14-.32h0a1.13,1.13,0,0,0-.73-.27h0Zm-.58,4.51h0l.06-.07-.06.07Zm-.33-3.1a1.36,1.36,0,0,0-.43,1.07h0a3,3,0,0,0,.06.56h0a2.48,2.48,0,0,0,.77,1.39h0L19,58.07H19a.35.35,0,0,0-.23.05Z"/><polygon class="cls-1" points="172.4 267.09 172.4 267.09 215.67 267.09 215.67 340.15 172.4 340.15 172.4 340.15 172.4 267.09"/><path class="cls-2" d="M52.83,317.07a1.94,1.94,0,0,0-.44-1.33,4.46,4.46,0,0,0-1.54-1A10.15,10.15,0,0,1,47.48,313a3.54,3.54,0,0,1-1.13-2.79,3.63,3.63,0,0,1,1.31-2.89A5,5,0,0,1,51,306.18a4.62,4.62,0,0,1,3.35,1.25,4.06,4.06,0,0,1,1.25,3.14l0,.06H52.85a2.49,2.49,0,0,0-.5-1.61,1.92,1.92,0,0,0-2.71-.1,1.82,1.82,0,0,0-.47,1.29,1.49,1.49,0,0,0,.53,1.17,7.42,7.42,0,0,0,1.83,1,7.69,7.69,0,0,1,3.09,1.76,4,4,0,0,1,1,2.88A3.65,3.65,0,0,1,54.4,320,5,5,0,0,1,51.08,321a5.56,5.56,0,0,1-3.58-1.21A4,4,0,0,1,46,316.38l0-.06H48.8a2.71,2.71,0,0,0,.57,1.92,2.27,2.27,0,0,0,1.71.59,1.7,1.7,0,0,0,1.32-.48A1.84,1.84,0,0,0,52.83,317.07Z"/><path class="cls-2" d="M65.1,314.5H60.25v4.09H66v2.25H57.42V306.39h8.51v2.25H60.25v3.6H65.1Z"/><path class="cls-2" d="M70.25,315.09v5.74H67.43V306.4h4.71a4.73,4.73,0,0,1,3.35,1.13,4.06,4.06,0,0,1,1.22,3.13,3.63,3.63,0,0,1-.51,1.95,3.55,3.55,0,0,1-1.48,1.3,2.77,2.77,0,0,1,1.6,1.25,4.41,4.41,0,0,1,.49,2.18v1a6.4,6.4,0,0,0,.14,1.27,1.74,1.74,0,0,0,.49,1v.21H74.53a1.63,1.63,0,0,1-.44-1,11.94,11.94,0,0,1-.09-1.46v-1a2.77,2.77,0,0,0-.44-1.68,1.48,1.48,0,0,0-1.26-.59Zm0-2.25h1.89a1.62,1.62,0,0,0,1.31-.53,2.25,2.25,0,0,0,.45-1.5,2.54,2.54,0,0,0-.45-1.58,1.53,1.53,0,0,0-1.3-.59h-1.9Z"/><path class="cls-2" d="M83.11,317.15l.11.55h.06l.11-.53,2.41-10.79h3l-4,14.45H81.79l-4-14.45h3Z"/><path class="cls-2" d="M92.92,320.84H90.11V306.39h2.81Z"/><path class="cls-2" d="M104.32,316.19l0,.06a5,5,0,0,1-1.13,3.59A4.47,4.47,0,0,1,99.83,321a4.77,4.77,0,0,1-3.58-1.37,5.34,5.34,0,0,1-1.34-3.89v-4.32a5.49,5.49,0,0,1,1.29-3.89,4.53,4.53,0,0,1,3.47-1.38,4.6,4.6,0,0,1,3.48,1.23,5.21,5.21,0,0,1,1.21,3.64l0,.06h-2.72a3.37,3.37,0,0,0-.39-2.05,1.78,1.78,0,0,0-1.56-.63,1.65,1.65,0,0,0-1.46.75,4,4,0,0,0-.51,2.25v4.34a3.89,3.89,0,0,0,.54,2.28,1.84,1.84,0,0,0,1.58.74,1.6,1.6,0,0,0,1.42-.59,3.52,3.52,0,0,0,.35-2Z"/><path class="cls-2" d="M113.74,314.5h-4.85v4.09h5.7v2.25h-8.53V306.4h8.51v2.25h-5.69v3.6h4.85Z"/><path class="cls-2" d="M59,281.36a5.73,5.73,0,0,1-.76,3,5.33,5.33,0,0,1-2.07,2,5.76,5.76,0,0,1,3.21,5.31,6.15,6.15,0,0,1-1.79,4.76A6.67,6.67,0,0,1,52.88,298a6.71,6.71,0,0,1-4.73-1.66,6.13,6.13,0,0,1-1.8-4.75,5.91,5.91,0,0,1,.86-3.17,5.69,5.69,0,0,1,2.37-2.13,5.25,5.25,0,0,1-2.08-2,5.78,5.78,0,0,1-.75-3,6.13,6.13,0,1,1,12.25,0Zm-4,10a4.18,4.18,0,0,0-.6-2.38,1.82,1.82,0,0,0-1.58-.88,1.8,1.8,0,0,0-1.57.88,5.18,5.18,0,0,0,0,4.77,1.87,1.87,0,0,0,3.16,0A4.21,4.21,0,0,0,55,291.31Zm-.41-9.75a4.4,4.4,0,0,0-.45-2.16,1.47,1.47,0,0,0-2.61,0,4.44,4.44,0,0,0-.44,2.18,4.55,4.55,0,0,0,.45,2.21,1.46,1.46,0,0,0,2.61,0A4.62,4.62,0,0,0,54.63,281.57Z"/><path class="cls-2" d="M73.44,289.37h1.93v3.47H73.44v4.88H69.11v-4.88H61.73l-.23-2.71,7.6-14.68h4.34Zm-8,0h3.67v-7.69H69l-.23.41Z"/><path class="cls-2" d="M90.64,278.94a21.8,21.8,0,0,0-4,7.44,50.41,50.41,0,0,0-1.43,9.2l-.2,2.14H80.65l.21-2.14a39.53,39.53,0,0,1,1.78-9.15,26.73,26.73,0,0,1,3.83-7.5H77.09v-3.47H90.64Z"/><circle class="cls-3" cx="19.89" cy="238.45" r="17.65"/><path class="cls-3" d="M14.18,216.88a.88.88,0,1,0,1.25,1.25,5.82,5.82,0,0,1,8.23,0,.89.89,0,0,0,1.25,0,.89.89,0,0,0,0-1.25,7.59,7.59,0,0,0-10.73,0Z"/><path class="cls-3" d="M11.4,214.48a.89.89,0,0,0,1.25,1.26,9.78,9.78,0,0,1,13.83,0,.89.89,0,0,0,1.25,0,.89.89,0,0,0,0-1.26,11.56,11.56,0,0,0-16.34,0Z"/><path class="cls-3" d="M6.79,210.84a1.39,1.39,0,1,0,2,2,15.29,15.29,0,0,1,21.63,0,1.39,1.39,0,0,0,2,0,1.4,1.4,0,0,0,0-2,18.07,18.07,0,0,0-25.54,0Z"/><circle class="cls-3" cx="19.89" cy="238.45" r="3.46"/><circle class="cls-5" cx="19.89" cy="238.45" r="3.89"/><circle class="cls-5" cx="19.89" cy="238.45" r="5.7"/><circle class="cls-5" cx="19.89" cy="238.45" r="7.97"/><circle class="cls-5" cx="19.89" cy="238.45" r="10.74"/><circle class="cls-5" cx="19.89" cy="238.45" r="13.41"/><rect class="cls-3" x="5.21" y="238.05" width="12.72" height="1.11"/><rect class="cls-3" x="22.2" y="238.1" width="11.1" height="0.97"/><rect class="cls-3" x="22.49" y="238.05" width="12.72" height="1.11"/><rect class="cls-3" x="19.97" y="231.64" width="12.72" height="1.11" transform="translate(-156.47 86.62) rotate(-45)"/><rect class="cls-3" x="13.64" y="228.88" width="12.72" height="1.11" transform="translate(-209.44 249.44) rotate(-90)"/><rect class="cls-3" x="7.23" y="231.41" width="12.72" height="1.11" transform="translate(-140.83 405.6) rotate(-135)"/><rect class="cls-3" x="7" y="244.15" width="12.72" height="1.11" transform="translate(195.84 408.3) rotate(135)"/><rect class="cls-3" x="13.32" y="246.9" width="12.72" height="1.11" transform="translate(267.14 227.78) rotate(90)"/><rect class="cls-3" x="19.74" y="244.38" width="12.72" height="1.11" transform="translate(180.84 53.28) rotate(45)"/><line class="cls-6" x1="171.11" y1="0.01" x2="169.56" y2="593.77"/><path class="cls-2" d="M48.71,170.26H46v-11h2.68Z"/><path class="cls-2" d="M59.27,170.26H56.59l-3.1-6.09-.06,0v6.07H50.75v-11h2.68l3.1,6.09.06,0v-6.07h2.69Z"/><path class="cls-2" d="M68.85,161.42H66.17v8.84H63.48v-8.84H60.85v-2.14h8Z"/><path class="cls-2" d="M76.47,165.64H72.92v2.48h4.24v2.14H70.24v-11h6.92v2.14H72.92v2.08h3.55Z"/><path class="cls-2" d="M87.67,170.26H85l-3.1-6.09-.06,0v6.07H79.15v-11h2.68l3.1,6.09.06,0v-6.07h2.69Z"/><path class="cls-2" d="M97.25,161.42H94.57v8.84H91.88v-8.84H89.24v-2.14h8Z"/><path class="cls-2" d="M110.56,166.5l0,.06a3.74,3.74,0,0,1-1,2.89,4,4,0,0,1-2.92,1,3.8,3.8,0,0,1-3-1.24,4.68,4.68,0,0,1-1.12-3.26v-2.29a4.67,4.67,0,0,1,1.12-3.25,3.8,3.8,0,0,1,3-1.25,4,4,0,0,1,2.93,1,3.71,3.71,0,0,1,1,2.87l0,.06H108a2.52,2.52,0,0,0-.27-1.36,1.31,1.31,0,0,0-2.07.24,3.51,3.51,0,0,0-.36,1.71v2.29a3.56,3.56,0,0,0,.36,1.72,1.14,1.14,0,0,0,1.06.65,1.11,1.11,0,0,0,1-.4,2.6,2.6,0,0,0,.27-1.38Z"/><path class="cls-2" d="M118.12,168.36H114.9l-.57,1.9H111.5l3.55-11H118l3.53,11H118.7Zm-2.6-2.14h2l-1-3.23h-.06Z"/><path class="cls-2" d="M125.24,168.12h3.67v2.14h-6.34v-11h2.68Z"/><path class="cls-2" d="M133,168.12h3.67v2.14h-6.34v-11H133Z"/><path class="cls-2" d="M143.06,167.2a1.16,1.16,0,0,0-.33-.85,2.84,2.84,0,0,0-1.2-.59,5.79,5.79,0,0,1-2.67-1.14,2.92,2.92,0,0,1-.82-2.27,3,3,0,0,1,1-2.29,3.86,3.86,0,0,1,2.72-.92,3.94,3.94,0,0,1,2.79.94,3.16,3.16,0,0,1,1,2.51l0,.06h-2.59a1.76,1.76,0,0,0-.25-1,1,1,0,0,0-.9-.35,1,1,0,0,0-.82.3,1.4,1.4,0,0,0,.07,1.67,3,3,0,0,0,1.32.59,5.62,5.62,0,0,1,2.55,1.15,2.86,2.86,0,0,1,.84,2.23,2.94,2.94,0,0,1-1.08,2.37,4.29,4.29,0,0,1-2.85.91,4.46,4.46,0,0,1-3-1,3.1,3.1,0,0,1-1-2.57l0-.06h2.59a1.47,1.47,0,0,0,.39,1.12,1.59,1.59,0,0,0,1.07.32,1.33,1.33,0,0,0,1-.3A1.11,1.11,0,0,0,143.06,167.2Z"/><path class="cls-2" d="M53,254.17H49.48l-.62,2.08H45.77l3.87-12h3.21l3.85,12H53.62Zm-2.83-2.33h2.15l-1-3.52H51.2Z"/><path class="cls-2" d="M60.75,253.91h4v2.33H57.83v-12h2.92Z"/><path class="cls-2" d="M72.56,254.17H69.05l-.62,2.08H65.34l3.87-12h3.21l3.85,12H73.19Zm-2.83-2.33h2.15l-1-3.52h-.06Z"/><path class="cls-2" d="M85.53,247.9a3.21,3.21,0,0,1-.46,1.74,3.34,3.34,0,0,1-1.34,1.19,2.51,2.51,0,0,1,1.49,1,3.36,3.36,0,0,1,.46,1.81v.8q0,.37.05.9a1.56,1.56,0,0,0,.2.73v.13h-3a1.87,1.87,0,0,1-.13-.72c0-.36,0-.71,0-1v-.78a1.88,1.88,0,0,0-.35-1.23,1.34,1.34,0,0,0-1-.45H80.18v4.23H77.26v-12h4a4.58,4.58,0,0,1,3.07,1A3.29,3.29,0,0,1,85.53,247.9Zm-5.35,1.78h1.13a1.17,1.17,0,0,0,.95-.42,1.71,1.71,0,0,0,.35-1.13,1.66,1.66,0,0,0-.35-1.08,1.15,1.15,0,0,0-.94-.44H80.18Z"/><path class="cls-2" d="M93.41,252.73h.06l2.09-8.45h3.66v12H96.29V250h-.06l-1.82,6.28H92.47l-1.74-6h-.06v6H87.76v-12h3.6Z"/><path class="cls-2" d="M106.92,252.91a1.26,1.26,0,0,0-.36-.93,3.1,3.1,0,0,0-1.3-.64,6.32,6.32,0,0,1-2.91-1.25,3.18,3.18,0,0,1-.9-2.48,3.26,3.26,0,0,1,1.09-2.5,4.21,4.21,0,0,1,3-1,4.29,4.29,0,0,1,3,1,3.44,3.44,0,0,1,1.05,2.73l0,.06h-2.83a1.92,1.92,0,0,0-.28-1.13,1.12,1.12,0,0,0-1-.38,1.09,1.09,0,0,0-.89.33,1.52,1.52,0,0,0,.07,1.82,3.25,3.25,0,0,0,1.44.64,6.13,6.13,0,0,1,2.78,1.25,3.11,3.11,0,0,1,.91,2.43,3.21,3.21,0,0,1-1.18,2.58,4.68,4.68,0,0,1-3.11,1,4.86,4.86,0,0,1-3.32-1,3.38,3.38,0,0,1-1.11-2.8l0-.06h2.83a1.61,1.61,0,0,0,.42,1.22,1.73,1.73,0,0,0,1.17.35,1.45,1.45,0,0,0,1.07-.33A1.21,1.21,0,0,0,106.92,252.91Z"/><path class="cls-2" d="M55.65,336.41l0,.06a5,5,0,0,1-1.13,3.59,4.47,4.47,0,0,1-3.39,1.21,4.77,4.77,0,0,1-3.58-1.37A5.35,5.35,0,0,1,46.23,336v-4.32a5.48,5.48,0,0,1,1.29-3.89A4.52,4.52,0,0,1,51,326.41a4.59,4.59,0,0,1,3.48,1.23,5.21,5.21,0,0,1,1.22,3.64l0,.06H52.94a3.38,3.38,0,0,0-.39-2.05,1.78,1.78,0,0,0-1.56-.63,1.65,1.65,0,0,0-1.46.75,4,4,0,0,0-.51,2.25V336a3.88,3.88,0,0,0,.54,2.27,1.83,1.83,0,0,0,1.58.74,1.6,1.6,0,0,0,1.42-.59,3.53,3.53,0,0,0,.35-2Z"/><path class="cls-2" d="M63.88,338H60.07l-.77,3.09H56.45l4.07-14.45h2.94l4.06,14.45H64.67Zm-3.23-2.25h2.66L62,330.62h-.06Z"/><path class="cls-2" d="M71.46,338.81h5.28v2.25H68.64V326.62h2.83Z"/><path class="cls-2" d="M81,338.81h5.28v2.25H78.15V326.62H81Z"/><path class="cls-2" d="M94.08,337.29a1.94,1.94,0,0,0-.44-1.33,4.46,4.46,0,0,0-1.54-1,10.15,10.15,0,0,1-3.38-1.78,3.54,3.54,0,0,1-1.13-2.79,3.62,3.62,0,0,1,1.31-2.89,5,5,0,0,1,3.34-1.12,4.63,4.63,0,0,1,3.35,1.25,4.06,4.06,0,0,1,1.25,3.14l0,.06H94.1a2.48,2.48,0,0,0-.5-1.61,1.92,1.92,0,0,0-2.71-.1,1.82,1.82,0,0,0-.47,1.28,1.49,1.49,0,0,0,.53,1.18,7.42,7.42,0,0,0,1.83,1,7.68,7.68,0,0,1,3.09,1.76,4,4,0,0,1,1,2.88,3.65,3.65,0,0,1-1.25,2.94,5,5,0,0,1-3.32,1.06,5.56,5.56,0,0,1-3.58-1.21,4,4,0,0,1-1.46-3.46l0-.06h2.75a2.71,2.71,0,0,0,.57,1.92,2.27,2.27,0,0,0,1.71.59,1.7,1.7,0,0,0,1.32-.48A1.85,1.85,0,0,0,94.08,337.29Z"/><path class="cls-2" d="M55.23,417.4l0,.06a4.78,4.78,0,0,1-1.09,3.46,4.3,4.3,0,0,1-3.27,1.17,4.6,4.6,0,0,1-3.45-1.32A5.15,5.15,0,0,1,46.16,417v-4.16a5.28,5.28,0,0,1,1.25-3.75,4.36,4.36,0,0,1,3.34-1.33A4.42,4.42,0,0,1,54.1,409a5,5,0,0,1,1.17,3.51l0,.06H52.62a3.25,3.25,0,0,0-.37-2,1.72,1.72,0,0,0-1.5-.6,1.59,1.59,0,0,0-1.4.72,3.9,3.9,0,0,0-.49,2.17V417a3.74,3.74,0,0,0,.52,2.19,1.76,1.76,0,0,0,1.52.72,1.54,1.54,0,0,0,1.37-.57,3.4,3.4,0,0,0,.34-1.95Z"/><path class="cls-2" d="M66.28,416.89A5.28,5.28,0,0,1,65,420.71a5.22,5.22,0,0,1-7.06,0,5.3,5.3,0,0,1-1.32-3.82V413a5.34,5.34,0,0,1,1.32-3.83,4.62,4.62,0,0,1,3.52-1.39,4.68,4.68,0,0,1,3.54,1.39A5.29,5.29,0,0,1,66.28,413ZM63.58,413A3.83,3.83,0,0,0,63,410.7a1.87,1.87,0,0,0-1.62-.76,1.84,1.84,0,0,0-1.61.76,3.92,3.92,0,0,0-.54,2.26v3.93a3.89,3.89,0,0,0,.54,2.27,2.08,2.08,0,0,0,3.21,0,3.84,3.84,0,0,0,.55-2.27Z"/><path class="cls-2" d="M77.79,421.89h-2.7L70.83,413l-.06,0v8.88H68V408h2.72L75,416.86l.06,0V408h2.7Z"/><path class="cls-2" d="M79.91,421.89V408h4.21a4.46,4.46,0,0,1,3.54,1.62,6.17,6.17,0,0,1,1.4,4.17v2.34a6.15,6.15,0,0,1-1.4,4.17,4.47,4.47,0,0,1-3.54,1.62Zm2.72-11.75v9.58H84a2,2,0,0,0,1.75-1,4.92,4.92,0,0,0,.62-2.63v-2.36a4.88,4.88,0,0,0-.62-2.61,2,2,0,0,0-1.75-1Z"/><path class="cls-2" d="M93.76,421.89h-2.7V408h2.7Z"/><path class="cls-2" d="M103.93,410.14h-3.13v11.75H98.08V410.14H95V408h9Z"/><path class="cls-2" d="M108.09,421.89h-2.7V408h2.7Z"/><path class="cls-2" d="M119.72,416.89a5.28,5.28,0,0,1-1.33,3.82,5.22,5.22,0,0,1-7.06,0,5.3,5.3,0,0,1-1.32-3.82V413a5.34,5.34,0,0,1,1.32-3.83,4.62,4.62,0,0,1,3.52-1.39,4.68,4.68,0,0,1,3.54,1.39,5.29,5.29,0,0,1,1.34,3.83ZM117,413a3.83,3.83,0,0,0-.55-2.26,1.87,1.87,0,0,0-1.62-.76,1.84,1.84,0,0,0-1.61.76,3.92,3.92,0,0,0-.54,2.26v3.93a3.89,3.89,0,0,0,.54,2.27,2.08,2.08,0,0,0,3.21,0,3.84,3.84,0,0,0,.55-2.27Z"/><path class="cls-2" d="M131.23,421.89h-2.7l-4.25-8.9-.06,0v8.88h-2.72V408h2.72l4.25,8.89.06,0V408h2.7Z"/><path class="cls-2" d="M139.53,418.25a1.86,1.86,0,0,0-.42-1.29,4.28,4.28,0,0,0-1.48-.93,9.78,9.78,0,0,1-3.25-1.72,3.4,3.4,0,0,1-1.08-2.69,3.49,3.49,0,0,1,1.26-2.79,4.79,4.79,0,0,1,3.22-1.08A4.46,4.46,0,0,1,141,409a3.91,3.91,0,0,1,1.2,3l0,.06h-2.64a2.39,2.39,0,0,0-.48-1.55,1.85,1.85,0,0,0-2.61-.1,1.75,1.75,0,0,0-.45,1.24,1.44,1.44,0,0,0,.51,1.13,7.16,7.16,0,0,0,1.76,1,7.41,7.41,0,0,1,3,1.7,3.81,3.81,0,0,1,1,2.78,3.51,3.51,0,0,1-1.2,2.83,4.78,4.78,0,0,1-3.2,1,5.36,5.36,0,0,1-3.45-1.16,3.89,3.89,0,0,1-1.41-3.33l0-.06h2.65a2.61,2.61,0,0,0,.54,1.85,2.19,2.19,0,0,0,1.64.56,1.64,1.64,0,0,0,1.28-.46A1.78,1.78,0,0,0,139.53,418.25Z"/><path class="cls-2" d="M53.79,500.93H49.69v4.74H46.77v-12h7.78V496H49.69v2.57h4.11Z"/><path class="cls-2" d="M59.3,505.66H56.38v-12H59.3Z"/><path class="cls-2" d="M69.8,497.32a3.21,3.21,0,0,1-.46,1.74A3.34,3.34,0,0,1,68,500.25a2.51,2.51,0,0,1,1.49,1A3.36,3.36,0,0,1,70,503.1v.8q0,.37.05.9a1.57,1.57,0,0,0,.19.73v.13h-3a1.87,1.87,0,0,1-.13-.72c0-.36,0-.71,0-1v-.78a1.88,1.88,0,0,0-.35-1.23,1.34,1.34,0,0,0-1-.45H64.45v4.23H61.53v-12h4a4.58,4.58,0,0,1,3.07,1A3.29,3.29,0,0,1,69.8,497.32Zm-5.35,1.78h1.13a1.17,1.17,0,0,0,.95-.42,1.71,1.71,0,0,0,.35-1.13,1.66,1.66,0,0,0-.35-1.08,1.15,1.15,0,0,0-.94-.44H64.45Z"/><path class="cls-2" d="M78.82,500.63H74.95v2.7h4.62v2.33H72v-12h7.54V496H74.95v2.27h3.87Z"/><path class="cls-2" d="M87.07,502.33a1.27,1.27,0,0,0-.36-.93,3.1,3.1,0,0,0-1.3-.64,6.32,6.32,0,0,1-2.91-1.25,3.18,3.18,0,0,1-.9-2.48,3.26,3.26,0,0,1,1.09-2.5,4.21,4.21,0,0,1,3-1,4.29,4.29,0,0,1,3,1,3.44,3.44,0,0,1,1.05,2.73l0,.06H86.9a1.92,1.92,0,0,0-.28-1.13,1.12,1.12,0,0,0-1-.38,1.09,1.09,0,0,0-.89.33,1.52,1.52,0,0,0,.07,1.82,3.24,3.24,0,0,0,1.44.64A6.13,6.13,0,0,1,89,499.87,3.12,3.12,0,0,1,90,502.3a3.21,3.21,0,0,1-1.18,2.58,4.68,4.68,0,0,1-3.11,1,4.86,4.86,0,0,1-3.32-1,3.38,3.38,0,0,1-1.11-2.8l0-.06h2.83a1.61,1.61,0,0,0,.42,1.22,1.74,1.74,0,0,0,1.17.35,1.45,1.45,0,0,0,1.07-.33A1.21,1.21,0,0,0,87.07,502.33Z"/><path class="cls-7" d="M28.11,134.34c2.75-2.3,6.37-3,9.47-.74,3.71,2.75,3.46,7.47,1.14,11L37.85,146a18.95,18.95,0,1,1-9.74-11.65ZM20,151.14c-.2.21-.58.61-.9.4l-8.56-5.73a1.43,1.43,0,0,0-1.74-.12c-.89.74,0,2,.46,2.71L18,160.29a2.33,2.33,0,0,0,1.66,1.08c1.09.08,1.89-.87,2.43-1.69l11.8-18.19c.53-.82,1.31-2.45.28-3.21s-2.09.28-2.71.94L20,151.14Zm-.33-14.91a15.06,15.06,0,1,0,13.91,9.25l1.91-2.94c1.14-1.76,1.81-4.34-.2-5.82s-3.9-.28-5.27,1.16l-1.31,1.37A15,15,0,0,0,19.65,136.23Z"/><path class="cls-7" d="M24.68,337.92a2.66,2.66,0,0,1-2.39,2.24H17.5a2.65,2.65,0,0,1-2.43-2.66v-2.06a2.65,2.65,0,0,1,2.43-2.66h4.79a2.68,2.68,0,0,1,2.06,1.38A20,20,0,0,0,30,331.58v-8a2.61,2.61,0,0,1,.86-1.93H36.9c1.44.79,2.74,2.2,2.74,3.77v4.89c0,2.79-2.78,5.18-5.54,5.57a10,10,0,0,1-1.63.06,5.82,5.82,0,0,0-3,.22,22.83,22.83,0,0,1-4.79,1.77Zm5.81-18.08c-1.25-4.95-4.9-8.09-10.53-8.09s-9.28,3.14-10.53,8.09H4.21a16.81,16.81,0,0,1,4.15-8.5A15.48,15.48,0,0,1,20,306.62a15.48,15.48,0,0,1,11.61,4.71,16.81,16.81,0,0,1,4.15,8.5Zm-21.1,1.8a2.61,2.61,0,0,1,.86,1.93v9.74a2.61,2.61,0,0,1-2.61,2.61H6.91c-3.1,0-6.33-2.53-6.33-5.62v-4.89c0-1.56,1.36-3,2.77-3.77Z"/><path class="cls-3" d="M31.19,552.06v-4l-8.58,1.55a2.51,2.51,0,0,0-2.16-1.24h-.84a2.5,2.5,0,0,0-1.77.73,2.45,2.45,0,1,0-4.08,2A18.45,18.45,0,0,0,9,553.49l1,1a22.64,22.64,0,0,1,7.11-1.85v1.2c-4.11.33-7.11,1.33-7.11,2.51v38.29H30.08V556.33c0-1.18-3-2.18-7.11-2.51v-1.76Zm-17.46-2.83a1.68,1.68,0,1,1,3.17.78c-.82.23-1.57.48-2.25.72A1.68,1.68,0,0,1,13.73,549.24Zm13.56,35.53h-10V563.95h10Z"/></g></g></svg>