<svg xmlns="http://www.w3.org/2000/svg" viewBox="0 0 223.19 100.34"><defs><style>.cls-1{fill:#6cafe0;}.cls-2{fill:#152d53;}.cls-3{fill:#ab1e41;}</style></defs><title>Asset 11</title><g id="Layer_2" data-name="Layer 2"><g id="by_the_numbers" data-name="by the numbers"><path class="cls-1" d="M64.72,26.4q-1.31,0-2.57.05t-2.27.12l-2.25.17.3-3.09a2.54,2.54,0,0,0,1.73-.82,3.74,3.74,0,0,0,.45-2.13V9.33A2.68,2.68,0,0,0,59.88,8a1.09,1.09,0,0,0-.94-.34l-.3,0-.27,0h-.3l-.3-.47L58,4.66h5.41l1.75,0,2.32-.05,2.89-.1L70,7.79q-.87.1-1.43.22a3.31,3.31,0,0,0-.89.3,1,1,0,0,0-.47.49,2.23,2.23,0,0,0-.17.74q-.07,1.14-.13,2.37t-.12,2.64q-.05,1.41-.07,3t0,3.53A1.69,1.69,0,0,0,67,22.2a1.23,1.23,0,0,0,1,.34,4.3,4.3,0,0,0,1.5-.22,1.91,1.91,0,0,0,1-.82A4.59,4.59,0,0,0,71,19.82q.17-1.08.27-2.76l4.24-.44.4.5q-.17,1.28-.3,2.72-.13,1.24-.27,2.87t-.24,3.38l-.5.54-3.12-.1q-1.41-.07-3.18-.1T64.72,26.4Z"/><path class="cls-1" d="M96.58,21.26a4.21,4.21,0,0,0,.76,1.66,1.76,1.76,0,0,0,1.23.59l.23.34-.27,2.65q-.84,0-1.68,0l-1.55,0-1.51,0q-1.21,0-2.35,0l-2,.07-2,.07-.27-.3.2-2.82,1.21-.17a2.28,2.28,0,0,0,.64-.17.45.45,0,0,0,.25-.29,2.08,2.08,0,0,0,.05-.52,2.5,2.5,0,0,0,0-.25c0-.1,0-.22-.05-.35l-.2-1.31-1.39,0-1.19,0q-.57,0-1.29.05l-1.39.12L83.57,22a5.91,5.91,0,0,0-.1.76c0,.3.06.49.19.57a1.87,1.87,0,0,0,.86.12h.87l.27.33-.27,2.73q-.91,0-1.81,0l-1.68,0-1.68,0-1.58,0-1.44,0H75.74L76,23.61a2.49,2.49,0,0,0,1.71-1.85L83,4.83l8.84-.54.5.4q.91,3.66,1.75,6.92.34,1.38.71,2.81t.69,2.72l.59,2.37Q96.38,20.59,96.58,21.26ZM85,16.29H86.7l.82,0,.92-.05L87.3,10.34h-.74Z"/><path class="cls-1" d="M108.2,18.74V21a9.07,9.07,0,0,0,.07,1.24,1.23,1.23,0,0,0,.32.72,1.31,1.31,0,0,0,.72.34,10.08,10.08,0,0,0,1.28.12l.17.27-.34,2.82-2.22-.07-1.83-.05-1.46,0q-.94,0-1.95.05l-1.88.12-2,.13.3-3.09a2.58,2.58,0,0,0,1.71-.83,3.43,3.43,0,0,0,.47-2V9.07a2.55,2.55,0,0,0-.18-1.16.73.73,0,0,0-.69-.32l-.4,0-.37,0a2.44,2.44,0,0,1-.4,0l-.34-.4.37-2.62q1,0,1.88,0h2.89l1.65,0q1,0,2-.08l2.52-.1q9.27,0,9.27,6.32,0,4-4,6.35l2.08,3.51q1.75,3,3.26,3l.37.53-.3,2.43-5.21.37a3.58,3.58,0,0,1-2.28-.69,5.62,5.62,0,0,1-1.55-2.37l-2.08-5.14Zm2.65-3.9a3.22,3.22,0,0,0,1.6-1.2,4.19,4.19,0,0,0,.45-2.17A2.44,2.44,0,0,0,112,9.36a4.93,4.93,0,0,0-2.89-.67q-.37,0-.45.13a1.56,1.56,0,0,0-.12.6q-.1,1.27-.15,2.54t-.08,2.54Z"/><path class="cls-1" d="M142.21,16.27a4.62,4.62,0,0,0-.92.69,2.26,2.26,0,0,0-.54,1,7.14,7.14,0,0,0-.24,1.63q0,1-.05,2.66,0,1,.05,1.7a7.2,7.2,0,0,0,.19,1.19l-.4.54a11.51,11.51,0,0,1-2,.57q-1,.2-2.54.37a33.14,33.14,0,0,1-3.58.17,11.82,11.82,0,0,1-4.32-.74,8.87,8.87,0,0,1-3.23-2.12,9,9,0,0,1-2-3.39,14.08,14.08,0,0,1-.69-4.57q0-5.75,3.09-8.72t9-3a22,22,0,0,1,2.4.13q1.23.13,2.2.3,1.14.2,2.22.44l.37.67a16.67,16.67,0,0,0-.4,1.92q-.17.91-.32,2.15t-.22,2.72l-5.17.3a4.72,4.72,0,0,1,0-.5q0-.27,0-.6c0-.22,0-.47,0-.74a2.64,2.64,0,0,0-.4-1.7,2.07,2.07,0,0,0-1.57-.45,4.51,4.51,0,0,0-1.72.29,2.32,2.32,0,0,0-1.1,1,5.1,5.1,0,0,0-.6,1.81,17.55,17.55,0,0,0-.18,2.77,13.89,13.89,0,0,0,.82,5.56A2.75,2.75,0,0,0,133.08,22a3.54,3.54,0,0,0,.77-.07l.53-.13.43-.2V19.49a2,2,0,0,0-.22-1.1,1,1,0,0,0-.84-.29l-.4,0-.36,0h-.33l-.3-.47.4-3.16h5.12l1.42,0,1.29-.05,1.27-.1Z"/><path class="cls-1" d="M152.42,20.52a8.47,8.47,0,0,0,.05,1.06,1.23,1.23,0,0,0,.22.61.81.81,0,0,0,.49.29,4.43,4.43,0,0,0,.87.07,9.7,9.7,0,0,0,1.79-.13,2.26,2.26,0,0,0,1.12-.52,2.42,2.42,0,0,0,.65-1.08A12,12,0,0,0,158,19l4.24-.3.4.5q-.17,1-.34,2.08T162,23.48q-.15,1.24-.29,2.62l-.5.54-3.43-.1q-1.55-.07-3.48-.1t-3.88,0q-1.31,0-2.57.05t-2.27.12l-2.25.17.3-3.09a2.54,2.54,0,0,0,1.73-.82,3.74,3.74,0,0,0,.45-2.13l0-11.26A4.06,4.06,0,0,0,145.67,8a.73.73,0,0,0-.74-.37l-.3,0-.27,0a1.25,1.25,0,0,1-.3,0l-.4-.47.3-2.65,2.76.07q1.18,0,2.54,0h2.54q1.58,0,3.13,0l2.92-.08q1.38-.05,2.5-.12t1.83-.17l.44.54q-.2,1-.34,2.15T162,9.11q-.12,1.19-.18,2.37l-4.64.3a3.26,3.26,0,0,1,0-.47c0-.13,0-.27,0-.4s0-.26,0-.37a2.64,2.64,0,0,0-.13-.92,1.06,1.06,0,0,0-.49-.55,2.79,2.79,0,0,0-1-.29A13.57,13.57,0,0,0,154,8.69a1.69,1.69,0,0,0-.92.17.92.92,0,0,0-.22.74l-.2,3.8,1.26,0,1.5,0,1,0q.62,0,1.23-.08l1.48-.1.4.47L159,17.57q-.74,0-1.44,0l-1.31-.05-1.28,0a13.65,13.65,0,0,0-1.39.07l-1.13.13q0,.87,0,1.58Z"/><path class="cls-1" d="M75.38,57.36A3.69,3.69,0,0,0,76,58.83a1.54,1.54,0,0,0,1.08.52l.21.3L77.1,62l-1.48,0-1.36,0H72.93q-1.06,0-2.07,0l-1.8.06-1.77.06L67,61.8l.18-2.48,1.06-.15a2,2,0,0,0,.56-.15.4.4,0,0,0,.22-.25,1.81,1.81,0,0,0,0-.46c0-.06,0-.13,0-.22s0-.19,0-.31l-.18-1.15-1.23,0h-1q-.5,0-1.14,0l-1.23.11L63.94,58a5.24,5.24,0,0,0-.09.67q0,.39.16.5a1.64,1.64,0,0,0,.75.11h.77l.24.29L65.53,62l-1.6,0-1.48,0H59.59l-1.27,0H57l.21-2.51a2.19,2.19,0,0,0,1.51-1.63l4.7-14.9,7.78-.47.44.35q.8,3.22,1.54,6.09.3,1.21.62,2.47t.61,2.4L75,55.83Q75.2,56.77,75.38,57.36ZM65.18,53h2.23l.81,0-1-5.17h-.65Z"/><path class="cls-1" d="M92,52l-.12-5.41a2.11,2.11,0,0,0-.25-1,.87.87,0,0,0-.72-.25H90L89.87,45,90,42.64l1.83.06,1.61,0h2.81l1.33,0,1.43,0-.15,2.66a2.25,2.25,0,0,0-1.32.55,2,2,0,0,0-.4,1.32l-.38,14.7-5.56.35Q90,60.17,88.88,58.43t-1.94-3.08q-1-1.51-1.77-2.78h-.38l.09,5.22A2.21,2.21,0,0,0,85.14,59a1,1,0,0,0,.89.32h.31l.31,0,.38-.06.27.27L87,62l-1.82-.06-1.52,0H82.39l-1.58,0q-.8,0-1.49.09l-1.52.12.3-2.72a2,2,0,0,0,1.26-.55,2,2,0,0,0,.43-1.32l.35-10.32a3.23,3.23,0,0,0-.09-.83,1.06,1.06,0,0,0-.33-.53,1.56,1.56,0,0,0-.67-.31,11,11,0,0,0-1.14-.19l-.35-.4.18-2.35q.65.06,1.39.09l1.39,0h2.85l1.23,0,1.3-.06q1,1.8,2,3.49t1.83,3L91.59,52Z"/><path class="cls-1" d="M107.76,46.8q-.15,2.09-.22,4.82t-.07,5.62a4.82,4.82,0,0,0,.18,1.64.75.75,0,0,0,.77.4h.41a1.26,1.26,0,0,0,.3,0l.24-.06.24.3L109.33,62l-2-.06-1.64,0h-1.29l-1.55,0-1.61.06L99.48,62l.24-2.54a4.36,4.36,0,0,0,1-.29,1.56,1.56,0,0,0,.59-.44,1.51,1.51,0,0,0,.28-.66,5.79,5.79,0,0,0,.07-1V46.86a2.35,2.35,0,0,0-.21-1.21,1,1,0,0,0-.83-.3l-.27,0h-.5L99.57,45l.24-2.22h6.08l1.7,0,2.07-.09-.21,2.66c-.34.06-.61.12-.83.18a1.2,1.2,0,0,0-.5.25.89.89,0,0,0-.25.43A3.52,3.52,0,0,0,107.76,46.8Z"/><path class="cls-1" d="M119.94,62.24l-1.21-4.38q-.56-2-1-3.52l-1-3.19h-.38q-.06,1.83-.09,3.31,0,.65,0,1.27t0,1.15q0,.53,0,.9v.49a.88.88,0,0,0,1,1h.19l.28,0,.3,0,.27.24L117.87,62l-1.74-.06-1.42,0h-1.06l-1,0-1.14.07-1.29.13.24-2.66a1.89,1.89,0,0,0,1.23-.52,2.29,2.29,0,0,0,.46-1.44q.27-2.84.5-5.13.09-1,.19-1.94t.18-1.75q.07-.79.12-1.32t0-.68a3.46,3.46,0,0,0,0-.64.56.56,0,0,0-.22-.35,1.26,1.26,0,0,0-.55-.19l-1-.15-.24-.23.3-2.52,1.72.09,1.42,0h2.6l1.51,0,1.66-.06q.33,1.68.71,3.34t.71,3q.38,1.6.77,3h.38l.86-3q.38-1.33.8-3l.83-3.27,2.74,0q1.34,0,2.74-.06l1,0,.9,0,.86-.06.21.12-.24,2.63a3.2,3.2,0,0,0-1.58.34,1.42,1.42,0,0,0-.37,1.17q0,.68.06,1.92t.15,2.66q.09,1.42.21,2.84t.24,2.45a6.08,6.08,0,0,0,.4,2,1,1,0,0,0,1,.56h.33l.3,0,.27,0,.21.23L134.43,62l-1.09,0q-.5,0-1.08,0t-1.08,0h-1.06l-1.83.06-1.8.09q-.83,0-1,.07l.35-2.66A2,2,0,0,0,127,59a1.39,1.39,0,0,0,.34-1v-.67c0-.29,0-.61,0-1s0-.73,0-1.11,0-.78,0-1.17q0-1.37-.06-2.94h-.38q-.5,1.48-1,3.22-.47,1.51-1,3.44t-1.15,4.13Z"/><path class="cls-1" d="M152.83,57.36a3.69,3.69,0,0,0,.67,1.46,1.54,1.54,0,0,0,1.08.52l.21.3L154.54,62l-1.48,0-1.36,0h-1.33q-1.06,0-2.07,0l-1.8.06-1.77.06-.24-.27.18-2.48,1.06-.15a2,2,0,0,0,.56-.15.4.4,0,0,0,.22-.25,1.81,1.81,0,0,0,0-.46c0-.06,0-.13,0-.22s0-.19,0-.31l-.18-1.15-1.23,0h-1q-.5,0-1.14,0l-1.23.11-.3,1.33a5.24,5.24,0,0,0-.09.67q0,.39.16.5a1.64,1.64,0,0,0,.75.11H143l.24.29L143,62l-1.6,0-1.48,0H137l-1.27,0h-1.27l.21-2.51a2.19,2.19,0,0,0,1.51-1.63l4.7-14.9,7.78-.47.44.35q.8,3.22,1.54,6.09.3,1.21.62,2.47t.61,2.4l.52,2.08Q152.65,56.77,152.83,57.36ZM142.62,53h2.23l.81,0-1-5.17H144Z"/><path class="cls-1" d="M161.25,61.89q-1.15,0-2.26,0l-2,.1-2,.15.27-2.72a2.24,2.24,0,0,0,1.52-.72,3.3,3.3,0,0,0,.4-1.88v-10a2.36,2.36,0,0,0-.21-1.21,1,1,0,0,0-.83-.3l-.27,0h-.5l-.27-.41.24-2.22h6.3l2,0,2.54-.09-.33,2.9q-.77.09-1.26.19a2.91,2.91,0,0,0-.78.27.91.91,0,0,0-.41.43,2,2,0,0,0-.15.65q-.06,1-.12,2.08t-.1,2.32q0,1.24-.06,2.66t0,3.11a1.49,1.49,0,0,0,.25,1,1.08,1.08,0,0,0,.86.3,3.81,3.81,0,0,0,1.32-.19,1.69,1.69,0,0,0,.84-.72,4,4,0,0,0,.48-1.48q.15-.95.24-2.42l3.73-.38.35.44q-.15,1.12-.27,2.39-.12,1.09-.24,2.53t-.21,3l-.44.47L167.2,62q-1.24-.06-2.79-.09Z"/><path class="cls-1" d="M64.66,87.37v1.78a7.11,7.11,0,0,0,.05,1,1,1,0,0,0,.25.56,1,1,0,0,0,.56.26,7.58,7.58,0,0,0,1,.09l.13.21-.26,2.2-1.73-.05-1.43,0H62.1q-.73,0-1.52,0l-1.47.09-1.55.11.24-2.41a2,2,0,0,0,1.34-.64,2.68,2.68,0,0,0,.37-1.59V79.82a2,2,0,0,0-.14-.91.57.57,0,0,0-.54-.25h-.6l-.31,0-.26-.31.29-2,1.47,0h3.54q.81,0,1.6-.07l2-.08q7.23,0,7.23,4.93a5.59,5.59,0,0,1-3.15,5l1.63,2.74q1.36,2.32,2.54,2.32l.29.42-.24,1.89-4.06.29A2.79,2.79,0,0,1,69,93.22a4.38,4.38,0,0,1-1.21-1.85l-1.62-4Zm2.07-3A2.52,2.52,0,0,0,68,83.39a3.27,3.27,0,0,0,.35-1.7A1.9,1.9,0,0,0,67.63,80a3.84,3.84,0,0,0-2.25-.52c-.19,0-.31,0-.35.1a1.2,1.2,0,0,0-.09.47q-.08,1-.12,2t-.07,2Z"/><path class="cls-1" d="M82.41,88.75a6.71,6.71,0,0,0,0,.83,1,1,0,0,0,.17.47.63.63,0,0,0,.38.22,3.46,3.46,0,0,0,.68.05,7.56,7.56,0,0,0,1.39-.1,1.76,1.76,0,0,0,.88-.41,1.87,1.87,0,0,0,.5-.84,9.34,9.34,0,0,0,.31-1.43l3.31-.24.31.39q-.13.76-.26,1.63t-.25,1.73q-.12,1-.22,2l-.39.42-2.67-.08q-1.21-.05-2.71-.08l-3,0q-1,0-2,0l-1.77.09-1.76.13.24-2.41a2,2,0,0,0,1.35-.64,2.92,2.92,0,0,0,.35-1.67l0-8.78A3.17,3.17,0,0,0,77.14,79a.57.57,0,0,0-.58-.29h-.45l-.24,0-.31-.37.24-2.07,2.15.05,2,0h2l2.44,0,2.28-.07,2-.09q.88-.05,1.43-.13l.34.42q-.16.81-.26,1.68t-.2,1.69q-.09.93-.14,1.85l-3.62.24a2.59,2.59,0,0,1,0-.37c0-.1,0-.21,0-.31s0-.2,0-.29a2.08,2.08,0,0,0-.1-.72.83.83,0,0,0-.38-.43,2.18,2.18,0,0,0-.79-.22,10.49,10.49,0,0,0-1.3-.07,1.32,1.32,0,0,0-.72.13.72.72,0,0,0-.17.58l-.16,3h2.92q.48,0,1-.07l1.15-.08.31.37-.37,3-1.13,0-1,0h-1q-.58,0-1.09.05l-.88.11q0,.68,0,1.23Z"/><path class="cls-1" d="M96.59,93.66a11.81,11.81,0,0,1-2.11-.17,14.25,14.25,0,0,1-1.61-.38,10.18,10.18,0,0,1-1.44-.58l-.31-.47q.13-.76.24-1.52t.18-1.4q.08-.75.13-1.4L95,87.5a2.93,2.93,0,0,0,.59,2,2.24,2.24,0,0,0,1.72.63,2.38,2.38,0,0,0,1.27-.29.89.89,0,0,0,.46-.79,1.09,1.09,0,0,0-.31-.76,3.23,3.23,0,0,0-.85-.63,12.86,12.86,0,0,0-1.21-.56l-1.38-.59a14.47,14.47,0,0,1-1.47-.76,6.46,6.46,0,0,1-1.28-1,4.42,4.42,0,0,1-.92-1.34,4.33,4.33,0,0,1-.34-1.78,4.64,4.64,0,0,1,.58-2.29,5.26,5.26,0,0,1,1.64-1.77A8.31,8.31,0,0,1,96,76.47a12.58,12.58,0,0,1,3.3-.41,15.5,15.5,0,0,1,2,.12q.9.12,1.59.25a11.8,11.8,0,0,1,1.42.37l.31.58c-.1.44-.2.9-.29,1.39s-.17.9-.24,1.46-.13,1.12-.18,1.72l-3,.21-.31-.21v-.42q0-1.83-1.91-1.83a2,2,0,0,0-1.19.33,1,1,0,0,0-.46.85,1,1,0,0,0,.28.71,3.05,3.05,0,0,0,.73.59,8.35,8.35,0,0,0,1,.52l1.25.51q.79.34,1.59.75a6.68,6.68,0,0,1,1.44,1,4.73,4.73,0,0,1,1,1.36,4.07,4.07,0,0,1,.41,1.89,4.62,4.62,0,0,1-.56,2.29,5,5,0,0,1-1.62,1.72A8.21,8.21,0,0,1,100,93.28,14.22,14.22,0,0,1,96.59,93.66Z"/><path class="cls-1" d="M113.34,93.63a8.67,8.67,0,0,1-3.26-.58,6.65,6.65,0,0,1-2.42-1.65,7.16,7.16,0,0,1-1.52-2.65,11.22,11.22,0,0,1-.52-3.56q0-4.43,2.36-6.78t6.84-2.35a16.67,16.67,0,0,1,1.8.1q1,.11,1.8.24t1.91.34l.21.52q-.16.73-.29,1.6T120,80.66q-.13,1-.18,2.23l-4,.24a4,4,0,0,1,0-.45q0-.21,0-.47t0-.58a2.2,2.2,0,0,0-.4-1.51,1.85,1.85,0,0,0-1.39-.43,2.66,2.66,0,0,0-1.15.22,1.61,1.61,0,0,0-.74.76,4.45,4.45,0,0,0-.39,1.42,16.74,16.74,0,0,0-.12,2.16,11.49,11.49,0,0,0,.6,4.31,2,2,0,0,0,1.93,1.38,1.65,1.65,0,0,0,1.46-.68,5.06,5.06,0,0,0,.6-2.36l4-.26q-.08.92-.16,1.86t-.1,1.79q-.05,1-.05,1.93l-.34.42a15.41,15.41,0,0,1-1.83.5,17.06,17.06,0,0,1-2,.35A19.21,19.21,0,0,1,113.34,93.63Z"/><path class="cls-1" d="M127.73,87.59a3.49,3.49,0,0,0,.51,2,1.72,1.72,0,0,0,1.52.75,1.78,1.78,0,0,0,1.45-.54,2.77,2.77,0,0,0,.45-1.77v-.81c0-.33,0-.7,0-1.1s0-.83,0-1.29V80.11a2.94,2.94,0,0,0-.14-1.12.54.54,0,0,0-.54-.3h-.39l-.21,0-.08-.11.29-2.33,1.21.05,1,0H135l1.22,0,1.28-.05-.21,2.36a5.32,5.32,0,0,0-.67.25,1.54,1.54,0,0,0-.38.24.53.53,0,0,0-.17.27,1.65,1.65,0,0,0,0,.39v7.39A6.25,6.25,0,0,1,134.25,92,7.47,7.47,0,0,1,129,93.66q-3.38,0-4.91-1.31a5.27,5.27,0,0,1-1.53-4.22v-8a2.9,2.9,0,0,0-.14-1.14.6.6,0,0,0-.59-.28h-.47l-.29,0-.05-.11.26-2.33,1.54.05,1.49,0h2.56l1.18,0,1.36-.05-.26,2.44a1.37,1.37,0,0,0-1,.37,1.46,1.46,0,0,0-.3.92Z"/><path class="cls-1" d="M144.89,88.75a6.71,6.71,0,0,0,0,.83,1,1,0,0,0,.17.47.63.63,0,0,0,.38.22,3.46,3.46,0,0,0,.68.05,7.56,7.56,0,0,0,1.39-.1,1.76,1.76,0,0,0,.88-.41,1.87,1.87,0,0,0,.5-.84,9.34,9.34,0,0,0,.31-1.43l3.31-.24.31.39q-.13.76-.26,1.63t-.25,1.73q-.12,1-.22,2l-.39.42-2.67-.08q-1.21-.05-2.71-.08l-3,0q-1,0-2,0l-1.77.09-1.76.13.24-2.41a2,2,0,0,0,1.35-.64,2.92,2.92,0,0,0,.35-1.67l0-8.78a3.17,3.17,0,0,0-.13-1.13.57.57,0,0,0-.58-.29h-.45l-.24,0-.31-.37.24-2.07,2.15.05,2,0h2l2.44,0,2.28-.07,2-.09q.88-.05,1.43-.13l.34.42q-.16.81-.26,1.68t-.2,1.69q-.09.93-.14,1.85l-3.62.24a2.59,2.59,0,0,1,0-.37c0-.1,0-.21,0-.31s0-.2,0-.29a2.08,2.08,0,0,0-.1-.72.83.83,0,0,0-.38-.43,2.18,2.18,0,0,0-.79-.22,10.49,10.49,0,0,0-1.3-.07,1.32,1.32,0,0,0-.72.13.72.72,0,0,0-.17.58l-.16,3H148q.48,0,1-.07l1.15-.08.31.37-.37,3-1.13,0-1,0h-1q-.58,0-1.09.05l-.88.11q0,.68,0,1.23Z"/><path class="cls-1" d="M159.07,93.66a11.81,11.81,0,0,1-2.11-.17,14.25,14.25,0,0,1-1.61-.38,10.18,10.18,0,0,1-1.44-.58l-.31-.47q.13-.76.24-1.52t.18-1.4q.08-.75.13-1.4l3.3-.24a2.93,2.93,0,0,0,.59,2,2.24,2.24,0,0,0,1.72.63,2.38,2.38,0,0,0,1.27-.29.89.89,0,0,0,.46-.79,1.09,1.09,0,0,0-.31-.76,3.23,3.23,0,0,0-.85-.63,12.86,12.86,0,0,0-1.21-.56l-1.38-.59a14.47,14.47,0,0,1-1.47-.76,6.46,6.46,0,0,1-1.28-1,4.42,4.42,0,0,1-.92-1.34,4.33,4.33,0,0,1-.34-1.78,4.64,4.64,0,0,1,.58-2.29,5.26,5.26,0,0,1,1.64-1.77,8.31,8.31,0,0,1,2.56-1.14,12.58,12.58,0,0,1,3.3-.41,15.5,15.5,0,0,1,2,.12q.9.12,1.59.25a11.8,11.8,0,0,1,1.42.37l.31.58c-.1.44-.2.9-.29,1.39s-.17.9-.24,1.46-.13,1.12-.18,1.72l-3,.21-.31-.21v-.42q0-1.83-1.91-1.83A2,2,0,0,0,160,80a1,1,0,0,0-.46.85,1,1,0,0,0,.28.71,3.05,3.05,0,0,0,.73.59,8.35,8.35,0,0,0,1,.52l1.25.51q.79.34,1.59.75a6.68,6.68,0,0,1,1.44,1,4.73,4.73,0,0,1,1,1.36,4.07,4.07,0,0,1,.41,1.89,4.62,4.62,0,0,1-.56,2.29,5,5,0,0,1-1.62,1.72,8.21,8.21,0,0,1-2.58,1.09A14.22,14.22,0,0,1,159.07,93.66Z"/><path class="cls-2" d="M14.05,49.2h7.07a6.35,6.35,0,0,0,5.63-2.7Q28.6,43.8,28.6,39a11.82,11.82,0,0,0-1.84-6.89,6,6,0,0,0-5.28-2.65,6.15,6.15,0,0,0-4.81,2.35,9.09,9.09,0,0,0-2,6.14H1l-.1-.3a17.51,17.51,0,0,1,5.65-14,20.68,20.68,0,0,1,14.57-5.45q9.86,0,15.74,5.4t5.88,15.27a17.36,17.36,0,0,1-2.54,9.14,17.55,17.55,0,0,1-7,6.55A15.91,15.91,0,0,1,40.95,61a19.74,19.74,0,0,1,2.69,10.48q0,9.91-6.35,15.59T21,92.72A22.33,22.33,0,0,1,6,87.37Q-.24,82,0,72.06l.1-.3H13.86A10.73,10.73,0,0,0,16,78.68a6.7,6.7,0,0,0,5.43,2.74,7,7,0,0,0,5.85-2.76,11.67,11.67,0,0,0,2.17-7.4q0-5.78-2.12-8.44a7.5,7.5,0,0,0-6.25-2.67H14.05Z"/><path class="cls-3" d="M218.39,16.36l1.16-.82c.13.58.15.72-.32,1.14a1.21,1.21,0,0,0-.41,1.55,6.73,6.73,0,0,1,.37,1.3,1.45,1.45,0,0,1,0,.73,8.63,8.63,0,0,0-.26,4.15,2,2,0,0,1-.33,1.77,1,1,0,0,1-1,.4c-.28,0-.55-.14-.83-.21s-.42-.36-.48-.7a4.83,4.83,0,0,0-1.73-3.29,1.46,1.46,0,0,1-.46-.87,3.46,3.46,0,0,1,.21-2.1,3.66,3.66,0,0,0,0-2.72l-.87,1-.13,0,.33-2.29-.84.64-.12-.11c.24-.4.76-.89.67-1.19a4.65,4.65,0,0,1,0-1.17c-.81.32-1.09,1-1.8,1.6.13-.77.22-1.36.34-1.95.06-.31.2-.6.25-.9a.41.41,0,0,0-.14-.35.38.38,0,0,0-.37.07A2.86,2.86,0,0,1,210,13a.67.67,0,0,0-.45.82,34.3,34.3,0,0,0,.75,5.76,4.49,4.49,0,0,1,0,1.7,7,7,0,0,0,.8,4c.18.36.6.59.88.91a4.07,4.07,0,0,1,.66.86c.26.52.13.7-.46.77-.82.1-1.28-.22-1.34-1a1.4,1.4,0,0,0-.7-1.11,1.44,1.44,0,0,1-.66-1.38,7.87,7.87,0,0,0-.76-3.57,5.37,5.37,0,0,1-.34-1.4,2.32,2.32,0,0,0-.7-1.65c0,.5,0,.88,0,1.25a1.58,1.58,0,0,1-.55,1.28c-.86.83-1.68,1.71-2.53,2.55a7.12,7.12,0,0,1-.85.69c-.34.25-.7.47-1.06.7-.55.35-1.1.71-1.66,1-.22.13-.51.11-.51-.21a3.75,3.75,0,0,1,.16-1.34.93.93,0,0,1,.72-.46c.72,0,1.28-.07,1.45-.95,0-.22.39-.39.62-.55.44-.32.91-.6,1.34-.92a2.2,2.2,0,0,0,.92-1.48c.1-.63.55-1.19.45-1.89S206,16.3,206,15.7s-.09-1-.15-1.53a3.1,3.1,0,0,0-.11-.67c-.51-1.48-.37-1.26-1.61-1.05a12.83,12.83,0,0,1-4.93-.18,7.73,7.73,0,0,1-1.43-.55c-.33-.15-.65-.34-1.06-.57-.49,1.52-1.64,2.63-1.92,4.2a4.18,4.18,0,0,0,.28,2.58,4,4,0,0,0,.55,1,18,18,0,0,1,2.1,4A3,3,0,0,1,197.6,25a3.06,3.06,0,0,1-1.37-1.27.89.89,0,0,1,0-.77.55.55,0,0,0-.21-.91,1.59,1.59,0,0,1-.9-1.51,2.61,2.61,0,0,0-.55-1.23c-.69-1-1.39-2-2.15-3a1.86,1.86,0,0,1-.19-2.29c.24-.42.49-.84.69-1.28a2.43,2.43,0,0,0,0-2.15c-1.66,1.84-3.1,3.75-3.43,6.27a1.82,1.82,0,0,1-.21.65,7.3,7.3,0,0,0-.49,5.09,2.93,2.93,0,0,0,1,1.73,7.33,7.33,0,0,1,1,1.4,3.6,3.6,0,0,1-1.64.19,1.1,1.1,0,0,1-.93-1.16,1.84,1.84,0,0,0-.7-1.65,1.24,1.24,0,0,1-.41-1.17c.06-.54.14-1.07.23-1.61a10,10,0,0,0-.13-4.08,1.59,1.59,0,0,1,.1-.81c.22-.68.48-1.33.71-2,.14-.4.19-.84.37-1.23a2.7,2.7,0,0,0,0-2.16c-.42-1.12-.85-2.23-1.3-3.42a1.64,1.64,0,0,0-.22.43c-.08.51-.11,1-.19,1.53a2.73,2.73,0,0,0,.29,1.74,3.39,3.39,0,0,1,.26,2.33,2.3,2.3,0,0,1-1.58,1.84l-.16-.89a4.42,4.42,0,0,1-2.28,2.8L183,16h-.16l-.15,1.35a1.51,1.51,0,0,1-.25-1.5,6.73,6.73,0,0,1,1-1.87,3.36,3.36,0,0,0,.61-3.74c-.36-.87-.83-1.69-1.26-2.53a4.28,4.28,0,0,1-.47-3,3.43,3.43,0,0,1,3.33-2.8c.31,0,.63,0,.94,0a2.7,2.7,0,0,0,2.5-.78.7.7,0,0,1,.29-.18c2-.8,4-1.36,6.15-.64a34.32,34.32,0,0,0,4.16,1,7.88,7.88,0,0,0,4.55-.42,4.64,4.64,0,0,1,4,.21,19,19,0,0,1,5.37,3.47,20,20,0,0,1,1.47,1.88c.26.34.5.68.75,1,0,0,.1.08.11.13.31.92.61,1.84.9,2.76.06.19,0,.4.09.59q.63,2.53,1.27,5.05C218.27,16.05,218.31,16.13,218.39,16.36Z"/><path class="cls-3" d="M218.39,49.42l1.16-.82c.13.58.15.72-.32,1.14a1.21,1.21,0,0,0-.41,1.55,6.73,6.73,0,0,1,.37,1.3,1.45,1.45,0,0,1,0,.73,8.63,8.63,0,0,0-.26,4.15,2,2,0,0,1-.33,1.77,1,1,0,0,1-1,.4c-.28,0-.55-.14-.83-.21s-.42-.36-.48-.7a4.83,4.83,0,0,0-1.73-3.29,1.46,1.46,0,0,1-.46-.87,3.46,3.46,0,0,1,.21-2.1,3.66,3.66,0,0,0,0-2.72l-.87,1-.13,0,.33-2.29-.84.64-.12-.11c.24-.4.76-.89.67-1.19a4.65,4.65,0,0,1,0-1.17c-.81.32-1.09,1-1.8,1.6.13-.77.22-1.36.34-1.95.06-.31.2-.6.25-.9A.41.41,0,0,0,212,45a.38.38,0,0,0-.37.07,2.86,2.86,0,0,1-1.63,1,.67.67,0,0,0-.45.82,34.3,34.3,0,0,0,.75,5.76,4.49,4.49,0,0,1,0,1.7,7,7,0,0,0,.8,4c.18.36.6.59.88.91a4.07,4.07,0,0,1,.66.86c.26.52.13.7-.46.77-.82.1-1.28-.22-1.34-1a1.4,1.4,0,0,0-.7-1.11,1.44,1.44,0,0,1-.66-1.38,7.87,7.87,0,0,0-.76-3.57,5.37,5.37,0,0,1-.34-1.4,2.32,2.32,0,0,0-.7-1.65c0,.5,0,.88,0,1.25a1.58,1.58,0,0,1-.55,1.28c-.86.83-1.68,1.71-2.53,2.55a7.12,7.12,0,0,1-.85.69c-.34.25-.7.47-1.06.7-.55.35-1.1.71-1.66,1-.22.13-.51.11-.51-.21a3.75,3.75,0,0,1,.16-1.34.93.93,0,0,1,.72-.46c.72,0,1.28-.07,1.45-.95,0-.22.39-.39.62-.55.44-.32.91-.6,1.34-.92a2.2,2.2,0,0,0,.92-1.48c.1-.63.55-1.19.45-1.89s-.13-1.19-.19-1.79-.09-1-.15-1.53a3.1,3.1,0,0,0-.11-.67c-.51-1.48-.37-1.26-1.61-1.05a12.83,12.83,0,0,1-4.93-.18,7.73,7.73,0,0,1-1.43-.55c-.33-.15-.65-.34-1.06-.57-.49,1.52-1.64,2.63-1.92,4.2A4.18,4.18,0,0,0,195,51a4,4,0,0,0,.55,1,18,18,0,0,1,2.1,4A3,3,0,0,1,197.6,58a3.06,3.06,0,0,1-1.37-1.27.89.89,0,0,1,0-.77.55.55,0,0,0-.21-.91,1.59,1.59,0,0,1-.9-1.51,2.61,2.61,0,0,0-.55-1.23c-.69-1-1.39-2-2.15-3a1.86,1.86,0,0,1-.19-2.29c.24-.42.49-.84.69-1.28a2.43,2.43,0,0,0,0-2.15c-1.66,1.84-3.1,3.75-3.43,6.27a1.82,1.82,0,0,1-.21.65,7.3,7.3,0,0,0-.49,5.09,2.93,2.93,0,0,0,1,1.73,7.33,7.33,0,0,1,1,1.4,3.6,3.6,0,0,1-1.64.19,1.1,1.1,0,0,1-.93-1.16,1.84,1.84,0,0,0-.7-1.65,1.24,1.24,0,0,1-.41-1.17c.06-.54.14-1.07.23-1.61a10,10,0,0,0-.13-4.08,1.59,1.59,0,0,1,.1-.81c.22-.68.48-1.33.71-2,.14-.4.19-.84.37-1.23a2.7,2.7,0,0,0,0-2.16c-.42-1.12-.85-2.23-1.3-3.42a1.64,1.64,0,0,0-.22.43c-.08.51-.11,1-.19,1.53a2.73,2.73,0,0,0,.29,1.74,3.39,3.39,0,0,1,.26,2.33,2.3,2.3,0,0,1-1.58,1.84l-.16-.89a4.42,4.42,0,0,1-2.28,2.8L183,49h-.16l-.15,1.35a1.51,1.51,0,0,1-.25-1.5,6.73,6.73,0,0,1,1-1.87,3.36,3.36,0,0,0,.61-3.74c-.36-.87-.83-1.69-1.26-2.53a4.28,4.28,0,0,1-.47-3,3.43,3.43,0,0,1,3.33-2.8c.31,0,.63,0,.94,0a2.7,2.7,0,0,0,2.5-.78.7.7,0,0,1,.29-.18c2-.8,4-1.36,6.15-.64a34.32,34.32,0,0,0,4.16,1,7.88,7.88,0,0,0,4.55-.42,4.64,4.64,0,0,1,4,.21,19,19,0,0,1,5.37,3.47,20,20,0,0,1,1.47,1.88c.26.34.5.68.75,1,0,0,.1.08.11.13.31.92.61,1.84.9,2.76.06.19,0,.4.09.59q.63,2.53,1.27,5.05C218.27,49.1,218.31,49.18,218.39,49.42Z"/><path class="cls-3" d="M222,88.79l1.16-.82c.13.58.15.72-.32,1.14a1.21,1.21,0,0,0-.41,1.55,6.73,6.73,0,0,1,.37,1.3,1.45,1.45,0,0,1,0,.73,8.63,8.63,0,0,0-.26,4.15,2,2,0,0,1-.33,1.77,1,1,0,0,1-1,.4c-.28,0-.55-.14-.83-.21s-.42-.36-.48-.7a4.83,4.83,0,0,0-1.73-3.29,1.46,1.46,0,0,1-.46-.87,3.46,3.46,0,0,1,.21-2.1,3.66,3.66,0,0,0,0-2.72l-.87,1-.13,0,.33-2.29-.84.64-.12-.11c.24-.4.76-.89.67-1.19A4.65,4.65,0,0,1,217,86c-.81.32-1.09,1-1.8,1.6.13-.77.22-1.36.34-1.95.06-.31.2-.6.25-.9a.41.41,0,0,0-.14-.35.38.38,0,0,0-.37.07,2.86,2.86,0,0,1-1.63,1,.67.67,0,0,0-.45.82,34.3,34.3,0,0,0,.75,5.76,4.49,4.49,0,0,1,0,1.7,7,7,0,0,0,.8,4c.18.36.6.59.88.91a4.07,4.07,0,0,1,.66.86c.26.52.13.7-.46.77-.82.1-1.28-.22-1.34-1a1.4,1.4,0,0,0-.7-1.11,1.44,1.44,0,0,1-.66-1.38,7.87,7.87,0,0,0-.76-3.57,5.37,5.37,0,0,1-.34-1.4,2.32,2.32,0,0,0-.7-1.65c0,.5,0,.88,0,1.25a1.58,1.58,0,0,1-.55,1.28c-.86.83-1.68,1.71-2.53,2.55a7.12,7.12,0,0,1-.85.69c-.34.25-.7.47-1.06.7-.55.35-1.1.71-1.66,1-.22.13-.51.11-.51-.21a3.75,3.75,0,0,1,.16-1.34.93.93,0,0,1,.72-.46c.72,0,1.28-.07,1.45-.95,0-.22.39-.39.62-.55.44-.32.91-.6,1.34-.92a2.2,2.2,0,0,0,.92-1.48c.1-.63.55-1.19.45-1.89s-.13-1.19-.19-1.79-.09-1-.15-1.53a3.1,3.1,0,0,0-.11-.67c-.51-1.48-.37-1.26-1.61-1.05a12.83,12.83,0,0,1-4.93-.18,7.73,7.73,0,0,1-1.43-.55c-.33-.15-.65-.34-1.06-.57-.49,1.52-1.64,2.63-1.92,4.2a4.18,4.18,0,0,0,.28,2.58,4,4,0,0,0,.55,1,18,18,0,0,1,2.1,4,3,3,0,0,1-.08,2.11,3.06,3.06,0,0,1-1.37-1.27.89.89,0,0,1,0-.77.55.55,0,0,0-.21-.91,1.59,1.59,0,0,1-.9-1.51,2.61,2.61,0,0,0-.55-1.23c-.69-1-1.39-2-2.15-3a1.86,1.86,0,0,1-.19-2.29c.24-.42.49-.84.69-1.28a2.43,2.43,0,0,0,0-2.15c-1.66,1.84-3.1,3.75-3.43,6.27a1.82,1.82,0,0,1-.21.65,7.3,7.3,0,0,0-.49,5.09,2.93,2.93,0,0,0,1,1.73,7.33,7.33,0,0,1,1,1.4,3.6,3.6,0,0,1-1.64.19,1.1,1.1,0,0,1-.93-1.16,1.84,1.84,0,0,0-.7-1.65,1.24,1.24,0,0,1-.41-1.17c.06-.54.14-1.07.23-1.61a10,10,0,0,0-.13-4.08,1.59,1.59,0,0,1,.1-.81c.22-.68.48-1.33.71-2,.14-.4.19-.84.37-1.23a2.7,2.7,0,0,0,0-2.16c-.42-1.12-.85-2.23-1.3-3.42a1.64,1.64,0,0,0-.22.43c-.08.51-.11,1-.19,1.53a2.73,2.73,0,0,0,.29,1.74,3.39,3.39,0,0,1,.26,2.33,2.3,2.3,0,0,1-1.58,1.84L189.1,86a4.42,4.42,0,0,1-2.28,2.8l-.26-.42h-.16l-.15,1.35a1.51,1.51,0,0,1-.25-1.5,6.73,6.73,0,0,1,1-1.87,3.36,3.36,0,0,0,.61-3.74c-.36-.87-.83-1.69-1.26-2.53a4.28,4.28,0,0,1-.47-3,3.43,3.43,0,0,1,3.33-2.8c.31,0,.63,0,.94,0a2.7,2.7,0,0,0,2.5-.78.7.7,0,0,1,.29-.18c2-.8,4-1.36,6.15-.64a34.32,34.32,0,0,0,4.16,1,7.88,7.88,0,0,0,4.55-.42,4.64,4.64,0,0,1,4,.21A19,19,0,0,1,217.22,77a20,20,0,0,1,1.47,1.88c.26.34.5.68.75,1,0,0,.1.08.11.13.31.92.61,1.84.9,2.76.06.19,0,.4.09.59q.63,2.53,1.27,5.05C221.84,88.48,221.88,88.55,222,88.79Z"/></g></g></svg>