<svg xmlns="http://www.w3.org/2000/svg" viewBox="0 0 37.39 27.91"><defs><style>.cls-1{fill:#ab1e41;}</style></defs><title>Asset 5</title><g id="Layer_2" data-name="Layer 2"><g id="by_the_numbers" data-name="by the numbers"><path class="cls-1" d="M36.16,16.36l1.16-.82c.13.58.15.72-.32,1.14a1.21,1.21,0,0,0-.41,1.55,6.73,6.73,0,0,1,.37,1.3,1.45,1.45,0,0,1,0,.73,8.63,8.63,0,0,0-.26,4.15,2,2,0,0,1-.33,1.77,1,1,0,0,1-1,.4c-.28,0-.55-.14-.83-.21s-.42-.36-.48-.7a4.83,4.83,0,0,0-1.73-3.29,1.46,1.46,0,0,1-.46-.87,3.46,3.46,0,0,1,.21-2.1,3.66,3.66,0,0,0,0-2.72l-.87,1-.13,0,.33-2.29L30.6,16l-.12-.11c.24-.4.76-.89.67-1.19a4.65,4.65,0,0,1,0-1.17c-.81.32-1.09,1-1.8,1.6.13-.77.22-1.36.34-1.95.06-.31.2-.6.25-.9a.41.41,0,0,0-.14-.35.38.38,0,0,0-.37.07,2.86,2.86,0,0,1-1.63,1,.67.67,0,0,0-.45.82,34.3,34.3,0,0,0,.75,5.76,4.49,4.49,0,0,1,0,1.7,7,7,0,0,0,.8,4c.18.36.6.59.88.91a4.07,4.07,0,0,1,.66.86c.26.52.13.7-.46.77-.82.1-1.28-.22-1.34-1a1.4,1.4,0,0,0-.7-1.11,1.44,1.44,0,0,1-.66-1.38,7.87,7.87,0,0,0-.76-3.57,5.37,5.37,0,0,1-.34-1.4,2.32,2.32,0,0,0-.7-1.65c0,.5,0,.88,0,1.25a1.58,1.58,0,0,1-.55,1.28c-.86.83-1.68,1.71-2.53,2.55a7.12,7.12,0,0,1-.85.69c-.34.25-.7.47-1.06.7-.55.35-1.1.71-1.66,1-.22.13-.51.11-.51-.21a3.75,3.75,0,0,1,.16-1.34.93.93,0,0,1,.72-.46c.72,0,1.28-.07,1.45-.95,0-.22.39-.39.62-.55.44-.32.91-.6,1.34-.92a2.2,2.2,0,0,0,.92-1.48c.1-.63.55-1.19.45-1.89s-.13-1.19-.19-1.79-.09-1-.15-1.53a3.1,3.1,0,0,0-.11-.67c-.51-1.48-.37-1.26-1.61-1.05a12.83,12.83,0,0,1-4.93-.18,7.73,7.73,0,0,1-1.43-.55c-.33-.15-.65-.34-1.06-.57-.49,1.52-1.64,2.63-1.92,4.2a4.18,4.18,0,0,0,.28,2.58,4,4,0,0,0,.55,1,18,18,0,0,1,2.1,4A3,3,0,0,1,15.37,25,3.06,3.06,0,0,1,14,23.73.89.89,0,0,1,14,23a.55.55,0,0,0-.21-.91,1.59,1.59,0,0,1-.9-1.51,2.61,2.61,0,0,0-.55-1.23c-.69-1-1.39-2-2.15-3A1.86,1.86,0,0,1,10,14c.24-.42.49-.84.69-1.28a2.43,2.43,0,0,0,0-2.15C9,12.44,7.59,14.35,7.26,16.86a1.82,1.82,0,0,1-.21.65,7.3,7.3,0,0,0-.49,5.09,2.93,2.93,0,0,0,1,1.73,7.33,7.33,0,0,1,1,1.4,3.6,3.6,0,0,1-1.64.19A1.1,1.1,0,0,1,6,24.76a1.84,1.84,0,0,0-.7-1.65,1.24,1.24,0,0,1-.41-1.17c.06-.54.14-1.07.23-1.61A10,10,0,0,0,5,16.26a1.59,1.59,0,0,1,.1-.81c.22-.68.48-1.33.71-2,.14-.4.19-.84.37-1.23a2.7,2.7,0,0,0,0-2.16c-.42-1.12-.85-2.23-1.3-3.42a1.64,1.64,0,0,0-.22.43c-.08.51-.11,1-.19,1.53a2.73,2.73,0,0,0,.29,1.74A3.39,3.39,0,0,1,5,12.66,2.3,2.3,0,0,1,3.46,14.5l-.16-.89A4.42,4.42,0,0,1,1,16.41L.76,16H.6L.46,17.35a1.51,1.51,0,0,1-.25-1.5,6.73,6.73,0,0,1,1-1.87,3.36,3.36,0,0,0,.61-3.74C1.46,9.38,1,8.55.56,7.72a4.28,4.28,0,0,1-.47-3,3.43,3.43,0,0,1,3.33-2.8c.31,0,.63,0,.94,0a2.7,2.7,0,0,0,2.5-.78A.7.7,0,0,1,7.16,1c2-.8,4-1.36,6.15-.64a34.32,34.32,0,0,0,4.16,1A7.88,7.88,0,0,0,22,.86a4.64,4.64,0,0,1,4,.21,19,19,0,0,1,5.37,3.47,20,20,0,0,1,1.47,1.88c.26.34.5.68.75,1,0,0,.1.08.11.13.31.92.61,1.84.9,2.76.06.19,0,.4.09.59Q35.38,13.45,36,16C36,16.05,36.08,16.13,36.16,16.36Z"/></g></g></svg>