<svg xmlns="http://www.w3.org/2000/svg" viewBox="0 0 500.52 156.75"><defs><style>.cls-1{fill:#6cafdf;}.cls-2{fill:#ab1d40;}.cls-3{fill:#fff;}.cls-4{fill:none;stroke:#939598;stroke-miterlimit:10;stroke-dasharray:6 7 6 7 6 7;}</style></defs><title>Asset 1</title><g id="Layer_2" data-name="Layer 2"><g id="Layer_1-2" data-name="Layer 1"><path class="cls-1" d="M63.14,42.65h5.15l1.71,0q1.1,0,2.14-.09l2.63-.11a16.59,16.59,0,0,1,3.71.36,10.64,10.64,0,0,1,2.65,1,6.17,6.17,0,0,1,1.76,1.37,6.25,6.25,0,0,1,1,1.62,7,7,0,0,1,.49,1.67,10.14,10.14,0,0,1,.13,1.51,7.68,7.68,0,0,1-.72,3.28,8.8,8.8,0,0,1-2,2.72A9.48,9.48,0,0,1,79,57.77a8.83,8.83,0,0,1-3.44.68h-3.1v1.73a4.22,4.22,0,0,0,.34,2q.34.56,1.46.56h.4a2,2,0,0,0,.4,0,2.38,2.38,0,0,0,.4,0l.18.29-.36,3.1L72.86,66,70.92,66l-1.55,0q-.61,0-1.73.05l-2.23.13-2.74.14L63,63a2.76,2.76,0,0,0,1.84-.88,3.66,3.66,0,0,0,.5-2.18V47.76a4,4,0,0,0-.2-1.53.74.74,0,0,0-.74-.41l-.43,0-.4,0a2.63,2.63,0,0,1-.43,0l-.36-.43ZM75,54.38A2.85,2.85,0,0,0,76.59,53a5.84,5.84,0,0,0,.52-2.71,3.26,3.26,0,0,0-.88-2.54A4.18,4.18,0,0,0,73.4,47q-.4,0-.49.14a1.66,1.66,0,0,0-.13.64q-.07,1.36-.14,3T72.5,54Z"/><path class="cls-1" d="M95.26,66.37q-5.26,0-8-3t-2.74-8.68q0-6.08,3-9.29t8.77-3.2Q107,42.22,107,53.7q0,6.12-3,9.4T95.26,66.37Zm.68-4.54a2.25,2.25,0,0,0,2.2-1.33A11.27,11.27,0,0,0,98.78,56q0-2.45-.16-4.14a11.45,11.45,0,0,0-.54-2.74,3,3,0,0,0-1-1.49,2.56,2.56,0,0,0-1.53-.45,2.19,2.19,0,0,0-2.14,1.31,11.3,11.3,0,0,0-.63,4.48q0,2.45.16,4.16a11.5,11.5,0,0,0,.54,2.75,3.22,3.22,0,0,0,1,1.51A2.36,2.36,0,0,0,95.94,61.84Z"/><path class="cls-1" d="M116.78,58a4.79,4.79,0,0,0,.71,2.76,2.37,2.37,0,0,0,2.08,1,2.45,2.45,0,0,0,2-.74,3.81,3.81,0,0,0,.62-2.44V57.54q0-.69,0-1.52t0-1.77V47.76a4,4,0,0,0-.2-1.53.74.74,0,0,0-.74-.42l-.29,0-.25,0a1.19,1.19,0,0,1-.29,0l-.11-.14.4-3.2,1.66.07q.68,0,1.42,0h3q.92,0,1.67,0l1.76-.07-.29,3.24a7.43,7.43,0,0,0-.92.34,2.19,2.19,0,0,0-.52.32.75.75,0,0,0-.23.38,2.27,2.27,0,0,0-.05.54V57.52q0,4.39-2.41,6.62t-7.2,2.23q-4.64,0-6.75-1.8t-2.11-5.8v-11a4,4,0,0,0-.2-1.57.83.83,0,0,0-.81-.38l-.31,0-.34,0a2,2,0,0,1-.4,0l-.07-.14.36-3.2,2.12.07q.93,0,2,0h2.19l1.33,0,1.62-.05,1.87-.07-.36,3.35a1.88,1.88,0,0,0-1.31.5,2,2,0,0,0-.41,1.26Z"/><path class="cls-1" d="M141.62,66.37l-2-.22L137.74,66q-1-.07-1.84-.07t-1.66,0q-.9,0-1.69.11l-1.8.14.29-3.35a2.83,2.83,0,0,0,1.85-.85,3.59,3.59,0,0,0,.49-2.14V47.83a4,4,0,0,0-.2-1.55.72.72,0,0,0-.7-.4l-.41,0-.38,0a1.8,1.8,0,0,1-.36,0l-.36-.5.32-2.92,2.2.07q.9,0,1.8,0h1.48l1.62,0q1,0,2-.09,1.15,0,2.38-.11,11.41,0,11.41,10.84a15.91,15.91,0,0,1-.88,5.45,11.59,11.59,0,0,1-2.5,4.12,11,11,0,0,1-3.94,2.61A14,14,0,0,1,141.62,66.37ZM141.44,47a.65.65,0,0,0-.56.22,1.48,1.48,0,0,0-.2.76q-.18,2.7-.27,5.58t-.09,6.55a2.52,2.52,0,0,0,.27,1.4,1.22,1.22,0,0,0,1,.36,4.43,4.43,0,0,0,2-.4,3.19,3.19,0,0,0,1.33-1.26,6.42,6.42,0,0,0,.76-2.23,20.29,20.29,0,0,0,.23-3.35,26,26,0,0,0-.22-3.67,6.51,6.51,0,0,0-.74-2.36,2.9,2.9,0,0,0-1.37-1.24A5.51,5.51,0,0,0,141.44,47Z"/><path class="cls-1" d="M165,57.73v2.45a9.74,9.74,0,0,0,.07,1.33,1.33,1.33,0,0,0,.34.77,1.42,1.42,0,0,0,.77.36,10.58,10.58,0,0,0,1.37.13l.18.29-.36,3L165,66,163,66l-1.57,0q-1,0-2.09.05l-2,.13-2.12.14.32-3.31a2.76,2.76,0,0,0,1.84-.88,3.68,3.68,0,0,0,.5-2.18V47.37a2.73,2.73,0,0,0-.2-1.24.78.78,0,0,0-.74-.34l-.43,0-.4,0a2.58,2.58,0,0,1-.43,0l-.36-.43.4-2.81q1.08,0,2,0h3.1l1.76,0q1.12,0,2.2-.09l2.7-.11q9.94,0,9.94,6.77,0,4.25-4.32,6.8l2.23,3.76Q177.19,63,178.81,63l.4.57-.32,2.6-5.58.4a3.84,3.84,0,0,1-2.45-.74,6,6,0,0,1-1.66-2.54L167,57.73Zm2.84-4.18a3.46,3.46,0,0,0,1.71-1.29,4.49,4.49,0,0,0,.49-2.33,2.62,2.62,0,0,0-1-2.26,5.28,5.28,0,0,0-3.1-.72q-.4,0-.49.14a1.66,1.66,0,0,0-.13.64q-.11,1.36-.16,2.72t-.09,2.72Z"/><path class="cls-1" d="M189.32,59.64a9.21,9.21,0,0,0,.05,1.13,1.32,1.32,0,0,0,.24.65.86.86,0,0,0,.53.31,4.74,4.74,0,0,0,.93.07,10.4,10.4,0,0,0,1.91-.14,2.42,2.42,0,0,0,1.2-.56,2.58,2.58,0,0,0,.69-1.15,12.84,12.84,0,0,0,.42-2l4.54-.32.43.54q-.18,1-.36,2.23t-.34,2.38q-.16,1.33-.31,2.81l-.54.58L195,66.08q-1.66-.07-3.73-.11t-4.16,0q-1.4,0-2.75.05t-2.43.13l-2.41.18.32-3.31a2.73,2.73,0,0,0,1.85-.88,4,4,0,0,0,.49-2.29l0-12.06a4.35,4.35,0,0,0-.18-1.55.78.78,0,0,0-.79-.4l-.32,0-.29,0a1.34,1.34,0,0,1-.32,0l-.43-.5.32-2.84,3,.07q1.26,0,2.72,0h2.72q1.69,0,3.35,0l3.13-.09q1.48-.05,2.68-.13t2-.18l.47.58q-.22,1.12-.36,2.3t-.27,2.32q-.13,1.28-.2,2.54l-5,.32a3.51,3.51,0,0,1,0-.5c0-.14,0-.29,0-.43s0-.28,0-.4a2.84,2.84,0,0,0-.14-1,1.14,1.14,0,0,0-.52-.59,3,3,0,0,0-1.08-.31A14.55,14.55,0,0,0,191,47a1.8,1.8,0,0,0-1,.18q-.24.18-.23.79L189.54,52l1.35,0,1.6,0,1.06,0q.67,0,1.31-.09t1.58-.11l.43.5-.5,4.14q-.79,0-1.55,0l-1.4-.05-1.37,0a14.71,14.71,0,0,0-1.49.07l-1.21.14q0,.94,0,1.69Z"/><path class="cls-1" d="M216.22,59.64a3.47,3.47,0,0,0,.29,1.73,1.39,1.39,0,0,0,1.22.43q.4,0,.77,0a4.49,4.49,0,0,0,.67-.11l.65-.14.58.65L219.92,66q-1.19,0-2.3,0L215.68,66l-1.62,0q-1.4,0-2.75.05t-2.43.13l-2.41.18.32-3.31a2.73,2.73,0,0,0,1.85-.88,4,4,0,0,0,.49-2.29l0-12.06a4.35,4.35,0,0,0-.18-1.55.78.78,0,0,0-.79-.4l-.32,0-.29,0a1.34,1.34,0,0,1-.32,0l-.43-.5.32-2.84,3,.07q1.26,0,2.72,0h2.72q1.55,0,3.06,0l2.84-.09q1.33-.05,2.43-.13t1.78-.18l.47.58q-.14,1.15-.29,2.34t-.2,2.3q-.09,1.26-.16,2.52l-5,.29a3.34,3.34,0,0,1,0-.47c0-.12,0-.26,0-.41s0-.29,0-.41a1.85,1.85,0,0,0-.56-1.57,3.87,3.87,0,0,0-2.14-.41,1.8,1.8,0,0,0-1,.18q-.24.18-.23.79l-.25,4.68,3,0,1,0q.63,0,1.24-.09t1.51-.11l.43.5-.5,4.14q-.76,0-1.48,0L220.28,57,219,57q-.79,0-1.51.07t-1.19.14Z"/><path class="cls-1" d="M236.55,47.58q-.18,2.55-.27,5.87t-.09,6.84a5.85,5.85,0,0,0,.22,2,.91.91,0,0,0,.94.48h.5a1.49,1.49,0,0,0,.36,0l.29-.07.29.36-.32,3.06L236,66,234,66l-1.57,0q-.86,0-1.89,0l-2,.07-2.12.07.29-3.1a5.4,5.4,0,0,0,1.19-.36,1.9,1.9,0,0,0,.72-.54,1.84,1.84,0,0,0,.34-.81,7,7,0,0,0,.09-1.24V47.65a2.87,2.87,0,0,0-.25-1.47,1.16,1.16,0,0,0-1-.36l-.32,0-.29,0h-.32l-.32-.5.29-2.7h5.8l1.6,0,2.07-.05q1.19,0,2.52-.11l-.25,3.24q-.61.11-1,.22a1.47,1.47,0,0,0-.61.31,1.08,1.08,0,0,0-.31.52A4.27,4.27,0,0,0,236.55,47.58Z"/><path class="cls-1" d="M249.51,57.73v2.45a9.74,9.74,0,0,0,.07,1.33,1.33,1.33,0,0,0,.34.77,1.42,1.42,0,0,0,.77.36,10.58,10.58,0,0,0,1.37.13l.18.29-.36,3L249.51,66l-2-.05-1.57,0q-1,0-2.09.05l-2,.13-2.12.14.32-3.31a2.76,2.76,0,0,0,1.84-.88,3.68,3.68,0,0,0,.5-2.18V47.37a2.73,2.73,0,0,0-.2-1.24.78.78,0,0,0-.74-.34l-.43,0-.4,0a2.58,2.58,0,0,1-.43,0l-.36-.43.4-2.81q1.08,0,2,0h3.1l1.76,0q1.12,0,2.2-.09l2.7-.11q9.94,0,9.94,6.77,0,4.25-4.32,6.8l2.23,3.76Q261.75,63,263.37,63l.4.57-.32,2.6-5.58.4a3.84,3.84,0,0,1-2.45-.74,6,6,0,0,1-1.66-2.54l-2.23-5.51Zm2.84-4.18a3.46,3.46,0,0,0,1.71-1.29,4.49,4.49,0,0,0,.49-2.33,2.62,2.62,0,0,0-1-2.26,5.28,5.28,0,0,0-3.1-.72q-.4,0-.49.14a1.66,1.66,0,0,0-.13.64q-.11,1.36-.16,2.72t-.09,2.72Z"/><path class="cls-1" d="M273.89,59.64a9.21,9.21,0,0,0,.05,1.13,1.32,1.32,0,0,0,.24.65.86.86,0,0,0,.53.31,4.74,4.74,0,0,0,.93.07,10.4,10.4,0,0,0,1.91-.14,2.42,2.42,0,0,0,1.2-.56,2.58,2.58,0,0,0,.69-1.15,12.84,12.84,0,0,0,.42-2l4.54-.32.43.54q-.18,1-.36,2.23t-.34,2.38q-.16,1.33-.31,2.81l-.54.58-3.67-.11Q278,66,275.88,66t-4.16,0q-1.4,0-2.75.05t-2.43.13l-2.41.18.32-3.31a2.73,2.73,0,0,0,1.85-.88,4,4,0,0,0,.49-2.29l0-12.06a4.35,4.35,0,0,0-.18-1.55.78.78,0,0,0-.79-.4l-.32,0-.29,0a1.34,1.34,0,0,1-.32,0l-.43-.5.32-2.84,3,.07q1.26,0,2.72,0h2.72q1.69,0,3.35,0l3.13-.09q1.48-.05,2.68-.13t2-.18l.47.58q-.22,1.12-.36,2.3t-.27,2.32Q284,48.7,284,50l-5,.32a3.51,3.51,0,0,1,0-.5c0-.14,0-.29,0-.43s0-.28,0-.4a2.84,2.84,0,0,0-.14-1,1.14,1.14,0,0,0-.52-.59,3,3,0,0,0-1.08-.31,14.55,14.55,0,0,0-1.78-.09,1.8,1.8,0,0,0-1,.18q-.24.18-.23.79L274.1,52l1.35,0,1.6,0,1.06,0q.67,0,1.31-.09t1.58-.11l.43.5-.5,4.14q-.79,0-1.55,0l-1.4-.05-1.37,0a14.71,14.71,0,0,0-1.49.07l-1.21.14q0,.94,0,1.69Z"/><path class="cls-1" d="M312.69,60.43a4.49,4.49,0,0,0,.81,1.78,1.88,1.88,0,0,0,1.31.63l.25.36L314.78,66q-.9,0-1.8,0l-1.66,0-1.62,0q-1.3,0-2.52,0l-2.2.07-2.16.07-.29-.32.22-3,1.3-.18a2.46,2.46,0,0,0,.68-.18.48.48,0,0,0,.27-.31,2.23,2.23,0,0,0,.05-.56,2.58,2.58,0,0,0,0-.27q0-.16-.05-.38l-.22-1.4-1.49-.05-1.28,0q-.61,0-1.39.06l-1.49.13-.36,1.62a6.39,6.39,0,0,0-.11.81q0,.48.2.61a2,2,0,0,0,.92.13h.94l.29.35-.29,2.92q-1,0-1.94,0L297,66l-1.8,0-1.69,0-1.55,0h-1.55l.25-3.06a2.67,2.67,0,0,0,1.84-2l5.72-18.14,9.47-.58.54.43q1,3.92,1.87,7.42.36,1.48.76,3t.74,2.92l.63,2.54Q312.48,59.71,312.69,60.43ZM300.27,55.1h1.84l.88,0,1-.05-1.22-6.3H302Z"/><path class="cls-1" d="M324.11,58a4.79,4.79,0,0,0,.71,2.76,2.37,2.37,0,0,0,2.08,1,2.45,2.45,0,0,0,2-.74,3.81,3.81,0,0,0,.62-2.44V57.54q0-.69,0-1.52t0-1.77V47.76a4,4,0,0,0-.2-1.53.74.74,0,0,0-.74-.42l-.29,0-.25,0a1.19,1.19,0,0,1-.29,0l-.11-.14.4-3.2,1.66.07q.68,0,1.42,0h3q.92,0,1.67,0l1.76-.07-.29,3.24a7.43,7.43,0,0,0-.92.34,2.19,2.19,0,0,0-.52.32.75.75,0,0,0-.23.38,2.27,2.27,0,0,0-.05.54V57.52q0,4.39-2.41,6.62t-7.2,2.23q-4.64,0-6.75-1.8T317,58.78v-11a4,4,0,0,0-.2-1.57.83.83,0,0,0-.81-.38l-.31,0-.34,0a2,2,0,0,1-.4,0l-.07-.14.36-3.2,2.12.07q.93,0,2,0h2.19l1.33,0,1.62-.05,1.87-.07-.36,3.35a1.88,1.88,0,0,0-1.31.5,2,2,0,0,0-.41,1.26Z"/><path class="cls-1" d="M344.55,47a3,3,0,0,0-1.21.2,1.48,1.48,0,0,0-.72.74,5.47,5.47,0,0,0-.43,1.49q-.16,1-.27,2.47l-4.46.29q.07-1.55.14-3.17.07-1.37.09-3t.05-3.22l.47-.5,4.28.4h11.28l4.35-.4.47.5q0,1.62,0,3.22t.07,2.93q0,1.55.07,3l-4.46.29q-.14-1.66-.27-2.68a5.71,5.71,0,0,0-.38-1.58,1.35,1.35,0,0,0-.68-.74,3,3,0,0,0-1.15-.18q-.07,2.7-.13,6.14t-.05,7a3.34,3.34,0,0,0,.41,1.93,1.7,1.7,0,0,0,1.46.56h.65a4.86,4.86,0,0,0,.61,0l.58-.07.18.22-.32,3.38q-1.47,0-2.87-.11L349.91,66l-2,0q-.86,0-2.1.05l-2.39.13-2.73.14L341,63a14,14,0,0,0,1.8-.27,2.52,2.52,0,0,0,1.08-.5,1.72,1.72,0,0,0,.54-.9,5.68,5.68,0,0,0,.14-1.39Z"/><path class="cls-1" d="M382.71,47.58q-.07,1.08-.14,2.58t-.13,3.17q-.05,1.68-.07,3.48t0,3.54a4.09,4.09,0,0,0,.31,1.89,1.16,1.16,0,0,0,1.1.52h.38a1.41,1.41,0,0,0,.34,0l.29-.07.29.39-.32,3q-.94,0-1.94,0l-2,0-2.23,0L377,66l-2,0H372.6l.29-3.1a2.43,2.43,0,0,0,1.84-.65,3.19,3.19,0,0,0,.54-2.1V56.44h-.72l-.7,0-.7,0q-.29,0-1,.05l-1.37.12-1.73.14V60.3a5.81,5.81,0,0,0,.22,2,.91.91,0,0,0,.94.48,4.47,4.47,0,0,0,.72,0l.25-.07.29.36-.32,3.06L368.78,66,366.86,66l-1.53,0q-.83,0-1.85,0l-2,.07-2.16.07.29-3.1a5.83,5.83,0,0,0,1.17-.34,1.92,1.92,0,0,0,.72-.52,1.74,1.74,0,0,0,.36-.83,7.37,7.37,0,0,0,.09-1.26V47.65a2.87,2.87,0,0,0-.25-1.47,1.16,1.16,0,0,0-1-.36l-.32,0-.29,0h-.32l-.32-.5.29-2.7h4.64l2,0,2.38-.05q1.33,0,2.77-.11l-.25,3.24a3.2,3.2,0,0,0-1.51.56,1.91,1.91,0,0,0-.4,1.31l-.22,4.36,3.06.11,1.87,0a10.1,10.1,0,0,0,1.15-.09V47.65a2.89,2.89,0,0,0-.25-1.46,1.14,1.14,0,0,0-1-.38l-.34,0-.31,0H373l-.32-.5.29-2.7h5.8l1.64,0,2.11-.05q1.22,0,2.59-.11l-.25,3.17a8.55,8.55,0,0,0-1.06.23,1.65,1.65,0,0,0-.65.34,1.13,1.13,0,0,0-.32.54A4.33,4.33,0,0,0,382.71,47.58Z"/><path class="cls-1" d="M396.68,66.37q-5.26,0-8-3T386,54.71q0-6.08,3-9.29t8.77-3.2q10.73,0,10.73,11.48,0,6.12-3,9.4T396.68,66.37Zm.68-4.54a2.25,2.25,0,0,0,2.2-1.33,11.27,11.27,0,0,0,.65-4.54q0-2.45-.16-4.14a11.45,11.45,0,0,0-.54-2.74,3,3,0,0,0-1-1.49,2.56,2.56,0,0,0-1.53-.45,2.19,2.19,0,0,0-2.14,1.31,11.3,11.3,0,0,0-.63,4.48q0,2.45.16,4.16a11.5,11.5,0,0,0,.54,2.75,3.22,3.22,0,0,0,1,1.51A2.36,2.36,0,0,0,397.37,61.84Z"/><path class="cls-1" d="M419.25,57.73v2.45a9.74,9.74,0,0,0,.07,1.33,1.33,1.33,0,0,0,.34.77,1.42,1.42,0,0,0,.77.36,10.58,10.58,0,0,0,1.37.13l.18.29-.36,3L419.25,66l-2-.05-1.57,0q-1,0-2.09.05l-2,.13-2.12.14.32-3.31a2.76,2.76,0,0,0,1.84-.88,3.68,3.68,0,0,0,.5-2.18V47.37a2.73,2.73,0,0,0-.2-1.24.78.78,0,0,0-.74-.34l-.43,0-.4,0a2.58,2.58,0,0,1-.43,0l-.36-.43.4-2.81q1.08,0,2,0h3.1l1.76,0q1.12,0,2.2-.09l2.7-.11q9.94,0,9.94,6.77,0,4.25-4.32,6.8l2.23,3.76Q431.49,63,433.11,63l.4.57-.32,2.6-5.58.4a3.84,3.84,0,0,1-2.45-.74,6,6,0,0,1-1.66-2.54l-2.23-5.51Zm2.84-4.18a3.46,3.46,0,0,0,1.71-1.29,4.49,4.49,0,0,0,.49-2.33,2.62,2.62,0,0,0-1-2.26,5.28,5.28,0,0,0-3.1-.72q-.4,0-.49.14a1.66,1.66,0,0,0-.13.64q-.11,1.36-.16,2.72t-.09,2.72Z"/><path class="cls-1" d="M444,47.58q-.18,2.55-.27,5.87t-.09,6.84a5.85,5.85,0,0,0,.22,2,.91.91,0,0,0,.94.48h.5a1.49,1.49,0,0,0,.36,0l.29-.07.29.36-.32,3.06L443.48,66l-2-.05-1.57,0q-.86,0-1.89,0l-2,.07-2.12.07.29-3.1a5.4,5.4,0,0,0,1.19-.36,1.9,1.9,0,0,0,.72-.54,1.84,1.84,0,0,0,.34-.81,7,7,0,0,0,.09-1.24V47.65a2.87,2.87,0,0,0-.25-1.47,1.16,1.16,0,0,0-1-.36l-.32,0-.29,0h-.32l-.32-.5.29-2.7h5.8l1.6,0,2.07-.05q1.19,0,2.52-.11l-.25,3.24q-.61.11-1,.22a1.47,1.47,0,0,0-.61.31,1.08,1.08,0,0,0-.31.52A4.27,4.27,0,0,0,444,47.58Z"/><path class="cls-1" d="M453.81,47a3,3,0,0,0-1.21.2,1.48,1.48,0,0,0-.72.74,5.47,5.47,0,0,0-.43,1.49q-.16,1-.27,2.47l-4.46.29q.07-1.55.14-3.17.07-1.37.09-3t.05-3.22l.47-.5,4.28.4H463l4.35-.4.47.5q0,1.62,0,3.22t.07,2.93q0,1.55.07,3l-4.46.29q-.14-1.66-.27-2.68a5.71,5.71,0,0,0-.38-1.58,1.35,1.35,0,0,0-.68-.74,3,3,0,0,0-1.15-.18q-.07,2.7-.13,6.14t-.05,7a3.34,3.34,0,0,0,.41,1.93,1.7,1.7,0,0,0,1.46.56h.65a4.86,4.86,0,0,0,.61,0l.58-.07.18.22-.32,3.38q-1.47,0-2.87-.11L459.17,66l-2,0q-.86,0-2.1.05l-2.39.13-2.73.14.29-3.31a14,14,0,0,0,1.8-.27,2.52,2.52,0,0,0,1.08-.5,1.72,1.72,0,0,0,.54-.9,5.68,5.68,0,0,0,.14-1.39Z"/><path class="cls-1" d="M478.76,46.74a3.09,3.09,0,0,0,.22.82q.22.6.52,1.37t.65,1.58l.63,1.49h.5l1.48-4.1a4.35,4.35,0,0,0,.47-1.58.45.45,0,0,0-.31-.45,3.1,3.1,0,0,0-1.06-.13l-.11-.22.29-2.84h5.69l1.42,0,1.31-.05,1.33-.07.14.29L491.65,46a8.51,8.51,0,0,0-2.2,1.84,12.58,12.58,0,0,0-1.8,2.7L484.38,57a5.82,5.82,0,0,0-.47,1.67q-.07.74-.07,1.67a3,3,0,0,0,.38,1.76,1.68,1.68,0,0,0,1.42.5h.65a4.87,4.87,0,0,0,.61,0l.58-.07.18.22-.32,3.38q-1.55,0-3-.11L481.91,66l-2,0q-.86,0-2.11.05l-2.39.13-2.74.14.29-3.31a12.28,12.28,0,0,0,1.87-.23,3,3,0,0,0,1.13-.47,1.49,1.49,0,0,0,.56-.82,5,5,0,0,0,.14-1.31v-.57a5,5,0,0,0-.22-1.49,9.7,9.7,0,0,0-.79-1.74l-3.85-7.13a6.92,6.92,0,0,0-3.56-3l-.14-.22.36-3.34q1.22,0,2.27,0t1.78,0h1.35l1.71,0q1.1,0,2.14-.09l2.63-.14.25.4-.32,3Q478.76,45.85,478.76,46.74Z"/><path class="cls-2" d="M96,110.52a6.86,6.86,0,0,0,1.24,2.72,2.87,2.87,0,0,0,2,1l.39.55-.44,4.35q-1.38,0-2.75-.06l-2.53,0-2.48,0q-2,0-3.85.05l-3.35.11-3.3.11-.44-.5.33-4.62,2-.27a3.76,3.76,0,0,0,1-.27.73.73,0,0,0,.41-.47,3.39,3.39,0,0,0,.08-.85,3.92,3.92,0,0,0,0-.41q0-.25-.08-.58l-.33-2.15-2.28-.08-2,0q-.94,0-2.12.08t-2.28.2l-.55,2.47a9.73,9.73,0,0,0-.17,1.24q0,.73.3.93a3.07,3.07,0,0,0,1.4.2h1.43l.44.54-.44,4.47q-1.48,0-3-.06Q73.45,119,72,119l-2.75,0-2.58,0-2.37,0H61.9l.38-4.67a4.08,4.08,0,0,0,2.81-3l8.75-27.71,14.46-.88.83.66q1.48,6,2.86,11.33.55,2.26,1.15,4.59t1.13,4.46q.52,2.12,1,3.88T96,110.52Zm-19-8.14h2.8l1.35,0,1.51-.08-1.87-9.63H79.61Z"/><path class="cls-2" d="M127,100.62l-.22-10.06a3.93,3.93,0,0,0-.47-1.9,1.62,1.62,0,0,0-1.35-.47h-1.71l-.27-.6.27-4.46,3.41.11q1.43.05,3,.08l2.72,0,2.5,0,2.48-.06,2.67-.08-.27,5a4.18,4.18,0,0,0-2.45,1,3.73,3.73,0,0,0-.74,2.45l-.72,27.33-10.34.66q-2.31-3.85-4.37-7.1t-3.6-5.72q-1.81-2.81-3.3-5.17h-.72l.17,9.71a4.12,4.12,0,0,0,.5,2.18,1.93,1.93,0,0,0,1.65.6l.58,0A5.34,5.34,0,0,0,117,114l.71-.11.5.5-.61,4.78-3.38-.11-2.82-.08-2.32,0q-1.44,0-2.93.06t-2.77.17l-2.82.22.55-5.06a3.8,3.8,0,0,0,2.34-1,3.68,3.68,0,0,0,.8-2.45l.66-19.19a6,6,0,0,0-.17-1.54,2,2,0,0,0-.6-1,2.91,2.91,0,0,0-1.24-.58,20.17,20.17,0,0,0-2.12-.36l-.66-.75.33-4.36q1.21.11,2.58.17,1.16.05,2.58.08l3,0,2.34,0q1.24,0,2.28-.08l2.42-.11q1.87,3.36,3.74,6.49t3.41,5.61l3.41,5.39Z"/><path class="cls-2" d="M167.61,100.62l-.22-10.06a3.93,3.93,0,0,0-.47-1.9,1.62,1.62,0,0,0-1.35-.47h-1.71l-.27-.6.27-4.46,3.41.11q1.43.05,3,.08l2.72,0,2.5,0,2.48-.06,2.67-.08-.27,5a4.18,4.18,0,0,0-2.45,1,3.73,3.73,0,0,0-.74,2.45l-.72,27.33-10.34.66q-2.31-3.85-4.37-7.1t-3.6-5.72q-1.81-2.81-3.3-5.17h-.72l.17,9.71a4.12,4.12,0,0,0,.5,2.18,1.93,1.93,0,0,0,1.65.6l.58,0a5.34,5.34,0,0,0,.58-.08l.71-.11.5.5-.61,4.78-3.38-.11L152,119l-2.32,0q-1.44,0-2.93.06t-2.77.17l-2.82.22.55-5.06a3.8,3.8,0,0,0,2.34-1,3.68,3.68,0,0,0,.8-2.45l.66-19.19a6,6,0,0,0-.17-1.54,2,2,0,0,0-.6-1,2.91,2.91,0,0,0-1.24-.58,20.17,20.17,0,0,0-2.12-.36l-.66-.75.33-4.36q1.21.11,2.58.17,1.16.05,2.58.08l3,0,2.34,0q1.24,0,2.28-.08l2.42-.11q1.87,3.36,3.74,6.49t3.41,5.61l3.41,5.39Z"/><path class="cls-2" d="M194.72,106.88a7.33,7.33,0,0,0,1.08,4.22,3.62,3.62,0,0,0,3.18,1.57,3.75,3.75,0,0,0,3-1.13,5.82,5.82,0,0,0,.94-3.72v-1.71q0-1,0-2.31t0-2.7V91.17a6.14,6.14,0,0,0-.3-2.34,1.13,1.13,0,0,0-1.13-.63l-.44,0-.38,0a1.79,1.79,0,0,1-.44.06l-.17-.22.6-4.9,2.53.11q1,.06,2.17.06h4.56q1.4,0,2.56-.06l2.69-.11-.44,5a11.19,11.19,0,0,0-1.4.52,3.35,3.35,0,0,0-.8.49,1.14,1.14,0,0,0-.36.58,3.46,3.46,0,0,0-.08.83v15.51q0,6.71-3.69,10.12t-11,3.41q-7.09,0-10.31-2.75T183.89,108V91.16a6.07,6.07,0,0,0-.3-2.39,1.26,1.26,0,0,0-1.24-.58l-.47,0-.52,0a3.06,3.06,0,0,1-.6.06l-.11-.22.55-4.9,3.23.11q1.43.06,3.13.06h3.34l2,0q1.26,0,2.47-.08l2.85-.11-.55,5.12a2.87,2.87,0,0,0-2,.77,3.06,3.06,0,0,0-.63,1.93Z"/><path class="cls-2" d="M249,110.52a6.86,6.86,0,0,0,1.24,2.72,2.87,2.87,0,0,0,2,1l.39.55-.44,4.35q-1.38,0-2.75-.06l-2.53,0-2.48,0q-2,0-3.85.05l-3.35.11-3.3.11-.44-.5.33-4.62,2-.27a3.76,3.76,0,0,0,1-.27.73.73,0,0,0,.41-.47,3.39,3.39,0,0,0,.08-.85,3.92,3.92,0,0,0,0-.41q0-.25-.08-.58l-.33-2.15-2.28-.08-2,0q-.94,0-2.12.08t-2.28.2l-.55,2.47a9.73,9.73,0,0,0-.17,1.24q0,.73.3.93a3.07,3.07,0,0,0,1.4.2h1.43l.44.54-.44,4.47q-1.48,0-3-.06-1.27-.06-2.75-.08l-2.75,0-2.58,0-2.37,0h-2.36l.38-4.67a4.08,4.08,0,0,0,2.81-3l8.75-27.71,14.46-.88.83.66q1.48,6,2.86,11.33.55,2.26,1.15,4.59t1.13,4.46q.52,2.12,1,3.88T249,110.52Zm-19-8.14h2.8l1.35,0,1.51-.08-1.87-9.63h-1.21Z"/><path class="cls-2" d="M264.63,118.94q-2.14,0-4.21.08t-3.71.19q-1.93.16-3.69.27l.5-5.06a4.17,4.17,0,0,0,2.83-1.35,6.13,6.13,0,0,0,.74-3.49V91a4.39,4.39,0,0,0-.39-2.25,1.78,1.78,0,0,0-1.54-.55,4.05,4.05,0,0,0-.49,0l-.44,0h-.49l-.5-.77.44-4.12h8.85l2.86,0,3.79-.08q2.2-.05,4.73-.17l-.61,5.39q-1.43.17-2.34.36a5.43,5.43,0,0,0-1.46.49,1.7,1.7,0,0,0-.77.8,3.66,3.66,0,0,0-.27,1.21q-.11,1.87-.22,3.88t-.19,4.32q-.08,2.31-.11,5t0,5.77a2.77,2.77,0,0,0,.47,1.81,2,2,0,0,0,1.59.55,7.06,7.06,0,0,0,2.46-.36,3.13,3.13,0,0,0,1.56-1.35,7.51,7.51,0,0,0,.89-2.75q.28-1.76.45-4.51l6.94-.71.65.82q-.28,2.09-.49,4.46-.22,2-.44,4.7t-.39,5.53l-.82.88q-2.42-.05-5.12-.16-2.31-.11-5.2-.17T264.63,118.94Z"/><path class="cls-2" d="M306.54,106.4v3.74a14.84,14.84,0,0,0,.11,2,2,2,0,0,0,.52,1.18,2.15,2.15,0,0,0,1.18.55,16.12,16.12,0,0,0,2.09.19l.27.44-.55,4.62-3.63-.11-3-.08-2.39,0q-1.54,0-3.19.08t-3.08.19l-3.25.22.5-5.06a4.22,4.22,0,0,0,2.8-1.35,5.62,5.62,0,0,0,.77-3.33V90.56a4.16,4.16,0,0,0-.3-1.9,1.19,1.19,0,0,0-1.13-.52l-.66,0-.6,0a4,4,0,0,1-.66.06l-.55-.65.6-4.3q1.65.06,3.08.06h4.73l2.69,0q1.7,0,3.35-.14,1.92-.05,4.13-.17,15.18,0,15.18,10.34,0,6.49-6.6,10.4l3.41,5.75q2.86,4.86,5.33,4.86l.6.87-.5,4-8.52.6a5.87,5.87,0,0,1-3.74-1.13,9.2,9.2,0,0,1-2.53-3.88l-3.41-8.42Zm4.35-6.38a5.29,5.29,0,0,0,2.61-2,6.86,6.86,0,0,0,.74-3.56A4,4,0,0,0,312.75,91,8.07,8.07,0,0,0,308,90q-.61,0-.74.22a2.53,2.53,0,0,0-.19,1q-.16,2.08-.25,4.16t-.14,4.16Z"/><path class="cls-2" d="M343.77,109.31a14,14,0,0,0,.08,1.73,2,2,0,0,0,.36,1,1.32,1.32,0,0,0,.81.47,7.24,7.24,0,0,0,1.42.11,15.89,15.89,0,0,0,2.92-.22,3.7,3.7,0,0,0,1.84-.85,3.94,3.94,0,0,0,1.06-1.76,19.64,19.64,0,0,0,.64-3l6.94-.5.65.82q-.28,1.6-.55,3.41-.28,1.6-.52,3.63t-.47,4.29l-.82.88q-2.64-.05-5.61-.16Q350,119,346.82,119t-6.35-.06q-2.14,0-4.21.08t-3.71.19q-1.93.16-3.69.27l.5-5.06a4.17,4.17,0,0,0,2.83-1.35,6.13,6.13,0,0,0,.74-3.49L333,91.16a6.66,6.66,0,0,0-.27-2.37,1.19,1.19,0,0,0-1.21-.6,4.05,4.05,0,0,0-.5,0l-.44,0a2,2,0,0,1-.5.06l-.66-.77.49-4.35,4.51.11q1.92.06,4.15.06h4.15q2.58,0,5.11-.06t4.79-.14q2.25-.08,4.1-.19t3-.27l.72.88q-.33,1.71-.55,3.52-.22,1.6-.41,3.55t-.3,3.88l-7.59.5a5.45,5.45,0,0,1,.05-.77c0-.22,0-.44,0-.66s0-.42,0-.6a4.33,4.33,0,0,0-.22-1.51,1.74,1.74,0,0,0-.8-.91,4.57,4.57,0,0,0-1.65-.47A22.28,22.28,0,0,0,346.3,90a2.75,2.75,0,0,0-1.51.27q-.36.28-.36,1.21l-.33,6.21,2.06,0,2.45,0,1.62,0q1,0,2-.14,1.16-.05,2.42-.17l.66.77-.77,6.33q-1.21,0-2.36-.06-1-.05-2.15-.08l-2.09,0a22.43,22.43,0,0,0-2.28.11q-1.07.11-1.84.22-.05,1.43-.05,2.58Z"/><path class="cls-2" d="M362.8,83.35h7.87l2.61,0q1.68,0,3.27-.14,1.87-.05,4-.17a25.39,25.39,0,0,1,5.67.55,16.26,16.26,0,0,1,4,1.46A9.42,9.42,0,0,1,393,87.12a9.53,9.53,0,0,1,1.57,2.48,10.68,10.68,0,0,1,.74,2.56,15.53,15.53,0,0,1,.19,2.31,11.73,11.73,0,0,1-1.1,5,13.45,13.45,0,0,1-3,4.15,14.5,14.5,0,0,1-4.4,2.83,13.5,13.5,0,0,1-5.25,1H377v2.64a6.45,6.45,0,0,0,.52,3.11,2.43,2.43,0,0,0,2.23.85h.6a3.06,3.06,0,0,0,.6-.06,3.67,3.67,0,0,0,.61-.06l.27.44-.55,4.73-3.63-.11-3-.08-2.37,0q-.94,0-2.64.08l-3.41.19-4.18.22.5-5.06a4.22,4.22,0,0,0,2.8-1.35,5.6,5.6,0,0,0,.77-3.33V91.16a6.12,6.12,0,0,0-.3-2.34,1.13,1.13,0,0,0-1.13-.63l-.66,0-.6,0a4,4,0,0,1-.66.06l-.55-.66Zm18.1,17.93a4.36,4.36,0,0,0,2.45-2.11,8.92,8.92,0,0,0,.8-4.13,5,5,0,0,0-1.35-3.89,6.39,6.39,0,0,0-4.32-1.2q-.61,0-.74.22a2.54,2.54,0,0,0-.19,1q-.11,2.08-.22,4.52t-.22,5.06Z"/><path class="cls-2" d="M411.86,119.6q-8,0-12.21-4.56t-4.18-13.26q0-9.29,4.59-14.19t13.39-4.9q16.39,0,16.39,17.54,0,9.35-4.65,14.35T411.86,119.6Zm1-6.93a3.45,3.45,0,0,0,3.36-2q1-2,1-6.93,0-3.74-.25-6.33a17.5,17.5,0,0,0-.82-4.18,4.66,4.66,0,0,0-1.54-2.28,3.92,3.92,0,0,0-2.34-.69,3.35,3.35,0,0,0-3.27,2q-1,2-1,6.85,0,3.74.25,6.35a17.53,17.53,0,0,0,.83,4.21,4.92,4.92,0,0,0,1.51,2.31A3.6,3.6,0,0,0,412.9,112.67Z"/><path class="cls-2" d="M446.34,106.4v3.74a14.84,14.84,0,0,0,.11,2,2,2,0,0,0,.52,1.18,2.15,2.15,0,0,0,1.18.55,16.12,16.12,0,0,0,2.09.19l.27.44-.55,4.62-3.63-.11-3-.08-2.39,0q-1.54,0-3.19.08t-3.08.19l-3.25.22.5-5.06a4.22,4.22,0,0,0,2.8-1.35,5.62,5.62,0,0,0,.77-3.33V90.56a4.16,4.16,0,0,0-.3-1.9,1.19,1.19,0,0,0-1.13-.52l-.66,0-.6,0a4,4,0,0,1-.66.06l-.55-.65.6-4.3q1.65.06,3.08.06H440l2.69,0q1.7,0,3.35-.14,1.92-.05,4.13-.17,15.18,0,15.18,10.34,0,6.49-6.6,10.4l3.41,5.75q2.86,4.86,5.33,4.86l.6.87-.5,4-8.52.6a5.87,5.87,0,0,1-3.74-1.13,9.2,9.2,0,0,1-2.53-3.88l-3.41-8.42Zm4.35-6.38a5.29,5.29,0,0,0,2.61-2,6.86,6.86,0,0,0,.74-3.56A4,4,0,0,0,452.56,91,8.07,8.07,0,0,0,447.83,90q-.61,0-.74.22a2.53,2.53,0,0,0-.19,1q-.16,2.08-.25,4.16t-.14,4.16Z"/><path class="cls-2" d="M478.79,90a4.66,4.66,0,0,0-1.84.3,2.27,2.27,0,0,0-1.1,1.13,8.38,8.38,0,0,0-.66,2.28q-.25,1.46-.41,3.77l-6.82.44q.11-2.36.22-4.84.11-2.09.14-4.65t.08-4.92l.71-.77,6.53.6h17.24l6.64-.6.71.77q0,2.47.05,4.92t.11,4.48q.05,2.37.11,4.56l-6.82.44q-.22-2.53-.41-4.1a8.71,8.71,0,0,0-.58-2.42,2.05,2.05,0,0,0-1-1.13A4.66,4.66,0,0,0,489.9,90q-.11,4.13-.19,9.38t-.08,10.75a5.1,5.1,0,0,0,.63,2.94,2.6,2.6,0,0,0,2.23.85h1a7.47,7.47,0,0,0,.94-.06l.88-.11.27.33-.49,5.17q-2.25-.06-4.39-.17L487,119q-1.89-.06-3-.06-1.32,0-3.21.08t-3.65.19l-4.17.22.44-5.06a21.29,21.29,0,0,0,2.75-.41,3.84,3.84,0,0,0,1.65-.77,2.64,2.64,0,0,0,.83-1.37,8.66,8.66,0,0,0,.22-2.12Z"/><path class="cls-3" d="M33.9,102.09v19.74H29.47l-11.54-9.11a24.33,24.33,0,0,0-4.48-2.6,9.15,9.15,0,0,0-3.47-.79,6.39,6.39,0,0,0-3.45.83,2.66,2.66,0,0,0-1.31,2.39A2.69,2.69,0,0,0,6.8,115a8.75,8.75,0,0,0,4.17.86v6.36l-.12,0a11.16,11.16,0,0,1-7.7-2.57A8.89,8.89,0,0,1,0,112.53a9.49,9.49,0,0,1,2.66-7.16,10,10,0,0,1,7.25-2.57,11.65,11.65,0,0,1,5.69,1.43A52.64,52.64,0,0,1,22.45,109l6.24,4.36V102.09Z"/><path class="cls-3" d="M20.79,78.93q6.68,0,10.13,2.65a9.09,9.09,0,0,1,0,14.26q-3.45,2.66-10.13,2.66H13.61Q7,98.51,3.48,95.86a9.05,9.05,0,0,1,0-14.26Q7,78.93,13.61,78.93ZM13,85.45a15.13,15.13,0,0,0-5.9.85q-1.86.85-1.74,2.36v.14q-.11,1.54,1.74,2.36A15.51,15.51,0,0,0,13,92h8.29a15.36,15.36,0,0,0,6-.85q1.87-.85,1.73-2.39v-.14q.14-1.51-1.72-2.34a15.75,15.75,0,0,0-6-.83Z"/><path class="cls-3" d="M33.9,61.42v6.52H7.3l.14,6.2H2.73L.46,61.42Z"/><path class="cls-3" d="M0,41.89a11.58,11.58,0,0,1,.36-3,13.92,13.92,0,0,1,1.07-2.74l4.93,1.1a15.43,15.43,0,0,0-.79,2.24,9.45,9.45,0,0,0-.26,2.35,4.39,4.39,0,0,0,2.17,3.82,10.73,10.73,0,0,0,6.14,1.37L13.7,47a6.17,6.17,0,0,1-1.63-2.29,7.87,7.87,0,0,1-.6-3.12,6.72,6.72,0,0,1,3.19-5.91,14.47,14.47,0,0,1,8.17-2.12,12.47,12.47,0,0,1,8.27,2.73,8.76,8.76,0,0,1,3.27,7,9.19,9.19,0,0,1-3.58,7.52Q27.22,53.69,21,53.69H14.09q-6.5,0-10.29-3.32A10.75,10.75,0,0,1,0,41.89Zm16.62,1.42a5.24,5.24,0,0,0,.47,2.32,3.85,3.85,0,0,0,1.32,1.54H21a13.9,13.9,0,0,0,6-1,3.17,3.17,0,0,0,2.11-2.83q0-1.47-1.87-2.36A10.28,10.28,0,0,0,22.82,40a9.51,9.51,0,0,0-4.49.92A2.7,2.7,0,0,0,16.62,43.31Z"/></g><g id="by_the_numbers" data-name="by the numbers"><line class="cls-4" x1="48.58" y1="156.75" x2="48.58"/></g></g></svg>