<svg xmlns="http://www.w3.org/2000/svg" viewBox="0 0 104.06 241.13"><defs><style>.cls-1{fill:#ab1d40;}</style></defs><title>Asset 4</title><g id="Layer_2" data-name="Layer 2"><g id="by_the_numbers" data-name="by the numbers"><path class="cls-1" d="M98.91,229.6c-1.31-1.13-7.51-7.33-8.45-9s-3-7-3-8.83,2.25-5.07,1.13-7S85.94,195,86.7,193.34s.94-9.39,0-10.71-.19-1.51-.19-2.82a37.5,37.5,0,0,0-2.26-8.07c-.75-1.7.76-2.26,1.32-3.57s.19-4.32.19-4.32c2.44-13.15-6.2-45.09-6.2-45.09l6.2-.38c-.94,0-1.88-1.13-2.26-3.19s.19-2.45,2.26-4.51,4.89-9.2,5.64-11.27.75-4.88,2.06-8.27.38-4.7-.19-7.32.94-2.07,1.88-5.45-1.88-1.51-2.26-3.94S91,68,90.83,66s-3.57-7-4.32-8.27.19-2.63-3.39-10.9-7-7.14-7-7.14C64.91,39.09,60,32.89,60,32.89c-1.13-.94.56-6.57.56-6.57.75-.76,2.07-4.89,2.07-4.89.75,0,1.31-2.07,1.31-2.07.06-.32.11-.63.15-.92.71-5.07-1.65-4.9-1.65-4.9,0-.94-.76-6-1.32-6.58S57.58-1.87,48.75.39s-8.45,15.78-8.45,15.78C38,17.3,42.74,23.5,42.74,23.5c0,1.69,2.82,5.45,2.82,5.45L45,32.33s-5.82,4.13-7.33,4.7-6,1.5-7.13,2.63-6.58.56-8.64,1.13-4.7,3.57-4.32,5.07-2.25,5.63-2.81,7.32-.75,3.38-2.07,3.2-2.63,6-3.76,7.51-6,9.58-6.39,10.9S1,77.8.09,80s6,17.47,6.57,19.16,8.46,11.83,8.27,13.34-4.13,10.52-2.44,11.64,10.9-.19,12.4-.94,6.39-.37,5.82.94,3.76,19.54,3.95,21.42-.38,20.29,0,24.8.19,36.27.37,38.33,5.07,13.15,4.7,15.41S37.48,230,36.16,232s-1.5,7.7.94,8.83,9-1.7,10-2.26,2.06-7,2.06-7,3.38-2.07,3.38-3.38S50.62,223,51.56,221s.38-16.91-.94-19.35-.37-4.7-.37-6.77,1.31-7.32.56-8.83-1.69-4.7-.37-6,8.08-33.44,8.08-33.44c-.76,3.38,9.77,35.32,11.08,38.52S70.54,199,71.1,202s5.45,14.47,4.51,15.59-.94,10.33-.75,11.08S81.81,230,81.81,230c.94-.75,3.76,2.82,3.76,2.82,6,7,17.66,4.32,17.66,4.32C106.23,235.42,100.22,230.72,98.91,229.6ZM21.18,74.72c-1.11,4-.89,17.36-1.56,16-.75-1.51-3.19-8.08-2.44-8.64.58-.43,2.95-5.23,4-7.39a2.19,2.19,0,0,1,.51-1.06Zm56.68,10.4c-.75-1.69,2.06-8.27,2.06-7.7s.75,3,1.7,2.82,1.5,0,.75,1.13-.94,6.76-1.13,7.7a25.65,25.65,0,0,1-1.69,3.76C79,92.64,78.62,86.81,77.87,85.12Z"/></g></g></svg>