<svg xmlns="http://www.w3.org/2000/svg" viewBox="0 0 113.33 178.35"><defs><style>.cls-1,.cls-2{fill:#ab1d40;}.cls-2{fill-rule:evenodd;}.cls-3,.cls-4{fill:#6cafe0;}.cls-4{font-size:25px;font-family:Alegreya-Black, Alegreya;}.cls-5{font-size:37px;}</style></defs><title>Asset 2</title><g id="Layer_2" data-name="Layer 2"><g id="notable-saves"><path class="cls-1" d="M0,61.58H113.33a0,0,0,0,1,0,0V66.7a6.67,6.67,0,0,1-6.67,6.67H6.77A6.77,6.77,0,0,1,0,66.6v-5a0,0,0,0,1,0,0Z"/><rect class="cls-1" x="16.76" y="62.17" width="9.44" height="29.4"/><rect class="cls-1" x="87.13" y="62.17" width="9.44" height="29.4"/><rect class="cls-1" x="52.34" y="80.11" width="8.66" height="38.88" rx="4.01" ry="4.01"/><path class="cls-2" d="M45.08,109.41l-.46.38a5.17,5.17,0,0,1-6.3,0L18.06,93.12a3.23,3.23,0,0,1,0-5.18l.46-.38a5.17,5.17,0,0,1,6.3,0l20.25,16.67A3.23,3.23,0,0,1,45.08,109.41Z"/><path class="cls-2" d="M68.25,109.41l.46.38a5.17,5.17,0,0,0,6.3,0L95.27,93.12a3.23,3.23,0,0,0,0-5.18l-.46-.38a5.17,5.17,0,0,0-6.3,0L68.25,104.23A3.23,3.23,0,0,0,68.25,109.41Z"/><path class="cls-1" d="M32,116.22H81.79a5.88,5.88,0,0,1,5.88,5.88v5.47a0,0,0,0,1,0,0H26.07a0,0,0,0,1,0,0V122.1A5.88,5.88,0,0,1,32,116.22Z"/><path class="cls-3" d="M34.54,136.27s2.62,8.3,1.34,11.35A5.93,5.93,0,1,1,24.94,143C26.22,140,34.54,136.27,34.54,136.27Z"/><path class="cls-3" d="M56.83,137.55s5.72,6.56,5.77,9.87a5.93,5.93,0,1,1-11.87.16C50.69,144.28,56.83,137.55,56.83,137.55Z"/><path class="cls-3" d="M79.35,135.89s7.82,3.81,9.16,6.84a5.93,5.93,0,1,1-10.87,4.78C76.31,144.48,79.35,135.89,79.35,135.89Z"/><path class="cls-3" d="M16.24,152s1.18,8.62-.6,11.42a5.93,5.93,0,1,1-10-6.38C7.41,154.23,16.24,152,16.24,152Z"/><path class="cls-3" d="M39.43,159s3.49,8,2.54,11.15a5.93,5.93,0,1,1-11.37-3.4C31.55,163.59,39.43,159,39.43,159Z"/><path class="cls-3" d="M76.63,158.93s7.52,4.38,8.63,7.5a5.93,5.93,0,1,1-11.19,4C73,167.28,76.63,158.93,76.63,158.93Z"/><path class="cls-3" d="M96.57,153.5s8.68.65,11,3a5.93,5.93,0,1,1-8.33,8.45C96.92,162.61,96.57,153.5,96.57,153.5Z"/><path class="cls-3" d="M57,162.4s5.72,6.56,5.77,9.87a5.93,5.93,0,1,1-11.87.16C50.89,169.12,57,162.4,57,162.4Z"/><text class="cls-4" transform="translate(0 20.59)">NOTABLE<tspan class="cls-5"><tspan x="0" y="32">SAVES</tspan></tspan></text></g></g></svg>