<svg xmlns="http://www.w3.org/2000/svg" viewBox="0 0 113.33 252.74"><defs><style>.cls-1,.cls-2{fill:#ab1d40;}.cls-2{fill-rule:evenodd;}.cls-3{fill:#6cafe0;}.cls-4{fill:#152d53;}</style></defs><title>Asset 17</title><g id="Layer_2" data-name="Layer 2"><g id="by_the_numbers" data-name="by the numbers"><path class="cls-1" d="M0,136H113.33a0,0,0,0,1,0,0v5.12a6.67,6.67,0,0,1-6.67,6.67H6.77A6.77,6.77,0,0,1,0,141v-5a0,0,0,0,1,0,0Z"/><rect class="cls-1" x="16.76" y="136.56" width="9.44" height="29.4"/><rect class="cls-1" x="87.13" y="136.56" width="9.44" height="29.4"/><rect class="cls-1" x="52.34" y="154.5" width="8.66" height="38.88" rx="4.01" ry="4.01"/><path class="cls-2" d="M45.08,183.8l-.46.38a5.17,5.17,0,0,1-6.3,0L18.06,167.51a3.23,3.23,0,0,1,0-5.18l.46-.38a5.17,5.17,0,0,1,6.3,0l20.25,16.67A3.23,3.23,0,0,1,45.08,183.8Z"/><path class="cls-2" d="M68.25,183.8l.46.38a5.17,5.17,0,0,0,6.3,0l20.25-16.67a3.23,3.23,0,0,0,0-5.18l-.46-.38a5.17,5.17,0,0,0-6.3,0L68.25,178.62A3.23,3.23,0,0,0,68.25,183.8Z"/><path class="cls-1" d="M32,190.61H81.79a5.88,5.88,0,0,1,5.88,5.88V202a0,0,0,0,1,0,0H26.07a0,0,0,0,1,0,0v-5.47A5.88,5.88,0,0,1,32,190.61Z"/><path class="cls-3" d="M34.54,210.66S37.16,219,35.88,222a5.93,5.93,0,1,1-10.95-4.59C26.22,214.37,34.54,210.66,34.54,210.66Z"/><path class="cls-3" d="M56.83,211.94s5.72,6.56,5.77,9.87a5.93,5.93,0,1,1-11.87.16C50.69,218.67,56.83,211.94,56.83,211.94Z"/><path class="cls-3" d="M79.35,210.28s7.82,3.81,9.16,6.84a5.93,5.93,0,1,1-10.87,4.78C76.31,218.87,79.35,210.28,79.35,210.28Z"/><path class="cls-3" d="M16.24,226.38s1.18,8.62-.6,11.42a5.93,5.93,0,1,1-10-6.38C7.41,228.63,16.24,226.38,16.24,226.38Z"/><path class="cls-3" d="M39.43,233.41s3.49,8,2.54,11.15a5.93,5.93,0,1,1-11.37-3.4C31.55,238,39.43,233.41,39.43,233.41Z"/><path class="cls-3" d="M76.63,233.32s7.52,4.38,8.63,7.5a5.93,5.93,0,1,1-11.19,4C73,241.67,76.63,233.32,76.63,233.32Z"/><path class="cls-3" d="M96.57,227.89s8.68.65,11,3a5.93,5.93,0,1,1-8.33,8.45C96.92,237,96.57,227.89,96.57,227.89Z"/><path class="cls-3" d="M57,236.79s5.72,6.56,5.77,9.87a5.93,5.93,0,1,1-11.87.16C50.89,243.52,57,236.79,57,236.79Z"/><path class="cls-4" d="M75.23,64.13H37.88V55.75L55.12,33.91A46.08,46.08,0,0,0,60,25.43a17.34,17.34,0,0,0,1.5-6.57A12.09,12.09,0,0,0,60,12.34a5,5,0,0,0-4.52-2.48,5.09,5.09,0,0,0-4.67,3,16.55,16.55,0,0,0-1.63,7.89h-12l-.09-.22A21.13,21.13,0,0,1,41.92,6q5-6,13.55-6Q64.15,0,69,5t4.86,13.72a22,22,0,0,1-2.71,10.77,99.56,99.56,0,0,1-9.05,12.94L53.86,54.28H75.23Z"/><path class="cls-3" d="M12.55,86.66l-.1-4.58a1.79,1.79,0,0,0-.21-.86.73.73,0,0,0-.61-.21h-.78l-.12-.28.13-2,1.55.05,1.36,0h2.38l1.13,0,1.21,0L18.35,81a1.9,1.9,0,0,0-1.11.46,1.69,1.69,0,0,0-.34,1.11L16.58,95l-4.7.3q-1.05-1.75-2-3.22l-1.64-2.6q-.82-1.27-1.5-2.35H6.42l.08,4.41a1.88,1.88,0,0,0,.22,1,.88.88,0,0,0,.75.27h.26l.26,0,.33,0,.22.23-.28,2.17L6.74,95,5.45,95H4.4L3.07,95q-.68,0-1.26.07l-1.28.1.25-2.3a1.73,1.73,0,0,0,1.06-.46,1.67,1.67,0,0,0,.36-1.11l.3-8.73a2.72,2.72,0,0,0-.08-.7.89.89,0,0,0-.27-.45,1.32,1.32,0,0,0-.56-.26,9,9,0,0,0-1-.16l-.3-.34.15-2q.55,0,1.18.08l1.17,0H5.24l1,0,1.1-.05q.85,1.53,1.7,3t1.55,2.55l1.55,2.45Z"/><path class="cls-3" d="M26.3,95.28a7.15,7.15,0,0,1-5.55-2.08,8.62,8.62,0,0,1-1.9-6q0-4.22,2.09-6.45A7.94,7.94,0,0,1,27,78.51q7.45,0,7.45,8,0,4.25-2.11,6.53A7.87,7.87,0,0,1,26.3,95.28Zm.47-3.15a1.57,1.57,0,0,0,1.53-.93,7.83,7.83,0,0,0,.45-3.15q0-1.7-.11-2.87a7.87,7.87,0,0,0-.37-1.9,2.11,2.11,0,0,0-.7-1,1.78,1.78,0,0,0-1.06-.31,1.52,1.52,0,0,0-1.49.91A7.86,7.86,0,0,0,24.57,86q0,1.7.11,2.89a7.9,7.9,0,0,0,.38,1.91,2.23,2.23,0,0,0,.69,1A1.64,1.64,0,0,0,26.77,92.13Z"/><path class="cls-3" d="M39.77,81.83a2.13,2.13,0,0,0-.84.14,1,1,0,0,0-.5.51,3.81,3.81,0,0,0-.3,1q-.11.66-.19,1.71l-3.1.2q0-1.08.1-2.2,0-.95.06-2.11t0-2.24l.33-.35,3,.28h7.84l3-.28.33.35q0,1.13,0,2.24t0,2q0,1.08,0,2.08l-3.1.2q-.1-1.15-.19-1.86a4,4,0,0,0-.26-1.1.94.94,0,0,0-.47-.51,2.13,2.13,0,0,0-.8-.12q0,1.88-.09,4.26t0,4.89A2.32,2.32,0,0,0,45,92.32a1.18,1.18,0,0,0,1,.39h.45l.43,0,.4,0,.13.15-.22,2.35-2-.08L43.5,95l-1.38,0q-.6,0-1.46,0L39,95.11l-1.9.1.2-2.3a9.63,9.63,0,0,0,1.25-.19,1.75,1.75,0,0,0,.75-.35,1.2,1.2,0,0,0,.38-.62,3.94,3.94,0,0,0,.1-1Z"/><path class="cls-3" d="M65,91.16a3.12,3.12,0,0,0,.56,1.24,1.3,1.3,0,0,0,.91.44l.18.25-.2,2-1.25,0H63l-1.75,0-1.52,0-1.5.05-.2-.23.15-2.1.9-.12a1.71,1.71,0,0,0,.47-.12.33.33,0,0,0,.19-.21,1.52,1.52,0,0,0,0-.39s0-.11,0-.19,0-.16,0-.26l-.15-1-1,0h-.89c-.28,0-.6,0-1,0l-1,.09-.25,1.12a4.45,4.45,0,0,0-.08.56c0,.22,0,.36.14.42a1.4,1.4,0,0,0,.64.09h.65l.2.24-.2,2-1.35,0-1.25,0H49.55l.17-2.12A1.85,1.85,0,0,0,51,91.53l4-12.59,6.58-.4.38.3q.68,2.73,1.3,5.15.25,1,.53,2.09t.51,2l.44,1.76Q64.9,90.66,65,91.16Zm-8.63-3.7h1.89l.69,0L58.15,83H57.6Z"/><path class="cls-3" d="M71.42,95,70,95q-.79,0-1.49.07l-1.65.08.22-2.2a2.39,2.39,0,0,0,1.33-.55,1.88,1.88,0,0,0,.35-1.29l0-9q0-1.16-.67-1.16H67.6l-.3,0-.3-.29.3-2,1.8,0,1.42,0h2.09q.79,0,1.61-.06l2.1-.1a7.48,7.48,0,0,1,4.25,1A3.35,3.35,0,0,1,82,82.58a3.76,3.76,0,0,1-.2,1.26,4,4,0,0,1-.54,1,5,5,0,0,1-.78.84,10.51,10.51,0,0,1-.91.7,11.53,11.53,0,0,1,1.11.48,4.09,4.09,0,0,1,1,.7,3.27,3.27,0,0,1,.72,1A3.39,3.39,0,0,1,82.72,90q0,5.23-7.2,5.23l-.86-.08-1.23-.1L72.24,95Zm2.35-6.5L73.65,91a1,1,0,0,0,.44.87,2.7,2.7,0,0,0,1.39.27,1.63,1.63,0,0,0,1.88-1.81q0-1.32-1.6-1.81Zm0-3.22.78.15.66.09.56,0a2.92,2.92,0,0,0,.53-.5,3.41,3.41,0,0,0,.36-.65,2.26,2.26,0,0,0,.16-.9q0-1.7-2.42-1.7-.42,0-.45.35t-.08.95l0,1Z"/><path class="cls-3" d="M88.75,95q-1,0-1.91,0l-1.69.09-1.67.13.22-2.3A1.9,1.9,0,0,0,85,92.32a2.79,2.79,0,0,0,.34-1.59V82.28a2,2,0,0,0-.17-1,.81.81,0,0,0-.7-.25H83.8l-.23-.35.2-1.87H89.1l1.72,0L93,78.68l-.28,2.45q-.65.07-1.06.16a2.48,2.48,0,0,0-.66.22.77.77,0,0,0-.35.36,1.67,1.67,0,0,0-.12.55q0,.85-.1,1.76t-.09,2q0,1.05,0,2.25t0,2.63a1.26,1.26,0,0,0,.22.83.91.91,0,0,0,.72.25,3.21,3.21,0,0,0,1.12-.16,1.42,1.42,0,0,0,.71-.61,3.38,3.38,0,0,0,.41-1.25q.13-.8.2-2l3.15-.33.3.38q-.12,1-.22,2t-.2,2.14q-.1,1.21-.17,2.51l-.37.4-2.33-.08q-1.05,0-2.36-.07Z"/><path class="cls-3" d="M104.17,90.61a6.31,6.31,0,0,0,0,.79.91.91,0,0,0,.17.45.6.6,0,0,0,.37.21,3.32,3.32,0,0,0,.65,0,7.25,7.25,0,0,0,1.33-.1,1.69,1.69,0,0,0,.84-.39,1.79,1.79,0,0,0,.48-.8,8.9,8.9,0,0,0,.29-1.36l3.15-.22.3.38q-.13.73-.25,1.55t-.24,1.65q-.11.92-.21,2l-.37.4-2.55-.08Q107,95,105.56,95l-2.89,0q-1,0-1.91,0l-1.69.09-1.67.13.22-2.3a1.9,1.9,0,0,0,1.29-.61,2.79,2.79,0,0,0,.34-1.59l0-8.37a3,3,0,0,0-.12-1.08A.54.54,0,0,0,98.6,81h-.43l-.22,0-.3-.35.22-2,2,0,1.89,0h1.89l2.33,0,2.17-.06,1.86-.09q.84,0,1.36-.12l.33.4q-.15.77-.25,1.6t-.19,1.61q-.09.89-.14,1.76l-3.45.22a2.48,2.48,0,0,1,0-.35c0-.1,0-.2,0-.3s0-.19,0-.27a2,2,0,0,0-.1-.69.8.8,0,0,0-.36-.41,2.09,2.09,0,0,0-.75-.21,10,10,0,0,0-1.24-.06,1.26,1.26,0,0,0-.69.13q-.16.12-.16.55l-.15,2.83h2.79q.46,0,.91-.06l1.1-.08.3.35-.35,2.88-1.08,0-1,0h-1a10.19,10.19,0,0,0-1,.05l-.84.1q0,.65,0,1.17Z"/><path class="cls-3" d="M8.21,127.42a16.65,16.65,0,0,1-3-.24A20.19,20.19,0,0,1,3,126.65a14.37,14.37,0,0,1-2-.81l-.44-.67q.18-1.07.33-2.15t.26-2q.11-1.05.18-2l4.66-.33a4.13,4.13,0,0,0,.83,2.89,3.16,3.16,0,0,0,2.42.89A3.36,3.36,0,0,0,11,122.1a1.26,1.26,0,0,0,.65-1.11,1.55,1.55,0,0,0-.44-1.07A4.56,4.56,0,0,0,10,119a18.74,18.74,0,0,0-1.7-.8q-.94-.39-1.94-.83a20.26,20.26,0,0,1-2.07-1.07,9.11,9.11,0,0,1-1.81-1.41A6.24,6.24,0,0,1,1.15,113a6.09,6.09,0,0,1-.48-2.52,6.54,6.54,0,0,1,.81-3.24,7.41,7.41,0,0,1,2.31-2.5,11.69,11.69,0,0,1,3.61-1.61,17.76,17.76,0,0,1,4.66-.57,22.14,22.14,0,0,1,2.83.17q1.28.17,2.24.35a16.78,16.78,0,0,1,2,.52l.44.81q-.22.93-.41,2t-.33,2.05q-.15,1.17-.26,2.42l-4.29.3-.44-.3v-.59q0-2.59-2.7-2.59a2.83,2.83,0,0,0-1.68.46,1.42,1.42,0,0,0-.65,1.2,1.48,1.48,0,0,0,.39,1,4.3,4.3,0,0,0,1,.83,11.8,11.8,0,0,0,1.48.74l1.76.72q1.11.48,2.24,1.05a9.44,9.44,0,0,1,2,1.39A6.69,6.69,0,0,1,19.22,117a5.75,5.75,0,0,1,.57,2.66,6.52,6.52,0,0,1-.8,3.24,7,7,0,0,1-2.29,2.42,11.59,11.59,0,0,1-3.64,1.54A20,20,0,0,1,8.21,127.42Z"/><path class="cls-3" d="M43.14,121.32a4.62,4.62,0,0,0,.83,1.83,1.94,1.94,0,0,0,1.35.65l.26.37-.3,2.92q-.93,0-1.85,0l-1.7,0-1.67,0q-1.33,0-2.59,0l-2.26.07L33,127.2l-.3-.33.22-3.11,1.33-.19a2.53,2.53,0,0,0,.7-.18.5.5,0,0,0,.28-.31,2.29,2.29,0,0,0,.06-.57,2.78,2.78,0,0,0,0-.28c0-.11,0-.24-.06-.39L35,120.39l-1.54-.06-1.31,0q-.63,0-1.42.06l-1.54.13-.37,1.66a6.61,6.61,0,0,0-.11.83q0,.49.2.62a2.07,2.07,0,0,0,.94.13h1l.3.36-.3,3q-1,0-2,0L27,127l-1.85,0-1.74,0-1.59,0H20.2l.26-3.15a2.74,2.74,0,0,0,1.89-2l5.88-18.64,9.73-.59.55.44q1,4,1.92,7.62.37,1.52.78,3.09t.76,3l.65,2.61Q42.92,120.58,43.14,121.32Zm-12.76-5.48h1.89l.91,0,1-.06-1.26-6.47h-.81Z"/><path class="cls-3" d="M47.51,108.74a4.84,4.84,0,0,0-.8-1.81,1.9,1.9,0,0,0-1.24-.67l-.26-.37.3-2.92q.89,0,1.81,0c.52,0,1.07,0,1.65,0h1.61l2.57,0,2.28-.06q1.18,0,2.22-.11l.3.33-.22,3.11-1.33.18a2.11,2.11,0,0,0-.7.2.56.56,0,0,0-.28.33,2.11,2.11,0,0,0-.06.54q0,.3.07,1t.22,1.7q.15,1,.33,2.16t.37,2.31q.41,2.74,1,6h.81q.85-3.53,1.52-6.4.26-1.23.54-2.44t.5-2.21q.22-1,.35-1.73a7.07,7.07,0,0,0,.13-.95c0-.32-.07-.53-.2-.61a2.11,2.11,0,0,0-.94-.13h-1l-.3-.36.3-3,2,.07q.85,0,1.85,0h4.92q.78,0,1.48,0l-.26,3.14a1.63,1.63,0,0,0-.91.58,5.7,5.7,0,0,0-.61,1.47L62,126.83l-10.18.63q-1-4.18-1.81-7.84-.37-1.55-.74-3.18l-.7-3.09q-.33-1.46-.63-2.66Z"/><path class="cls-3" d="M79.62,120.51a9.24,9.24,0,0,0,.06,1.17,1.35,1.35,0,0,0,.24.67.88.88,0,0,0,.54.31,4.85,4.85,0,0,0,1,.07,10.61,10.61,0,0,0,2-.15,2.49,2.49,0,0,0,1.24-.57,2.66,2.66,0,0,0,.71-1.18,13.35,13.35,0,0,0,.43-2l4.67-.33.44.55q-.19,1.07-.37,2.29t-.35,2.44q-.17,1.37-.31,2.89l-.55.59q-1.78,0-3.77-.11-1.7-.07-3.83-.11t-4.27,0q-1.44,0-2.83.06t-2.5.13l-2.48.19.33-3.4a2.8,2.8,0,0,0,1.91-.91,4.13,4.13,0,0,0,.5-2.35l0-12.39a4.49,4.49,0,0,0-.18-1.59.8.8,0,0,0-.81-.41l-.33,0-.3,0a1.34,1.34,0,0,1-.33,0l-.44-.52.33-2.92,3,.07q1.29,0,2.79,0h2.79q1.74,0,3.44,0l3.22-.09q1.52-.06,2.76-.13t2-.18l.48.59q-.22,1.15-.37,2.37t-.28,2.39q-.13,1.31-.2,2.61l-5.11.33a3.7,3.7,0,0,1,0-.52c0-.15,0-.3,0-.44s0-.28,0-.41a2.94,2.94,0,0,0-.15-1,1.18,1.18,0,0,0-.54-.61,3.06,3.06,0,0,0-1.11-.31,14.87,14.87,0,0,0-1.83-.09,1.86,1.86,0,0,0-1,.18,1,1,0,0,0-.24.81l-.22,4.18,1.39,0,1.65,0,1.09,0q.68,0,1.35-.09t1.63-.11l.44.52-.52,4.25q-.81,0-1.59,0l-1.44-.06-1.41,0a15,15,0,0,0-1.54.07l-1.24.15q0,1,0,1.74Z"/><path class="cls-3" d="M99.64,127.42a16.65,16.65,0,0,1-3-.24,20.19,20.19,0,0,1-2.28-.54,14.37,14.37,0,0,1-2-.81l-.44-.67q.18-1.07.33-2.15t.26-2q.11-1.05.18-2l4.66-.33a4.13,4.13,0,0,0,.83,2.89,3.16,3.16,0,0,0,2.42.89,3.36,3.36,0,0,0,1.79-.41A1.26,1.26,0,0,0,103,121a1.55,1.55,0,0,0-.44-1.07,4.56,4.56,0,0,0-1.2-.89,18.74,18.74,0,0,0-1.7-.8q-.94-.39-1.94-.83a20.26,20.26,0,0,1-2.07-1.07,9.11,9.11,0,0,1-1.81-1.41A6.24,6.24,0,0,1,92.57,113a6.09,6.09,0,0,1-.48-2.52,6.54,6.54,0,0,1,.81-3.24,7.41,7.41,0,0,1,2.31-2.5,11.69,11.69,0,0,1,3.61-1.61,17.76,17.76,0,0,1,4.66-.57,22.14,22.14,0,0,1,2.83.17q1.28.17,2.24.35a16.78,16.78,0,0,1,2,.52l.44.81q-.22.93-.41,2t-.33,2.05q-.15,1.17-.26,2.42l-4.29.3-.44-.3v-.59q0-2.59-2.7-2.59a2.83,2.83,0,0,0-1.68.46,1.42,1.42,0,0,0-.65,1.2,1.48,1.48,0,0,0,.39,1,4.3,4.3,0,0,0,1,.83,11.8,11.8,0,0,0,1.48.74l1.76.72q1.11.48,2.24,1.05a9.44,9.44,0,0,1,2,1.39,6.69,6.69,0,0,1,1.48,1.92,5.75,5.75,0,0,1,.57,2.66,6.52,6.52,0,0,1-.8,3.24,7,7,0,0,1-2.29,2.42,11.59,11.59,0,0,1-3.64,1.54A20,20,0,0,1,99.64,127.42Z"/></g></g></svg>