<svg xmlns="http://www.w3.org/2000/svg" viewBox="0 0 239 35"><defs><style>.cls-1{fill:#c6c5c6;}.cls-1,.cls-2{opacity:0.85;}.cls-2{fill:#e2e2e2;}.cls-3{fill:#fff;fill-rule:evenodd;}</style></defs><title>Asset 2</title><g id="Layer_2" data-name="Layer 2"><g id="Layer_1-2" data-name="Layer 1"><rect class="cls-1" width="239" height="35" rx="17.43" ry="17.43"/><rect class="cls-2" width="54" height="35" rx="17.43" ry="17.43"/><path class="cls-3" d="M27.52,18.86c1.07.8,1.61,1.73,1.08,2.37-.67.8-3.14.58-5.11-.59s-2.36-2.55-1.36-3.06a3.28,3.28,0,0,1,1.93-.18l.67,3-.08-11.8,3.44,2L31.5,4.71l3.47,2-3.41,5.91,3.44,2-5,2.81a19.28,19.28,0,0,1,4.11,3.16c1.23,1.27,2.68,3.27,2.46,5.14C36.3,28.35,33,29,30.86,29c-5.49.07-13.38-3.34-16.53-8.07-1.11-1.66-1.73-3.84,0-5.35,1.33-1.18,3.53-1.45,5.24-1.41a18.52,18.52,0,0,1,3.95.57l.22,1a12.38,12.38,0,0,0-2.8-.33c-1.16,0-2.72.26-3.47,1.24-.89,1.16-.1,2.71.7,3.68,2.3,2.82,7,4.85,10.58,5,1.4.07,3.69-.13,4.28-1.67.47-1.19-.38-2.57-1.14-3.44A12.31,12.31,0,0,0,29.09,18Z"/></g></g></svg>