<?xml version="1.0" encoding="UTF-8"?>
<svg width="91px" height="115px" viewBox="0 0 91 115" version="1.1" xmlns="http://www.w3.org/2000/svg" xmlns:xlink="http://www.w3.org/1999/xlink">
    <!-- Generator: Sketch 42 (36781) - http://www.bohemiancoding.com/sketch -->
    <title>Artboard</title>
    <desc>Created with Sketch.</desc>
    <defs></defs>
    <g id="Page-1" stroke="none" stroke-width="1" fill="none" fill-rule="evenodd">
        <g id="Artboard" fill="#6CAFDF">
            <g id="pdf">
                <g id="Layer_2">
                    <g id="BUDGET">
                        <path d="M82.28,8.66 L8.66,8.66 L8.66,89.23 L24.88,89.23 L24.88,105.45 L82.28,105.45 L82.28,8.66 Z M90.94,0 L90.94,114.11 L19.23,114.11 L0,94 L0,0 L90.94,0 Z M16.09,16.34 L74.84,16.34 L74.84,23.42 L16.09,23.42 L16.09,16.34 Z M16.09,30.51 L74.84,30.51 L74.84,37.59 L16.09,37.59 L16.09,30.5 L16.09,30.51 Z M16.09,44.67 L74.84,44.67 L74.84,51.75 L16.09,51.75 L16.09,44.67 Z M16.09,58.84 L74.84,58.84 L74.84,65.92 L16.09,65.92 L16.09,58.84 Z" id="Shape"></path>
                    </g>
                </g>
            </g>
        </g>
    </g>
</svg>