<svg xmlns="http://www.w3.org/2000/svg" viewBox="0 0 238.77 34.85"><defs><style>.cls-1,.cls-2{fill:#626366;}.cls-1{opacity:0.85;}.cls-3{fill:#fff;fill-rule:evenodd;}</style></defs><title>Asset 5</title><g id="Layer_2" data-name="Layer 2"><g id="Layer_1-2" data-name="Layer 1"><rect class="cls-1" width="238.77" height="34.85" rx="17.43" ry="17.43" transform="translate(238.77 34.85) rotate(180)"/><rect class="cls-2" x="184.53" width="54.24" height="34.85" rx="17.43" ry="17.43" transform="translate(423.29 34.85) rotate(-180)"/><path class="cls-3" d="M213.17,28.11,219.05,21a8.76,8.76,0,0,0,2.17-5.9,9.23,9.23,0,1,0-18.45,0,8.76,8.76,0,0,0,2.17,5.9l5.88,7.12a1.34,1.34,0,0,0,2.35,0ZM212,9.56a5.52,5.52,0,1,1-5.5,5.52A5.51,5.51,0,0,1,212,9.56Zm.06,3.11a2.44,2.44,0,1,1-2.44,2.44A2.44,2.44,0,0,1,212.06,12.67Z"/></g></g></svg>