<svg xmlns="http://www.w3.org/2000/svg" viewBox="0 0 78.94 149.56"><defs><style>.cls-1,.cls-2{fill:#152c53;}.cls-2{fill-rule:evenodd;}</style></defs><title>Asset 3</title><g id="Layer_2" data-name="Layer 2"><g id="BUDGET"><path class="cls-1" d="M75.21,92.83a8.85,8.85,0,0,1,0,3.48,3.08,3.08,0,0,1-1.15,1.89,3.72,3.72,0,0,1,.14.95c0,3.69-5.48,6.15-8.33,7.18-6.26,2.26-13.8,3.06-20.42,3.06S31.3,108.59,25,106.32c-2.43-.88-6.74-2.79-8-5.61h0a3.94,3.94,0,0,1-3.89-3.89,11.3,11.3,0,0,1,.16-1.57A6.9,6.9,0,0,0,12,99.19v9.74a4.2,4.2,0,0,0,2.2,3.8c8.24,6,21.35,8,31.29,8s23.05-2,31.3-8a4.2,4.2,0,0,0,2.19-3.79V99.19C78.91,96.5,77.33,94.43,75.21,92.83ZM18.26,111.6a23,23,0,0,1-2.79-1.84v-5.69a13.56,13.56,0,0,0,2.79,2.44ZM26.55,115c-1.23-.36-2.45-.77-3.65-1.24V108.9c1.19.48,2.42.89,3.65,1.25Zm8.29,1.79q-1.83-.27-3.65-.64v-4.9q1.82.35,3.65.6Zm8.29.71q-1.83-.05-3.65-.2v-5q1.82.13,3.65.18Zm8.29-.2q-1.82.14-3.65.2v-5q1.83,0,3.65-.18Zm8.29-1.15q-1.82.37-3.65.64v-4.94q1.83-.25,3.65-.6ZM68,113.77c-1.2.47-2.42.87-3.65,1.24v-4.87c1.23-.36,2.46-.77,3.65-1.25Zm7.43-4a23.06,23.06,0,0,1-2.79,1.84V106.5a13.58,13.58,0,0,0,2.79-2.44Z"/><path class="cls-1" d="M68.44,119.25l-.35-.16v4l.11.07c1.62,1.07,3.45,2.73,3.45,4.83,0,3.69-5.48,6.15-8.33,7.18-6.26,2.26-13.8,3.06-20.42,3.06a71.34,71.34,0,0,1-14.23-1.35h0A72.56,72.56,0,0,1,16,135l-.31-.08v5.54a22.82,22.82,0,0,1-2.79-1.84v-4.47l-.18-.05q-1.51-.47-3-1l-.34-.13v4.85a4.2,4.2,0,0,0,2.2,3.8c8.24,6,21.35,8,31.29,8s23.05-2,31.3-8a4.2,4.2,0,0,0,2.19-3.79V128C76.33,123.6,72.06,120.88,68.44,119.25ZM24,143.86c-1.23-.36-2.45-.77-3.65-1.24v-4.87c1.19.48,2.42.89,3.65,1.25Zm8.29,1.79q-1.83-.27-3.65-.64v-4.9q1.82.35,3.65.6Zm8.29.71q-1.83-.05-3.65-.2v-5q1.82.13,3.65.18Zm8.29-.2q-1.82.14-3.65.2v-5q1.83-.05,3.65-.18ZM57.16,145q-1.81.37-3.65.64v-4.94q1.83-.25,3.65-.6Zm8.29-2.39c-1.2.46-2.42.87-3.65,1.24V139c1.24-.36,2.46-.77,3.65-1.25Zm7.43-4a23.09,23.09,0,0,1-2.79,1.84v-5.09a13.52,13.52,0,0,0,2.79-2.44Z"/><path class="cls-1" d="M64.79,127.44A4.2,4.2,0,0,0,67,123.65v-4.53l-.32.1q-1.48.47-3,.86l-.19,0v4.34a23.17,23.17,0,0,1-2.79,1.84v-5.54l-.28.06a74.68,74.68,0,0,1-10.13,1.32h0a68.05,68.05,0,0,1-16.75,1.93c-6.62,0-14.16-.79-20.42-3.06-2.85-1-8.33-3.49-8.33-7.18,0-3,3.63-5.13,6-6.22l.14-.07V104l-.33.12C6.23,105.65.07,108.57,0,113.91v9.74a4.2,4.2,0,0,0,2.2,3.8c8.24,6,21.35,8,31.29,8S56.54,133.42,64.79,127.44ZM52.4,124.86c1.23-.36,2.46-.77,3.65-1.25v4.87c-1.2.47-2.42.87-3.65,1.24Zm-8.29,1.72q1.83-.25,3.65-.6v4.9q-1.82.37-3.65.64Zm-8.29.66q1.83-.05,3.65-.18v5q-1.82.14-3.65.2Zm-29.52-.92a23.1,23.1,0,0,1-2.79-1.84v-5.69a13.52,13.52,0,0,0,2.79,2.44Zm8.29,3.41c-1.23-.36-2.45-.77-3.65-1.24v-4.87c1.19.48,2.42.89,3.65,1.25Zm8.29,1.79q-1.83-.27-3.65-.64V126q1.82.35,3.65.6Zm8.29.71q-1.83-.05-3.65-.2v-5q1.82.13,3.65.18Z"/><path class="cls-1" d="M68.44,76.46l-.35-.16v4l.11.07c1.62,1.07,3.45,2.73,3.45,4.83,0,3.69-5.48,6.15-8.33,7.18-6.26,2.26-13.8,3.06-20.42,3.06a71.34,71.34,0,0,1-14.23-1.35h0A72.56,72.56,0,0,1,16,92.19l-.31-.08v5.54a22.82,22.82,0,0,1-2.79-1.84V91.35l-.18-.05q-1.51-.47-3-1l-.34-.13V95a4.2,4.2,0,0,0,2.2,3.8c8.24,6,21.35,8,31.29,8s23.05-2,31.3-8A4.2,4.2,0,0,0,76.39,95V85.25C76.33,80.81,72.06,78.08,68.44,76.46ZM24,101.07c-1.23-.36-2.45-.77-3.65-1.24V95c1.19.48,2.42.89,3.65,1.25Zm8.29,1.79q-1.83-.27-3.65-.64v-4.9q1.82.35,3.65.6Zm8.29.71q-1.83-.05-3.65-.2v-5q1.82.13,3.65.18Zm8.29-.2q-1.82.14-3.65.2v-5q1.83,0,3.65-.18Zm8.29-1.15q-1.81.37-3.65.64V97.92q1.83-.25,3.65-.6Zm8.29-2.39q-1.8.7-3.65,1.24V96.2c1.24-.36,2.46-.77,3.65-1.25Zm7.43-4a23,23,0,0,1-2.79,1.84V92.56a13.53,13.53,0,0,0,2.79-2.44Z"/><path class="cls-1" d="M64.79,84.65A4.19,4.19,0,0,0,67,80.86V76.33l-.32.1q-1.48.47-3,.86l-.19,0v4.34a23.13,23.13,0,0,1-2.79,1.84V78l-.28.06a74.62,74.62,0,0,1-10.13,1.32h0A68,68,0,0,1,33.49,81.3c-6.62,0-14.16-.79-20.42-3.06-2.85-1-8.33-3.49-8.33-7.18,0-3,3.63-5.13,6-6.22l.14-.07V61.17l-.33.12C6.23,62.86.07,65.78,0,71.11v9.74a4.2,4.2,0,0,0,2.2,3.8c8.24,6,21.35,8,31.29,8S56.54,90.63,64.79,84.65ZM52.4,82.07c1.23-.36,2.46-.77,3.65-1.25V85.7c-1.2.47-2.42.87-3.65,1.24ZM44.1,83.78q1.83-.25,3.65-.6v4.9q-1.82.37-3.65.64Zm-8.29.66q1.83,0,3.65-.18v5q-1.82.14-3.65.2ZM6.29,83.52A23.06,23.06,0,0,1,3.5,81.68V76a13.52,13.52,0,0,0,2.79,2.44Zm8.29,3.41c-1.23-.36-2.45-.77-3.65-1.24V80.82c1.19.48,2.42.89,3.65,1.25Zm8.29,1.79q-1.83-.27-3.65-.64v-4.9q1.82.35,3.65.6Zm8.29.71q-1.83-.05-3.65-.2v-5q1.82.13,3.65.18Z"/><path class="cls-1" d="M76.06,50.74a4,4,0,0,1-2.17,4.12,3.85,3.85,0,0,1,.32,1.49c0,3.69-5.48,6.15-8.33,7.18-6.26,2.26-13.8,3.06-20.42,3.06S31.3,65.79,25,63.53c-2.19-.79-5.92-2.43-7.54-4.82-.19,0-.39-.08-.58-.14a3.88,3.88,0,0,1-2.73-3,4.76,4.76,0,0,1-2-.81A6.7,6.7,0,0,0,12,56.4v9.74a4.2,4.2,0,0,0,2.2,3.8c8.24,6,21.35,8,31.29,8s23.05-2,31.3-8a4.2,4.2,0,0,0,2.19-3.79V56.4A7.68,7.68,0,0,0,76.06,50.74ZM18.26,68.8A23,23,0,0,1,15.46,67V61.27a13.56,13.56,0,0,0,2.79,2.44Zm8.29,3.41c-1.23-.36-2.45-.77-3.65-1.24V66.1c1.19.48,2.42.89,3.65,1.25ZM34.84,74q-1.83-.27-3.65-.64v-4.9q1.82.35,3.65.6Zm8.29.71q-1.83-.05-3.65-.2v-5q1.82.13,3.65.18Zm8.29-.2q-1.82.14-3.65.2v-5q1.83-.05,3.65-.18Zm8.29-1.15q-1.82.37-3.65.64V69.07q1.83-.25,3.65-.6ZM68,71c-1.2.47-2.42.87-3.65,1.24V67.35C65.6,67,66.82,66.58,68,66.1Zm7.43-4a23.06,23.06,0,0,1-2.79,1.84V63.71a13.58,13.58,0,0,0,2.79-2.44Z"/><path class="cls-2" d="M14.58,39.2c-1.23-.36-2.46-.77-3.65-1.25v4.87c1.2.47,2.42.87,3.65,1.24V39.2Zm8.29,1.72q-1.83-.25-3.65-.6v4.9q1.82.37,3.65.64V40.92Zm8.29.66q-1.83,0-3.65-.18v5q1.82.14,3.65.2v-5ZM52.4,39.2v4.87c1.23-.36,2.45-.77,3.65-1.24V38c-1.19.48-2.42.89-3.65,1.25ZM44.1,40.92v4.94q1.83-.27,3.65-.64v-4.9q-1.81.35-3.65.6Zm-8.29.66v5q1.83-.05,3.65-.2v-5q-1.82.13-3.65.18ZM3.5,33.13v5.69a23,23,0,0,0,2.79,1.84V35.57A13.52,13.52,0,0,1,3.5,33.13Zm57.19,7.53a23.12,23.12,0,0,0,2.79-1.84V34.48l.19,0q1.51-.39,3-.86l.32-.1V38a4.2,4.2,0,0,1-2.19,3.79c-8.25,6-21.36,8-31.3,8s-23.05-2-31.29-8A4.2,4.2,0,0,1,0,38V28.25C.07,22.91,6.23,20,10.53,18.42l.33-.12v3.62l-.14.07c-2.34,1.09-6,3.24-6,6.22,0,3.69,5.48,6.15,8.33,7.18,6.26,2.26,13.8,3.06,20.42,3.06a68,68,0,0,0,16.75-1.93h0a74.67,74.67,0,0,0,10.13-1.32l.28-.06v5.54ZM26.55,24.49c-1.23-.36-2.46-.77-3.65-1.25v4.87c1.2.47,2.42.87,3.65,1.24V24.49Zm8.29,1.72Q33,26,31.19,25.6v4.9q1.81.37,3.65.64V26.2Zm8.29.66q-1.83,0-3.65-.18v5q1.82.14,3.65.2v-5Zm21.23-2.37v4.87c1.23-.36,2.45-.77,3.65-1.24V23.24c-1.19.48-2.42.89-3.65,1.25ZM56.07,26.2v4.94q1.83-.27,3.65-.64V25.6q-1.82.35-3.65.6Zm-8.29.66v5q1.83-.05,3.65-.2v-5q-1.82.13-3.65.18Zm-2.32-3.14c6.62,0,14.16-.79,20.42-3.06,2.85-1,8.33-3.49,8.33-7.18S68.73,7.33,65.87,6.3C59.61,4,52.08,3.25,45.45,3.25S31.3,4,25,6.3c-2.85,1-8.33,3.49-8.33,7.18s5.48,6.15,8.33,7.18c6.26,2.26,13.8,3.06,20.42,3.06Zm-30-5.31V24.1a23,23,0,0,0,2.79,1.84V20.85a13.56,13.56,0,0,1-2.79-2.44Zm60,5.69a23.05,23.05,0,0,1-2.79,1.84V20.85a13.58,13.58,0,0,0,2.79-2.44V24.1ZM45.45,0a68.82,68.82,0,0,0-22,3.37C18.93,4.92,12,7.88,12,13.53v9.74a4.2,4.2,0,0,0,2.2,3.8c8.24,6,21.35,8,31.29,8s23.05-2,31.3-8a4.2,4.2,0,0,0,2.19-3.79V13.54c-.08-5.66-7-8.61-11.48-10.17A68.82,68.82,0,0,0,45.45,0ZM24,53.34c-1.23-.36-2.46-.77-3.65-1.25V57c1.2.46,2.42.87,3.65,1.24V53.34Zm8.29,1.72q-1.83-.25-3.65-.6v4.9q1.82.37,3.65.64V55.06Zm8.29.66q-1.83,0-3.65-.18v5q1.82.14,3.65.2v-5ZM61.8,53.34v4.87c1.23-.36,2.45-.77,3.65-1.24V52.09c-1.19.48-2.42.89-3.65,1.25Zm-8.29,1.72V60q1.83-.27,3.65-.64v-4.9q-1.81.35-3.65.6Zm-8.29.66v5q1.83-.05,3.65-.2v-5q-1.82.13-3.65.18ZM72.89,53V47.26A13.53,13.53,0,0,1,70.1,49.7v5.09A23.05,23.05,0,0,0,72.89,53Zm-60,0a22.83,22.83,0,0,0,2.79,1.84V49.25l.31.08a72.56,72.56,0,0,0,12.62,1.89h0A71.34,71.34,0,0,0,42.9,52.58c6.62,0,14.16-.79,20.42-3.06,2.85-1,8.33-3.49,8.33-7.18,0-2.1-1.83-3.76-3.45-4.83l-.11-.07v-4l.35.16c3.62,1.62,7.89,4.35,8,8.79v9.74a4.2,4.2,0,0,1-2.19,3.79c-8.25,6-21.36,8-31.3,8s-23.05-2-31.29-8a4.2,4.2,0,0,1-2.2-3.8V47.28l.34.13q1.48.56,3,1l.18.05Z"/></g></g></svg>