<svg xmlns="http://www.w3.org/2000/svg" viewBox="0 0 480.19 241.13"><defs><style>.cls-1{fill:#152d53;}.cls-1,.cls-3{fill-rule:evenodd;}.cls-2{fill:#ab1d40;}.cls-3{fill:#6cafe0;}</style></defs><title>Asset 2</title><g id="Layer_2" data-name="Layer 2"><g id="by_the_numbers" data-name="by the numbers"><path class="cls-1" d="M98.14,74.47c-.26.49-1.43,1.11-1.8.28-2.95,5.13-6.12,10-9.12,15.14-1,1.69-2,3.4-2.9,5.18-.07.12-.19.18-.41.14.63.82,1.82,1.7,1.73,2.9,0,.33-.33.59-.41.9s0,.88-.14,1.31c-.18.74-.76,1.25-1,1.93-.39,1-.61,2-1.38,2.49.16,1-.64,1.34-1,2.07-.27.49-.31,1-.62,1.24a6.55,6.55,0,0,1-2.35.76c-.68,0-1.46-.39-2.28-.21A8.5,8.5,0,0,0,75,110.56a5.47,5.47,0,0,0-1,2.28c0,.51.55,1.15.83,1.8a21.47,21.47,0,0,1,1.31,3.94c.17.74.15,1.47.27,2.21.19,1.17,1.1,3.17.28,4.49-.55.2-.9-.38-1.59-.28.5,1.57.45,2.87,1.1,4.15.45.87,1.38,1.32,1.87,2.14a15.89,15.89,0,0,1,.55,1.52,26.7,26.7,0,0,0,1.8,2.49c.83.7,2.52,1,2.56,2.28,0,.56-.45,1.07-.41,1.73a7.1,7.1,0,0,0,.9,2.08c.72,1.44,1.48,2.36,2.28,3.66a9.34,9.34,0,0,0,1.17,1.8c.33.3.8.39,1,.62.93.92,1.29,3,1.59,4.91a33.79,33.79,0,0,1,.69,5.81c0,1.32-.35,2.76-.41,4.22,0,.61.05,1.26,0,1.87-.28,3.1-2.55,4.5-3.59,6.84,1.53,2.69,1,6.82,1.24,10.58a13.9,13.9,0,0,1-.14,4.22c-.12.41-.5.82-.55,1.24a10.79,10.79,0,0,0,0,2.21c.17,1.93,2.08,2.78,1.87,4.63-.07.6-.62,1.08-.83,1.73.54.72,1.6.63,2.42.76,2.7.43,5.71.06,7.19,1.8.29.34.42.91.76,1.25.19.18.58.25.76.48a4.44,4.44,0,0,1,.28,2.76,4,4,0,0,1-.62,1.38,6.86,6.86,0,0,1-4.36,2.14c-.38,0-.78-.22-1-.21s-.49.28-.9.35a5.36,5.36,0,0,1-3-.28c-1.25.46-2.22-.33-3.18-.55-.31-.07-.6.05-.9,0-.81-.15-1.17-.81-1.94-1.11a17.12,17.12,0,0,0-2.69-.55,12.34,12.34,0,0,0-2.84-.35c-.35.32-.39.95-.69,1.31a3.39,3.39,0,0,1-1.87-.28,3.07,3.07,0,0,1-2.42-.21c-1.41.49-2.26-.54-3.59-.55A4.53,4.53,0,0,1,67,199.53a5.36,5.36,0,0,0,.2-1.52c-.14-.86-1-1.37-1.24-2.14-.46-1.25,0-3.28.14-4.7a13.13,13.13,0,0,0-.48-2.77c-.26-1.49-.26-2.89-.48-4.28-.2-1.24-.79-2.37-1-3.59s-.56-2.65-.69-3.87c-.18-1.68.2-3.63-.35-5-.3-.74-1.1-1.42-1.52-2.28-1.06-2.18-.66-4.81-1.73-6.7-.47-.84-1.21-1.51-1.73-2.28s-1-1.67-1.45-2.49c-1-1.72-1.8-3.53-3.25-4.7-1.43,2.24-2,5.28-3,8.09-.33.87-.78,1.69-1,2.56s-.33,1.95-.62,2.9a41.11,41.11,0,0,1-1.66,4.15c-.29.67-.57,1.35-.9,2s-.73,1.24-1,1.87a4.57,4.57,0,0,1-1,2,11.82,11.82,0,0,1-1.73,4.7c-.58,1-.91,2.2-1.45,3-.36.55-.9,1.08-1.31,1.66a19.63,19.63,0,0,1-4.36,4.5c-.55.37-1.12.65-1.66,1s-1,.7-1.52,1.11c-1.08,1.64-1.45,3.52-2.42,5.12-.71,1.17-1.9,2-2.56,3.25-.47.87-.78,1.82-1.25,2.7s-1.19,1.47-1.59,2.28-.17,1.6-.48,2.28c-.52,1.14-1.55,2-2.07,3a11.13,11.13,0,0,0-.55,3c-.11.72-.32,1.59-.41,2.49a12.86,12.86,0,0,1-.14,2.76c-.32.73-1.51.57-2,1.24-.32,2.88,3.66,2.05,4.36,4.15a7,7,0,0,1,3.18,3,6.39,6.39,0,0,1,1.18,2.14c.08.47,0,.76,0,1s.46.66.41,1.38a5.48,5.48,0,0,1-1.17,2.7,8.4,8.4,0,0,1-4.84,1.38,10.35,10.35,0,0,0-1.45-.14c-.32,0-.57.42-1,.48a3.76,3.76,0,0,1-2.07-.48c-.92.57-2.61.21-3-.62-.69.23-2.08-.08-2.21-1-.23-.17-.47.11-.69-.07a7.44,7.44,0,0,1-.62-.55c-.22-.23-.29-.49-.48-.69s-.47-.18-.63-.34a17.44,17.44,0,0,1-1-1.59,13.82,13.82,0,0,0-3-3.53c-.49.8-1.73,0-2.28-.48A8.1,8.1,0,0,1,1.22,225a7.55,7.55,0,0,1-.76-1.73c0-.53.34-.93.48-1.38s.19-1.31.34-2a12.39,12.39,0,0,0,.48-1.79c0-.4-.75-.89-1-1.24A6.7,6.7,0,0,1,0,214.87c-.24-1.65.57-3,.48-4.56,0-.54-.35-1-.35-1.59a16.51,16.51,0,0,1,.35-2.42,10.22,10.22,0,0,0,.35-1.11,7,7,0,0,0-.14-.9c-.18-2.27.75-4,1.45-5.74.31-.77.64-1.7,1-2.56a7,7,0,0,0,1-2.63c0-.27-.21-.6-.21-.9a8.7,8.7,0,0,1,.28-1.24c.24-1.26.68-2,1-3a12.28,12.28,0,0,1,.28-1.52,12.61,12.61,0,0,1,1.31-2,23.18,23.18,0,0,0,2.63-4c.33-.77.92-1.44,1.18-2.14.34-.94.26-2.3.69-3.32.19-.46.67-.87.76-1.32a29.86,29.86,0,0,0,.21-3c.13-1.08,1-1.86,1.38-2.83a9,9,0,0,0,.42-2.14c.27-1.38,1.37-2.46,1.73-3.87-.6-.12-1-.62-1.59-.9-.8-.41-2.1-1-2.49-1.8a8,8,0,0,1-.55-2.14,14.26,14.26,0,0,1,.07-3.18c.15-1.08,1.09-2.48,1.52-3.66.16-.44.39-.89.48-1.25.16-.61.09-1.3.28-1.73A19.41,19.41,0,0,1,15,145.4c1-1.76,1.45-3.53,2.9-4.56-.43-.42-.88-.83-1.31-1.25.47-1.37,2-1.68,2.83-2.7-.55-2.5,1.89-3.36,2.42-5.18.09-.3,0-.71.14-1,.17-.54.66-.93.76-1.45.14-.73-.06-1.72,0-2.56.05-.65.27-1.26.28-1.73,0-1-.53-2.3-.55-3.53a10,10,0,0,1,.48-2.9,7.3,7.3,0,0,0,.62-2.76c-.11-.68-1.11-1.49-1.59-2.14a9.11,9.11,0,0,1-1.52-2.15c-.24-1.16.55-2.34,0-3.59-.12-.32-.64-.24-.76-.55a6.27,6.27,0,0,1,.14-1c-.88,0-1.67.08-2.14-.55a11.23,11.23,0,0,1-1.11-2.83,3.51,3.51,0,0,1,.48-2.56A2.2,2.2,0,0,0,19,100a1.74,1.74,0,0,0,1.45.07c.87-.87-.27-2.44.35-3.59-1.88-1-2.95-3.84-2.7-7,.42-5.33,2.3-10.62,2.7-15.69-.41-.08-.55.7-1,.83-.22-.27-.49-.61-.9-.48.18-1.25.65-2.31.35-3.66-.22-1-.66-1.56-.41-2.49a8.87,8.87,0,0,1,1.52-2.49c.27-.33.66-.68,1-1s.82-.72,1-1a6.74,6.74,0,0,0,.21-1.66c.19-1.53.6-3.28.9-4.63.46-2,1-3.72,2.49-4.91a8.56,8.56,0,0,1,5.94-1.66c.39,0,.74.32,1.24.28.85-.07,1.41-1.28,1.94-1.93a12.54,12.54,0,0,0,.9-1c.29-.47.35-1,.62-1.31,1-1.32,3.34-1.86,5.39-2.14a2,2,0,0,0,.62-.69c0-.86-1.52-1.46-1.59-2.28,0-.59.79-1.31,1.24-1.73a12.26,12.26,0,0,1,3.46-2.49,7.34,7.34,0,0,0,2-1c.58-.64.45-1.68,1-2.28,0-.71-.7-1.31-.83-2a3.75,3.75,0,0,1,1.52-3.39c-.08-.56-.78-.5-.69-1.25.33-.26.76.2,1,.07a5.61,5.61,0,0,0,.14-2c-3-.73-8.6-.91-10-3.59-1.26-2.49,2.16-3.25,4.7-3a5.75,5.75,0,0,1,1-2.35c.23-.34.64-.61.83-1,.27-.51.22-1.07.69-1.45a7.26,7.26,0,0,1-.07-1.31A6,6,0,0,1,49.2,9.56a2.78,2.78,0,0,1,3,.07c2.23-2.35,5.24-5.12,9.88-5.39,1.13-.07,2.46-.47,3.18.14A10.43,10.43,0,0,1,70.08,3c1.43,0,2.83.37,2.69,1.94,1.12,1.3,2,2.8,3.25,4a28.4,28.4,0,0,1,2.76,1.52c2.32,1.44,3.37,4.24,4.22,7.05a49.74,49.74,0,0,0,2.42,6.08c.3.65.77,1.34.55,2.07a32.5,32.5,0,0,0-4.29-.55c-.54.29-.27.86-.69,1.24-.87.81-4.43.61-6,.48-.25.78.55,1.26.76,1.87a8.68,8.68,0,0,1,.35,2.7,38.06,38.06,0,0,1-1.52,10c.33.13.87.05,1.11.28.08,1.88-1.1,3.72-.56,5.67.71.56,1.89.65,2.63,1.18a1.56,1.56,0,0,1-2.07,2.14c-.25.25-.44.57-.9.62a3.43,3.43,0,0,1-1,2.07,17.85,17.85,0,0,0,.83,2.35,18.79,18.79,0,0,1,2.21.42c.57,1.2,1.37,2.18,1.87,3.46-.32.62.29,1.13.42,1.73a26.88,26.88,0,0,1,6.08,6.22c.73-.05,1.05-.61,1.66-.69.93-.13,1.44.38,2.28-.07.45-.24.63-.72,1-1,.52-.48,1.18-.71,1.66-1.17,1-.92,1.43-2.44,2.42-3.46.48-.49,1.13-.77,1.52-1.45-2.5-1.48-6-2-8.5-3.46.67-.92,2-.92,3.46-1.1,3.27-.42,7.81-.43,10.71.55a46.18,46.18,0,0,1,5.26,2,22.59,22.59,0,0,0,5.53,1.73,41.12,41.12,0,0,1,5.8,1.38c.75,3.73-1.75,6.15-4.29,7.26a62.89,62.89,0,0,0-8-3.32c.21,1.75-.72,2.66-1.59,3.53a4.43,4.43,0,0,1-.62,2.07c-.21.23,0-.15-.14-.14s-.42.44-.69.55a2.44,2.44,0,0,1-1.17,1.45c-.12,1.15-.19,2.58-1.17,2.76C99.64,75.07,98.85,74.62,98.14,74.47ZM86.6,81.66c-.35.21-.63.63-1,.9s-1.15.69-1.73,1.11a13.75,13.75,0,0,1-1.66,1.24,9.66,9.66,0,0,0-1.66.48c-.53.34-.94,1.13-1.38,1.24-.61.16-1.21-.17-1.66.28A16.3,16.3,0,0,0,78.16,93a12.23,12.23,0,0,1,1.87.14c2.5-3.93,5.33-7.89,7.54-11.89C87.31,81.52,87,81.45,86.6,81.66ZM70.22,108.41c0,.24-.32.7.07.83.87-1.12,1.33-2.64,2.21-3.73-.59-.35-1.33-.57-1.87-1C70.44,105.79,70.32,107.25,70.22,108.41Z"/><path class="cls-2" d="M365,229.6c-1.31-1.13-7.51-7.33-8.45-9s-3-7-3-8.83,2.25-5.07,1.13-7S352,195,352.77,193.34s.94-9.39,0-10.71-.19-1.51-.19-2.82a37.5,37.5,0,0,0-2.26-8.07c-.75-1.7.76-2.26,1.32-3.57s.19-4.32.19-4.32c2.44-13.15-6.2-45.09-6.2-45.09l6.2-.38c-.94,0-1.88-1.13-2.26-3.19s.19-2.45,2.26-4.51,4.89-9.2,5.64-11.27.75-4.88,2.06-8.27.38-4.7-.19-7.32.94-2.07,1.88-5.45-1.88-1.51-2.26-3.94S357.09,68,356.9,66s-3.57-7-4.32-8.27.19-2.63-3.39-10.9-7-7.14-7-7.14c-11.27-.56-16.15-6.76-16.15-6.76-1.13-.94.56-6.57.56-6.57.75-.76,2.07-4.89,2.07-4.89.75,0,1.31-2.07,1.31-2.07.06-.32.11-.63.15-.92.71-5.07-1.65-4.9-1.65-4.9,0-.94-.76-6-1.32-6.58s-3.57-8.83-12.4-6.57-8.45,15.78-8.45,15.78c-2.26,1.13,2.44,7.32,2.44,7.32,0,1.69,2.82,5.45,2.82,5.45l-.56,3.38s-5.82,4.13-7.33,4.7-6,1.5-7.13,2.63-6.58.56-8.64,1.13-4.7,3.57-4.32,5.07-2.25,5.63-2.81,7.32-.75,3.38-2.07,3.2-2.63,6-3.76,7.51-6,9.58-6.39,10.9-1.51,3-2.44,5.26,6,17.47,6.57,19.16S281.19,111,281,112.55s-4.13,10.52-2.44,11.64,10.9-.19,12.4-.94,6.39-.37,5.82.94,3.76,19.54,3.95,21.42-.38,20.29,0,24.8.19,36.27.37,38.33,5.07,13.15,4.7,15.41-2.25,5.82-3.57,7.88-1.5,7.7.94,8.83,9-1.7,10-2.26,2.06-7,2.06-7,3.38-2.07,3.38-3.38-1.88-5.26-.94-7.32S318,204,316.7,201.6s-.37-4.7-.37-6.77,1.31-7.32.56-8.83-1.69-4.7-.37-6,8.08-33.44,8.08-33.44c-.76,3.38,9.77,35.32,11.08,38.52s.94,13.9,1.51,16.91,5.45,14.47,4.51,15.59-.94,10.33-.75,11.08,6.95,1.31,6.95,1.31c.94-.75,3.76,2.82,3.76,2.82,6,7,17.66,4.32,17.66,4.32C372.31,235.42,366.3,230.72,365,229.6ZM287.26,74.72c-1.11,4-.89,17.36-1.56,16-.75-1.51-3.19-8.08-2.44-8.64.58-.43,2.95-5.23,4-7.39a2.19,2.19,0,0,1,.51-1.06Zm56.68,10.4c-.75-1.69,2.06-8.27,2.06-7.7s.75,3,1.7,2.82,1.5,0,.75,1.13-.94,6.76-1.13,7.7a25.65,25.65,0,0,1-1.69,3.76C345.06,92.64,344.69,86.81,343.94,85.12Z"/><path class="cls-3" d="M229.11,73.23c-.26.5-1.45,1.13-1.83.28-3,5.22-6.22,10.19-9.28,15.4-1,1.72-2.07,3.46-3,5.27-.07.12-.19.18-.42.14.64.84,1.85,1.73,1.76,3,0,.34-.33.6-.42.91s0,.9-.14,1.34c-.18.76-.77,1.27-1.05,2-.4,1-.62,2-1.41,2.53.17,1-.65,1.36-1.06,2.11-.27.5-.32,1-.63,1.27a6.67,6.67,0,0,1-2.39.77c-.7,0-1.48-.39-2.32-.21a8.65,8.65,0,0,0-1.4,2,5.57,5.57,0,0,0-1.06,2.32c0,.52.56,1.17.84,1.83a21.85,21.85,0,0,1,1.34,4c.17.76.16,1.49.28,2.25.2,1.19,1.12,3.23.28,4.57-.56.2-.91-.39-1.62-.28.51,1.6.46,2.92,1.12,4.22.46.89,1.4,1.35,1.9,2.18a16.17,16.17,0,0,1,.56,1.55,27.17,27.17,0,0,0,1.83,2.53c.85.71,2.57,1,2.6,2.32,0,.57-.46,1.08-.42,1.76a7.22,7.22,0,0,0,.91,2.11c.74,1.46,1.5,2.4,2.32,3.73a9.5,9.5,0,0,0,1.19,1.83c.33.31.82.4,1.06.63.94.93,1.31,3,1.62,5a34.38,34.38,0,0,1,.7,5.91c0,1.34-.36,2.8-.42,4.29,0,.62.06,1.28,0,1.9-.28,3.16-2.59,4.58-3.66,7,1.55,2.74,1,6.94,1.26,10.76a14.14,14.14,0,0,1-.14,4.29c-.12.42-.51.84-.56,1.27a11,11,0,0,0,0,2.25c.17,2,2.12,2.83,1.9,4.71-.07.61-.63,1.1-.84,1.76.55.73,1.62.64,2.46.78,2.74.44,5.81.06,7.31,1.83.29.34.43.93.77,1.27.19.18.59.25.77.49a4.52,4.52,0,0,1,.28,2.81,4,4,0,0,1-.63,1.41,7,7,0,0,1-4.43,2.18c-.38,0-.79-.23-1.05-.21s-.5.28-.91.35a5.46,5.46,0,0,1-3.09-.28c-1.27.47-2.26-.34-3.24-.56-.32-.07-.61.05-.91,0-.82-.15-1.19-.83-2-1.13a17.42,17.42,0,0,0-2.74-.56,12.56,12.56,0,0,0-2.88-.35c-.35.33-.4,1-.7,1.34a3.45,3.45,0,0,1-1.9-.28,3.13,3.13,0,0,1-2.46-.21c-1.43.5-2.3-.55-3.66-.56a4.6,4.6,0,0,1-2.11-4.43,5.46,5.46,0,0,0,.21-1.55c-.14-.87-1-1.39-1.27-2.18-.47-1.27,0-3.33.14-4.78a13.36,13.36,0,0,0-.49-2.81c-.26-1.52-.27-2.94-.49-4.36-.2-1.26-.81-2.41-1.05-3.66s-.57-2.7-.71-3.94c-.18-1.7.2-3.7-.35-5.06-.31-.75-1.12-1.44-1.55-2.32-1.08-2.21-.67-4.9-1.76-6.82-.48-.86-1.24-1.54-1.76-2.32s-1-1.7-1.48-2.53c-1-1.75-1.83-3.59-3.3-4.78-1.46,2.28-2,5.37-3.1,8.23-.34.89-.79,1.72-1.05,2.6s-.33,2-.63,3a41.83,41.83,0,0,1-1.69,4.22c-.29.68-.58,1.37-.91,2s-.74,1.26-1,1.9a4.65,4.65,0,0,1-1,2,12,12,0,0,1-1.76,4.78c-.59,1-.92,2.24-1.48,3.1-.36.56-.91,1.1-1.34,1.69a20,20,0,0,1-4.43,4.57c-.56.37-1.14.66-1.69,1.05s-1.05.71-1.55,1.13c-1.09,1.67-1.48,3.58-2.46,5.21-.72,1.19-1.93,2.07-2.6,3.3-.48.88-.8,1.85-1.27,2.74s-1.21,1.49-1.61,2.32-.17,1.62-.49,2.32c-.53,1.16-1.58,2-2.11,3.1a11.32,11.32,0,0,0-.56,3c-.11.73-.33,1.62-.42,2.53a13.08,13.08,0,0,1-.14,2.81c-.33.75-1.53.58-2,1.27-.32,2.93,3.73,2.09,4.43,4.22a7.1,7.1,0,0,1,3.24,3.09,6.51,6.51,0,0,1,1.2,2.18c.08.48,0,.78,0,1.06s.46.67.42,1.41a5.57,5.57,0,0,1-1.19,2.75,8.54,8.54,0,0,1-4.93,1.41,10.53,10.53,0,0,0-1.48-.14c-.33,0-.58.43-1,.49a3.83,3.83,0,0,1-2.11-.49c-.93.58-2.66.22-3-.63-.7.23-2.11-.08-2.25-1.05-.23-.17-.48.11-.7-.07a7.57,7.57,0,0,1-.63-.56c-.22-.23-.29-.5-.49-.71s-.48-.18-.64-.35a17.75,17.75,0,0,1-1-1.62,14.06,14.06,0,0,0-3.09-3.59c-.5.82-1.76,0-2.32-.49a8.24,8.24,0,0,1-2.25-2.81,7.68,7.68,0,0,1-.77-1.76c-.05-.54.35-.95.49-1.41s.19-1.33.35-2a12.61,12.61,0,0,0,.49-1.83c0-.4-.76-.91-1-1.27a6.82,6.82,0,0,1-.77-2c-.25-1.68.58-3.06.49-4.64,0-.55-.36-1-.35-1.62a16.8,16.8,0,0,1,.35-2.46,10.4,10.4,0,0,0,.36-1.13,7.08,7.08,0,0,0-.14-.91c-.18-2.31.76-4.06,1.48-5.84.31-.78.65-1.73,1.06-2.6a7.13,7.13,0,0,0,1-2.67c0-.28-.21-.61-.21-.91a8.86,8.86,0,0,1,.28-1.27c.24-1.28.7-2,1-3.09a12.5,12.5,0,0,1,.28-1.55,12.83,12.83,0,0,1,1.34-2,23.58,23.58,0,0,0,2.67-4.08c.34-.78.94-1.47,1.2-2.18.35-1,.27-2.34.71-3.38.19-.47.68-.89.77-1.34a30.38,30.38,0,0,0,.21-3.09c.13-1.09,1-1.89,1.41-2.88a9.17,9.17,0,0,0,.42-2.18c.27-1.41,1.39-2.5,1.76-3.94-.61-.12-1.06-.63-1.62-.91-.82-.42-2.14-1-2.53-1.83a8.09,8.09,0,0,1-.56-2.18,14.51,14.51,0,0,1,.07-3.24c.16-1.1,1.11-2.52,1.55-3.73.16-.45.39-.9.49-1.27.16-.62.1-1.32.28-1.76a19.75,19.75,0,0,1,1.48-2c1.06-1.79,1.47-3.59,3-4.64-.44-.43-.89-.84-1.34-1.27.48-1.4,2-1.71,2.88-2.74-.56-2.54,1.92-3.42,2.46-5.27.09-.31,0-.72.14-1.06.17-.55.67-.95.77-1.48.14-.74-.07-1.75,0-2.6.05-.67.27-1.28.28-1.76,0-1-.54-2.34-.56-3.59a10.19,10.19,0,0,1,.49-3,7.43,7.43,0,0,0,.63-2.81c-.12-.69-1.13-1.52-1.62-2.18a9.27,9.27,0,0,1-1.55-2.18c-.25-1.18.55-2.38,0-3.66-.12-.32-.65-.24-.77-.56a6.38,6.38,0,0,1,.14-1.05c-.89,0-1.7.09-2.18-.56a11.42,11.42,0,0,1-1.13-2.88,3.58,3.58,0,0,1,.49-2.6,2.24,2.24,0,0,0,2-.28,1.77,1.77,0,0,0,1.47.07c.88-.89-.27-2.48.36-3.66-1.92-1-3-3.91-2.75-7.11.43-5.42,2.34-10.81,2.75-16-.41-.08-.56.71-1,.84-.22-.27-.5-.62-.91-.49.18-1.27.66-2.35.35-3.73-.23-1-.67-1.59-.42-2.53A9,9,0,0,1,150,64.16c.28-.34.67-.69,1-1.06s.83-.73,1-1.06a6.86,6.86,0,0,0,.21-1.69c.19-1.55.61-3.33.92-4.71.47-2.06,1-3.78,2.53-5a8.71,8.71,0,0,1,6-1.69c.4,0,.75.32,1.26.28.87-.07,1.44-1.3,2-2a12.76,12.76,0,0,0,.91-1.06c.29-.48.36-1,.63-1.34,1-1.35,3.4-1.89,5.49-2.18a2,2,0,0,0,.63-.7c0-.88-1.55-1.49-1.62-2.32,0-.6.81-1.33,1.27-1.76a12.47,12.47,0,0,1,3.52-2.53,7.47,7.47,0,0,0,2-1c.59-.66.46-1.71,1-2.32-.05-.72-.72-1.33-.85-2a3.81,3.81,0,0,1,1.55-3.45c-.09-.57-.8-.51-.7-1.27.34-.27.78.21,1,.07a5.71,5.71,0,0,0,.14-2c-3.05-.75-8.75-.93-10.13-3.66-1.28-2.54,2.2-3.31,4.78-3a5.85,5.85,0,0,1,1-2.39c.23-.34.65-.62.84-1,.27-.52.23-1.09.7-1.48a7.38,7.38,0,0,1-.07-1.34,6.11,6.11,0,0,1,2.32-3.31,2.83,2.83,0,0,1,3.09.07c2.27-2.4,5.33-5.21,10.06-5.49,1.15-.07,2.51-.48,3.24.14A10.62,10.62,0,0,1,200.55.5c1.45,0,2.88.37,2.74,2,1.14,1.32,2.08,2.85,3.31,4.08a28.9,28.9,0,0,1,2.81,1.55c2.36,1.47,3.43,4.31,4.29,7.17a50.61,50.61,0,0,0,2.46,6.19c.3.66.78,1.36.56,2.11a33.07,33.07,0,0,0-4.36-.56c-.55.29-.27.87-.7,1.27-.89.82-4.51.62-6.12.49-.25.8.55,1.29.77,1.9a8.83,8.83,0,0,1,.35,2.74,38.72,38.72,0,0,1-1.55,10.2c.34.14.89.05,1.13.28.08,1.91-1.12,3.79-.56,5.77.72.57,1.92.66,2.67,1.2A1.59,1.59,0,0,1,206.25,49c-.26.26-.45.58-.91.63a3.49,3.49,0,0,1-1,2.11,18.17,18.17,0,0,0,.85,2.39,19.12,19.12,0,0,1,2.25.42c.58,1.22,1.39,2.22,1.9,3.52-.33.64.29,1.15.42,1.76A27.35,27.35,0,0,1,216,66.2c.74-.05,1.07-.62,1.69-.7.95-.13,1.46.39,2.32-.07.46-.25.64-.73,1-1.06.53-.49,1.2-.72,1.69-1.19,1-.94,1.45-2.48,2.46-3.52.49-.5,1.15-.79,1.55-1.48-2.55-1.51-6.09-2-8.65-3.52.68-.93,2.07-.94,3.52-1.12,3.33-.42,7.95-.43,10.9.56a47,47,0,0,1,5.35,2,23,23,0,0,0,5.63,1.76,41.84,41.84,0,0,1,5.91,1.41c.76,3.8-1.78,6.26-4.36,7.38a64,64,0,0,0-8.16-3.38c.21,1.78-.73,2.71-1.62,3.59a4.5,4.5,0,0,1-.63,2.11c-.22.23,0-.15-.14-.14s-.43.45-.71.56a2.49,2.49,0,0,1-1.19,1.48c-.12,1.17-.19,2.62-1.19,2.81C230.64,73.85,229.83,73.38,229.11,73.23Zm-11.74,7.32c-.36.21-.64.64-1.06.91s-1.17.7-1.76,1.13a14,14,0,0,1-1.69,1.26,9.83,9.83,0,0,0-1.69.49c-.54.34-1,1.15-1.41,1.27-.62.16-1.24-.17-1.69.28a16.59,16.59,0,0,0,.7,6.19,12.45,12.45,0,0,1,1.9.14c2.54-4,5.43-8,7.67-12.1C218.09,80.4,217.72,80.33,217.37,80.54ZM200.7,107.76c0,.24-.33.71.07.84.88-1.14,1.35-2.68,2.25-3.8-.6-.36-1.35-.58-1.9-1C200.93,105.1,200.81,106.58,200.7,107.76Z"/><path class="cls-2" d="M464.92,76.9l15.27-31.08-15.8,4.74s-2.11-6.84-3.16-8.16-5-1.58-8.16-2.89-3.43-3.43-4.74-5.27c0,0-1.85-5.8-.53-7.64s.53-6.06-.26-7.11,1.58,1.58-1.32-6.33-5-10.27-13.7-10S420.14,19,420.4,23.17s4.47,5.53-.27,9.49-.79,10.53-.79,10.53-6.05-2.39-8.95,1.56-9.75,32.13-9.22,39,12.9,8.69,12.9,8.69c0,3.69-2.11,22.92-2.11,22.92l1.58,2.11c-1.32,2.9,2.37,50.58,2.37,50.58s5.8-1.32,3.69,1.58,6.32,40.3,7.64,45.33-1.58,15.78-1.58,15.78c0,4.48,5.53,9.49,5.53,9.49,2.9-.79,5.79-5.79,5.79-5.79.53,2.63,5.53,5.27,5.53,5.27l3.16-4.22c1.58-2.11.27-17.65-.27-20.52s.53-9.51.53-9.51c4.48-12.9,8.16-36.34,8.16-36.34l2.9-.79c1.32-2.64,3.42-53.21,3.42-53.21l3.43-1.58c-1.58-.79-2.9-23.71-2.9-23.71C466.5,90.06,464.92,76.9,464.92,76.9Zm-47.41,1.31h-2.89s-.53-8.43,1.32-10.28C415.93,67.93,418,74.52,417.51,78.21Zm20.55,90.87c-1.84,1.58.27,39-.79,41.36s0,14.75-.79,13.69-1.58-9.2-1.32-9.2-1.06-6.08-1.06-6.08c1.06-6.08-.26-39.51-.26-39.51S439.9,167.5,438.05,169.08Z"/></g></g></svg>