<?xml version="1.0" encoding="utf-8"?>
<!-- Generator: Adobe Illustrator 21.0.2, SVG Export Plug-In . SVG Version: 6.00 Build 0)  -->
<svg version="1.1" id="Layer_1" xmlns="http://www.w3.org/2000/svg" xmlns:xlink="http://www.w3.org/1999/xlink" x="0px" y="0px"
	 viewBox="0 0 376 241.1" style="enable-background:new 0 0 376 241.1;" xml:space="preserve">
<style type="text/css">
	.st0{fill:#152D53;}
	.st1{fill:#AB1D40;}
	.st2{fill:#6CAFE0;}
</style>
<title>Asset 2</title>
<g id="Layer_2">
	<g id="by_the_numbers">
		<path class="st0" d="M98.1,74.5c-0.3,0.5-1.4,1.1-1.8,0.3c-2.9,5.1-6.1,10-9.1,15.1c-1,1.7-2,3.4-2.9,5.2
			c-0.1,0.1-0.2,0.2-0.4,0.1c0.6,0.8,1.8,1.7,1.7,2.9c0,0.3-0.3,0.6-0.4,0.9s0,0.9-0.1,1.3c-0.2,0.7-0.8,1.2-1,1.9
			c-0.4,1-0.6,2-1.4,2.5c0.2,1-0.6,1.3-1,2.1c-0.3,0.5-0.3,1-0.6,1.2c-0.7,0.4-1.5,0.7-2.3,0.8c-0.7,0-1.5-0.4-2.3-0.2
			c-0.6,0.6-1.1,1.2-1.5,2c-0.5,0.7-0.8,1.5-1,2.3c0,0.5,0.6,1.2,0.8,1.8c0.6,1.3,1,2.6,1.3,3.9c0.2,0.7,0.2,1.5,0.3,2.2
			c0.2,1.2,1.1,3.2,0.3,4.5c-0.6,0.2-0.9-0.4-1.6-0.3c0.5,1.6,0.4,2.9,1.1,4.1c0.4,0.9,1.4,1.3,1.9,2.1c0.2,0.5,0.4,1,0.6,1.5
			c0.6,0.9,1.2,1.7,1.8,2.5c0.8,0.7,2.5,1,2.6,2.3c0,0.6-0.4,1.1-0.4,1.7c0.2,0.7,0.5,1.4,0.9,2.1c0.7,1.4,1.5,2.4,2.3,3.7
			c0.3,0.6,0.7,1.2,1.2,1.8c0.3,0.3,0.8,0.4,1,0.6c0.9,0.9,1.3,3,1.6,4.9c0.4,1.9,0.6,3.9,0.7,5.8c0,1.3-0.3,2.8-0.4,4.2
			c0,0.6,0.1,1.3,0,1.9c-0.3,3.1-2.6,4.5-3.6,6.8c1.5,2.7,1,6.8,1.2,10.6c0.2,1.4,0.1,2.8-0.1,4.2c-0.1,0.4-0.5,0.8-0.6,1.2
			c-0.1,0.7-0.1,1.5,0,2.2c0.2,1.9,2.1,2.8,1.9,4.6c-0.1,0.6-0.6,1.1-0.8,1.7c0.5,0.7,1.6,0.6,2.4,0.8c2.7,0.4,5.7,0.1,7.2,1.8
			c0.3,0.3,0.4,0.9,0.8,1.2c0.2,0.2,0.6,0.2,0.8,0.5c0.4,0.9,0.5,1.8,0.3,2.8c-0.1,0.5-0.3,1-0.6,1.4c-1.1,1.2-2.7,2-4.4,2.1
			c-0.4,0-0.8-0.2-1-0.2s-0.5,0.3-0.9,0.4c-1,0.2-2,0.1-3-0.3c-1.2,0.5-2.2-0.3-3.2-0.6c-0.3-0.1-0.6,0.1-0.9,0
			c-0.8-0.1-1.2-0.8-1.9-1.1c-0.9-0.3-1.8-0.4-2.7-0.6c-0.9-0.2-1.9-0.3-2.8-0.4c-0.3,0.3-0.4,0.9-0.7,1.3c-0.6,0.1-1.3,0-1.9-0.3
			c-0.8,0.3-1.7,0.2-2.4-0.2c-1.4,0.5-2.3-0.5-3.6-0.6c-1.5-0.9-2.4-2.6-2.2-4.3c0.1-0.5,0.2-1,0.2-1.5c-0.1-0.9-1-1.4-1.2-2.1
			c-0.5-1.2,0-3.3,0.1-4.7c-0.1-0.9-0.2-1.9-0.5-2.8c-0.3-1.5-0.3-2.9-0.5-4.3c-0.2-1.2-0.8-2.4-1-3.6s-0.6-2.6-0.7-3.9
			c-0.2-1.7,0.2-3.6-0.3-5c-0.3-0.7-1.1-1.4-1.5-2.3c-1.1-2.2-0.7-4.8-1.7-6.7c-0.5-0.8-1.2-1.5-1.7-2.3s-1-1.7-1.5-2.5
			c-1-1.7-1.8-3.5-3.2-4.7c-1.4,2.2-2,5.3-3,8.1c-0.3,0.9-0.8,1.7-1,2.6s-0.3,1.9-0.6,2.9c-0.5,1.4-1,2.8-1.7,4.1
			c-0.3,0.7-0.6,1.4-0.9,2s-0.7,1.2-1,1.9c-0.2,0.7-0.5,1.4-1,2c-0.2,1.7-0.8,3.3-1.7,4.7c-0.6,1-0.9,2.2-1.5,3
			c-0.4,0.6-0.9,1.1-1.3,1.7c-1.2,1.7-2.7,3.2-4.4,4.5c-0.5,0.4-1.1,0.6-1.7,1s-1,0.7-1.5,1.1c-1.1,1.6-1.5,3.5-2.4,5.1
			c-0.7,1.2-1.9,2-2.6,3.2c-0.5,0.9-0.8,1.8-1.2,2.7s-1.2,1.5-1.6,2.3s-0.2,1.6-0.5,2.3c-0.5,1.1-1.5,2-2.1,3c-0.3,1-0.5,2-0.5,3
			c-0.1,0.7-0.3,1.6-0.4,2.5c0.1,0.9,0,1.8-0.1,2.8c-0.3,0.7-1.5,0.6-2,1.2c-0.3,2.9,3.7,2.1,4.4,4.1c1.4,0.6,2.5,1.7,3.2,3
			c0.5,0.6,0.9,1.4,1.2,2.1c0.1,0.5,0,0.8,0,1s0.5,0.7,0.4,1.4c-0.1,1-0.5,1.9-1.2,2.7c-1.4,0.9-3.1,1.4-4.8,1.4
			c-0.5-0.1-1-0.1-1.5-0.1c-0.3,0-0.6,0.4-1,0.5c-0.7,0-1.4-0.1-2.1-0.5c-0.9,0.6-2.6,0.2-3-0.6c-0.7,0.2-2.1-0.1-2.2-1
			c-0.2-0.2-0.5,0.1-0.7-0.1c-0.2-0.2-0.4-0.4-0.6-0.6c-0.2-0.2-0.3-0.5-0.5-0.7s-0.5-0.2-0.6-0.3c-0.4-0.5-0.7-1-1-1.6
			c-0.8-1.3-1.8-2.5-3-3.5c-0.5,0.8-1.7,0-2.3-0.5c-0.9-0.7-1.7-1.6-2.2-2.6c-0.3-0.5-0.6-1.1-0.8-1.7c0-0.5,0.3-0.9,0.5-1.4
			s0.2-1.3,0.3-2c0.2-0.6,0.4-1.2,0.5-1.8c0-0.4-0.8-0.9-1-1.2c-0.4-0.6-0.6-1.3-0.8-2c-0.2-1.6,0.6-3,0.5-4.6c0-0.5-0.3-1-0.3-1.6
			c0.1-0.8,0.2-1.6,0.3-2.4c0.1-0.4,0.3-0.7,0.3-1.1c0-0.3-0.1-0.6-0.1-0.9c-0.2-2.3,0.8-4,1.5-5.7c0.3-0.8,0.6-1.7,1-2.6
			c0.5-0.8,0.8-1.7,1-2.6c0-0.3-0.2-0.6-0.2-0.9c0.1-0.4,0.2-0.8,0.3-1.2c0.2-1.3,0.7-2,1-3c0.1-0.5,0.2-1,0.3-1.5
			c0.4-0.7,0.8-1.4,1.3-2c1-1.2,1.9-2.6,2.6-4c0.3-0.8,0.9-1.4,1.2-2.1c0.3-0.9,0.3-2.3,0.7-3.3c0.2-0.5,0.7-0.9,0.8-1.3
			c0.1-1,0.2-2,0.2-3c0.1-1.1,1-1.9,1.4-2.8c0.2-0.7,0.4-1.4,0.4-2.1c0.3-1.4,1.4-2.5,1.7-3.9c-0.6-0.1-1-0.6-1.6-0.9
			c-0.8-0.4-2.1-1-2.5-1.8c-0.3-0.7-0.5-1.4-0.6-2.1c-0.1-1.1-0.1-2.1,0.1-3.2c0.1-1.1,1.1-2.5,1.5-3.7c0.2-0.4,0.4-0.9,0.5-1.2
			c0.2-0.6,0.1-1.3,0.3-1.7c0.4-0.7,0.9-1.4,1.5-2c1-1.8,1.5-3.5,2.9-4.6c-0.4-0.4-0.9-0.8-1.3-1.2c0.5-1.4,2-1.7,2.8-2.7
			c-0.5-2.5,1.9-3.4,2.4-5.2c0.1-0.3,0-0.7,0.1-1c0.2-0.5,0.7-0.9,0.8-1.4c0.1-0.7-0.1-1.7,0-2.6c0-0.7,0.3-1.3,0.3-1.7
			c0-1-0.5-2.3-0.5-3.5c0-1,0.2-2,0.5-2.9c0.4-0.9,0.6-1.8,0.6-2.8c-0.1-0.7-1.1-1.5-1.6-2.1c-0.6-0.6-1.1-1.4-1.5-2.2
			c-0.2-1.2,0.5-2.3,0-3.6c-0.1-0.3-0.6-0.2-0.8-0.6c0-0.3,0.1-0.7,0.1-1c-0.9,0-1.7,0.1-2.1-0.6c-0.5-0.9-0.9-1.8-1.1-2.8
			c-0.2-0.9,0-1.8,0.5-2.6c0.7,0.2,1.4,0,1.9-0.4c0.5,0.2,1,0.3,1.5,0.1c0.9-0.9-0.3-2.4,0.4-3.6c-1.9-1-3-3.8-2.7-7
			c0.4-5.3,2.3-10.6,2.7-15.7c-0.4-0.1-0.5,0.7-1,0.8c-0.2-0.3-0.5-0.6-0.9-0.5c0.2-1.2,0.6-2.3,0.4-3.7c-0.2-1-0.7-1.6-0.4-2.5
			c0.4-0.9,0.9-1.7,1.5-2.5c0.3-0.3,0.7-0.7,1-1s0.8-0.7,1-1c0.1-0.5,0.2-1.1,0.2-1.7c0.2-1.5,0.6-3.3,0.9-4.6c0.5-2,1-3.7,2.5-4.9
			c1.7-1.3,3.8-1.9,5.9-1.7c0.4,0,0.7,0.3,1.2,0.3c0.8-0.1,1.4-1.3,1.9-1.9c0.3-0.3,0.6-0.7,0.9-1c0.3-0.5,0.3-1,0.6-1.3
			c1-1.3,3.3-1.9,5.4-2.1c0.3-0.2,0.5-0.4,0.6-0.7c0-0.9-1.5-1.5-1.6-2.3c0-0.6,0.8-1.3,1.2-1.7c1-1,2.2-1.9,3.5-2.5
			c0.7-0.2,1.4-0.6,2-1c0.6-0.6,0.5-1.7,1-2.3c0-0.7-0.7-1.3-0.8-2c-0.1-1.3,0.4-2.6,1.5-3.4c-0.1-0.6-0.8-0.5-0.7-1.2
			c0.3-0.3,0.8,0.2,1,0.1c0.2-0.7,0.2-1.3,0.1-2c-3-0.7-8.6-0.9-10-3.6c-1.3-2.5,2.2-3.2,4.7-3c0.2-0.8,0.5-1.7,1-2.4
			c0.2-0.3,0.6-0.6,0.8-1c0.3-0.5,0.2-1.1,0.7-1.4C47,13.7,47,13.2,47,12.8c0.3-1.3,1.1-2.4,2.2-3.2c0.9-0.6,2.1-0.5,3,0.1
			c2.2-2.3,5.2-5.1,9.9-5.4c1.1-0.1,2.5-0.5,3.2,0.1c1.5-0.8,3.1-1.3,4.8-1.4c1.4,0,2.8,0.4,2.7,1.9c1.1,1.3,2,2.8,3.2,4
			c0.9,0.5,1.9,1,2.8,1.5c2.3,1.4,3.4,4.2,4.2,7.1c0.7,2.1,1.5,4.1,2.4,6.1c0.3,0.6,0.8,1.3,0.6,2.1c-1.4-0.3-2.8-0.5-4.3-0.5
			c-0.5,0.3-0.3,0.9-0.7,1.2c-0.9,0.8-4.4,0.6-6,0.5c-0.2,0.8,0.6,1.3,0.8,1.9c0.3,0.9,0.4,1.8,0.3,2.7c-0.1,3.4-0.6,6.7-1.5,10
			c0.3,0.1,0.9,0,1.1,0.3c0.1,1.9-1.1,3.7-0.6,5.7c0.7,0.6,1.9,0.7,2.6,1.2c0.4,0.8,0.1,1.7-0.6,2.1c-0.4,0.2-1,0.3-1.4,0
			c-0.2,0.2-0.4,0.6-0.9,0.6c-0.1,0.8-0.4,1.5-1,2.1c0.2,0.8,0.5,1.6,0.8,2.3c0.7,0.1,1.5,0.2,2.2,0.4c0.6,1.2,1.4,2.2,1.9,3.5
			c-0.3,0.6,0.3,1.1,0.4,1.7c2.4,1.7,4.4,3.8,6.1,6.2c0.7-0.1,1.1-0.6,1.7-0.7c0.9-0.1,1.4,0.4,2.3-0.1c0.4-0.2,0.6-0.7,1-1
			c0.5-0.5,1.2-0.7,1.7-1.2c1-0.9,1.4-2.4,2.4-3.5c0.5-0.5,1.1-0.8,1.5-1.5c-2.5-1.5-6-2-8.5-3.5c0.7-0.9,2-0.9,3.5-1.1
			c3.3-0.4,7.8-0.4,10.7,0.5c1.8,0.6,3.5,1.2,5.3,2c1.8,0.8,3.6,1.4,5.5,1.7c2,0.3,3.9,0.8,5.8,1.4c0.8,3.7-1.8,6.2-4.3,7.3
			c-2.6-1.3-5.3-2.4-8-3.3c0.2,1.8-0.7,2.7-1.6,3.5c0,0.7-0.2,1.4-0.6,2.1c-0.2,0.2,0-0.2-0.1-0.1s-0.4,0.4-0.7,0.6
			c-0.2,0.6-0.6,1.1-1.2,1.4c-0.1,1.2-0.2,2.6-1.2,2.8C99.6,75.1,98.8,74.6,98.1,74.5z M86.6,81.7c-0.3,0.2-0.6,0.6-1,0.9
			s-1.2,0.7-1.7,1.1c-0.5,0.5-1.1,0.9-1.7,1.2c-0.6,0.1-1.1,0.3-1.7,0.5c-0.5,0.3-0.9,1.1-1.4,1.2c-0.6,0.2-1.2-0.2-1.7,0.3
			C77.3,89,77.6,91,78.2,93c0.6,0,1.3,0,1.9,0.1c2.5-3.9,5.3-7.9,7.5-11.9C87.3,81.5,87,81.4,86.6,81.7z M70.2,108.4
			c0,0.2-0.3,0.7,0.1,0.8c0.9-1.1,1.3-2.6,2.2-3.7c-0.6-0.3-1.3-0.6-1.9-1C70.4,105.8,70.3,107.2,70.2,108.4z"/>
		<path class="st1" d="M365,229.6c-1.3-1.1-7.5-7.3-8.5-9s-3-7-3-8.8s2.2-5.1,1.1-7s-2.7-9.8-1.9-11.4s0.9-9.4,0-10.7
			s-0.2-1.5-0.2-2.8c-0.4-2.8-1.2-5.5-2.3-8.1c-0.8-1.7,0.8-2.3,1.3-3.6s0.2-4.3,0.2-4.3c2.4-13.1-6.2-45.1-6.2-45.1l6.2-0.4
			c-0.9,0-1.9-1.1-2.3-3.2s0.2-2.4,2.3-4.5s4.9-9.2,5.6-11.3s0.8-4.9,2.1-8.3s0.4-4.7-0.2-7.3s0.9-2.1,1.9-5.4s-1.9-1.5-2.3-3.9
			s-1.9-6.4-2.1-8.4s-3.6-7-4.3-8.3s0.2-2.6-3.4-10.9s-7-7.1-7-7.1c-11.3-0.6-16.1-6.8-16.1-6.8c-1.1-0.9,0.6-6.6,0.6-6.6
			c0.8-0.8,2.1-4.9,2.1-4.9c0.8,0,1.3-2.1,1.3-2.1c0.1-0.3,0.1-0.6,0.1-0.9c0.7-5.1-1.6-4.9-1.6-4.9c0-0.9-0.8-6-1.3-6.6
			s-3.6-8.8-12.4-6.6s-8.5,15.8-8.5,15.8c-2.3,1.1,2.4,7.3,2.4,7.3c0,1.7,2.8,5.4,2.8,5.4l-0.6,3.4c0,0-5.8,4.1-7.3,4.7
			s-6,1.5-7.1,2.6s-6.6,0.6-8.6,1.1s-4.7,3.6-4.3,5.1s-2.2,5.6-2.8,7.3s-0.8,3.4-2.1,3.2s-2.6,6-3.8,7.5s-6,9.6-6.4,10.9
			s-1.5,3-2.4,5.3s6,17.5,6.6,19.2s8.5,11.8,8.3,13.3s-4.1,10.5-2.4,11.6s10.9-0.2,12.4-0.9s6.4-0.4,5.8,0.9s3.8,19.5,4,21.4
			s-0.4,20.3,0,24.8s0.2,36.3,0.4,38.3s5.1,13.1,4.7,15.4s-2.2,5.8-3.6,7.9s-1.5,7.7,0.9,8.8s9-1.7,10-2.3s2.1-7,2.1-7
			s3.4-2.1,3.4-3.4s-1.9-5.3-0.9-7.3s0.3-16.9-1-19.3s-0.4-4.7-0.4-6.8s1.3-7.3,0.6-8.8s-1.7-4.7-0.4-6s8.1-33.4,8.1-33.4
			c-0.8,3.4,9.8,35.3,11.1,38.5s0.9,13.9,1.5,16.9s5.5,14.5,4.5,15.6s-0.9,10.3-0.8,11.1s7,1.3,7,1.3c0.9-0.8,3.8,2.8,3.8,2.8
			c6,7,17.7,4.3,17.7,4.3C372.3,235.4,366.3,230.7,365,229.6z M287.3,74.7c-1.1,4-0.9,17.4-1.6,16c-0.8-1.5-3.2-8.1-2.4-8.6
			C283.8,81.7,286.2,76.8,287.3,74.7c0.1-0.4,0.2-0.8,0.5-1.1L287.3,74.7z M343.9,85.1c-0.8-1.7,2.1-8.3,2.1-7.7s0.8,3,1.7,2.8
			s1.5,0,0.8,1.1s-0.9,6.8-1.1,7.7c-0.5,1.3-1,2.6-1.7,3.8C345.1,92.6,344.7,86.8,343.9,85.1z"/>
		<path class="st2" d="M229.1,73.2c-0.3,0.5-1.4,1.1-1.8,0.3c-3,5.2-6.2,10.2-9.3,15.4c-1,1.7-2.1,3.5-3,5.3
			c-0.1,0.1-0.2,0.2-0.4,0.1c0.6,0.8,1.9,1.7,1.8,3c0,0.3-0.3,0.6-0.4,0.9s0,0.9-0.1,1.3c-0.2,0.8-0.8,1.3-1.1,2
			c-0.4,1-0.6,2-1.4,2.5c0.2,1-0.6,1.4-1.1,2.1c-0.3,0.5-0.3,1-0.6,1.3c-0.7,0.4-1.6,0.7-2.4,0.8c-0.7,0-1.5-0.4-2.3-0.2
			c-0.6,0.6-1,1.3-1.4,2c-0.5,0.7-0.9,1.5-1.1,2.3c0,0.5,0.6,1.2,0.8,1.8c0.6,1.3,1,2.6,1.3,4c0.2,0.8,0.2,1.5,0.3,2.2
			c0.2,1.2,1.1,3.2,0.3,4.6c-0.6,0.2-0.9-0.4-1.6-0.3c0.5,1.6,0.5,2.9,1.1,4.2c0.5,0.9,1.4,1.4,1.9,2.2c0.2,0.5,0.4,1,0.6,1.6
			c0.6,0.9,1.2,1.7,1.8,2.5c0.9,0.7,2.6,1,2.6,2.3c0,0.6-0.5,1.1-0.4,1.8c0.2,0.7,0.5,1.5,0.9,2.1c0.7,1.5,1.5,2.4,2.3,3.7
			c0.3,0.7,0.7,1.3,1.2,1.8c0.3,0.3,0.8,0.4,1.1,0.6c0.9,0.9,1.3,3,1.6,5c0.4,1.9,0.6,3.9,0.7,5.9c0,1.3-0.4,2.8-0.4,4.3
			c0,0.6,0.1,1.3,0,1.9c-0.3,3.2-2.6,4.6-3.7,7c1.6,2.7,1,6.9,1.3,10.8c0.2,1.4,0.1,2.9-0.1,4.3c-0.1,0.4-0.5,0.8-0.6,1.3
			c-0.1,0.7-0.1,1.5,0,2.2c0.2,2,2.1,2.8,1.9,4.7c-0.1,0.6-0.6,1.1-0.8,1.8c0.6,0.7,1.6,0.6,2.5,0.8c2.7,0.4,5.8,0.1,7.3,1.8
			c0.3,0.3,0.4,0.9,0.8,1.3c0.2,0.2,0.6,0.2,0.8,0.5c0.4,0.9,0.5,1.9,0.3,2.8c-0.1,0.5-0.3,1-0.6,1.4c-1.2,1.2-2.7,2-4.4,2.2
			c-0.4,0-0.8-0.2-1.1-0.2s-0.5,0.3-0.9,0.4c-1,0.2-2.1,0.1-3.1-0.3c-1.3,0.5-2.3-0.3-3.2-0.6c-0.3-0.1-0.6,0.1-0.9,0
			c-0.8-0.1-1.2-0.8-2-1.1c-0.9-0.3-1.8-0.4-2.7-0.6c-0.9-0.2-1.9-0.3-2.9-0.4c-0.4,0.3-0.4,1-0.7,1.3c-0.6,0.1-1.3,0-1.9-0.3
			c-0.8,0.3-1.7,0.2-2.5-0.2c-1.4,0.5-2.3-0.6-3.7-0.6c-1.5-0.9-2.3-2.7-2.1-4.4c0.1-0.5,0.2-1,0.2-1.6c-0.1-0.9-1-1.4-1.3-2.2
			c-0.5-1.3,0-3.3,0.1-4.8c-0.1-1-0.2-1.9-0.5-2.8c-0.3-1.5-0.3-2.9-0.5-4.4c-0.2-1.3-0.8-2.4-1.1-3.7s-0.6-2.7-0.7-3.9
			c-0.2-1.7,0.2-3.7-0.4-5.1c-0.3-0.8-1.1-1.4-1.6-2.3c-1.1-2.2-0.7-4.9-1.8-6.8c-0.5-0.9-1.2-1.5-1.8-2.3s-1-1.7-1.5-2.5
			c-1-1.8-1.8-3.6-3.3-4.8c-1.5,2.3-2,5.4-3.1,8.2c-0.3,0.9-0.8,1.7-1.1,2.6s-0.3,2-0.6,3c-0.5,1.4-1.1,2.8-1.7,4.2
			c-0.3,0.7-0.6,1.4-0.9,2s-0.7,1.3-1,1.9c-0.2,0.7-0.5,1.4-1,2c-0.2,1.7-0.8,3.3-1.8,4.8c-0.6,1-0.9,2.2-1.5,3.1
			c-0.4,0.6-0.9,1.1-1.3,1.7c-1.2,1.8-2.7,3.3-4.4,4.6c-0.6,0.4-1.1,0.7-1.7,1.1s-1.1,0.7-1.6,1.1c-1.1,1.7-1.5,3.6-2.5,5.2
			c-0.7,1.2-1.9,2.1-2.6,3.3c-0.5,0.9-0.8,1.9-1.3,2.7s-1.2,1.5-1.6,2.3s-0.2,1.6-0.5,2.3c-0.5,1.2-1.6,2-2.1,3.1
			c-0.3,1-0.5,2-0.6,3c-0.1,0.7-0.3,1.6-0.4,2.5c0.1,0.9,0,1.9-0.1,2.8c-0.3,0.8-1.5,0.6-2,1.3c-0.3,2.9,3.7,2.1,4.4,4.2
			c1.4,0.7,2.5,1.7,3.2,3.1c0.5,0.6,0.9,1.4,1.2,2.2c0.1,0.5,0,0.8,0,1.1s0.5,0.7,0.4,1.4c-0.1,1-0.5,2-1.2,2.8
			c-1.5,1-3.2,1.5-4.9,1.4c-0.5-0.1-1-0.1-1.5-0.1c-0.3,0-0.6,0.4-1,0.5c-0.7,0-1.5-0.1-2.1-0.5c-0.9,0.6-2.7,0.2-3-0.6
			c-0.7,0.2-2.1-0.1-2.2-1.1c-0.2-0.2-0.5,0.1-0.7-0.1c-0.2-0.2-0.4-0.4-0.6-0.6c-0.2-0.2-0.3-0.5-0.5-0.7s-0.5-0.2-0.6-0.4
			c-0.4-0.5-0.7-1.1-1-1.6c-0.8-1.4-1.9-2.6-3.1-3.6c-0.5,0.8-1.8,0-2.3-0.5c-0.9-0.8-1.7-1.7-2.2-2.8c-0.3-0.6-0.6-1.1-0.8-1.8
			c-0.1-0.5,0.4-0.9,0.5-1.4s0.2-1.3,0.4-2c0.2-0.6,0.4-1.2,0.5-1.8c0-0.4-0.8-0.9-1-1.3c-0.4-0.6-0.6-1.3-0.8-2
			c-0.2-1.7,0.6-3.1,0.5-4.6c0-0.6-0.4-1-0.4-1.6c0.1-0.8,0.2-1.6,0.4-2.5c0.1-0.4,0.3-0.7,0.4-1.1c0-0.3-0.1-0.6-0.1-0.9
			c-0.2-2.3,0.8-4.1,1.5-5.8c0.3-0.8,0.6-1.7,1.1-2.6c0.5-0.8,0.8-1.7,1-2.7c0-0.3-0.2-0.6-0.2-0.9c0.1-0.4,0.2-0.9,0.3-1.3
			c0.2-1.3,0.7-2,1-3.1c0.1-0.5,0.2-1,0.3-1.6c0.4-0.7,0.8-1.4,1.3-2c1-1.3,1.9-2.6,2.7-4.1c0.3-0.8,0.9-1.5,1.2-2.2
			c0.4-1,0.3-2.3,0.7-3.4c0.2-0.5,0.7-0.9,0.8-1.3c0.1-1,0.2-2.1,0.2-3.1c0.1-1.1,1-1.9,1.4-2.9c0.2-0.7,0.4-1.4,0.4-2.2
			c0.3-1.4,1.4-2.5,1.8-3.9c-0.6-0.1-1.1-0.6-1.6-0.9c-0.8-0.4-2.1-1-2.5-1.8c-0.3-0.7-0.5-1.4-0.6-2.2c-0.1-1.1-0.1-2.2,0.1-3.2
			c0.2-1.1,1.1-2.5,1.6-3.7c0.2-0.4,0.4-0.9,0.5-1.3c0.2-0.6,0.1-1.3,0.3-1.8c0.5-0.7,0.9-1.4,1.5-2c1.1-1.8,1.5-3.6,3-4.6
			c-0.4-0.4-0.9-0.8-1.3-1.3c0.5-1.4,2-1.7,2.9-2.7c-0.6-2.5,1.9-3.4,2.5-5.3c0.1-0.3,0-0.7,0.1-1.1c0.2-0.6,0.7-0.9,0.8-1.5
			c0.1-0.7-0.1-1.8,0-2.6c0.1-0.7,0.3-1.3,0.3-1.8c0-1-0.5-2.3-0.6-3.6c0-1,0.2-2,0.5-3c0.4-0.9,0.6-1.8,0.6-2.8
			c-0.1-0.7-1.1-1.5-1.6-2.2c-0.6-0.6-1.1-1.4-1.6-2.2c-0.2-1.2,0.6-2.4,0-3.7c-0.1-0.3-0.6-0.2-0.8-0.6c0-0.4,0.1-0.7,0.1-1.1
			c-0.9,0-1.7,0.1-2.2-0.6c-0.5-0.9-0.9-1.9-1.1-2.9c-0.2-0.9,0-1.8,0.5-2.6c0.7,0.2,1.4,0.1,2-0.3c0.5,0.2,1,0.3,1.5,0.1
			c0.9-0.9-0.3-2.5,0.4-3.7c-1.9-1-3-3.9-2.8-7.1c0.4-5.4,2.3-10.8,2.8-16c-0.4-0.1-0.6,0.7-1,0.8c-0.2-0.3-0.5-0.6-0.9-0.5
			c0.2-1.3,0.7-2.3,0.4-3.7c-0.2-1-0.7-1.6-0.4-2.5c0.4-0.9,0.9-1.8,1.5-2.6c0.3-0.3,0.7-0.7,1-1.1s0.8-0.7,1-1.1
			c0.1-0.6,0.2-1.1,0.2-1.7c0.2-1.5,0.6-3.3,0.9-4.7c0.5-2.1,1-3.8,2.5-5c1.7-1.3,3.9-1.9,6-1.7c0.4,0,0.8,0.3,1.3,0.3
			c0.9-0.1,1.4-1.3,2-2c0.3-0.3,0.6-0.7,0.9-1.1c0.3-0.5,0.4-1,0.6-1.3c1-1.3,3.4-1.9,5.5-2.2c0.3-0.2,0.5-0.4,0.6-0.7
			c0-0.9-1.6-1.5-1.6-2.3c0-0.6,0.8-1.3,1.3-1.8c1-1,2.2-1.9,3.5-2.5c0.7-0.2,1.4-0.6,2-1c0.6-0.7,0.5-1.7,1-2.3
			c-0.1-0.7-0.7-1.3-0.9-2c-0.1-1.3,0.5-2.7,1.6-3.5c-0.1-0.6-0.8-0.5-0.7-1.3c0.3-0.3,0.8,0.2,1,0.1c0.2-0.7,0.2-1.3,0.1-2
			c-3.1-0.8-8.8-0.9-10.1-3.7c-1.3-2.5,2.2-3.3,4.8-3c0.2-0.9,0.5-1.7,1-2.4c0.2-0.3,0.6-0.6,0.8-1c0.3-0.5,0.2-1.1,0.7-1.5
			c-0.1-0.4-0.1-0.9-0.1-1.3c0.4-1.3,1.2-2.5,2.3-3.3c1-0.6,2.2-0.6,3.1,0.1c2.3-2.4,5.3-5.2,10.1-5.5c1.1-0.1,2.5-0.5,3.2,0.1
			c1.5-0.9,3.1-1.3,4.8-1.4c1.4,0,2.9,0.4,2.7,2c1.1,1.3,2.1,2.8,3.3,4.1c1,0.5,1.9,1,2.8,1.6c2.4,1.5,3.4,4.3,4.3,7.2
			c0.7,2.1,1.5,4.2,2.5,6.2c0.3,0.7,0.8,1.4,0.6,2.1c-1.4-0.3-2.9-0.5-4.4-0.6c-0.6,0.3-0.3,0.9-0.7,1.3c-0.9,0.8-4.5,0.6-6.1,0.5
			c-0.2,0.8,0.6,1.3,0.8,1.9c0.3,0.9,0.4,1.8,0.4,2.7c-0.1,3.5-0.6,6.9-1.6,10.2c0.3,0.1,0.9,0,1.1,0.3c0.1,1.9-1.1,3.8-0.6,5.8
			c0.7,0.6,1.9,0.7,2.7,1.2c0.4,0.8,0,1.7-0.8,2.1c-0.4,0.2-0.9,0.2-1.3,0c-0.3,0.3-0.4,0.6-0.9,0.6c-0.1,0.8-0.4,1.5-1,2.1
			c0.2,0.8,0.5,1.6,0.9,2.4c0.8,0.1,1.5,0.2,2.2,0.4c0.6,1.2,1.4,2.2,1.9,3.5c-0.3,0.6,0.3,1.2,0.4,1.8c2.4,1.8,4.5,3.9,6.2,6.4
			c0.7-0.1,1.1-0.6,1.7-0.7c0.9-0.1,1.5,0.4,2.3-0.1c0.5-0.2,0.6-0.7,1-1.1c0.5-0.5,1.2-0.7,1.7-1.2c1-0.9,1.4-2.5,2.5-3.5
			c0.5-0.5,1.1-0.8,1.6-1.5c-2.6-1.5-6.1-2-8.6-3.5c0.7-0.9,2.1-0.9,3.5-1.1c3.3-0.4,7.9-0.4,10.9,0.6c1.8,0.6,3.6,1.2,5.4,2
			c1.8,0.8,3.7,1.4,5.6,1.8c2,0.3,4,0.8,5.9,1.4c0.8,3.8-1.8,6.3-4.4,7.4c-2.6-1.3-5.4-2.4-8.2-3.4c0.2,1.8-0.7,2.7-1.6,3.6
			c0,0.7-0.2,1.5-0.6,2.1c-0.2,0.2,0-0.2-0.1-0.1s-0.4,0.4-0.7,0.6c-0.2,0.6-0.6,1.2-1.2,1.5c-0.1,1.2-0.2,2.6-1.2,2.8
			C230.6,73.8,229.8,73.4,229.1,73.2z M217.4,80.6c-0.4,0.2-0.6,0.6-1.1,0.9s-1.2,0.7-1.8,1.1c-0.5,0.5-1.1,0.9-1.7,1.3
			c-0.6,0.1-1.1,0.3-1.7,0.5c-0.5,0.3-1,1.2-1.4,1.3c-0.6,0.2-1.2-0.2-1.7,0.3c-0.2,2.1,0.1,4.2,0.7,6.2c0.6,0,1.3,0,1.9,0.1
			c2.5-4,5.4-8,7.7-12.1C218.1,80.4,217.7,80.3,217.4,80.6L217.4,80.6z M200.7,107.8c0,0.2-0.3,0.7,0.1,0.8c0.9-1.1,1.4-2.7,2.2-3.8
			c-0.6-0.4-1.4-0.6-1.9-1C200.9,105.1,200.8,106.6,200.7,107.8z"/>
	</g>
</g>
</svg>
