<svg xmlns="http://www.w3.org/2000/svg" viewBox="0 0 125.36 170.48"><defs><style>.cls-1{fill:#ab1e41;}.cls-2{fill:#152d53;}</style></defs><title>Asset 8</title><g id="Layer_2" data-name="Layer 2"><g id="by_the_numbers" data-name="by the numbers"><rect class="cls-1" x="39.94" y="134.71" width="4.74" height="11.23" transform="translate(24.56 -5.16) rotate(9.82)"/><rect class="cls-1" x="44.37" y="135.23" width="1.72" height="13.04" transform="translate(24.84 -5.64) rotate(9.82)"/><rect class="cls-1" x="80.05" y="140.54" width="4.74" height="11.23" transform="matrix(-0.99, -0.17, 0.17, -0.99, 138.7, 304.23)"/><rect class="cls-1" x="78.33" y="140" width="1.72" height="13.04" transform="translate(132.22 304.39) rotate(-170.18)"/><rect class="cls-1" x="29.74" y="18.36" width="88.5" height="104.48" rx="7.3" ry="7.3" transform="translate(13.13 -11.59) rotate(9.82)"/><rect class="cls-2" x="40.25" y="31.68" width="15.64" height="39.11" rx="4.44" ry="4.44" transform="translate(9.44 -7.45) rotate(9.82)"/><rect class="cls-2" x="98.49" y="42.28" width="15.68" height="39.11" rx="4.55" ry="4.55" transform="translate(12.11 -17.23) rotate(9.82)"/><circle class="cls-2" cx="32.92" cy="105.2" r="4.63" transform="translate(-76.35 119.69) rotate(-80.18)"/><circle class="cls-2" cx="100.81" cy="116.95" r="4.63" transform="translate(-31.62 196.33) rotate(-80.18)"/><rect class="cls-2" x="55.32" y="25.89" width="54.21" height="5.49" rx="2.74" ry="2.74" transform="translate(6.09 -13.64) rotate(9.82)"/><rect class="cls-2" x="61.56" y="37" width="24.02" height="70.68" rx="5.15" ry="5.15" transform="translate(13.42 -11.49) rotate(9.82)"/><rect class="cls-1" x="26.18" y="125.05" width="74.95" height="10.64" rx="1.69" ry="1.69" transform="translate(23.17 -8.95) rotate(9.82)"/><rect class="cls-1" x="27.85" y="135.55" width="68.9" height="3.77" transform="translate(24.36 -8.61) rotate(9.82)"/><rect class="cls-1" x="61.82" y="3.76" width="45.2" height="13.37" transform="translate(3.02 -14.25) rotate(9.82)"/><polygon class="cls-1" points="118.69 170.48 111.95 170.48 75.9 154.34 80 154.36 118.69 170.48"/><polygon class="cls-1" points="0 170.48 6.73 170.48 42.79 154.34 38.69 154.36 0 170.48"/><polygon class="cls-1" points="91.64 157.92 27.61 157.92 31.38 156.44 87.41 156.52 91.64 157.92"/><polygon class="cls-1" points="103.39 162.41 16.31 162.41 20.19 160.93 99.25 161.01 103.39 162.41"/><polygon class="cls-1" points="113.21 166.65 6.15 166.65 10.15 165.17 108.98 165.25 113.21 166.65"/><polygon class="cls-1" points="35.12 145.43 31.35 139.78 20.85 132.79 27.58 141.13 14.19 136.37 26.04 143.62 11.23 144.17 25.03 146.92 16.13 151.24 26.11 150.28 24.5 154.86 35.12 145.43"/><polygon class="cls-1" points="91.71 153.49 94.8 159.12 102.01 162.41 96.86 156.23 106.12 157.95 98.92 154.86 122.93 153.49 100.29 150.57 103.38 147.31 95.49 150.57 95.49 147.31 91.71 153.49"/></g></g></svg>