<svg xmlns="http://www.w3.org/2000/svg" viewBox="0 0 243.46 196.92"><defs><style>.cls-1{fill:#ab1e41;}.cls-2{fill:#152d53;}.cls-3{fill:#6cafe0;}.cls-4{fill:#fff;}</style></defs><title>Asset 16</title><g id="Layer_2" data-name="Layer 2"><g id="by_the_numbers" data-name="by the numbers"><rect class="cls-1" x="158.03" y="134.71" width="4.74" height="11.23" transform="translate(26.29 -25.31) rotate(9.82)"/><rect class="cls-1" x="162.47" y="135.23" width="1.72" height="13.04" transform="translate(26.57 -25.78) rotate(9.82)"/><rect class="cls-1" x="198.14" y="140.54" width="4.74" height="11.23" transform="matrix(-0.99, -0.17, 0.17, -0.99, 373.16, 324.38)"/><rect class="cls-1" x="196.43" y="140" width="1.72" height="13.04" transform="translate(366.68 324.54) rotate(-170.18)"/><rect class="cls-1" x="147.83" y="18.36" width="88.5" height="104.48" rx="7.3" ry="7.3" transform="translate(14.86 -31.73) rotate(9.82)"/><rect class="cls-2" x="158.34" y="31.68" width="15.64" height="39.11" rx="4.44" ry="4.44" transform="translate(11.18 -27.59) rotate(9.82)"/><rect class="cls-2" x="216.58" y="42.28" width="15.68" height="39.11" rx="4.55" ry="4.55" transform="translate(13.84 -37.38) rotate(9.82)"/><circle class="cls-2" cx="151.02" cy="105.2" r="4.63" transform="translate(21.6 236.05) rotate(-80.18)"/><circle class="cls-2" cx="218.9" cy="116.95" r="4.63" transform="translate(66.33 312.69) rotate(-80.18)"/><rect class="cls-2" x="173.41" y="25.89" width="54.21" height="5.49" rx="2.74" ry="2.74" transform="translate(7.82 -33.79) rotate(9.82)"/><rect class="cls-2" x="179.66" y="37" width="24.02" height="70.68" rx="5.15" ry="5.15" transform="translate(15.15 -31.64) rotate(9.82)"/><rect class="cls-1" x="144.28" y="125.05" width="74.95" height="10.64" rx="1.69" ry="1.69" transform="translate(24.9 -29.09) rotate(9.82)"/><rect class="cls-1" x="145.95" y="135.55" width="68.9" height="3.77" transform="translate(26.09 -28.76) rotate(9.82)"/><rect class="cls-1" x="179.92" y="3.76" width="45.2" height="13.37" transform="translate(4.75 -34.39) rotate(9.82)"/><polygon class="cls-1" points="236.78 170.48 230.05 170.48 193.99 154.34 198.09 154.36 236.78 170.48"/><polygon class="cls-1" points="118.09 170.48 124.83 170.48 160.88 154.34 156.78 154.36 118.09 170.48"/><polygon class="cls-1" points="209.73 157.92 145.7 157.92 149.47 156.44 205.51 156.52 209.73 157.92"/><polygon class="cls-1" points="221.49 162.41 134.41 162.41 138.29 160.93 217.34 161.01 221.49 162.41"/><polygon class="cls-1" points="231.3 166.65 124.25 166.65 128.24 165.17 227.08 165.25 231.3 166.65"/><polygon class="cls-1" points="153.22 145.43 149.44 139.78 138.94 132.79 145.68 141.13 132.28 136.37 144.13 143.62 129.33 144.17 143.13 146.92 134.22 151.24 144.21 150.28 142.59 154.86 153.22 145.43"/><polygon class="cls-1" points="209.81 153.49 212.9 159.12 220.1 162.41 214.95 156.23 224.22 157.95 217.01 154.86 241.03 153.49 218.38 150.57 221.47 147.31 213.58 150.57 213.58 147.31 209.81 153.49"/><path class="cls-3" d="M5.86,145.08a2.53,2.53,0,0,0-1,.16,1.23,1.23,0,0,0-.6.61,4.54,4.54,0,0,0-.36,1.24q-.13.79-.22,2L0,149.36q.06-1.28.12-2.62.06-1.13.07-2.52t0-2.66l.39-.42,3.54.33h9.33l3.59-.33.39.42q0,1.34,0,2.66t.06,2.43q0,1.28.06,2.47l-3.69.24q-.12-1.37-.22-2.22a4.69,4.69,0,0,0-.31-1.31,1.11,1.11,0,0,0-.57-.61,2.53,2.53,0,0,0-1-.15q-.06,2.23-.1,5.07t0,5.82a2.76,2.76,0,0,0,.34,1.59,1.4,1.4,0,0,0,1.21.46h.54a4,4,0,0,0,.51,0l.48-.06.15.18-.27,2.8q-1.22,0-2.37-.09l-2-.06-1.65,0q-.71,0-1.74,0l-2,.1L2.68,161l.24-2.74A11.59,11.59,0,0,0,4.4,158a2.07,2.07,0,0,0,.89-.42,1.43,1.43,0,0,0,.45-.74,4.67,4.67,0,0,0,.12-1.15Z"/><path class="cls-3" d="M26.13,153.95v2a8.25,8.25,0,0,0,.06,1.1,1.1,1.1,0,0,0,.28.64,1.16,1.16,0,0,0,.64.3,8.75,8.75,0,0,0,1.13.1l.15.24-.3,2.5-2-.06-1.62,0H23.21q-.83,0-1.73,0l-1.67.1-1.76.12.27-2.74a2.28,2.28,0,0,0,1.52-.73,3,3,0,0,0,.42-1.8V145.38a2.25,2.25,0,0,0-.16-1,.64.64,0,0,0-.61-.28h-.68a2.1,2.1,0,0,1-.36,0l-.3-.35.33-2.32,1.67,0h4q.92,0,1.82-.07l2.23-.09q8.21,0,8.21,5.6,0,3.51-3.57,5.63l1.84,3.11q1.55,2.63,2.89,2.63l.33.47-.27,2.15-4.61.33a3.18,3.18,0,0,1-2-.61,5,5,0,0,1-1.37-2.1l-1.85-4.55Zm2.35-3.45a2.86,2.86,0,0,0,1.41-1.07,3.71,3.71,0,0,0,.4-1.92,2.16,2.16,0,0,0-.8-1.86,4.36,4.36,0,0,0-2.56-.59c-.22,0-.35,0-.4.12a1.37,1.37,0,0,0-.1.53q-.09,1.13-.13,2.25t-.07,2.25Z"/><path class="cls-3" d="M56.13,156.18a3.73,3.73,0,0,0,.67,1.47,1.55,1.55,0,0,0,1.09.52l.21.3-.24,2.35-1.49,0H55l-1.34,0q-1.07,0-2.08,0l-1.82.06-1.79.06-.24-.27.18-2.5L49,158a2,2,0,0,0,.57-.15.4.4,0,0,0,.22-.25,1.87,1.87,0,0,0,0-.46,2.16,2.16,0,0,0,0-.22c0-.09,0-.19,0-.31l-.18-1.16-1.24,0-1.06,0q-.51,0-1.15,0l-1.24.11-.3,1.34a5.19,5.19,0,0,0-.09.67q0,.4.16.5a1.68,1.68,0,0,0,.76.11h.77l.24.29-.24,2.42q-.8,0-1.61,0l-1.49,0-1.49,0-1.4,0H37.68l.21-2.53a2.21,2.21,0,0,0,1.52-1.64l4.73-15,7.83-.48.45.36q.8,3.24,1.55,6.13.3,1.22.63,2.48t.61,2.41l.52,2.1Q56,155.58,56.13,156.18Zm-10.27-4.4h2.25l.82,0-1-5.21h-.65Z"/><path class="cls-3" d="M66.72,145.55q-.15,2.11-.22,4.86t-.07,5.66a4.84,4.84,0,0,0,.18,1.65.76.76,0,0,0,.77.4h.42a1.27,1.27,0,0,0,.3,0l.24-.06.24.3-.27,2.53-2-.06-1.65,0H63.33l-1.56,0-1.62.06-1.76.06.24-2.56a4.42,4.42,0,0,0,1-.3,1.58,1.58,0,0,0,.59-.45,1.53,1.53,0,0,0,.28-.67,5.87,5.87,0,0,0,.07-1V145.61a2.38,2.38,0,0,0-.21-1.22,1,1,0,0,0-.83-.3h-.27l-.24,0h-.27l-.27-.42.24-2.23h6.12l1.71,0,2.08-.09L68.42,144c-.34.06-.62.12-.83.18a1.2,1.2,0,0,0-.51.25.88.88,0,0,0-.25.43A3.52,3.52,0,0,0,66.72,145.55Z"/><path class="cls-3" d="M83.9,150.82l-.12-5.45a2.13,2.13,0,0,0-.25-1,.88.88,0,0,0-.73-.25h-.92l-.15-.33.15-2.41,1.85.06,1.62,0h2.83l1.34,0,1.44,0-.15,2.68a2.26,2.26,0,0,0-1.32.55,2,2,0,0,0-.4,1.32l-.39,14.79-5.59.36q-1.25-2.08-2.37-3.84t-1.95-3.09q-1-1.52-1.79-2.8H76.6l.09,5.25a2.23,2.23,0,0,0,.27,1.18,1,1,0,0,0,.89.32h.31l.31,0,.39-.06.27.27-.33,2.59L77,160.79l-1.53,0H74.19l-1.59,0q-.81,0-1.5.09l-1.53.12.3-2.74a2.05,2.05,0,0,0,1.26-.55,2,2,0,0,0,.43-1.32L71.93,146a3.24,3.24,0,0,0-.09-.83,1.08,1.08,0,0,0-.33-.54,1.58,1.58,0,0,0-.67-.31,10.87,10.87,0,0,0-1.15-.19l-.36-.41.18-2.36q.65.06,1.4.09l1.4,0h2.87l1.23,0,1.31-.06q1,1.82,2,3.51t1.84,3l1.85,2.92Z"/><path class="cls-3" d="M9.49,196.8l-1.67-.18-1.55-.12q-.83-.06-1.52-.06l-1.37,0q-.74,0-1.4.09l-1.49.12.24-2.77a2.33,2.33,0,0,0,1.53-.7,3,3,0,0,0,.4-1.77v-10a3.29,3.29,0,0,0-.16-1.28.59.59,0,0,0-.58-.33H1.59l-.31,0-.3,0-.3-.42L1,177.1l1.82.06,1.49,0H6.82q.83,0,1.64-.07l2-.09q9.44,0,9.43,9a13.17,13.17,0,0,1-.73,4.51,9.59,9.59,0,0,1-2.07,3.41A9.05,9.05,0,0,1,13.79,196,11.61,11.61,0,0,1,9.49,196.8Zm-.15-16a.54.54,0,0,0-.46.18,1.22,1.22,0,0,0-.16.63q-.15,2.23-.22,4.61t-.07,5.42a2.09,2.09,0,0,0,.22,1.16,1,1,0,0,0,.85.3,3.68,3.68,0,0,0,1.62-.33,2.64,2.64,0,0,0,1.1-1,5.3,5.3,0,0,0,.63-1.85,16.75,16.75,0,0,0,.19-2.77,21.49,21.49,0,0,0-.18-3,5.37,5.37,0,0,0-.61-1.95,2.4,2.4,0,0,0-1.13-1A4.56,4.56,0,0,0,9.34,180.76Z"/><path class="cls-3" d="M28.75,191.24a7.54,7.54,0,0,0,0,.94,1.09,1.09,0,0,0,.2.54.71.71,0,0,0,.44.25,3.9,3.9,0,0,0,.77.06,8.55,8.55,0,0,0,1.58-.12,2,2,0,0,0,1-.46,2.14,2.14,0,0,0,.57-1,10.57,10.57,0,0,0,.35-1.62l3.75-.27.35.45q-.15.86-.3,1.84t-.28,2q-.13,1.1-.25,2.32l-.45.48-3-.09q-1.37-.06-3.08-.09l-3.44,0q-1.16,0-2.28,0l-2,.1-2,.15L21,194a2.25,2.25,0,0,0,1.53-.73,3.32,3.32,0,0,0,.4-1.89l0-10a3.59,3.59,0,0,0-.15-1.28.64.64,0,0,0-.65-.33h-.27l-.24,0a1.13,1.13,0,0,1-.27,0l-.36-.42.27-2.35,2.44.06q1,0,2.25,0h2.25l2.77,0,2.59-.07,2.22-.1q1-.06,1.62-.15l.39.48q-.18.92-.3,1.91t-.22,1.92q-.11,1.06-.16,2.1L33,183.5a3,3,0,0,1,0-.42c0-.12,0-.24,0-.36s0-.23,0-.33a2.35,2.35,0,0,0-.12-.82,1,1,0,0,0-.43-.49,2.48,2.48,0,0,0-.89-.25,11.89,11.89,0,0,0-1.47-.08,1.48,1.48,0,0,0-.82.15c-.13.1-.19.32-.19.65l-.18,3.36h3.32q.55,0,1.09-.07l1.31-.09.36.42-.42,3.42q-.65,0-1.28,0l-1.16,0H31a12.33,12.33,0,0,0-1.24.06l-1,.12q0,.77,0,1.4Z"/><path class="cls-3" d="M46.73,189.66v2a8.25,8.25,0,0,0,.06,1.1,1.1,1.1,0,0,0,.28.64,1.16,1.16,0,0,0,.64.3,8.75,8.75,0,0,0,1.13.1l.15.24-.3,2.5-2-.06-1.62,0H43.81q-.83,0-1.73,0l-1.67.1-1.76.12.27-2.74a2.28,2.28,0,0,0,1.52-.73,3,3,0,0,0,.42-1.8V181.09a2.25,2.25,0,0,0-.16-1,.64.64,0,0,0-.61-.28H39.4a2.1,2.1,0,0,1-.36,0l-.3-.35.33-2.32,1.67,0h4q.92,0,1.82-.07l2.23-.09q8.21,0,8.21,5.6,0,3.51-3.57,5.63l1.84,3.11Q56.84,194,58.18,194l.33.47-.27,2.15-4.61.33a3.18,3.18,0,0,1-2-.61,5,5,0,0,1-1.37-2.1l-1.85-4.55Zm2.35-3.45a2.86,2.86,0,0,0,1.41-1.07,3.71,3.71,0,0,0,.4-1.92,2.16,2.16,0,0,0-.8-1.86,4.36,4.36,0,0,0-2.56-.59c-.22,0-.35,0-.4.12a1.37,1.37,0,0,0-.1.53q-.09,1.13-.13,2.25t-.07,2.25Z"/><path class="cls-3" d="M76.72,191.89a3.73,3.73,0,0,0,.67,1.47,1.55,1.55,0,0,0,1.09.52l.21.3-.24,2.35-1.49,0H75.59l-1.34,0q-1.07,0-2.08,0l-1.82.06-1.79.06-.24-.27.18-2.5,1.07-.15a2,2,0,0,0,.57-.15.4.4,0,0,0,.22-.25,1.87,1.87,0,0,0,0-.46,2.16,2.16,0,0,0,0-.22c0-.09,0-.19,0-.31l-.18-1.16-1.24,0-1.06,0q-.51,0-1.15,0l-1.24.11-.3,1.34a5.19,5.19,0,0,0-.09.67q0,.4.16.5a1.68,1.68,0,0,0,.76.11h.77l.24.29-.24,2.42q-.8,0-1.61,0l-1.49,0-1.49,0-1.4,0H58.27l.21-2.53A2.21,2.21,0,0,0,60,192.33l4.73-15,7.83-.48.45.36q.8,3.24,1.55,6.13.3,1.22.63,2.48t.61,2.41l.52,2.1Q76.54,191.3,76.72,191.89Zm-10.27-4.4H68.7l.82,0-1-5.21h-.65Z"/><path class="cls-3" d="M87.32,181.27q-.15,2.11-.22,4.86T87,191.78a4.84,4.84,0,0,0,.18,1.65.76.76,0,0,0,.77.4h.42a1.27,1.27,0,0,0,.3,0l.24-.06.24.3-.27,2.53-2-.06-1.65,0H83.93l-1.56,0-1.62.06L79,196.6l.24-2.56a4.42,4.42,0,0,0,1-.3,1.58,1.58,0,0,0,.59-.45,1.53,1.53,0,0,0,.28-.67,5.87,5.87,0,0,0,.07-1V181.32a2.38,2.38,0,0,0-.21-1.22,1,1,0,0,0-.83-.3h-.27l-.24,0h-.27l-.27-.42.24-2.23h6.12l1.71,0,2.08-.09L89,179.72c-.34.06-.62.12-.83.18a1.2,1.2,0,0,0-.51.25.88.88,0,0,0-.25.43A3.52,3.52,0,0,0,87.32,181.27Z"/><path class="cls-3" d="M96.22,196.45q-1.16,0-2.28,0l-2,.1-2,.15.27-2.74a2.25,2.25,0,0,0,1.53-.73,3.32,3.32,0,0,0,.4-1.89V181.33a2.38,2.38,0,0,0-.21-1.22,1,1,0,0,0-.83-.3h-.27l-.24,0h-.27l-.27-.42.24-2.23h6.34l2.05,0,2.56-.09-.33,2.92c-.52.06-.94.12-1.27.19a2.93,2.93,0,0,0-.79.27.92.92,0,0,0-.42.43,2,2,0,0,0-.15.65q-.06,1-.12,2.1t-.1,2.34q0,1.25-.06,2.68t0,3.13a1.5,1.5,0,0,0,.26,1,1.09,1.09,0,0,0,.86.3,3.81,3.81,0,0,0,1.33-.19,1.69,1.69,0,0,0,.84-.73,4.07,4.07,0,0,0,.48-1.49q.15-1,.24-2.44l3.75-.39.35.45q-.15,1.13-.27,2.41-.12,1.1-.24,2.54t-.21,3l-.45.48-2.77-.09q-1.25-.06-2.81-.09Z"/><path class="cls-3" d="M116.16,196.8q-.65-2.38-1.22-4.41t-1-3.54l-1-3.21h-.39q-.06,1.85-.09,3.33,0,.65,0,1.28t0,1.16q0,.53,0,.91v.49a.88.88,0,0,0,1,1h.19l.28,0a1.47,1.47,0,0,0,.3,0l.27.24-.36,2.56-1.76-.06-1.43,0h-1.07l-1,0-1.15.08-1.29.13.24-2.68a1.9,1.9,0,0,0,1.24-.52,2.31,2.31,0,0,0,.46-1.45q.27-2.86.51-5.16.09-1,.19-2t.18-1.76q.07-.79.12-1.33c0-.36,0-.59,0-.69a3.44,3.44,0,0,0,0-.64.57.57,0,0,0-.22-.36,1.26,1.26,0,0,0-.55-.19l-1-.15-.24-.24.3-2.53,1.73.09,1.43,0h2.62l1.52,0,1.67-.06q.33,1.7.71,3.36t.71,3q.39,1.61.77,3.07h.39l.86-3.07q.39-1.34.8-3l.83-3.29q1.4,0,2.75,0t2.75-.06l1,0,.91,0,.86-.06.21.12-.24,2.65a3.21,3.21,0,0,0-1.59.34,1.43,1.43,0,0,0-.37,1.18q0,.69.06,1.93t.15,2.68q.09,1.43.21,2.86t.24,2.47a6.14,6.14,0,0,0,.4,2,1,1,0,0,0,1,.57h.33l.3,0,.27,0,.21.24-.27,2.53-1.1,0q-.51,0-1.09,0t-1.09,0H126.4l-1.85.06-1.82.09q-.83,0-1,.07l.36-2.68a2,2,0,0,0,1.18-.42,1.4,1.4,0,0,0,.34-1v-.67c0-.29,0-.61,0-1s0-.73,0-1.12,0-.78,0-1.18q0-1.37-.06-3h-.39q-.51,1.49-1,3.24-.48,1.52-1,3.47t-1.16,4.15Z"/><path class="cls-3" d="M139.4,191.24a7.54,7.54,0,0,0,0,.94,1.09,1.09,0,0,0,.2.54.71.71,0,0,0,.44.25,3.9,3.9,0,0,0,.77.06,8.55,8.55,0,0,0,1.58-.12,2,2,0,0,0,1-.46,2.14,2.14,0,0,0,.57-1,10.57,10.57,0,0,0,.35-1.62l3.75-.27.35.45q-.15.86-.3,1.84t-.28,2q-.13,1.1-.25,2.32l-.45.48-3-.09q-1.37-.06-3.08-.09l-3.44,0q-1.16,0-2.28,0l-2,.1-2,.15.27-2.74a2.25,2.25,0,0,0,1.53-.73,3.32,3.32,0,0,0,.4-1.89l0-10a3.59,3.59,0,0,0-.15-1.28.64.64,0,0,0-.65-.33h-.27l-.24,0a1.13,1.13,0,0,1-.27,0l-.36-.42.27-2.35,2.44.06q1,0,2.25,0h2.25l2.77,0,2.59-.07,2.22-.1q1-.06,1.62-.15l.39.48q-.18.92-.3,1.91t-.22,1.92q-.11,1.06-.16,2.1l-4.11.27a3,3,0,0,1,0-.42c0-.12,0-.24,0-.36s0-.23,0-.33a2.35,2.35,0,0,0-.12-.82,1,1,0,0,0-.43-.49,2.48,2.48,0,0,0-.89-.25,11.89,11.89,0,0,0-1.47-.08,1.48,1.48,0,0,0-.82.15c-.13.1-.19.32-.19.65l-.18,3.36h3.32q.55,0,1.09-.07l1.31-.09.36.42-.42,3.42q-.65,0-1.28,0l-1.16,0h-1.13a12.33,12.33,0,0,0-1.24.06l-1,.12q0,.77,0,1.4Z"/><path class="cls-3" d="M163.84,186.54l-.12-5.45a2.13,2.13,0,0,0-.25-1,.88.88,0,0,0-.73-.25h-.92l-.15-.33.15-2.41,1.85.06,1.62,0h2.83l1.34,0,1.44,0-.15,2.68a2.26,2.26,0,0,0-1.32.55,2,2,0,0,0-.4,1.32l-.39,14.79-5.59.36q-1.25-2.08-2.37-3.84t-1.95-3.09q-1-1.52-1.79-2.8h-.39l.09,5.25a2.23,2.23,0,0,0,.27,1.18,1,1,0,0,0,.89.32h.31l.31,0,.39-.06.27.27-.33,2.59-1.83-.06-1.53,0h-1.26l-1.59,0q-.81,0-1.5.09l-1.53.12.3-2.74a2.05,2.05,0,0,0,1.26-.55,2,2,0,0,0,.43-1.32l.36-10.39a3.24,3.24,0,0,0-.09-.83,1.08,1.08,0,0,0-.33-.54,1.58,1.58,0,0,0-.67-.31,10.87,10.87,0,0,0-1.15-.19l-.36-.41.18-2.36q.65.06,1.4.09l1.4,0h2.87l1.23,0,1.31-.06q1,1.82,2,3.51t1.84,3l1.85,2.92Z"/><path class="cls-3" d="M176.75,180.79a2.53,2.53,0,0,0-1,.16,1.23,1.23,0,0,0-.6.61,4.54,4.54,0,0,0-.36,1.24q-.13.79-.22,2l-3.69.24q.06-1.28.12-2.62.06-1.13.07-2.52t0-2.66l.39-.42,3.54.33h9.33l3.59-.33.39.42q0,1.34,0,2.66t.06,2.43q0,1.28.06,2.47l-3.69.24q-.12-1.37-.22-2.22a4.69,4.69,0,0,0-.31-1.31,1.11,1.11,0,0,0-.57-.61,2.53,2.53,0,0,0-1-.15q-.06,2.23-.1,5.07t0,5.82a2.76,2.76,0,0,0,.34,1.59,1.4,1.4,0,0,0,1.21.46h.54a4,4,0,0,0,.51,0l.48-.06.15.18-.27,2.8q-1.22,0-2.37-.09l-2-.06-1.65,0q-.71,0-1.74,0l-2,.1-2.26.12.24-2.74a11.59,11.59,0,0,0,1.49-.22,2.07,2.07,0,0,0,.89-.42,1.43,1.43,0,0,0,.45-.74,4.67,4.67,0,0,0,.12-1.15Z"/><path class="cls-4" d="M191,108.09l-11.89-2,8.26-48.54L176,55.86l1.46-8.59,23.91-.2Z"/></g></g></svg>