<svg xmlns="http://www.w3.org/2000/svg" viewBox="0 0 251.85 166.13"><defs><style>.cls-1{fill:#ab1e41;stroke:#ab1e41;stroke-miterlimit:10;stroke-width:10.03px;}.cls-2{fill:#6cafe0;}.cls-3{fill:#fff;}</style></defs><title>Asset 12</title><g id="Layer_2" data-name="Layer 2"><g id="by_the_numbers" data-name="by the numbers"><polygon class="cls-1" points="181.91 109.24 151.33 12.68 125.86 59 101.84 42.79 78.3 91.22 47.24 68.53 19.04 117.03 11.01 130.28 189.64 129.35 181.91 109.24"/><polygon class="cls-2" points="157.17 67.49 192.19 67.49 174.68 40.06 157.17 67.49"/><polygon class="cls-2" points="152.08 89.17 197.27 89.18 174.68 53.77 152.08 89.17"/><polygon class="cls-2" points="148.83 110.53 200.52 110.53 174.68 70.04 148.83 110.53"/><polygon class="cls-2" points="143.4 135.14 206.23 135.15 174.68 85.92 143.4 135.14"/><polygon class="cls-2" points="144.73 88.41 168.29 88.64 156.87 70.06 144.73 88.41"/><polygon class="cls-2" points="141.02 102.96 171.43 103.26 156.69 79.29 141.02 102.96"/><polygon class="cls-2" points="138.55 117.31 173.33 117.65 156.48 90.24 138.55 117.31"/><polygon class="cls-2" points="133.97 135.03 177.5 135.47 157 102.14 133.97 135.03"/><polygon class="cls-3" points="161.74 45.52 155.64 42.52 155.64 50.62 149.37 43.29 143.76 50.62 141.72 42.52 131.82 48.16 151.33 12.68 161.74 45.52"/><polygon class="cls-3" points="109.97 50.62 106.28 53.32 106.28 62.57 104.47 57.05 99.38 62.57 98.1 57.05 90.68 62.57 101.84 42.79 109.97 50.62"/><polygon class="cls-3" points="59.11 74.31 55.19 79.07 55.78 86.89 47.72 77.96 43.68 82.05 37.77 82.79 47.02 67.49 59.11 74.31"/><path class="cls-2" d="M17.25,166l-1.36-8.81h-.43l-1.95,8.28L5.35,166l-1.45-6.55q-.28-1.3-.59-2.66t-.57-2.58Q2.47,153,2.24,152t-.39-1.62a4.24,4.24,0,0,0-.65-1.51,1.51,1.51,0,0,0-1-.56L0,148l.28-2.44q.71,0,1.42,0t1.31,0H4.33l2.07,0,1.82,0q1,0,1.79-.09l.22.28-.19,2.6-1.1.16a1.71,1.71,0,0,0-.57.17.41.41,0,0,0-.22.28,2.6,2.6,0,0,0,0,.45q0,.25.06.83t.18,1.42l.26,1.81q.14,1,.29,1.93.34,2.29.8,5h.65q.53-2.16,1-4.13l.39-1.71.39-1.7q.19-.82.34-1.53t.25-1.23a6.18,6.18,0,0,0,.09-.83q0-.62-.32-.79a3.64,3.64,0,0,0-1.41-.17l-.22-.31.28-2.47q.92,0,1.81,0t1.61,0h1.55l2.06,0,1.81,0q.93,0,1.76-.09l.25.28-.22,2.63-1.08.15a2.07,2.07,0,0,0-.56.15.36.36,0,0,0-.22.26,2.84,2.84,0,0,0,0,.48q0,.25.06.83t.17,1.42q.11.83.25,1.8t.3,1.93q.34,2.28.81,5h.65q.64-3,1.2-5.34.21-1,.44-2t.4-1.85q.17-.84.28-1.44a6,6,0,0,0,.11-.79q0-.4-.17-.51a1.66,1.66,0,0,0-.76-.11h-.77l-.22-.3.25-2.51,1.61.06q.71,0,1.5,0h3.94q.62,0,1.17,0l-.22,2.63a1.35,1.35,0,0,0-.73.48,4.78,4.78,0,0,0-.51,1.22L25.4,165.51Z"/><path class="cls-2" d="M40.11,149.87q-.15,2.19-.23,5t-.08,5.87A5,5,0,0,0,40,162.5a.78.78,0,0,0,.8.42h.43a1.31,1.31,0,0,0,.31,0l.25-.06.25.31-.28,2.63-2.1-.06-1.71,0-1.34,0q-.74,0-1.62,0l-1.68.06-1.82.06.25-2.66a4.6,4.6,0,0,0,1-.31,1.63,1.63,0,0,0,.62-.46,1.59,1.59,0,0,0,.29-.69,6,6,0,0,0,.08-1.06V149.93a2.46,2.46,0,0,0-.22-1.26,1,1,0,0,0-.87-.31l-.28,0-.25,0h-.28l-.28-.43.25-2.32h5l1.38,0,1.78,0,2.16-.09-.22,2.78q-.53.09-.87.18a1.27,1.27,0,0,0-.53.26.93.93,0,0,0-.26.45A3.68,3.68,0,0,0,40.11,149.87Z"/><path class="cls-2" d="M49.35,165.63q-1.2,0-2.36,0l-2.09.11-2.07.15.28-2.84a2.34,2.34,0,0,0,1.59-.76,3.45,3.45,0,0,0,.42-2V149.94a2.47,2.47,0,0,0-.22-1.27,1,1,0,0,0-.87-.31l-.28,0-.25,0h-.28L43,148l.25-2.32h5l1.61,0,2.13,0,2.66-.09-.34,3q-.8.09-1.31.2a3.06,3.06,0,0,0-.82.28,1,1,0,0,0-.43.45,2.06,2.06,0,0,0-.15.68q-.06,1.05-.12,2.18t-.11,2.43q0,1.3-.06,2.78t0,3.24a1.56,1.56,0,0,0,.27,1,1.13,1.13,0,0,0,.89.31,4,4,0,0,0,1.38-.2,1.76,1.76,0,0,0,.88-.76,4.22,4.22,0,0,0,.5-1.54q.16-1,.25-2.53l3.9-.4.37.46q-.15,1.17-.28,2.5-.12,1.14-.25,2.64t-.22,3.11l-.46.5-2.87-.09q-1.3-.06-2.92-.09T49.35,165.63Z"/><path class="cls-2" d="M69.5,166l-1.73-.19-1.61-.12q-.86-.06-1.58-.06t-1.42,0q-.77,0-1.45.09l-1.54.12.25-2.87a2.42,2.42,0,0,0,1.59-.73,3.08,3.08,0,0,0,.42-1.84V150.09a3.43,3.43,0,0,0-.17-1.33.62.62,0,0,0-.6-.34l-.36,0H61a1.51,1.51,0,0,1-.31,0l-.31-.43.28-2.5,1.89.06q.77,0,1.54,0h1.27l1.39,0q.86,0,1.7-.08,1,0,2-.09,9.8,0,9.8,9.3a13.65,13.65,0,0,1-.76,4.68A10,10,0,0,1,77.35,163,9.39,9.39,0,0,1,74,165.22,12.05,12.05,0,0,1,69.5,166Zm-.15-16.66a.56.56,0,0,0-.48.19,1.26,1.26,0,0,0-.17.65q-.16,2.32-.23,4.79t-.08,5.62a2.16,2.16,0,0,0,.23,1.21,1,1,0,0,0,.88.31,3.81,3.81,0,0,0,1.68-.34,2.74,2.74,0,0,0,1.14-1.08,5.51,5.51,0,0,0,.65-1.92,17.41,17.41,0,0,0,.2-2.87,22.35,22.35,0,0,0-.19-3.15,5.59,5.59,0,0,0-.63-2,2.5,2.5,0,0,0-1.17-1.07A4.74,4.74,0,0,0,69.34,149.35Z"/><path class="cls-2" d="M87.64,165.63q-1.2,0-2.36,0l-2.09.11-2.07.15.28-2.84a2.34,2.34,0,0,0,1.59-.76,3.45,3.45,0,0,0,.42-2V149.94a2.47,2.47,0,0,0-.22-1.27,1,1,0,0,0-.87-.31l-.28,0-.25,0h-.28l-.28-.43.25-2.32h5l1.61,0,2.13,0,2.66-.09-.34,3q-.8.09-1.31.2a3.06,3.06,0,0,0-.82.28,1,1,0,0,0-.43.45,2.06,2.06,0,0,0-.15.68q-.06,1.05-.12,2.18t-.11,2.43q0,1.3-.06,2.78t0,3.24a1.56,1.56,0,0,0,.27,1,1.13,1.13,0,0,0,.89.31,4,4,0,0,0,1.38-.2,1.76,1.76,0,0,0,.88-.76,4.22,4.22,0,0,0,.5-1.54q.16-1,.25-2.53l3.9-.4.37.46q-.15,1.17-.28,2.5-.12,1.14-.25,2.64t-.22,3.11l-.46.5-2.87-.09q-1.3-.06-2.92-.09T87.64,165.63Z"/><path class="cls-2" d="M116.93,160.91a3.86,3.86,0,0,0,.7,1.53,1.62,1.62,0,0,0,1.13.54l.22.31-.25,2.44q-.77,0-1.55,0l-1.42,0h-1.39q-1.11,0-2.16,0l-1.88.06-1.85.06-.25-.28.19-2.6,1.11-.15a2.13,2.13,0,0,0,.59-.15.41.41,0,0,0,.23-.26,1.9,1.9,0,0,0,0-.48,2.17,2.17,0,0,0,0-.23c0-.09,0-.2,0-.32l-.19-1.21-1.28,0-1.1,0q-.53,0-1.19,0l-1.28.11-.31,1.39a5.52,5.52,0,0,0-.09.69q0,.41.17.52a1.74,1.74,0,0,0,.79.11h.8l.25.3-.25,2.51q-.83,0-1.67,0l-1.54,0h-3l-1.33,0H97.77l.22-2.63a2.29,2.29,0,0,0,1.58-1.71l4.91-15.57,8.13-.5.46.37q.83,3.37,1.61,6.37.31,1.27.65,2.58t.63,2.5l.54,2.18Q116.74,160.29,116.93,160.91Zm-10.66-4.57h2.33l.85,0-1.05-5.41h-.68Z"/><path class="cls-2" d="M134.33,155.34l-.12-5.66a2.21,2.21,0,0,0-.26-1.07.91.91,0,0,0-.76-.26h-1l-.15-.34.15-2.5,1.92.06,1.68,0,1.53,0,1.41,0,1.39,0,1.5,0-.15,2.78a2.34,2.34,0,0,0-1.37.57,2.09,2.09,0,0,0-.42,1.38l-.4,15.36-5.81.37q-1.3-2.16-2.46-4t-2-3.21q-1-1.58-1.85-2.91h-.4l.09,5.45a2.32,2.32,0,0,0,.28,1.22,1.08,1.08,0,0,0,.93.34h.32l.32,0,.4-.06.28.28-.34,2.69-1.9-.06-1.59,0-1.31,0q-.81,0-1.65,0t-1.55.09l-1.59.12.31-2.84a2.14,2.14,0,0,0,1.31-.57,2.07,2.07,0,0,0,.45-1.38l.37-10.78a3.38,3.38,0,0,0-.09-.87,1.11,1.11,0,0,0-.34-.56,1.64,1.64,0,0,0-.7-.32,11.33,11.33,0,0,0-1.19-.2l-.37-.42.19-2.45q.68.06,1.45.09l1.45,0,1.67,0,1.31,0,1.28,0,1.36-.06q1.05,1.89,2.1,3.65t1.92,3.15l1.92,3Z"/><path class="cls-2" d="M151.51,166l-1.73-.19-1.61-.12q-.86-.06-1.58-.06t-1.42,0q-.77,0-1.45.09l-1.54.12.25-2.87a2.42,2.42,0,0,0,1.59-.73,3.08,3.08,0,0,0,.42-1.84V150.09a3.44,3.44,0,0,0-.17-1.33.62.62,0,0,0-.6-.34l-.36,0H143a1.5,1.5,0,0,1-.31,0l-.31-.43.28-2.5,1.89.06q.77,0,1.54,0h1.27l1.39,0q.86,0,1.7-.08,1,0,2-.09,9.79,0,9.79,9.3a13.67,13.67,0,0,1-.76,4.68,10,10,0,0,1-2.15,3.54,9.4,9.4,0,0,1-3.38,2.24A12.06,12.06,0,0,1,151.51,166Zm-.15-16.66a.56.56,0,0,0-.48.19,1.26,1.26,0,0,0-.17.65q-.16,2.32-.23,4.79t-.08,5.62a2.17,2.17,0,0,0,.23,1.21,1,1,0,0,0,.88.31,3.81,3.81,0,0,0,1.68-.34,2.74,2.74,0,0,0,1.14-1.08,5.47,5.47,0,0,0,.65-1.92,17.3,17.3,0,0,0,.2-2.87,22.42,22.42,0,0,0-.19-3.15,5.57,5.57,0,0,0-.63-2,2.51,2.51,0,0,0-1.17-1.07A4.74,4.74,0,0,0,151.35,149.35Z"/><path class="cls-2" d="M176,160.23a3,3,0,0,0,.25,1.48,1.19,1.19,0,0,0,1.05.37c.23,0,.45,0,.66,0a3.68,3.68,0,0,0,.57-.09l.56-.12.49.56-.4,3.34q-1,0-2,0l-1.67,0-1.39,0q-1.21,0-2.36,0l-2.09.11-2.07.15.28-2.84a2.34,2.34,0,0,0,1.59-.76,3.44,3.44,0,0,0,.42-2l0-10.35a3.71,3.71,0,0,0-.16-1.33.67.67,0,0,0-.68-.34l-.28,0-.25,0a1.15,1.15,0,0,1-.28,0l-.37-.43.28-2.44,2.53.06q1.08,0,2.33,0h2.33q1.33,0,2.63,0l2.44-.08,2.09-.11q.94-.06,1.53-.15l.4.49q-.12,1-.25,2t-.17,2q-.08,1.08-.14,2.16l-4.26.25a2.88,2.88,0,0,1,0-.4c0-.1,0-.22,0-.36s0-.25,0-.36a1.59,1.59,0,0,0-.48-1.34,3.32,3.32,0,0,0-1.84-.36,1.55,1.55,0,0,0-.85.15.85.85,0,0,0-.2.68l-.22,4,2.56,0,.88,0q.54,0,1.07-.08l1.3-.09.37.43-.43,3.55q-.65,0-1.27,0l-1.14,0-1.14,0q-.68,0-1.3.06l-1,.12Z"/><path class="cls-2" d="M193.41,149.87q-.16,2.19-.23,5t-.08,5.87a5,5,0,0,0,.19,1.71.78.78,0,0,0,.8.42h.43a1.31,1.31,0,0,0,.31,0l.25-.06.25.31-.28,2.63-2.1-.06-1.71,0-1.34,0q-.74,0-1.62,0l-1.68.06-1.82.06.25-2.66a4.59,4.59,0,0,0,1-.31,1.63,1.63,0,0,0,.62-.46,1.58,1.58,0,0,0,.29-.69,6,6,0,0,0,.08-1.06V149.93a2.46,2.46,0,0,0-.22-1.26,1,1,0,0,0-.87-.31l-.28,0-.25,0h-.28l-.28-.43.25-2.32h5l1.38,0,1.78,0,2.16-.09-.22,2.78q-.53.09-.87.18a1.28,1.28,0,0,0-.53.26.94.94,0,0,0-.26.45A3.69,3.69,0,0,0,193.41,149.87Z"/><path class="cls-2" d="M204.53,158.59v2.1a8.28,8.28,0,0,0,.06,1.14,1.13,1.13,0,0,0,.29.66,1.22,1.22,0,0,0,.67.31,9,9,0,0,0,1.17.11l.15.25-.31,2.6-2-.06-1.68,0-1.34,0q-.87,0-1.79,0l-1.73.11-1.82.12.28-2.84a2.38,2.38,0,0,0,1.58-.76,3.16,3.16,0,0,0,.43-1.87V149.69a2.35,2.35,0,0,0-.17-1.07.67.67,0,0,0-.63-.29l-.37,0h-.34a2.16,2.16,0,0,1-.37,0l-.31-.37.34-2.41,1.73,0H201l1.51,0q1,0,1.88-.08l2.32-.09q8.53,0,8.53,5.81,0,3.65-3.71,5.84l1.92,3.23q1.61,2.73,3,2.73l.34.49-.28,2.23-4.79.34a3.3,3.3,0,0,1-2.1-.63,5.18,5.18,0,0,1-1.42-2.18l-1.92-4.73ZM207,155a3,3,0,0,0,1.47-1.11,3.86,3.86,0,0,0,.42-2A2.24,2.24,0,0,0,208,150a4.54,4.54,0,0,0-2.66-.61c-.23,0-.37,0-.42.12a1.43,1.43,0,0,0-.11.55q-.09,1.17-.14,2.34t-.08,2.34Z"/><path class="cls-2" d="M225.46,160.23a7.65,7.65,0,0,0,0,1,1.12,1.12,0,0,0,.2.56.74.74,0,0,0,.45.26,4.1,4.1,0,0,0,.8.06,8.88,8.88,0,0,0,1.64-.12,2.08,2.08,0,0,0,1-.48,2.22,2.22,0,0,0,.59-1,10.89,10.89,0,0,0,.36-1.68l3.9-.28.37.46q-.16.9-.31,1.92t-.29,2q-.14,1.14-.26,2.41l-.46.5-3.15-.09q-1.42-.06-3.2-.09t-3.57,0q-1.21,0-2.36,0l-2.09.11-2.07.15.28-2.84a2.34,2.34,0,0,0,1.59-.76,3.44,3.44,0,0,0,.42-2l0-10.35a3.71,3.71,0,0,0-.16-1.33.67.67,0,0,0-.68-.34l-.28,0-.25,0a1.15,1.15,0,0,1-.28,0l-.37-.43.28-2.44,2.53.06q1.08,0,2.33,0h2.33q1.45,0,2.87,0l2.69-.08,2.3-.11q1-.06,1.68-.15l.4.49c-.12.64-.23,1.3-.31,2s-.16,1.26-.23,2-.13,1.46-.17,2.18l-4.26.28a2.94,2.94,0,0,1,0-.43c0-.12,0-.25,0-.37s0-.24,0-.34a2.44,2.44,0,0,0-.12-.85,1,1,0,0,0-.45-.51,2.58,2.58,0,0,0-.93-.26,12.58,12.58,0,0,0-1.53-.08,1.55,1.55,0,0,0-.85.15.85.85,0,0,0-.2.68l-.18,3.49,1.16,0,1.38,0,.91,0q.57,0,1.13-.08l1.36-.09.37.43-.43,3.55q-.68,0-1.33,0l-1.21,0-1.17,0a12.66,12.66,0,0,0-1.28.06l-1,.12q0,.8,0,1.45Z"/><path class="cls-2" d="M242.17,166a13.89,13.89,0,0,1-2.49-.2,16.79,16.79,0,0,1-1.9-.45,12,12,0,0,1-1.7-.68l-.37-.56q.16-.9.28-1.79t.22-1.65q.09-.88.15-1.65l3.89-.28a3.46,3.46,0,0,0,.7,2.41,2.64,2.64,0,0,0,2,.74,2.81,2.81,0,0,0,1.5-.34,1,1,0,0,0,.54-.93,1.29,1.29,0,0,0-.37-.9,3.8,3.8,0,0,0-1-.74,15.69,15.69,0,0,0-1.42-.67l-1.62-.7a17,17,0,0,1-1.73-.9,7.58,7.58,0,0,1-1.51-1.17,5.21,5.21,0,0,1-1.08-1.58,5.1,5.1,0,0,1-.4-2.1,5.45,5.45,0,0,1,.68-2.7,6.19,6.19,0,0,1,1.93-2.09,9.78,9.78,0,0,1,3-1.34,14.81,14.81,0,0,1,3.89-.48,18.33,18.33,0,0,1,2.36.14q1.07.14,1.87.29a14.21,14.21,0,0,1,1.67.43l.37.68q-.18.77-.34,1.64t-.28,1.72q-.12,1-.22,2l-3.58.25-.37-.25v-.49q0-2.16-2.26-2.16a2.37,2.37,0,0,0-1.41.39,1.18,1.18,0,0,0-.54,1,1.24,1.24,0,0,0,.32.83,3.6,3.6,0,0,0,.87.7,9.71,9.71,0,0,0,1.24.62l1.47.6q.93.4,1.87.88a7.87,7.87,0,0,1,1.7,1.16,5.59,5.59,0,0,1,1.24,1.61,4.8,4.8,0,0,1,.48,2.22,5.46,5.46,0,0,1-.66,2.7,5.88,5.88,0,0,1-1.92,2,9.7,9.7,0,0,1-3,1.28A16.78,16.78,0,0,1,242.17,166Z"/><path class="cls-3" d="M62,138.25H53.1V101.93l-8.46.19V95.69L62,92.59Z"/><path class="cls-3" d="M102.12,138.25h-27v-6l12.44-15.76a33.23,33.23,0,0,0,3.56-6.12,12.51,12.51,0,0,0,1.08-4.74,8.73,8.73,0,0,0-1.13-4.71,3.63,3.63,0,0,0-3.26-1.79,3.67,3.67,0,0,0-3.37,2.17,11.94,11.94,0,0,0-1.18,5.7H74.63l-.06-.16a15.25,15.25,0,0,1,3.51-10.51A12.14,12.14,0,0,1,87.86,92q6.27,0,9.78,3.63t3.51,9.9a15.91,15.91,0,0,1-2,7.77,71.87,71.87,0,0,1-6.53,9.34l-6,8.52h15.42Z"/><path class="cls-3" d="M134,99.77A44.67,44.67,0,0,0,125.8,115a103.3,103.3,0,0,0-2.93,18.85l-.41,4.39h-8.93l.44-4.39a81,81,0,0,1,3.65-18.76,54.73,54.73,0,0,1,7.85-15.37H106.22V92.62H134Z"/></g></g></svg>