<svg xmlns="http://www.w3.org/2000/svg" viewBox="0 0 204.15 135.47"><defs><style>.cls-1{fill:#ab1e41;stroke:#ab1e41;stroke-miterlimit:10;stroke-width:10.03px;}.cls-2{fill:#6cafe0;}.cls-3{fill:#fff;}</style></defs><title>Asset 8</title><g id="Layer_2" data-name="Layer 2"><g id="by_the_numbers" data-name="by the numbers"><polygon class="cls-1" points="179.84 109.24 149.26 12.68 123.78 59 99.77 42.79 76.22 91.22 45.17 68.53 16.96 117.03 8.93 130.28 187.56 129.35 179.84 109.24"/><polygon class="cls-2" points="155.09 67.49 190.11 67.49 172.6 40.06 155.09 67.49"/><polygon class="cls-2" points="150.01 89.17 195.19 89.18 172.6 53.77 150.01 89.17"/><polygon class="cls-2" points="146.75 110.53 198.44 110.53 172.6 70.04 146.75 110.53"/><polygon class="cls-2" points="141.32 135.14 204.15 135.15 172.6 85.92 141.32 135.14"/><polygon class="cls-2" points="142.65 88.41 166.22 88.64 154.8 70.06 142.65 88.41"/><polygon class="cls-2" points="138.95 102.96 169.35 103.26 154.62 79.29 138.95 102.96"/><polygon class="cls-2" points="136.48 117.31 171.26 117.65 154.4 90.24 136.48 117.31"/><polygon class="cls-2" points="131.9 135.03 175.42 135.47 154.93 102.14 131.9 135.03"/><polygon class="cls-3" points="159.66 45.52 153.56 42.52 153.56 50.62 147.29 43.29 141.69 50.62 139.65 42.52 129.75 48.16 149.26 12.68 159.66 45.52"/><polygon class="cls-3" points="107.89 50.62 104.21 53.32 104.21 62.57 102.4 57.05 97.3 62.57 96.03 57.05 88.6 62.57 99.77 42.79 107.89 50.62"/><polygon class="cls-3" points="57.03 74.31 53.11 79.07 53.7 86.89 45.64 77.96 41.61 82.05 35.69 82.79 44.95 67.49 57.03 74.31"/></g></g></svg>