<svg xmlns="http://www.w3.org/2000/svg" viewBox="0 0 79.04 237.06"><defs><style>.cls-1{fill:#ab1d40;}</style></defs><title>Asset 5</title><g id="Layer_2" data-name="Layer 2"><g id="by_the_numbers" data-name="by the numbers"><path class="cls-1" d="M63.76,73.77,79,42.69l-15.8,4.74s-2.11-6.84-3.16-8.16-5-1.58-8.16-2.89-3.43-3.43-4.74-5.27c0,0-1.85-5.8-.53-7.64s.53-6.06-.26-7.11S48,17.94,45.06,10s-5-10.27-13.7-10S19,15.83,19.25,20s4.47,5.53-.27,9.49-.79,10.53-.79,10.53-6.05-2.39-8.95,1.56S-.5,73.76,0,80.61s12.9,8.69,12.9,8.69c0,3.69-2.11,22.92-2.11,22.92l1.58,2.11c-1.32,2.9,2.37,50.58,2.37,50.58s5.8-1.32,3.69,1.58,6.32,40.3,7.64,45.33-1.58,15.78-1.58,15.78c0,4.48,5.53,9.49,5.53,9.49,2.9-.79,5.79-5.79,5.79-5.79.53,2.63,5.53,5.27,5.53,5.27l3.16-4.22c1.58-2.11.27-17.65-.27-20.52s.53-9.51.53-9.51C49.28,189.39,53,166,53,166l2.9-.79c1.32-2.64,3.42-53.21,3.42-53.21l3.43-1.58c-1.58-.79-2.9-23.71-2.9-23.71C65.34,86.93,63.76,73.77,63.76,73.77ZM16.35,75.08H13.46s-.53-8.43,1.32-10.28C14.78,64.8,16.89,71.39,16.35,75.08ZM36.9,165.95c-1.84,1.58.27,39-.79,41.36s0,14.75-.79,13.69-1.58-9.2-1.32-9.2S33,205.72,33,205.72c1.06-6.08-.26-39.51-.26-39.51S38.74,164.37,36.9,165.95Z"/></g></g></svg>